<?xml version="1.0" encoding="utf-8"?>
<!-- Generator: Adobe Illustrator 27.9.0, SVG Export Plug-In . SVG Version: 6.00 Build 0)  -->
<svg version="1.1" id="Layer_1" xmlns="http://www.w3.org/2000/svg" xmlns:xlink="http://www.w3.org/1999/xlink" x="0px" y="0px"
	 viewBox="0 0 180 100" style="enable-background:new 0 0 180 100;" xml:space="preserve">
<style type="text/css">
	.st0{opacity:0.3;fill:none;stroke:#7E85B1;stroke-width:0.5;stroke-linejoin:round;}
	.st1{opacity:0.3;fill:none;stroke:#BCFD42;stroke-width:0.5;stroke-linejoin:round;}
</style>
<path class="st0" d="M16.9,0v0.5l-0.3,0.6l-0.3,0.5l0.3,1l0.6-0.2L17.7,2l0.1-0.3l-0.1-1.1V0"/>
<path class="st0" d="M16.5,0v0.5l0,0l-0.6,1l-0.6,0l-0.1,0.1l-0.5,0.5l-0.6,0.3l-0.6-0.3l-0.2-0.5L13.6,1l0.2-0.5V0"/>
<path class="st0" d="M11.5,0v0.5l-0.2,0.4l-0.6,0.4l-0.2,0.3l-0.4,0.6L10,2.7L9.6,3.4L9,3.4L8.4,2.7l0,0l0,0l0.2-1L9,1.2l0.6-0.4
	l0.2-0.2V0"/>
<path class="st0" d="M16,2.9l0.2-0.2L16,2.4l-0.6-0.3l-0.5,0.6l0.5,0.7L16,2.9z"/>
<path class="st0" d="M11.5,0v0.5l-0.2,0.4l-0.6,0.4l-0.2,0.3l-0.4,0.6L10,2.7L9.6,3.4L9,3.4L8.4,2.7l0,0l0,0l0.2-1L9,1.2l0.6-0.4
	l0.2-0.2V0"/>
<path class="st0" d="M16,2.9l0.2-0.2L16,2.4l-0.6-0.3l-0.5,0.6l0.5,0.7L16,2.9z"/>
<path class="st0" d="M9.7,2.7L9.6,2.9L9,3.1L8.7,2.7l0.2-1.1L9,1.4L9.6,1l0.6,0.6L9.7,2.7z"/>
<path class="st0" d="M9.1,5.9L9,6.1L8.8,5.9L9,5.5L9.1,5.9z"/>
<path class="st0" d="M9.1,5.9L9,6.1L8.8,5.9L9,5.5L9.1,5.9z"/>
<path class="st0" d="M17.7,6L17.7,6V5.9l-0.6,0l-0.2,0L17.1,6H17.7z"/>
<path class="st0" d="M21.4,0v0.5l0.2,1.1l0.1,0.7l0.1,0.4l0.5,0.4l0.6-0.3L23,2.7l0.5-0.3l0.6,0l0.2,0.3l0,1.1l-0.3,0.4l-0.6,0.5
	l-0.2,0.3l-0.4,0.5l-0.6,0.4l-0.2,0.2l-0.3,0.2l-0.4-0.2l-0.2-0.1l-0.5-1l0-0.1l-0.4-1l0.2-1.1l0.2-1l0-0.1L21,0.5V0"/>
<path class="st0" d="M27,7.1L27,7.1l0.6-0.8L28.2,6l0.4-0.1l-0.4-0.1l-0.6-0.1L27,5.8l-0.1,0.1L27,7.1L27,7.1z"/>
<path class="st0" d="M27,7.7L27.5,7l0.1-0.1l0.6-0.5l0.6-0.2l0.5-0.4l-0.5-0.3l-0.6-0.2l-0.6-0.1L27,5.6l-0.6,0.3l-0.1,0L26.4,6
	l0.2,1L27,7.7z"/>
<path class="st0" d="M30.6,7l-0.1,0.4L30,7l0.5-0.3L30.6,7z"/>
<path class="st0" d="M13.7,8.1L13.7,8.1L13.7,8.1L13.7,8.1L13.7,8.1z"/>
<path class="st0" d="M14.5,9.1l-0.3,0.1l-0.1-0.1l-0.5-0.6l-0.5-0.4l0.5-0.3L14.2,8l0.1,0L14.5,9.1z"/>
<path class="st0" d="M28.8,9.1L28.8,9.1l-0.6,0.3l-0.5-0.3l0.5-0.6L28.7,9L28.8,9.1z"/>
<path class="st0" d="M29,10.2l-0.3,0.2l-0.6,0.1l-0.6,0l-0.4-0.3L27,9.7l-0.2-0.5L27,8.5l0.1-0.5l0.5-0.8L28.1,7l0,0l0.6-0.1
	l0.6-0.3L29.9,6l0,0l0.5-0.6l0.6-0.1l0.6,0l0.3,0.7l-0.3,0.4l-0.6,0.6L31,7l-0.3,1.1l-0.2,0.4l-0.5,0.7l0,0.1l-0.6,0.7L29,10.2z"/>
<path class="st0" d="M36.7,0v0.5l-0.4,0.2l-0.6,0.6l-0.3,0.2l-0.3,0.2l-0.6,0.4l-0.2,0.5L34,2.9l-0.4-0.2l-0.2-0.8l0-0.2L32.8,1
	l-0.6-0.4l-0.6,0.3l-0.3,0.7l-0.3,0.5l-0.6,0.4L30,2.7l-0.1,0l-0.6,0.6L29,3.8l-0.3,0.5l-0.6-0.1l-0.6,0L27,4.5l-0.6,0.1l-0.5-0.8
	l-0.1-0.1l-0.3,0.1l-0.2,0.1l-0.4,1l-0.1,0.5l-0.4,0.6l-0.1,0.6L23.9,7l-0.4,1.1l0.6,0.4l0.6,0.7l0,0l0,0.2l-0.1,0.9l-0.4,0.3
	l-0.6,0l-0.6-0.2l-0.2-0.1l-0.3-0.3l-0.5,0.3l-0.1,0.1l-0.6,0.4l-0.6-0.3l-0.5-0.2L20,10.2l-0.2,0.1l-0.4,0.2l-0.2-0.2l0.1-1.1
	l0.1-0.1L20,8.6l0.6-0.3l0.2-0.2L21.1,7l-0.5-0.8l-0.2-0.3L20,5.3l-0.5-0.5l0-1.1l0.3-1.1L20,1.6l-0.1-1.1V0"/>
<path class="st0" d="M28.2,10.2L28.2,10.2H28l-0.4-0.1l-0.4-1l0.3-1.1l0.2-0.3l0.6-0.3l0.6,0l0.6,0L29.9,7l0.4,1l-0.4,0.5l-0.4,0.6
	l-0.2,0.2L28.7,10L28.2,10.2z"/>
<path class="st0" d="M17.1,11.5l0.1-0.2l-0.1-0.1l-0.4,0.1L17.1,11.5z"/>
<path class="st0" d="M37.5,0v0.5l0,0L36.9,1l-0.6,0.3L36,1.6l-0.3,0.6l-0.6,0.5l0,0l-0.5,0.5L34,3.5l-0.6-0.3l-0.3-0.5l-0.3-1
	l-0.1-0.1l-0.5-0.3L32,1.6l-0.3,0.6l-0.3,0.4l-0.2,0.2L30.5,3l-0.6,0.4l-0.3,0.4l0.2,1.1l-0.5,0.5l-0.6-0.2L28.2,5l-0.6,0L27,5.2
	l-0.6,0.2L26,4.8l-0.1-0.2l-0.6,0.2l0,0l0,1.1l0,0.1l0.6,0.4L26.1,7l-0.3,0.6l-0.6,0l-0.3,0.5L25,9.1L25,10.2l-0.3,0.7l-0.6,0.4
	L23.5,11l-0.6-0.2l-0.6-0.2l-0.6,0.5l-0.3,0.2l-0.3,0.2l-0.4-0.2l-0.2-0.1l-0.6,0l-0.1,0.1l-0.5,0.8l-0.3,0.3l-0.2,0.1l-0.1-0.1
	l0-1.1l-0.4-0.7L18,10.2l-0.3-0.5l-0.6-0.5l0-0.1l-0.2-1.1l0.3-0.2l0.6,0l0.5,0.2l0.1,0.2l0.6,0.5l0.6-0.5l0.2-0.1L20,7.8l0.6-0.7
	l0-0.1l0-0.1L20,6l-0.1-0.1l-0.5-0.4l-0.6-0.3l-0.3-0.4l0.3-0.6L19,3.8l0.4-1l0-0.1l0-0.4l-0.1-0.6l-0.3-1.1V0"/>
<path class="st0" d="M37.8,0v0.5l-0.4,0.6l-0.6,0.3l-0.4,0.2l-0.2,0.2l-0.5,0.9l-0.1,0.1l-0.6,0.5l-0.6,0.4l-0.4,0.2L34,3.9
	l-0.2-0.1l-0.4-0.2l-0.5-0.9l-0.1-0.2L32.2,2l-0.4,0.7L31.6,3l-0.6,0.3l-0.6,0.1L30,3.8l0.5,0.7l0.6,0.2l0.6,0l0.1,0.2l0.4,1.1
	l-0.5,0.7L31.3,7l-0.3,0.5l-0.2,0.6l-0.4,0.7l-0.3,0.3l-0.3,0.4l-0.6,0.7l0,0l-0.5,0.4l-0.6,0.1l-0.6,0L27,10.3l0-0.1l-0.3-1.1
	l0-1.1l-0.2-0.5l-0.2,0.5l-0.4,0.2l-0.6,0.9l0,0.2l-0.1,0.9l-0.4,1.1l-0.1,0.2l-0.6,0.3l-0.6-0.5l0,0l-0.6-0.1l-0.6-0.1l-0.2,0.2
	l-0.3,0.4L21.2,12l-0.6,0.1l-0.3,0.3l0.3,0.4l0.2,0.7L20.6,14L20,14.2l-0.6-0.5l-0.5-0.2l-0.1,0l0,0l-0.6,0.2l-0.6,0.2l-0.6,0
	l-0.2-0.4l0.2-0.3l0.6-0.4l0.2-0.4l0.2-1.1l-0.5-0.6l-0.6-0.4l0,0l-0.6-0.8l-0.1-0.3l0-1.1l0.2-0.2l0.6-0.5l0.6,0l0.6,0.2L18.9,8
	l0.6-0.4L20,7.4L20.3,7L20,6.6l-0.6-0.6l-0.6,0l0,0l-0.6-0.7L17.7,5l-0.6,0.1l-0.6,0.1l-0.6,0l-0.4-0.3L16,4.4l0.6-0.4l0.2-0.2
	l0.4-0.1l0.6,0l0.6,0l0.6-0.3l0.3-0.6l-0.3-1.1l0,0l-0.2-1.1V0"/>
<path class="st0" d="M26.5,21l-0.1,0.1l-0.6,0.3L25.5,21l0.3-0.3l0.6,0.2L26.5,21z"/>
<path class="st0" d="M29.5,22.1l-0.2,0.3l-0.6,0.4l-0.6,0.1l-0.6-0.2L27,22.2l-0.4-0.1l-0.2-0.1l-0.5,0.1l-0.1,0l0,0l-0.6-0.4L25,21
	l0.2-0.4l0.6-0.4l0.6,0.2l0.6,0.3l0.6,0l0.6,0l0.6,0.1l0.1,0.1l0.5,0.8L29.5,22.1z"/>
<path class="st0" d="M28.7,22.1l-0.5,0.2l-0.6-0.2l0,0l0,0l0.6-0.7L28.7,22.1z"/>
<path class="st0" d="M30.2,23.1l-0.3,0.3l-0.6,0l-0.6,0.2l-0.6,0l-0.6-0.1l-0.4-0.5L27,23l-0.6,0.1l-0.1,0l-0.5,0.2l-0.3-0.2
	l-0.3-0.2l-0.6-0.8l-0.1-0.1l0-1.1l0.1-0.2l0.5-0.8l0,0l0.6-0.2l0.6,0.1l0.1,0.1l0.5,0.4l0.6,0.1l0.6,0l0.6,0.1l0.6,0.3l0.2,0.1
	l0.4,0.5l0.4,0.6L30.2,23.1z"/>
<path class="st0" d="M29.1,23.1l-0.4,0.2l-0.6,0l-0.5-0.2l-0.1,0L27,22.7l-0.6-0.1l-0.6,0.2l-0.6-0.4L25,22.1L24.8,21l0.5-0.8
	l0.4-0.3l0.2-0.1l0.2,0.1l0.4,0.1l0.6,0.4l0.6,0.1l0.6,0l0.6,0.1l0.5,0.3l0,0.1l0.6,0.8l0.1,0.2l-0.1,0.6L29.3,23L29.1,23.1z"/>
<path class="st0" d="M32.1,24.2l-0.5,1.1l-0.6-0.1l-0.6-0.6l-0.6-0.1l-0.6-0.2l-0.6,0.1l-0.6,0.1l-0.6,0.2L27,24.2l-0.1,0l-0.5-0.1
	l-0.5,0.1l-0.1,0l0,0l-0.6-0.4l-0.5-0.7l-0.1-0.1l-0.6-0.6l-0.2-0.4l0.2-0.8l0.1-0.3l0.5-1l0-0.1l0.5-0.4l0.6-0.1l0.6,0.1l0.6,0.4
	l0,0l0.6,0.2l0.6,0.1l0.6,0.1l0.6,0.2l0.6,0.4L30,21l0.5,0.8l0.2,0.3l0.4,0.8l0.6,0.1l0.1,0.1L32.1,24.2z"/>
<path class="st0" d="M31.9,24.2l-0.3,0.6l-0.6-0.2l-0.6-0.4l0-0.1l-0.6-0.1l-0.6-0.2L28.7,24L28.2,24l-0.6,0L27,23.5l-0.6,0.1
	l-0.6,0.2l-0.6-0.4l-0.2-0.3l-0.4-0.5l-0.5-0.6l0.1-1.1l0.3-0.6l0.3-0.4l0.3-0.2l0.6-0.2l0.6,0.1l0.4,0.3l0.2,0.2l0.6,0.2l0.6,0
	l0.6,0.1l0.6,0.2l0.4,0.3l0.1,0.2l0.6,0.8l0,0.1l0.3,1.1l0.2,0.4l0.6-0.2L31.9,24.2z"/>
<path class="st0" d="M32.3,25.3L32.3,25.3l-0.6,0.3l-0.6,0l-0.3-0.4L30.5,25l-0.6-0.2l-0.6,0L28.7,25l-0.6,0.2l-0.4,0.2l-0.1,0.1
	l-0.1-0.1L27,25.1l-0.6-0.4l-0.6,0.2l-0.6-0.3l-0.1-0.3l-0.5-0.6l-0.5-0.5l-0.1-0.1l-0.4-1l0.2-1.1l0.2-0.4l0.4-0.7l0.2-0.2l0.6-0.3
	l0.6-0.1l0.6,0.1l0.6,0.4l0.3,0.2l0.3,0.1l0.6,0.1l0.6,0.1l0.6,0.2l0.6,0.3l0.2,0.2l0.4,0.5l0.4,0.5l0.2,0.5l0.6,0.3l0.3,0.3
	l0.3,0.8l0.1,0.2L32.3,25.3z"/>
<path class="st0" d="M32.3,25.3L32.3,25.3l-0.6,0.3l-0.6,0l-0.3-0.4L30.5,25l-0.6-0.2l-0.6,0L28.7,25l-0.6,0.2l-0.4,0.2l-0.1,0.1
	l-0.1-0.1L27,25.1l-0.6-0.4l-0.6,0.2l-0.6-0.3l-0.1-0.3l-0.5-0.6l-0.5-0.5l-0.1-0.1l-0.4-1l0.2-1.1l0.2-0.4l0.4-0.7l0.2-0.2l0.6-0.3
	l0.6-0.1l0.6,0.1l0.6,0.4l0.3,0.2l0.3,0.1l0.6,0.1l0.6,0.1l0.6,0.2l0.6,0.3l0.2,0.2l0.4,0.5l0.4,0.5l0.2,0.5l0.6,0.3l0.3,0.3
	l0.3,0.8l0.1,0.2L32.3,25.3z"/>
<path class="st0" d="M59.1,0v0.5l0.3,1.1l-0.2,1.1L59.5,3l0.6,0.3l0.3,0.4L60.7,4L61.3,4l0.6-0.2l0.1-0.1l0.5-0.1L63,3.8l0,0l0.3,1
	l0.2,1.1l0.1,0.1l0.6,0.5L64.3,7l0.4,0.4l0.6,0.5l0.2,0.2l0.4,0.2l0.6,0l0.6-0.1l0.6,0l0.5-0.1L68.2,8l0.6-0.5l0.6-0.3L69.8,7
	L70,6.8l0.6-0.4l0.6-0.3l0.6-0.1l0.6,0.2l0.6,0.3l0.6,0.3L74,7l0.6-0.2l0.6-0.4l0.6-0.4l0,0l0.6-0.6L76.9,5l0.6,0.1l0.6,0.1l0.6-0.1
	l0.6,0l0.3-0.2l0.3-0.1L80,4.8l0.4,0.2L81,5.2L81.6,5l0.6-0.1l0.3-0.1l-0.3-1.1l0,0l-0.1-1.1l0.1-0.1l0.6-0.2l0.6-0.1l0.6-0.2
	l0.6-0.2L85.1,2l0.6,0.1l0.6,0.1l0.6,0.3L87,2.7L87.4,3L88,3.2l0.3,0.5L88,4.5l-0.3,0.3L88,5.1l0.6,0.7l0.2,0.1l0.3,0.2l0.3-0.2
	l0.2-0.1l0.6-0.2l0.6,0.1l0.3,0.2L91.1,7l0.3,0.1l0.6,0l0.6,0l0.6,0.1l0.6,0.2l0.6,0.3L94.9,8l0.1,0l0.5,0.2l0.6,0.2l0.6,0.1
	l0.6,0.1l0.6,0.1l0.6,0L99,8.6l0.5,0.5L99,9.5l-0.6,0.4L98,10.2l0.1,1.1l0.2,0.3l0.5,0.8l0,1.1l0.1,0.4l0.6,0.3l0.6-0.2l0.6-0.2
	l0.6-0.1l0.6-0.2l0,0l0.6-0.6l0.3-0.5l0.3-0.4l0.6-0.3l0.6-0.3l0.6,0l0.6,0.3l0.6,0.6l0.3,0.2l0.3,0.3l0.6,0.2l0.6,0.5l0,0l0.6,0.7
	l0.3,0.4l0.2,0.2l0.6,0.3l0.6,0.4l0.4,0.2l0.2,0.1l0.6,0l0,0l0.6-0.5l0.6-0.3l0.6-0.1l0.6,0.1l0.6,0.4l0.3,0.4l0.3,0.7l0.2,0.3
	l0.4,0.3l0.6,0.5l0.3,0.3l0.3,0.6l0.4,0.5L117,19l0.6,0.6l0.3,0.4l0.3,0.4l0.5,0.7l0.1,0.1l0.2-0.1l0.4-0.2l0.6,0l0.4,0.3l0.2,0.3
	l0.5,0.8l0.1,0.1l0.1-0.1l0.4-0.4l0.6-0.4l0.6,0.1l0.6,0.1l0.6-0.1l0.6-0.1l0.6-0.1l0.6,0l0.6-0.3l0.1-0.1l0.5-0.8l0.6-0.3l0,0
	l0.6-0.5l0.6-0.5l0.2-0.1l0.1-1.1l-0.4-0.1l-0.6-0.3l-0.6-0.3l-0.6-0.2l0,0l-0.6-0.3l-0.5-0.8l0,0l-0.6-0.1l-0.6-0.2l-0.6-0.2
	l-0.6,0.1l-0.6,0l-0.6-0.1l-0.6-0.4l-0.1-0.1l-0.5-0.6l-0.3-0.4l-0.3-1l0-0.1l-0.1-1.1l0.1-0.3l0.6-0.8l0,0l0,0l0.6,0.3l0.6,0.3
	l0.6,0.3l0.5,0.2l0.1,0l0.6,0.1l0.6,0.1l0.6,0.1l0.6,0.1l0.6,0.2l0.6,0.1l0.6,0.3l0.1,0.1l0.5,0.3l0.6-0.1l0.6-0.2l0.1,0l0.4,0
	l0.1,0l0.5,0.5l0.6,0.5l0.2,0.1l0.4,0.2l0.3-0.2l0.2-1.1l0,0l0.6-0.2l0.4,0.2l0.2,0.2l0.6,0.3l0.6-0.5l0.6,0l0.6,0.3l0.6,0.2
	l0.6,0.1l0.6-0.4l0.6-0.1l0.6,0l0.6,0.3l0.5,0.6l-0.2,1.1l-0.3,0.9l-0.1,0.2l-0.5,1l-0.1,0.1l0.1,0.1l0.6,0.3l0.6,0.1l0.6,0l0.6,0.2
	l0.6,0l0.6-0.2l0.6-0.2l0.6,0.1l0.6,0.2l0.6-0.1l0.6,0l0.6-0.3l0.1-0.3l-0.1-0.6l0-0.5l0-0.2l0.1-0.8l0.3-1.1L146,13l0.4-0.6
	l0.1-0.1l0.6-0.9l0.1-0.1l0.5-0.6l0.6,0l0.5,0.6l0,0.1l0.6,1l0,0l0.6,0.3l0.6,0.3l0.4,0.5l0.2,0.2l0.4,0.9l0.2,1.1l0,0l0.6,0.4
	l0.6,0.5l0.1,0.1l0.4,1.1l0.1,0.7l0.1,0.4l0.4,1.1l0.1,0.1l0.4,1l0.1,0.2l0.6,0.3l0.5,0.6l0.1,0.1l0.6,0.6l0.3,0.4l0.3,0.4l0.5,0.7
	l0.1,0.3l0.6,0.7l0.1,0.1l-0.1,0.1l-0.6,0.5l-0.6,0.1l-0.6-0.2l-0.6-0.5l-0.1-0.1l-0.5-0.3l-0.6-0.3l-0.4-0.5l-0.2-0.1l-0.6-0.5
	l-0.5-0.5l-0.1,0l-0.6-0.1l-0.6-0.2l-0.5-0.8l-0.1-0.2l-0.5-0.9l-0.1-0.1l-0.5-1l0-0.1l-0.6-0.5l-0.6-0.3l-0.2-0.2l-0.3-0.2
	l-0.6-0.2l-0.5,0.4l0.5,0.6l0.1,0.4l0.2,1.1l0.2,1.1l0.1,1l0,0.1l0,0.1l-0.1,1l-0.5,1l-0.4,0.1l-0.2,0.1l-0.2-0.1l-0.4-0.1l-0.6-0.1
	l-0.6,0.1l-0.1,0.1l-0.5,0.4l-0.6,0.3l-0.6,0l-0.6,0l-0.6,0.2l-0.1,0.1l-0.5,0.4l-0.6,0.1l-0.6,0l-0.6-0.1l-0.6-0.1l-0.4-0.2
	l-0.2-0.2l-0.3,0.2l-0.2,0.1l-0.6,0.3l-0.6,0.1l-0.6,0.5l0,0.2l-0.1,1.1l-0.4,0.5l-0.6,0.2l-0.6-0.2l-0.6,0.2l-0.2,0.3l-0.3,0.5
	l-0.6,0.5l0,0.1l0,0.1l0.6,0.1l0.6,0l0.6,0.3l0.5,0.5l0,1.1l-0.5,0.5l-0.6,0.3l-0.6-0.4l-0.3-0.4l-0.3-0.7l-0.6,0l-0.2,0.7l-0.4,0.3
	l-0.4-0.3l-0.2-0.2l-0.5-0.9l0.5-0.9l0.2-0.2l0.3-0.7l0.1-0.4l0.3-1.1l-0.5-0.2l-0.6,0.1l-0.6,0l-0.6,0l-0.6,0l-0.5,0.2l-0.1,0.2
	l-0.6,0.3l-0.6,0.2l-0.1,0.4l-0.5,0.5l-0.2,0.6l-0.3,0.7l-0.6,0.3l-0.6,0l-0.2,0.1l-0.4,0.4l-0.3,0.7l-0.3,0.4l-0.6,0.1l-0.6,0
	l-0.6-0.1l-0.6-0.3l-0.3-0.2l-0.3-0.3l-0.6-0.8l0-0.1l-0.6-0.3l-0.6-0.7l0,0l-0.5-0.3l-0.6-0.2l-0.6-0.4l-0.2-0.2l-0.4-0.3l-0.1,0.3
	l-0.1,1.1l0.2,1.1l0,0l0.6,0.3l0.6,0.3l0.5,0.5l0,1.1l0,0l0,0l-0.6,0.8l-0.6,0l-0.3,0.3l-0.3,0.2l-0.6,0.1l-0.2-0.3l-0.3-1.1l0,0
	l-0.4,0l-0.2,0.1l-0.6,0.8l-0.6,0.1l-0.6-0.2l-0.6-0.7l-0.2-0.1l-0.3-0.1l-0.6,0l-0.1,0.1L112,35l-0.2,0.4l-0.5,0.7l-0.1,0.1l-0.6,0
	l-0.6,0l-0.6,0l0,0l-0.6-0.2l-0.6,0l-0.2,0.2l-0.3,0.6l-0.5,0.5l0.5,0.4l0.6,0.3l0.5,0.4l-0.5,1l-0.6-0.3l-0.6,0.1l-0.4,0.3
	l-0.1,0.1l-0.5,1l-0.1,0.1l-0.6,0.5l-0.6-0.5l-0.1-0.1l-0.4-1.1l0.5-1.1l0-0.1l0.6-0.5l0.6-0.3l0.5-0.2L106,36l0-0.1l-0.5-1l0,0
	l-0.6,0l-0.6-0.1l-0.5,0.2l-0.1,0l-0.6,0.4l-0.6,0l-0.4-0.4l-0.2-0.6l-0.6-0.4l-0.6,0l0,0l0,0l0.6,0l0.6-0.2l0.5-0.9l0.1-0.4
	l0.1-0.7l0.5-0.7l0.6,0.1l0.6-0.1l0.3-0.3l0.3-0.4l0.6-0.2l0.6,0l0.5-0.5l0.1-0.1l0.6-0.4l0.6,0.2l0.4,0.3l0.2,0.1l0.6,0.8l0.2-0.9
	l0.3-0.5l0.6-0.5l0.1-0.1l0.3-1.1l0-1.1l0.2-1.1l0.1-0.9l0-0.2l0-0.5l-0.1-0.5l0.1-0.4l0.1-0.7L111,21l-0.1-1.1l-0.2-0.2l-0.6-0.2
	l-0.6-0.6l0,0l-0.6-0.7l-0.2-0.4l-0.3-0.1l-0.6-0.1l-0.6,0l-0.6,0.2l0,0.1l-0.3,1.1l-0.2,0.4l-0.6,0.6l-0.6-0.5l-0.6-0.2l-0.6,0.4
	l-0.6,0.3l-0.6,0l-0.6-0.1l-0.6,0l-0.1,0.1l-0.5,0.9l-0.6,0.2l0,0l-0.6,0.2L99,21.5l-0.6-0.3L97.9,21l-0.1-0.1l0,0.1l-0.4,1.1
	l-0.2,0.4L97,23.1l-0.3,0.6l-0.5,0.5l-0.1,0.4L96,25.3l-0.5,0.3l-0.6,0.6l-0.6,0l-0.5-0.9l0-0.1l-0.1,0.1l-0.5,0.6l-0.1,0.5l0.1,0.2
	l0.6,0.2l0.5,0.6L94,28.5l-0.2,0.3l-0.6,0.1l-0.6-0.2L92,28.6l-0.6,0.2l-0.6,0.6l-0.3,0.3l-0.3,0.3l-0.4-0.3l-0.2-0.1l-0.6-0.4
	l-0.6,0.2l-0.2,0.2L88,30l-0.4,0.7l0.3,1.1l-0.3,1.1l0.2,1.1l-0.3,0.8l-0.6,0l-0.6-0.3l-0.6-0.4l-0.2-0.2l-0.4-0.3l-0.6,0l-0.6,0
	l-0.6-0.1l-0.6-0.2l-0.5-0.4l-0.1-0.1l-0.6-0.2l-0.5-0.8L81,31.3l-0.1-0.6l-0.4-1.1l0,0l-0.1,0l-0.5,0.1l-0.6,0L78.7,30l-0.6,0.6
	l-0.6-0.4L77,29.6l-0.1,0l-0.6-0.3l-0.6-0.4l-0.2-0.4l0.2-0.1l0.5-1l0.1-0.2l0.6-0.3l0.6,0.1l0.4,0.3l0.1,0.1l0.6,0.5l0.6,0.1
	l0.6-0.1l0.6-0.4l0.1-0.3l0.5-0.8l0.6-0.1l0.6-0.1l0.6-0.1l0.2-0.1l-0.2-0.2l-0.6-0.5l-0.6,0.1L81,26.1l-0.6-0.3l-0.3-0.6l-0.3-0.2
	L79.3,25l-0.6-0.2l-0.6-0.5l0-0.4l-0.2-0.7l-0.4,0L76.9,23l-0.6-0.1l-0.6,0L75.2,23l-0.4,0.2l-0.2,0.1L74,23.6l-0.6,0.2l-0.6-0.1
	l-0.6-0.1l-0.6-0.3l-0.2-0.2l-0.4-0.6l-0.6-0.3l-0.6,0l-0.3-0.2L69.5,21l0.4-1.1l0.1-0.4l0.1-0.7L70,17.8l0-0.1l-0.5-1l0.5-0.6
	l0.6-0.4l0,0l0.3-1.1l0.3-0.6l0.1-0.5l0.4-1.1l-0.6-1L70.5,12l-0.3,0.4L70,13.2l-0.1,0.2l-0.3,1.1l-0.2,0.2l-0.6,0l-0.1-0.2
	l-0.1-1.1L68.2,13l-0.6-0.3l-0.6,0l-0.6,0.4l-0.6,0.1L65.3,13L64.7,13l-0.6,0l-0.6,0L63,13.1l-0.6,0.2l-0.5,0.2l0.5,0.6l0.2,0.5
	l0.2,1.1L62.4,16L61.8,16l-0.6-0.2l-0.6-0.2l0,0l-0.5-1l-0.6,0.3l-0.6,0.3l-0.6,0.4l0,0l0,0.1l0.2,1l-0.2,0.5l-0.1,0.6l0.1,0.4
	l0.1,0.6l-0.1,1.1L58.4,20l-0.6,0.5l-0.6,0.1l-0.6,0L56,20.6l-0.6,0.3L55.3,21l0.2,0.3l0.2,0.8l-0.2,0.1l-0.2-0.1l-0.3-0.6L54.7,21
	l-0.4-0.6l-0.6-0.5l0,0l-0.6-0.6l-0.4-0.5l-0.2-0.1L52,18.6l-0.6-0.2l-0.6-0.2l-0.5-0.5l0.5-0.9l0.4-0.2l0.2-0.2l0.3-0.9l-0.3-0.2
	l-0.6-0.5l-0.6,0.2l-0.6,0.1L49.1,15l-0.3-0.5l-0.3-0.9l-0.1-0.2l-0.3-1.1l0.1-1.1L47.9,11L47.3,11l-0.6-0.2l-0.6-0.3l-0.6-0.2
	l-0.5-0.2l-0.1,0l-0.6-0.1l-0.6-0.2l-0.6-0.7l0-0.1l-0.4-1.1L43.1,7l0.1-1.1l-0.6-0.3l-0.6-0.4l-0.5-0.4l0.2-1.1l-0.3-0.9l-0.3-0.2
	l-0.3-0.1l-0.3,0.1l-0.3,0.1l-0.6,0l-0.6,0.7l-0.1,0.2l-0.5,0.6L38,4.3l-0.2-0.5l0.1-1.1L38,2.3l0.5-0.7L38,0.9l-0.6,0.6l-0.2,0.1
	l-0.3,0.1l-0.6,0.6l-0.2,0.4l-0.4,0.6l-0.6,0.4l-0.2,0.1l-0.4,0.3L34,4.3L33.4,4l-0.1-0.2L32.8,3l-0.4-0.3l-0.2-0.1l-0.1,0.1
	l-0.5,0.8l-0.6,0.2l-0.3,0.1l0.3,0.2l0.6,0.2l0.4,0.7l0.2,0.4l0.1,0.7l-0.1,0.3l-0.6,0.7L31.5,7l-0.5,0.9L31,8.1l-0.5,1l-0.1,0.1
	l-0.5,0.6l-0.4,0.5l-0.2,0.2l-0.6,0.4l-0.6,0.1l-0.6,0L27,10.5l-0.2-0.3l-0.3-1.1l-0.1-0.5l-0.6,0l-0.3,0.5l-0.1,1.1l-0.1,0.6
	l-0.2,0.5l-0.4,0.6l-0.6,0.2l-0.6-0.5l-0.6-0.1l-0.6,0l-0.6,0.5l-0.5,0.3l-0.1,0.4l0,0.6l0,0.3l0.1,0.8l-0.1,0.3l-0.6-0.1L20,14.8
	l-0.6,0l-0.1-0.2l-0.5-0.7l-0.6,0.1l-0.6,0.3l-0.4,0.2l-0.2,0.2l-0.6-0.2l0,0l0-1.1l0-0.2l0.6-0.7l0.2-0.1l0.4-0.7l0.1-0.3l-0.1-0.1
	l-0.6-0.4l-0.6-0.3l-0.1-0.2L16,9.1l0-1.1l0.5-0.5l0.6-0.4l0.6,0l0.6,0.2l0.6,0.2l0.6-0.3L20,7l0,0l0,0l-0.6-0.4l-0.6-0.1l-0.6-0.6
	l0,0l-0.6-0.6l-0.6,0.1l-0.6,0.1l-0.6,0L15.4,5l-0.2-0.2l0.2-0.2L16,3.9l0.1-0.1l0.5-0.3l0.6-0.2l0.6-0.1L18.3,3l0.6-0.3l0,0l0,0
	l-0.3-1l-0.1-1.1V0"/>
<path class="st0" d="M79.9,0v0.5l0.5,0.9l0.1,0.1l0.2,1.1l-0.2,0.3l-0.6,0.3l-0.6,0.1l-0.6,0l-0.4,0.3l0.4,0.6l0.6,0.1l0.6-0.1
	l0.5,0.5l0,0L81,5.1l0.6-0.2l0.2,0l0.1-1.1l0-1.1l0.3-0.2l0.6-0.2l0.6-0.1L83.9,2l0.6-0.2l0.6,0.1L85.6,2l0.6,0l0.6,0.3l0.5,0.4
	l0.1,0.1L88,2.9l0.5,0.8L88,4.8l0.5,0.7l0.6,0.4l0.6-0.3l0.6-0.2l0.6,0.1l0.6,0.3l0.1,0.2l0.5,1L92.6,7l0,0l0.6,0.1l0.6,0.2l0.6,0.2
	l0.6,0.2l0.5,0.3l0,0l0.6,0.2l0.6,0.1l0.6,0.1l0.6,0.1l0.6-0.1l0.5-0.3L99,8l0.1,0l0.5,0.5l0.2,0.5l-0.2,0.6L99,9.9l-0.4,0.3l0,1.1
	L99,12l0.1,0.4l0,1.1l0.5,0.4l0.6-0.2l0.5-0.2l0.1-0.1l0.6-0.2l0.6-0.1l0.6-0.6l0.1-0.1l0.5-0.6l0.6-0.3l0.4-0.2l-0.2-1.1l0.4-0.8
	l0.2-0.2l0.4-0.2l0.3,0.2l0,1.1l0.1,1.1l0.2,0.1l0.6,0.6l0.6,0.4l0.2,0.1l0.3,0.1l0.6,0.4l0.3,0.6l0.3,0.4l0.6,0.6l0.3,0.2l0.3,0.1
	L110,15l0.6,0.3l0.6-0.1l0.6-0.4l0.6-0.2l0.2,0l0.4-0.1l0.4,0.1l0.2,0l0.6,0.2l0.5,0.8l0.1,0.2l0.6,0.9l0,0l0.5,0.3l0.6,0.6l0.2,0.1
	l0.4,0.4l0.6,0.6l0.1,0.1l0.5,0.7l0.5,0.4l0.1,0.1l0.6,0.1l0.6,0.1l0.6,0.2l0.4,0.5l0.1,0.2l0.6,0l0.6-0.2l0.3,0l0.3-0.1l0.4,0.1
	l0.1,0l0.6,0.1l0.5-0.1l0.1-0.1l0.6-0.8l0.4-0.2l0.2-0.1l0.6-0.8l0-0.1l0.4-1.1l-0.4-0.2l-0.6-0.8l0,0l-0.6-0.6l-0.6-0.3l-0.6-0.2
	l-0.6,0.1l-0.2-0.1l-0.4-0.1l-0.6-0.2l-0.6-0.3l-0.3-0.5l-0.3-0.3l-0.5-0.7l0-0.1l-0.3-0.9l-0.2-1.1l0.3-1.1l0.2-1.1l0,0l0.1,0
	l0.5,0.4l0.4-0.4l0.2-0.5l0.5,0.5l-0.4,1.1l0.5,0.3l0.6,0.3l0.6,0.2l0.6,0.1l0.3,0.1l0.2,0l0.6,0.1l0.6,0.1l0.6,0.2l0.6,0l0.6,0.2
	l0.6,0.4l0,0l0,0l0.5-0.2l0.6-0.2l0.6-0.1l0.6,0.4l0.1,0.1l0.5,0.5l0.6,0.1l0.2-0.6l0.4-0.4l0.6-0.1l0.6,0.2l0.6,0.2l0.6-0.3l0.6,0
	l0.6,0.2l0.5,0.2l0.1,0l0.6,0l0,0l0.6-0.3l0.6-0.1l0.6,0l0.6,0.1l0.6,0.1l0.6,0.2l0,0l0.3,1.1l-0.3,0.7l-0.3,0.4l-0.3,1.1l0.6,0.8
	l0.6-0.4l0.6-0.1l0.6,0l0.6,0.1l0.6,0l0.6,0.1l0.6,0l0.6-0.3l0.1-0.3l0.1-1.1l0.3-0.6l0.1-0.4l0.3-1.1l0.1-0.2l0.6-0.4l0.4-0.5
	l0.2-0.2l0.6-0.5l0.6,0l0.6,0.5l0.3,0.3l0.3,0.5l0.6,0.3l0.6,0.1l0.6,0.1l0.2,0.1l0.4,0.9l0.1,0.2l0.5,1.1l0,0l0.4,1.1l0.2,0.1
	l0.5,1l0.1,0.5l0.2,0.5l0.2,1.1l0.2,0.6l0.2,0.5l0.4,1.1l0,0l0.6,0.2l0.6,0.5l0.2,0.3l0.4,0.4l0.4,0.7l0.2,0.2l0.6,0.7l0.1,0.1
	l0.5,0.6l0.4,0.5l-0.4,1l-0.2,0.1l-0.3,0l-0.1,0l-0.5-0.1l-0.6-0.2l-0.6-0.4l-0.3-0.4l-0.3-0.1l-0.6-0.2l-0.6-0.6l-0.1-0.1l-0.4-0.3
	l-0.6,0.3l0,0l-0.6,0.9l-0.6-0.9l0,0l0-0.2l0.1-0.9l-0.1,0l-0.6-0.7l-0.2-0.3l-0.3-0.5l-0.4-0.6l-0.2-0.3l-0.6-0.5l-0.6,0.5
	l-0.1,0.3l0.1,0.5l0.1,0.5l-0.1,0.2l-0.1,0.9l-0.2,1.1l-0.3,0.5l-0.3,0.6l-0.3,0.3l-0.6,0.2l-0.6-0.2l-0.6,0l-0.6,0.2l-0.6,0.4
	l-0.4,0.1l0.4,0.3l0.6,0.1l0.6,0l0.6,0.1l0.6,0.1l0.6,0.3l0.2,0.2l0.4,0.2l0.6,0.9l0,0l0,0.4l0,0.7l0,0.2l0.2,0.8l0.4,0.8l0.1,0.3
	l-0.1,0.1l-0.6,0.3l-0.6-0.3l-0.1-0.1l-0.4-0.3l-0.6,0l-0.4,0.3l0.3,1.1l-0.4,0.5l-0.6-0.5l0-0.1l-0.6-0.1l-0.2,0.2l-0.4,0.6
	l-0.2,0.5l0.2,0.5L145,35L145,36l-0.1,0.3l-0.2-0.3l-0.4-0.3l-0.6-0.2l-0.6,0.5l-0.6-0.6l-0.2-0.5L142,34l-0.6-0.1l-0.6,0.3
	l-0.4-0.3l-0.2-0.1l-0.5-0.9l-0.1-0.1l-0.5-0.9l0.2-1.1l0.3-0.2l0.3,0.2l0.3,0.1l0.6-0.1l0.1,0l-0.1-0.5l0-0.5l0-1.1l-0.6-1
	l-0.6-0.1h-0.6l0,0l-0.6,0l-0.3,0l-0.3,0.1l-0.6,0.8l-0.1,0.2l-0.5,0.8l-0.4,0.3l0,1.1l0.4,1.1l0,0l0,0l-0.1,1.1l-0.4,0.6l-0.6,0.4
	l-0.2,0.1L135,34l-0.6,0.3l-0.2-0.3l-0.4-0.3l-0.6-0.8l-0.6,0.1l-0.6,0.4l-0.6-0.4l-0.1-0.2l-0.4-0.8l-0.2-0.3l0.2-0.7l0.2-0.4
	l0.4-0.9l0.1-0.2l-0.1-0.2l-0.6-0.4l-0.5-0.4l-0.1,0l-0.6,0l-0.1,0.1l-0.5,0.7l-0.6,0.2l-0.2,0.2l-0.4,0.8l-0.6,0.1l-0.1,0.1
	l-0.5,1.1l0,0l-0.6,0.5l-0.6-0.1l-0.6,0.6l0,0l-0.6,0.8l-0.6,0l-0.6,0l-0.6,0l-0.6-0.1l-0.6-0.3l-0.6-0.4l0,0l-0.6-0.7l-0.2-0.3
	l-0.4-0.4l-0.6-0.4l-0.6-0.2l-0.1,0l-0.5-0.2l-0.6-0.3l0,0.5l0,0.2l0.4,0.8l0.1,0.1l0.6,0.2l0.6,0.3l0.2,0.5l0,1.1l-0.3,0.5
	l-0.5,0.5l-0.1,0.1l-0.6,0l-0.6,0.5l-0.6,0l-0.5-0.5l-0.1-0.4l-0.6,0l-0.4,0.4l-0.2,0.1l-0.6,0.1l-0.5-0.2l-0.1,0l-0.6-0.4l-0.6-0.1
	l-0.5,0.5l-0.1,0.1l-0.5,0.9l-0.1,0l-0.6,0.3l-0.6-0.1l-0.6-0.1l-0.6,0L109,36l-0.1,0l-0.6,0l0,0l-0.5,0.9l-0.2,0.2l0.2,0.1l0.6,0.3
	l0.6,0.5l0.1,0.1l-0.1,0.8l-0.1,0.2l-0.5,0.8l-0.4-0.8l-0.2-0.1l-0.5,0.1l-0.1,0l-0.6,0.5l-0.3,0.5l-0.3,0.4l-0.6,0.5l-0.6-0.5
	l-0.3-0.4l-0.3-0.8l-0.1-0.3l0.1-0.2l0.4-0.9l0.2-0.3l0.6-0.5l0.6-0.3l-0.1-1.1l-0.5-0.8l-0.6-0.1l-0.6-0.1l-0.6,0.2l-0.6,0.3
	l-0.6,0l-0.6-0.5l0,0l-0.6-0.6l-0.6-0.2l-0.3-0.3l0.3-0.5l0.6,0.2l0.6-0.2l0.3-0.5l0.2-1.1l0.1-0.2l0.6-0.7l0.6,0l0.6-0.2l0,0
	l0.6-0.8l0.6-0.1l0.6,0l0.1-0.1l0.5-0.9l0.5-0.2l0.1-0.5l0.1,0.5l0.5,0.1l0.6,0.2l0.6,0l0.4-0.3l0.2-0.7l0-0.4l0-0.4l-0.1-0.7
	l-0.5-0.8l-0.4,0.8l-0.2,0.2l-0.6,0.7l-0.6,0.2l-0.6-0.1l-0.6,0l-0.3,0.1l-0.3,0.1l-0.6,0.1l-0.6-0.2l-0.1-0.1l-0.5-0.6l-0.4-0.5
	l0-1.1l0.2-1.1l0.1-0.3l0.6-0.4l0.6-0.1l0.6-0.1l0.5-0.2L106,23l0.6-0.6l0.6-0.2l0.6-0.1l0.2-0.1l0.3-1.1l-0.5-0.7l-0.6-0.2
	l-0.6-0.2l-0.6,0.6l-0.6,0.1l-0.6-0.3l-0.6-0.2l-0.6,0.3l-0.6,0.1l-0.6,0l-0.6,0.3l-0.4,0.1l-0.2,0.1l-0.6,0.5l-0.6,0.1l-0.6,0.1
	L99,22l-0.6-0.1L98,22.1l-0.2,0.4l-0.2,0.7l-0.4,0.3l-0.4,0.8l-0.2,0.6l-0.2,0.5l-0.4,0.4l-0.6,0.4l-0.3,0.3l-0.3,0.4l-0.3,0.6
	l-0.2,1.1l-0.1,0.6l-0.6,0.2l-0.6-0.1l-0.6-0.1L92,29.2l-0.6-0.1l-0.6,0.5l0,0l-0.5,0.6l-0.6-0.3l-0.3-0.3l-0.3-0.1l-0.2,0.1
	l-0.3,0.7l-0.4,0.4l0.1,1.1L88,32.3l-0.2,0.5l0.1,1.1L87.7,35l-0.3,0.2L87,35l-0.2,0l-0.6-0.3l-0.6-0.2l-0.4-0.5l-0.2-0.1l-0.6,0
	l-0.6,0l-0.6,0l-0.6,0l-0.3,0.2l0.3,1.1l0,0l0.1,1.1l-0.1,0.3l-0.3,0.7l0.2,1.1l0.2,0.5l0.2,0.6l0.1,1.1l0.1,1.1l0.2,0.5l0.5,0.5
	l0.1,0l0,0l0.5-0.4l0.2,0.4l0.4,0.6l0.2,0.4l0.4,0.9l0,0.1l0,0.2l-0.3,0.9l-0.3,0.7l-0.4,0.3l-0.1,0.3l-0.6,0.2l-0.2,0.5l0.2,1.1
	l0,0l0.6,0.2l0.6,0.1l0.6,0.3l0.4,0.5l0.1,0.3l0.2,0.8l-0.1,1.1l-0.1,1.1l0.1,1.1l-0.2,0.1l-0.6,0.3l-0.6,0.3l-0.6,0.1l-0.6-0.1
	l-0.6-0.3l-0.6-0.4L82.2,55L82,55.4l-0.4,0.4L81,55.5l-0.1-0.1l-0.4-1.1L80.4,54L80,53.3l0.3-1.1l0.2-0.1l0.6-0.4l0.6-0.2l0.6,0
	l0.6,0l0.6,0l0.4-0.4L83.4,50l-0.1-0.2l-0.6-0.6L82.4,49l-0.3-0.3l-0.6,0.2L81,48.6l-0.6-0.3l-0.3-0.4l-0.3-0.3l-0.6-0.3l-0.4-0.4
	l-0.2-0.4l-0.4-0.7l0.1-1.1l0.3-0.4l0.6-0.4l0.4-0.2l-0.4-0.3l-0.4-0.8l-0.2-0.4l-0.5-0.6l-0.1-0.1l-0.6-0.9l0,0l0-1.1l-0.6-0.9
	l-0.6,0l-0.4-0.2l-0.2-0.1L75.2,38l-0.4-0.8L74.6,37l-0.5,0.2l0.5,0.5l0.4,0.6l0.2,0.1l0.5,1l0.1,0.5l0.2,0.6l0.1,1.1l-0.3,0.2
	l-0.6,0l-0.6,0.2L74,42.5l0,0l0,1.1l0,0l0,0l-0.6,0.7l-0.6-0.3l-0.6-0.4l-0.4-0.1l-0.2-0.1l-0.1,0.1l-0.1,1.1l-0.4,0.9l-0.6-0.4
	l-0.2-0.5l-0.2-1.1l0.4-1.1l0,0l0,0L70,41.9l-0.3-0.5l-0.3-0.6l-0.3-0.5L69,39.3l0.4-1.1l0,0l0.6-0.8l0.2-0.2l0-1.1l0.1-1.1l0.3-1.1
	l0.1-0.2l0.3-0.9l0.3-0.4l0.6-0.3l0.6,0l0.6,0.2l0.6,0l0.6-0.1l0.6-0.1l0.6,0l0.6,0.1l0.6,0l0.5-0.4l0-0.1l0.4-1l-0.4-0.6l-0.6-0.3
	l-0.6,0.1l-0.6-0.1l-0.6-0.1l-0.1-0.1L74,28.8l-0.1-0.3l0.1-0.1l0.6-0.3l0.6,0.2l0.6-0.3l0.3-0.6l0.3-0.6l0.6-0.1l0.6,0.1l0.6,0.3
	l0.4,0.4l0.2,0.2l0.6,0.2l0.6-0.1l0.2-0.2l0.2-1.1l-0.4-0.9l-0.2-0.2l-0.4-0.1l-0.6-0.1l-0.6-0.3l-0.6-0.2l-0.3-0.4l-0.3-0.7
	l-0.3-0.3l-0.3,0l-0.6,0l-0.2,0l-0.4,0.2l-0.6,0.3L74,24l-0.5,0.2l-0.1,0l-0.1,0L72.9,24l-0.6-0.1l-0.6-0.3l-0.4-0.4l-0.2-0.2
	l-0.6-0.3l-0.6,0l-0.6-0.3l-0.1-0.2l0.1-1l0-0.1l0.4-1.1l0.1-1.1l-0.5-0.9l-0.1-0.1l-0.1-1.1l0.2-0.8l0.3-0.3l-0.3-0.2l-0.6,0.1
	l-0.4-0.9l-0.2-0.6l-0.6-0.4L67.1,14l-0.3,0.5l0.3,1l0,0.1l0,0.3L67,16.7v1.1l-0.5,0.3L66,17.8l-0.1-0.1l-0.6-0.9l0,0l-0.2-1.1
	l0.3-0.4l0.5-0.6l-0.5-0.8L65,13.5l-0.3-0.1l-0.6,0l-0.6,0l-0.4,0.1l0.1,1.1l0,1.1L63,16.1l-0.6,0.6l-0.1,0l-0.5,0.1l-0.3-0.1
	l-0.3-0.1l-0.6-0.3l-0.6-0.2l-0.6,0l-0.2,0.6l0.2,0.5l0.1,0.6l-0.1,0.3l-0.6,0.2l-0.2,0.5l-0.1,1.1l-0.3,0.6l-0.6,0.4L57.2,21
	l-0.6,0L56,21l0,0l0,0.1l0.6,0.6l0.2,0.4l-0.2,0L56,22.3l-0.6,0.1l-0.6-0.3l-0.1-0.1l-0.5-1l-0.1,0l-0.5-0.2l-0.4-0.9l-0.1-0.1
	l-0.6-0.6L52,18.9l-0.2-0.1l-0.4-0.1l-0.6-0.1l-0.6-0.4l-0.1-0.5l0.1-0.5l0.4-0.6l0.2-0.3l0.6-0.8l0,0l0,0l-0.6-0.5l-0.6,0.2
	l-0.6,0.1l-0.6-0.1l-0.5-0.8l-0.1-0.4l-0.4-0.7l-0.2-1.1l0-0.1l-0.6-0.6l-0.6-0.1l-0.6-0.1l-0.3-0.2l-0.2-0.2L45,10.9l-0.6-0.4
	l-0.3-0.2l-0.3-0.1l-0.6-0.5L43,9.1l-0.3-1.1L42.8,7l0-1.1l-0.2-0.1l-0.6-0.2l-0.6,0.2l0,0.1l-0.5,0.7l-0.6,0l-0.6-0.1l-0.6,0.4l0,0
	l-0.5,0.2L38.3,7l0.2-1.1l-0.5-1l0,0l-0.4-1.1l0.1-1.1l-0.2-0.6l-0.6,0.1l-0.5,0.5l-0.1,0.1l-0.6,0.9l-0.2,0.1l-0.4,0.4l-0.6,0.4
	L34,4.6l-0.6-0.2L33,3.8l-0.2-0.4l-0.6-0.4l-0.6,0.7l0.6,0.9l0.1,0.2l0.2,1.1l-0.3,0.6L31.8,7l-0.1,0.1l-0.5,0.9l-0.1,0.2l-0.5,0.9
	l-0.1,0.1l-0.6,0.6l-0.3,0.3l-0.3,0.3l-0.6,0.4L28.2,11l-0.6,0L27,10.7l-0.3-0.5l-0.3-0.9l-0.2-0.2l-0.4-0.2l-0.2,0.2l-0.2,1.1
	l-0.2,1.1l0,0.1l-0.6,0.9l-0.4,0.1l-0.2,0.1L24,12.4l-0.5-0.4l-0.6,0l-0.6,0.2l-0.5,0.3l-0.1,0.1l-0.4,1l0.2,1.1l-0.3,0.8L20.6,15
	L20,15.1l-0.6,0.2l-0.3-0.8l-0.3-0.4l-0.6,0l-0.5,0.4l-0.1,0.1l-0.6,0.7l-0.6-0.1L16,14.8l-0.6-0.1l-0.1-0.1l0.1-0.1l0.6-0.1
	l0.3-0.9l0.2-1.1l0-1.1l-0.2-1.1L16,9.6l-0.3-0.4l0.2-1.1L16,7.9l0.6-0.6L17,7l0.2-0.3h0.6L18.2,7l0.1,0l0.6,0.1L19.3,7l-0.4-0.1
	l-0.6,0l-0.3-1l-0.3-0.3l-0.6,0l-0.6,0.1l-0.6,0l-0.6-0.4L15,4.8l0.4-0.5l0.4-0.5L16,3.6l0.6-0.4L17.1,3l0.6-0.1l0.5-0.2l0.1-1.1
	l0-1.1V0"/>
<path class="st0" d="M80.3,0v0.5l0.2,0.3l0.3,0.8L81,2.4l0.6,0.1l0.6-0.4L82.7,2L83.3,2l0.6-0.2l0.4-0.1l0.1-0.1l0.2,0.1l0.4,0.1
	l0.6,0.1l0.6,0l0.6,0.2l0.6,0.4L88,2.4l0.5,0.3l0.1,0.1l0.4,1l-0.4,0.7l-0.2,0.4L88.5,5l0.6,0.4l0.6-0.2L90.3,5l0.6,0l0.5-0.2
	l0.1-0.1L92,4.8l0,0l0.6,1.1l0,0L93.2,6l0.4,1l0.2,0.1l0.6,0.2l0.6,0.2l0.6,0.2l0.6,0.2l0.6,0.1l0.4,0.1l0.2,0l0.6,0L98,8.1l0.4-0.1
	L99,7.7l0.6,0.2l0.2,0.2l0.4,1l0,0.1l0.1,1.1l-0.2,0.4l-0.6,0.3l-0.2,0.4l0.2,1.1l0,1.1l0,0l0.2,0l0.4-0.4l0.6-0.6l0.6-0.1l0.6,0.1
	l0.2-0.1l0.4-0.4l0.6-0.5l0.3-0.2l-0.1-1.1l-0.2-0.6l-0.2-0.5l0.2-0.3l0.6-0.5l0.6-0.3l0.6,0.1l0.6,0.4l0.3,0.5l0,1.1l0.1,1.1
	l0.2,0.2l0.6,0.4l0.6,0.1l0.6,0.1l0.5,0.3l0.1,0.2l0.4,0.9l0.2,0.2l0.6,0.2l0.6,0.3l0.4,0.4l0.2,0.1l0.3-0.1l0.3-0.2l0.6-0.3
	l0.6-0.2l0.6-0.1l0.6,0.1l0.6,0.2l0.5,0.4l0.1,0.1l0.5,1l0.1,0.2l0.6,0.3l0.6,0.3l0.3,0.2l0.3,0.2l0.6,0.4l0.4,0.5l0.2,0.2l0.6,0.1
	l0.6,0.1l0.6,0.2l0.6-0.4l0.2-0.2l0.4-0.1l0.6-0.3l0.3-0.6l-0.3-0.3l-0.4-0.7l-0.2-0.3l-0.3-0.8l-0.3-0.2l-0.4-0.8l-0.1-0.4
	l-0.3-0.6l-0.3-0.6l-0.6-0.5l0,0l-0.6-0.8l-0.1-0.2L118,9.1l0.2-0.1l0.6,0.1l0.1,0l0.5,0.3l0.1-0.3l0.2-1.1l0.2-0.2l0.4,0.2l0.2,0.1
	l0.6,0.1l0.1-0.3l0.5-0.9l0.6,0.1l0.4,0.8l0.1,1.1l-0.1,1.1l0.2,0.1l0.6,0.3l0.6,0.1l0.6,0.2l0.6,0.1l0.6,0.1l0.3,0.1l0.3,0.1l0.6,0
	l0.6,0l0.6,0l0.6-0.1l0.3-0.1l0.3-0.1l0.6-0.1l0.5,0.2l0.1,0.1l0.6,0.5l0.6-0.2l0.6-0.2l0.4,0l0.1,0l0.2,0l0.4,0l0.6,0.1l0.6,0
	l0.4-0.1l0.2-0.1l0.6-0.2l0.6-0.1l0.6-0.2l0.6-0.4l0.3-0.2l-0.3-0.2l-0.6-0.7l-0.1-0.2l0.1-0.3l0.6-0.6l0.3-0.1l0.2,0l0.1,0l0.5,0.2
	l0.6,0.3l0.6,0l0.6,0.2l0.3,0.3l0.3,0.4l0.6,0l0.6,0.2l0.3,0.5l0.2,0.4l0.6,0.5l0.2,0.2l0.3,0.8h0.6l0.6-0.4l0.5-0.4l0.1,0l0.6-0.3
	l0.6-0.1l0.6-0.4l0.6-0.2l0.3,0l0.3-0.2l0.6,0.1l0.6-0.2l0.2-0.8l0.2-1.1l-0.5-0.3l-0.6-0.2l-0.6-0.2L148.1,7l-0.2-1.1l-0.1-0.7
	l-0.2,0.7l-0.4,0.3l-0.6,0.2L146,6.6l-0.6,0.2l-0.6-0.1l-0.6-0.1l-0.6,0.1l-0.6,0.2L142.9,7l-0.3,0.5L142,7.8l-0.6,0l-0.6-0.5
	L140.6,7l-0.4-0.1l-0.6-0.2l-0.5-0.8l-0.1-0.4L139,4.8l0.1-0.1l0.6-0.6l0.6-0.3l0,0l0.6-0.6l0.6-0.3l0.2-0.2l0.3-0.3l0.4,0.3
	l0.1,0.4l0.4,0.7l0.2,0.1l0.1-0.1l0.2-1.1l0.3-0.9l0.4,0.9l0.2,0.3l0.6,0.1l0.3-0.3l0.3-0.4l0.6-0.2l0.4-0.5l0.2-0.1l0.4,0.1
	l0.1,0.2l0.6,0.6l0.3,0.3l0,1.1l-0.1,1.1l0.5,0.5l0.6-0.5l0.6,0.2l0.6,0l0.5-0.2l0.1,0l0.6-0.1l0.1,0.1l0.4,0.3l0.6,0.2l0.6-0.2
	l0.4-0.3l0.2-0.1l0.6,0.1l0.2,0l0.3,0.1l0.6,0.4l0.3,0.5l-0.3,0.3l-0.6,0.3l-0.6,0.1l-0.6,0.2L153.3,7l-0.3,1.1l0.5,0.3l0.6,0.2
	l0.6-0.2l0.6,0.1l0.6,0.3l0.6,0.1l0.6-0.5l0.6-0.2l0.6-0.1l0.6-0.1l0.6-0.1l0.6,0.1l0.6,0.2l0.6,0.4l0.6,0l0.6,0.2l0.1,0.1l0.4,0.1
	l0.3-0.1l0.3-0.3l0.3,0.3l0.3,0.1l0.6,0.3l0.6,0.3l0.6,0.3l0.6-0.1l0.5,0.3l0.1,0.1l0.6,0.8l0.2,0.2l0.4,1l0.1,0.1l-0.1,0.1
	l-0.6,0.7l-0.4,0.2l-0.2,0.7l-0.2,0.4l0.2,1.1l0,0l0.6,0.6l0.4,0.5l0.2,0.2l0.5,0.8l0.1,0.1l0.6,0.6l0.4,0.4l0.2,0.2l0.5,0.9
	l0.1,0.3l0.2,0.8l-0.2,0.4l-0.6,0l-0.6-0.2l-0.6,0.2l-0.3,0.6l-0.3,0.3l-0.6,0l-0.6-0.2l-0.6,0l-0.2-0.1l-0.3-0.2l-0.6,0.1l-0.6-0.2
	L164,21L164,21l-0.5-0.7l-0.4-0.3l-0.2-0.2l-0.6-0.6l-0.6-0.1l-0.4-0.2l-0.2-0.2l-0.3-0.9l-0.3-0.5l-0.6,0l-0.6-0.1l-0.6-0.3l-0.6,0
	l-0.2-0.1l0.2-0.6l0.3-0.4l-0.3-0.4l-0.6-0.3l-0.6-0.1l-0.6,0.5l-0.3,0.4l-0.3,0.6l-0.6,0.4l0,0l0,1.1l0.1,0.5l0.1,0.5l0,1.1
	l0.4,1.1l0.1,0l0.6,0.5l0.2,0.5l0.3,0.5l0.3,0.6l0.3,0.2l0.6,0.6l0.2,0.3l0.3,0.3l0.3,0.7l-0.2,1.1l-0.1,0.2l-0.6,0.4l-0.6,0.1
	l-0.6,0l-0.6-0.3l-0.5-0.3l-0.1,0l-0.6-0.4l-0.6-0.2l-0.6,0.2l-0.6-0.1L153,26l-0.6,0l-0.6-0.1l-0.6-0.5l-0.2-0.2l-0.3-0.3l-0.1,0.3
	l0,1.1l-0.5,0.4l-0.6,0l-0.6,0.7l0.4,1.1l0,1.1l0.2,0.5l0.4,0.6l0.2,0.7l0.1,0.4l-0.1,0.1l-0.6,0.6l-0.6,0.3l0,0l0,0l-0.6-0.1
	l-0.6,0.1v1.1l0,0l-0.6,0.7l-0.6-0.2l-0.6-0.1l-0.6,0.7l0.1,1.1l0.3,1.1l0.2,0.5l0.6,0l0.6,0l0.6,0.1l0.6,0.2l0.6,0.3l0,0l0,0
	l-0.6,0.2l-0.6,0.3l-0.6,0.3l-0.6-0.2l-0.6-0.2l-0.6-0.5l0,0l-0.6-0.6l-0.4-0.4l-0.2-0.3l-0.2,0.3l-0.4,1l0,0l-0.6,1l0,0l-0.6,0.6
	l-0.2,0.5l-0.4,0.4l-0.6,0.2l-0.6,0l-0.6,0.2l-0.2,0.3l0,1.1l-0.3,0.8l-0.5-0.8l-0.1-0.1l-0.6-0.6l-0.4-0.4l0.2-1.1l0.2-0.2l0.6-0.5
	l0.5-0.3l0.1-0.1l0.6-0.6l0.5-0.4l0.1-0.2l0.6-0.4l0.6,0l0.6-0.6l-0.3-1.1l-0.3-0.7l-0.3-0.3l-0.3-0.1L141,35l-0.2,0.2l-0.6,0.6
	l-0.6-0.2l-0.2-0.6l0.2-0.6l0.1-0.5l-0.1-0.1l-0.6-0.6l-0.5,0.7l-0.1,0.5l-0.1,0.6l-0.5,0.4l-0.6-0.1l-0.6-0.1l-0.3-0.2l-0.3-0.2
	l-0.6-0.1l-0.6,0.2l-0.2,0.2l-0.4,1.1l0,0l-0.1,0l-0.5-0.8l0-0.2l-0.3-1.1l-0.2-0.3l-0.6,0.2l-0.6,0l-0.6-0.4l-0.6-0.6l0,0l-0.6-0.9
	l-0.1-0.1l-0.5-0.9l-0.6,0.3l-0.5,0.7l-0.1,0.2l-0.4,0.9l-0.2,0.4l-0.6-0.3l-0.6,0l-0.6,0.3l-0.6,0l-0.4,0.5l0.4,0.9l0.1,0.2
	l0.5,0.8l0.3,0.3l0.3,0.2l0.5,0.9l-0.5,1l-0.6,0.1l-0.6,0l-0.6-0.1l-0.6,0l-0.4,0.1l-0.2,0.1l-0.6,0.2l-0.6,0l-0.6,0.1l-0.6,0.3
	l-0.6,0.1l-0.6,0.1l-0.6-0.1l-0.6-0.1l-0.6,0l-0.6-0.1l-0.6-0.5l0-0.1l-0.2-1l0-1.1L117,36l-0.6-0.6l-0.6-0.1l-0.6,0.2l-0.6,0.2
	l-0.6-0.1l-0.6,0.1l-0.2,0.4l-0.4,0.3l-0.6,0l-0.6,0.3l-0.6,0.2l-0.6-0.2l-0.6-0.1l-0.6,0l-0.6-0.1l-0.6,0.2l-0.3,0.4l0.3,0.2
	l0.6,0.3l0.3,0.6l-0.1,1.1l-0.2,1.1l0,1.1l0,0.2l-0.6,0.4l-0.3-0.6l-0.1-1.1l-0.2-0.4l-0.5,0.4l-0.1,0l-0.6,0.2l-0.6,0.8l-0.1,0.1
	l-0.5,0.2l-0.2-0.2l-0.3-0.3l-0.6-0.7l-0.2-0.1l-0.3-1.1l0.5-0.8l0.1-0.2l0.5-0.7l0.6-0.3l0.1-0.1l0.1-1.1l-0.2-0.4l-0.6-0.2l-0.6,0
	l-0.6,0.1l-0.6,0.2l-0.6,0l-0.6-0.5l-0.6-0.2l-0.2-0.1l-0.4-0.3l-0.6-0.6l-0.2-0.2l-0.4-0.8l-0.2-0.2l0.2-0.2l0.6-0.3l0.6,0.1
	l0.3,0.3l0.3,0.2l0.5-0.2l0.1-0.1l0.2-1l0.4-1.1l0,0l0.6-0.8l0.6-0.1l0.3-0.2l0.2-0.7l0.2-0.4l-0.2-0.1l-0.6-0.2l-0.6-0.5l-0.5-0.3
	l-0.1-0.1l-0.6-1l-0.6,0.1l-0.1-0.1l0.1-0.1l0.6,0.1l0.2-1.1l0.1-1.1l0.3-1l0-0.1l0-0.1l-0.6,0l-0.3,0.1l-0.2,0.1l-0.6-0.1l0,0
	l-0.6-0.1l-0.2,0.1l-0.3,0.8l-0.4,0.3L99,24.3l-0.6,0.6l-0.4,0.4l-0.2,0.3l-0.6,0.5l-0.6,0.3l0,0l-0.5,0.3l-0.6,0.4l-0.3,0.3
	L95,28.5l0,0.2l-0.1,0.9l-0.5,0.6l-0.6-0.1l-0.6-0.3l-0.6,0.1L92,30.1l-0.6-0.2l-0.6,0.6l-0.5,0.3l-0.1,0.1l-0.4-0.1l-0.2,0l-0.1,0
	l-0.5,0.6L89,31.7l-0.4,1.1l0,0l-0.2,1.1l0,1.1L88,35.6l-0.6,0.1l-0.6-0.2L86.2,35l0,0l-0.6-0.1l-0.6-0.1l-0.6,0L84.3,35l0.2,0.2
	l0.6-0.1l0.6,0l0.6,0.2l0,0.8l0.3,1.1l0.2,0.9l0.1,0.2l0.2,1.1l-0.3,0.9l-0.1,0.2l-0.4,0.4l-0.4-0.4l-0.2-0.5l-0.3-0.5L85.1,39
	l-0.6-0.3l-0.6-0.2l-0.3-0.3l-0.3-0.8l-0.2,0.8l0.1,1.1l0.1,0.5l0.2,0.6l0.4,0.8l0.6-0.1l0.3,0.3l0.3,0.7l0.1,0.3l0.4,1.1l0.1,0.3
	l0.3,0.8l-0.3,0.9l0,0.1l-0.4,1.1l-0.1,1.1l0.5,0.6l0.5,0.4l0,0l0.4,1l0.1,1.1l0,0.4l0.1,0.6l0.2,1.1l0.2,1.1l-0.4,1l-0.1,0
	l-0.5,0.1l-0.6,0L85.1,56l-0.6,0.1L83.9,56l-0.6-0.2l-0.5,0.7l-0.1,0.4l-0.6,0.4l-0.6-0.5l-0.3-0.2L81,56.2l-0.6-0.3l-0.6-0.2
	l-0.6-0.1l-0.6,0l-0.1-0.1l0.1-0.2l0.5-0.9l-0.5-0.3l-0.6-0.6L78,53.3l-0.1-1.1l0.2-0.2l0.6-0.1l0.6,0.3l0.6-0.3l0.6-0.3l0.6-0.4
	l0.2-0.1l0.4-0.7l0.6-0.3l0.1-0.1L82.2,50l-0.6-0.2L81,49.4L80.4,49L80.3,49l-0.5-0.4l-0.4-0.7l-0.2-0.1l-0.6-0.5l-0.4-0.4l-0.2-0.4
	l-0.6,0.2l-0.3-0.9l0.3-0.5l0.6-0.6l0,0l0.6-1l0.1-0.1l-0.1-0.3l-0.2-0.8L78.1,42l-0.5-0.5l-0.1-0.2l-0.3-0.9L77,39.3l0,0L76.4,39
	L76,39.3l0.2,1.1l0.1,0.4l0.3,0.7l0.1,1.1l-0.4,0.4l-0.2-0.4L75.8,42L75.2,42l-0.6,0.2l-0.3,0.4l-0.1,1.1L74,44.5l-0.2,0.2l-0.4,0.1
	l-0.2-0.1l-0.4-0.2l-0.6-0.3l-0.4,0.5l-0.1,1l0,0.1l-0.6,0.4l-0.6-0.2l-0.1-0.2L70,44.7L70,44.4l-0.2-0.8l-0.1-1.1l-0.3-0.4
	l-0.6-0.4l-0.2-0.2l-0.1-1.1l0.1-1.1l0.1-0.5l0.2-0.6l0.4-0.6l0.4-0.5l0.1-1.1l0-1.1l0.1-0.6l0.1-0.4l0.5-1l0,0l0.6-0.7l0.6-0.2
	l0.6,0l0.6,0.1l0.6,0l0.6-0.1l0.4-0.1l0.2-0.2l0.6-0.3l0.6-0.2l0.6-0.1l0.1-0.4l-0.1-0.1l-0.6,0l-0.6-0.2l-0.6-0.2L74,29.9l-0.4-0.3
	l-0.2-1.1l0.6-0.7l0.6-0.2l0.6,0.1l0.4-0.3l0.1-1.1l-0.4-1.1l0.4-1.1L75.2,24l-0.6,0.2l0,0L74,24.7l-0.6,0.2l-0.6-0.2l-0.6-0.2
	l-0.2-0.3L71.7,24l-0.6-0.6l-0.4-0.3L70.5,23L70,23l-0.6,0l-0.5-0.9l0.2-1.1l0.3-0.7l0.1-0.4l-0.1-1.1l0-0.1l-0.6-0.3l-0.5-0.7
	l-0.1-0.8l-0.1,0.8l0.1,0.6l0.2,0.5L68.2,19l-0.6,0.9l-0.6-0.1l-0.6-0.5l-0.6,0.1l-0.4-0.6l-0.1-1l0-0.1l-0.6-0.9l-0.2-0.2L64.2,16
	l-0.6,0.6l0,0.1L63,17.6l-0.3,0.2l-0.3,0.4l-0.6,0L61.3,18L60.7,18l-0.3,0.8l-0.2,0.5l-0.6,0.4l-0.1,0.2l0.1,0.4l0.2,0.7l0.1,1.1
	l0.3,1.1l0,0l0,0L60,24.2l-0.4,0.6l-0.6,0.4L58.4,25L58,24.2l-0.2-0.5l-0.2-0.5l-0.3-0.5l-0.6,0.2L56,23.1L55.5,23l-0.6-0.4
	l-0.5-0.5l-0.1-0.3l-0.6-0.4l-0.6-0.1L52.8,21L52.5,20l-0.1-0.1L52,19.5l-0.6-0.3l-0.6-0.1L50.2,19L50,18.8l-0.2-1.1l0.3-1.1
	L49.6,16l-0.6-0.1l-0.4-0.2l-0.1-0.2L48,14.5l0-0.1l-0.2,0.1l-0.4,0.5l-0.6-0.5l0,0l0,0l0.1-1.1l-0.1-0.2l-0.6-0.7l-0.6-0.1l-0.6,0
	l0,0l-0.5-0.9l0-0.2l-0.5-0.6l-0.6-0.4l-0.1-0.1l-0.5-1.1h-0.6l0,0l-0.6-0.4l-0.4-0.7l-0.2-0.4l-0.6,0.2l-0.1,0.1l-0.5,0.4l-0.6-0.4
	l0,0l-0.6-0.1L38,7.7L37.6,7l-0.1-1l0-0.1l-0.3-1.1l-0.2-1.1l0-0.1l-0.6,0l-0.1,0.1l-0.5,0.7l-0.4,0.3l-0.2,0.2l-0.6,0.4L34,5.6
	l-0.6-0.3l-0.5-0.4l-0.1-0.2l0,0.2l0,1.1L32.2,7l0,0l-0.6,0.6l-0.2,0.4l-0.3,0.8l-0.1,0.3l-0.4,0.5l-0.6,0.5l0,0.1l-0.5,0.6
	l-0.6,0.3l-0.6,0.1l-0.6,0.1L27,11l-0.5-0.8l0-0.2l-0.6-0.3l-0.1,0.5l0.1,1.1l0,0l0,0l-0.6,1l-0.1,0.1l-0.5,1.1l0,0l-0.6,0l0-0.1
	l-0.5-1l-0.6,0.3L22.4,13l-0.5,0.4l0.1,1.1l-0.1,1.1l-0.1,0.1l-0.6,0.2l-0.4-0.3l-0.2-0.2L20,15.6l0,0l-0.6,0.6l-0.3-0.6L18.9,15
	l-0.6-0.4l-0.6,0.6l-0.3,0.4l-0.3,0.3l-0.6,0L16,15.7l-0.6,0l-0.1-0.1l-0.5-0.7l-0.1-0.4l0.1-0.8l0.6,0l0.4-0.3l0.1-0.3l0.1-0.8
	L16,11.9l-0.2-0.6l0.1-1.1l-0.5-0.6l-0.6-0.3l-0.6,0.1l-0.4-0.3l-0.2-0.2l-0.6-0.6l-0.6-0.1l-0.2-0.1l0.2-0.2l0.6-0.1l0.6-0.2
	l0.6,0.3l0.4,0.2l0.2,0.5l0.3-0.5l0.3-0.1L16,7.4L16.4,7L16,6.4l-0.4-0.4l-0.2-0.1l-0.6-0.6l-0.2-0.4l0.2-0.3l0.6-0.8l0,0L16,3.1
	l0.5-0.4L16,2l-0.6-0.1l-0.6,0.6l-0.4,0.2l-0.2,0.1l-0.6,0l-0.6,0.1l-0.1-0.2l0.1-1.1l0,0l0.5-1.1V0"/>
<path class="st0" d="M80.1,0v0.5l0.3,0.6l0.2,0.5l0.3,1.1l-0.5,0.6l-0.6,0.3l-0.6,0.1L79,3.8l0.3,0.1L79.8,4l0.6,0.4l0.3,0.4L81,4.9
	l0.2-0.1l0.2-1.1l0.1-0.5l0.1-0.6l0.5-0.4l0.6-0.1l0.6-0.1l0.6-0.2l0.6-0.2l0.6,0.1l0.6,0.1l0.6,0l0.6,0.2l0.6,0.5L88,2.7l0.1,0
	l0.5,0.7l0.2,0.4l-0.2,0.3l-0.3,0.8l0.3,0.4l0.6,0.4l0.6-0.3l0.6-0.2l0.6,0l0.6,0L92,5.9L92,6l0.6,0.4L93.2,7l0,0l0.6,0.2l0.6,0.2
	l0.6,0.2l0.6,0.2l0.6,0.2l0,0l0.6,0.1l0.6,0.1l0.6,0l0.6-0.2l0.1-0.1L99,7.9l0.5,0.2l0,0.1l0.4,1l-0.1,1.1l-0.3,0.1L99,11.2l0,0.1
	l0,0l0.4,1.1l0,1.1l0.3,0.2l0.6-0.2l0.2-0.1l0.4-0.5l0.6-0.1l0.6,0l0.4-0.4l0.1-0.1l0.6-0.6l0.6-0.3l-0.2-1.1l-0.2-1.1l0.4-0.3
	l0.6-0.1l0.6-0.1l0.6,0.4l0.1,0.2l0,1.1l0.1,1.1l0.4,0.4l0.6,0.4l0.6,0.1l0.6,0.2l0,0l0.5,1.1l0,0l0.6,0.5l0.6,0.3l0.3,0.2l0.3,0.2
	l0.6,0.2l0.6-0.2l0.6-0.2l0.1,0l0.5-0.3l0.6-0.1l0.6,0.2l0.6,0.2l0,0l0.5,0.7l0.2,0.4l0.4,0.6l0.6,0.4l0.1,0.1l0.5,0.4l0.6,0.4
	l0.3,0.3l0.3,0.3l0.6,0.6l0.4,0.1l0.2,0.1l0.6,0.3l0.6,0.5l0.6,0.1l0.6,0l0.1,0.1l0.4,0.2l0.6-0.1l0.1,0l0.5-0.4l0.6-0.6l0,0
	l0.6-0.4l0.6-0.4l0.2-0.3l-0.2-0.4l-0.6-0.5l-0.2-0.2l-0.3-0.1l-0.6-0.3l-0.6-0.6l0,0l-0.5-0.2l-0.5-0.9l-0.1-0.1l-0.6-0.6l-0.2-0.4
	l-0.3-1.1l-0.1-0.2l-0.4-0.9l-0.1-1.1l0.5-1.1l0-0.2l0.6-0.4l0.6,0.3l0.4-0.8l0.2-0.4l0.6,0l0.1,0.3l0.1,1.1l-0.2,0.8l-0.1,0.2
	l0.1,0.1l0.6,0.3l0.6,0.3l0.6,0.1l0.6,0.2l0.5,0.2l0.1,0l0.6,0.1l0.6,0.1l0.6,0l0.6,0.1l0.6,0.2l0.6-0.1l0.6-0.2l0.6-0.1l0.6,0.3
	l0.5,0.6l0.1,0.1l0.2-0.1l0.4-0.2l0.6-0.5l0.6-0.1l0.6,0.1l0.6,0.2l0.6-0.2l0.6-0.1l0.6,0l0.6,0.1l0.6-0.1l0.6-0.2l0.4-0.1l0.2-0.1
	l0.6-0.2l0.2-0.8l-0.2-0.7l-0.6,0l-0.4-0.3l0.4-0.3l0.6,0.2l0.6,0.1l0.6,0l0.1,0l0.5,0.8l0.2,0.3l0.1,1.1l0.3,0.1l0.5,1l0.1,1.1l0,0
	l0.6,1.1l0,0l0.6,0.3l0.6-0.2h0.6l0.3-0.1l0.3-0.1l0.6-1l0,0l0.6-1l0-0.1l0.6-0.8l0.6-0.2l0.1-0.1l0.5-0.6l0.6-0.3l0.6,0l0.6,0.2
	l0.6,0.5l0.6,0.1l0.6-1l-0.2-1.1l0.2-0.5l0.6-0.2l0.6,0.4l0.6,0l0.6,0.2l0.3,0.2l-0.2,1.1l0.5,0.1l0.1-0.1l0.4-0.5l0.5-0.6l0.1-0.1
	l0.6-0.1l0.3,0.2l0.3,0.3l0.6,0.7l0.4-1.1l0.2-0.2l0.6-0.2l0.6,0l0.6,0.1l0.6,0.3l0.1,0.1l0.5,0.1l0.6,0.2l0.6,0.2l0.6,0.4l0.2,0.2
	l0.4,0.2l0.2-0.2l0.3-0.3l0.6-0.3l0.6,0.2l0.4,0.4l0.2,0.1l0.6,0.1l0.6,0.1l0.6,0l0.6,0.4l0.3,0.4l0.3,1l0,0.1l0,0.1l-0.6,0.4
	l-0.6,0.5l-0.4,0.2l-0.2,0.2l-0.6,0.6l-0.1,0.2l0.1,0.1l0.6,1l0,0l0.6,0.4l0.6,0.4l0.2,0.3l0.4,0.3l0.5,0.8l0.1,0.1l0.6,1l0,0.2
	l0.6,0.7l0.4,0.2l-0.4,0.2l-0.6,0.3l-0.1,0.6l-0.5,1l-0.6,0l-0.6-0.3l-0.6,0l-0.6-0.3l-0.6,0.1l-0.6-0.3l-0.1-0.1l0-1.1l-0.4-1.1
	l-0.1-0.2l-0.6-0.4l-0.6,0l-0.4-0.4l-0.1-1.1l0.1-1.1l-0.1-0.3l-0.6-0.3l-0.4,0.6l-0.2,0.1l-0.6,0.2l-0.4-0.4l0.2-1.1l0.2-0.5
	l0.4-0.6l-0.4-0.6l-0.6-0.4l-0.6,0.2l-0.6,0.2l-0.6,0l-0.6,0.1l-0.6,0.6l0,0l-0.6,0.8l-0.2,0.3l-0.4,0.6l-0.6,0.3l-0.6,0.1l-0.2,0
	l-0.4,1.1l0.2,1.1l-0.1,1.1l0.4,1.1l0.1,0.4l0.3,0.7l0.3,0.1l0.6,0.3l0.4,0.7l0.1,0.1l0.6,0.9l0,0l0.6,0.6l0.4,0.5l0.2,0.2l0.6,0.7
	l0.1,0.2l-0.1,0.4l-0.2,0.7l-0.4,0.2l-0.6,0.1l-0.6-0.1l-0.3-0.2l-0.3-0.1l-0.6-0.2l-0.5-0.8l0,0l-0.6-0.1l-0.6-0.2l-0.6-0.5
	l-0.4,0.9l-0.1,0.1l-0.6,0.2l-0.6-0.3l-0.1-0.1l-0.4-1.1l-0.1-1.1l0,0l-0.6-0.4l-0.6-0.1l-0.6,0.6l0,0l-0.1,1.1l-0.3,1.1l-0.1,0.1
	l-0.6,0.3l-0.6,0.4l-0.6,0.1l-0.6,0l-0.6,0.1l-0.2,0l0.2,0l0.6,0l0.6,0l0.6,0.2l0.6,0.3l0.1,0.5l0.4,0.5l0.2,0.6l0,1.1l0.4,1.1l0,0
	l0.4,1.1l-0.4,0.5l-0.6,0.3l-0.6-0.2l-0.6-0.4l-0.3,0.9l-0.1,1.1l-0.1,0.2l-0.6-0.1l-0.2-0.1l-0.3-0.2l-0.6-0.4l-0.4,0.6l0.3,1.1
	l0,1.1l0.2,0.9l0,0.1l0,0.1l-0.4-0.1l-0.1,0l-0.6-0.9L144,36l-0.2-0.1l-0.1,0.1l0.1,0.4l0.1,0.6l-0.1,0.3l-0.6,0.8l-0.3-1l-0.2-1.1
	l-0.1-0.1l-0.4-1l-0.1-0.4l-0.6-0.2l-0.6,0.3l-0.6,0.1l-0.2-0.8l-0.4-0.7l-0.3-0.4l-0.3-0.5l-0.4-0.5l-0.1-1.1l-0.1-0.5l-0.6,0
	l-0.6,0.3l-0.1,0.2l0.1,0.1l0.5,0.9l-0.3,1.1l0.4,0.5l0.2,0.6l-0.2,0.8l-0.6,0.1l-0.6-0.5l-0.6-0.1l-0.6,0.1l-0.6,0.1l-0.6,0.5
	l-0.6-0.8l-0.1-0.2l-0.5-0.7l-0.6,0.1l-0.6,0.2l-0.6-0.4l-0.4-0.4l-0.2-0.4l-0.4-0.7l0.1-1.1l-0.1-1.1l-0.2-0.1l-0.2,0.1l-0.3,0.2
	l-0.6,0.2l-0.3,0.7l-0.2,0.4l-0.6,0.3l-0.6,0.2l-0.1,0.3l-0.5,0.6l-0.6,0.4l0,0l-0.3,0l-0.3,0l0,0l-0.6,0.6l-0.5,0.4l0.5,0.3
	l0.4,0.8l0.2,0.2l0.5,0.8l0.1,0.1l0.6,0.4l0.4,0.6l-0.4,0.7l-0.6,0.2l-0.6,0l-0.6-0.1l-0.6,0l-0.6,0.2l-0.5,0.1l-0.1,0l-0.6,0
	l-0.6,0l-0.6,0.4l-0.6,0.1l-0.6,0.1l-0.6,0l-0.6-0.1l-0.6,0l-0.6-0.1l-0.4-0.4l-0.2-0.9l0-0.1l0-0.2l0.6-0.3l0.6-0.1l0.6,0.2
	l0.6,0.3l0.4-0.9l0-1.1l-0.2-1.1l0.4-1.1l-0.5-0.6l-0.3-0.4l-0.3-0.2l-0.5,0.2l0.5,0.1l0.5,0.9l0.1,1.1l-0.5,1l0,0.1l-0.5,0.4
	l-0.6,0l-0.6,0.4l-0.6-0.1l-0.6-0.7l-0.6-0.1l-0.6,0.3l-0.6,0.1l-0.6-0.2l-0.5-0.3l0,0l-0.1,0l-0.5,1.1l0,0l-0.6,0l-0.6,0.3
	l-0.6,0.2l-0.6-0.1l-0.6-0.1l-0.6,0l-0.6-0.2l-0.6,0.1l-0.5,0.8l0.5,0.3l0.6,0.4l0.2,0.4l-0.1,1.1l-0.1,0.8l-0.2,0.3l0,1.1l-0.4,0.3
	l-0.1-0.3l0-1.1l-0.4-0.9l-0.6,0.4l-0.6,0.3l-0.1,0.1l-0.5,0.7l-0.5,0.4l-0.1,0l0,0l-0.5-0.5l-0.5-0.6l-0.1-0.3l-0.3-0.8l0.3-0.5
	l0.2-0.5l0.3-0.5l0.6-0.4l0.3-0.2l0-1.1l-0.3-0.6l-0.6-0.1l-0.6,0l-0.6,0.1l-0.6,0.3l-0.6,0l-0.6-0.5l-0.4-0.2l-0.2-0.2l-0.6-0.4
	l-0.5-0.6l0-0.2l-0.3-0.9l0.3-0.2l0.5,0.2l0.1,0.1l0.6,0.4l0.6-0.3l0.1-0.2l0.2-1.1l0.2-0.6l0.4-0.4l0.1-0.2l0.6,0l0.6-0.4l0.4-0.5
	l0.1-0.3l0.6-0.3l0.5-0.5l-0.5-0.3l-0.6-0.1l-0.6-0.2l-0.6-0.5l-0.1-0.1l-0.5-0.6l-0.3-0.4l0-1.1l0.2-1.1l0.1-0.4l0.3-0.7l0.3-0.5
	l0.6-0.2l0.6-0.3l0.1-0.1l-0.1-0.1l-0.6-0.4l-0.6-0.1l-0.6-0.2l-0.6,0.1l-0.6,0.4l-0.6,0.2l-0.1,0.1l-0.4,0.2l-0.6,0l-0.6,0.2
	L99,22.7l-0.5,0.4l0,0.1l-0.6,0.7l-0.6,0.2l0,0.1L97,25.3l-0.3,0.4l-0.6,0.4l-0.4,0.2l-0.2,0.2l-0.6,0.8l-0.1,0.1l-0.2,1.1l-0.1,1.1
	l-0.2,0.3l-0.6-0.1l-0.3-0.1l-0.3-0.1l-0.6,0l-0.3,0.1L92,29.7l-0.2-0.1l-0.4-0.2l-0.2,0.2L90.9,30l-0.6,0.5l-0.6-0.2l-0.6-0.1
	l-0.3,0.6l-0.3,1.1l0,0l-0.4,1l0,1.1L88.1,35L88,35.2l-0.6,0.3l-0.6-0.2L86.5,35l-0.3-0.2l-0.6-0.2l-0.6-0.5l-0.5-0.3l-0.1,0l-0.6,0
	l-0.6,0l-0.1,0L83.1,35l0,1.1l-0.3,1.1l-0.1,1.1l0.3,1.1l0.1,1.1l0.1,0.6l0.2,0.5l0.4,0.5l0.6-0.3l0.4,0.9l0.1,0.2l0.3,0.8l0.3,0.6
	l0.2,0.5l-0.2,0.6l-0.1,0.5l-0.4,1L85,46.8l-0.4,1.1l0.5,0.8l0.3,0.3l0.2,0.1l0.6,0.5l0.2,0.4l0.2,1.1l0,1.1l0.2,1.1l0,0.2l0.1,0.9
	l-0.1,0.2L86.2,55l-0.6,0.1l-0.6,0.3l-0.1,0l-0.5,0.2l-0.6-0.1l-0.3-0.1l-0.3-0.1l-0.6-0.2l-0.3,0.4l-0.1,1.1l-0.2,0.2l-0.3-0.2
	l-0.3-0.2L81,55.9l-0.5-0.4l-0.1-0.3l-0.3-0.8l-0.3-0.5l-0.6-0.4l-0.6-0.2l0,0l-0.2-1.1l0.2-0.1l0.1,0.1l0.5,0.9l0.6-0.9l0,0
	l0.6-0.4l0.6-0.4l0.6-0.3l0,0l0.6-0.2l0.6,0l0.3-1l-0.3-0.3l-0.6-0.5l-0.6,0.1L81,49.1L80.8,49l-0.4-0.3l-0.6-0.8l0,0l-0.6-0.4
	l-0.6-0.6l-0.1-0.1l-0.5-0.9L77.5,46l-0.1-0.3l0.1-0.2l0.6-0.1l0.2-0.8l0.4-0.7l0.5-0.3l-0.4-1.1l0-0.1l-0.6-0.8l-0.2-0.2l-0.4-0.6
	l-0.2-0.5l-0.1-1.1l-0.3-0.5l-0.6-0.1L75.8,39l0,0.3l0,0.1l0.3,1l0.2,0.9l0.1,0.2l0,1.1l-0.1,0.1l0-0.1l-0.5-0.7l-0.6,0L74.6,42
	l-0.5,0.5l0,1.1L74,44l-0.6,0.5l-0.6-0.3l-0.6-0.3l-0.6,0.6l0,0.2l-0.3,1.1l-0.2,0.2l-0.4-0.2l-0.2-0.1l-0.4-0.9l-0.2-1l0-0.1l0-0.2
	l0.2-0.9L70,42.3l-0.6-0.9l0,0l-0.5-0.6l-0.1-0.4l0.1-0.8l0-0.2l0.4-1.1l0.2-0.3l0.5-0.8l0-1.1l0-0.4l0-0.7l0.3-1.1l0.3-0.6l0.1-0.4
	l0.4-0.5l0.6-0.3h0.6l0.6,0.1l0.6,0L74,32l0.6-0.2l0.6-0.1l0.6,0.1l0.6,0l0.2-0.1l0.4-0.9l0.1-0.2l-0.1-0.1l-0.6-0.4l-0.6,0
	l-0.6-0.1l-0.6-0.2l-0.6-0.3l0-0.1l-0.3-1l0.3-0.4l0.6-0.2l0.6,0.2l0.6-0.4l0.1-0.2l0.5-0.9l0.6,0l0.6,0l0.6,0.1l0.6,0.4l0.6,0.4
	l0.6-1l0-0.1l0,0l-0.6-0.6l-0.6-0.2l-0.4-0.2l-0.2-0.1l-0.2,0.1l-0.4,0.4l-0.6-0.3l-0.6,0.2l-0.6-0.1l-0.1-0.3l0.1-0.3l0.6,0
	l0.3-0.8l-0.3-0.5l-0.6-0.1l-0.6,0l-0.6,0.2l-0.4,0.3L74,24.4l-0.6,0.2l-0.6-0.3l-0.2-0.1l-0.4-0.1l-0.6-0.3l-0.6-0.6L71,23.1
	l-0.5-0.3L70,22.7l-0.6-0.1l-0.3-0.5l0.1-1.1l0.1-0.4l0.3-0.7l0-1.1l-0.3-0.5l-0.5-0.6l0-1.1l-0.1-0.4l-0.6-0.2l-0.4,0.6l0,1.1
	l0.1,1.1l-0.3,0.4l-0.5-0.4l0,0l-0.6-0.1l-0.6,0l-0.3-1l-0.3-0.5L65,16.7l-0.2-0.9l-0.1-0.2l0.1-0.3l0.5-0.8l-0.5-0.4l-0.6,0.1
	l-0.4,0.3l-0.2,1.1l0,0L63,16.7l0,0l-0.6,0.6l-0.6,0.1l-0.6-0.2L60.7,17l-0.6,0.4l0,0.4l-0.3,1.1L59.5,19l-0.6,0.7l0,0.1l-0.6,1
	L58.2,21l0.1,0.1l0.6,0.1l0.6,0.8l0,0l0.4,1.1l-0.2,1.1l-0.2,0.2l-0.6,0.4l-0.6-0.3l-0.2-0.4l-0.4-1.1l0,0l-0.6-0.8l-0.6,0.1
	L56,22.7l-0.6,0l-0.6-0.3l-0.3-0.3l-0.3-0.6l-0.6-0.3l-0.6-0.1L53.1,21l-0.2-1.1l-0.3-0.3L52,19.2L51.4,19l-0.6-0.1l-0.2,0l-0.4-0.1
	l-0.3-1l0.3-1l0.1-0.1l0.5-0.6l0.3-0.4l-0.3-0.2l-0.6,0.2l-0.4,0.1l-0.2,0l-0.6,0l0,0l-0.6-0.9l-0.1-0.2l-0.5-0.8l-0.3-0.2l-0.3-1.1
	l0,0l-0.6-0.2L46.2,12l-0.6-0.3L45,11.6l-0.2-0.3l-0.4-0.4l-0.6-0.5l-0.2-0.2l-0.3-0.3l-0.4-0.8l-0.2-0.6l-0.3-0.5l0-1.1l-0.3-0.8
	L41.9,7l-0.3,1.1l-0.1,0.1l0-0.1l-0.5-1l-0.6,0l-0.6,0.6l-0.6-0.1l-0.6,0L38,7.2L37.9,7L38,6.1l0.1-0.2L38,5.8l-0.6-0.7l-0.1-0.2
	l-0.1-1.1l0.2-1.1l-0.6-0.1l-0.1,0.1l-0.5,0.5l-0.4,0.5L35.7,4l-0.6,0.5l-0.4,0.3L34.5,5L34,5l-0.3-0.1l-0.3-0.1l-0.6-1l0,0
	l-0.6-0.2L32,3.8l0.2,0.3l0.3,0.8l0.1,1.1l-0.4,0.8L32,7l-0.3,0.4l-0.4,0.7l-0.2,0.5l-0.3,0.6l-0.3,0.3L29.9,10l-0.2,0.2l-0.4,0.5
	L28.7,11l-0.6,0.1l-0.6,0L27,10.9l-0.4-0.7l-0.1-0.5l-0.6-0.5l-0.2,1.1l-0.1,1.1l-0.3,0.5l-0.4,0.5l-0.2,0.4L24.1,13l-0.4-0.6
	l-0.2-0.2l-0.6,0l-0.3,0.2l-0.3,0.2L21.8,13l-0.2,0.5l0.1,1.1l-0.3,1.1l-0.2,0.1l-0.1-0.1l-0.5-0.4L20,15.3l-0.4,0.3l-0.2,0.2
	l-0.1-0.2l-0.4-1.1l-0.1-0.1l-0.6-0.1l-0.2,0.2l-0.3,0.4l-0.5,0.7l-0.1,0.1l-0.6-0.1l-0.1,0L16,15.3l-0.6,0l-0.5-0.7l0.5-0.5
	l0.6-0.3l0.1-0.4l0.2-1.1L16,11.3l0.1-1.1L16,10l-0.6-0.7l-0.3-0.1l0.3-0.4l0.1-0.7L16,7.6l0.6-0.6L16.7,7l-0.1-0.6L16,6l0-0.1
	l-0.5-0.4l-0.6-0.7L15.4,4l0.2-0.3L16,3.3l0.6-0.4l0.6-0.2l0.1,0l0.5-0.2l0.3-0.9l0-1.1V0"/>
<path class="st0" d="M80.4,0v0.5l0.4,1.1L81,2.1l0.6,0.2L82.2,2l0.6-0.1l0.6-0.1l0.6-0.2l0.1,0l0.5-0.2l0.6,0.2l0.2,0.1l0.4,0.1
	l0.5-0.1l0,0l0,0l0.5,0.1l0.6,0.4L88,2.2l0.6,0.3l0.3,0.2l0.3,0.9l0.1,0.1l-0.1,0.1l-0.6,1l0.6,0.4L89.7,5l0.6-0.1l0.3,0l0.3,0
	l0.6-0.3l0.6,0l0.2,0.3l0.4,0.7l0.6,0.2l0.6,0.1l0.1,0.1L94,7l0.4,0.1l0.6,0.2l0.6,0.2l0.6,0.1l0.6,0.1l0.6,0.2l0.6,0l0.6-0.2
	L99,7.5l0.6,0.2l0.4,0.4l0.2,0.6l0.2,0.5l0.1,1.1l-0.3,0.8l-0.4,0.3l0.3,1.1l0.1,0.1l0.1-0.1l0.5-0.3l0.6,0l0.6,0.1l0.6-0.6l0.6-0.4
	l0-1.1l-0.4-1.1l0.5-0.6l0.5-0.4L103.5,7l0.1-0.1l0.1,0.1l0.4,0.5l0.6,0.4l0.2,0.2l0.4,0.2l0.5,0.9l0,1.1l0.1,0.6l0.1,0.4l0.5,0.3
	l0.6,0.1l0.6,0.1l0.6,0.3l0.4,0.4l0.2,0.5l0.5,0.5l0.1,0l0.3,0l0.3,0l0,0l0.5,0.5l0.6-0.1l0.6-0.3l0.6-0.1l0.6,0l0.6,0.1l0.6,0.2
	l0.6,0.4l0.3,0.3l0.3,0.6l0.4,0.4l0.2,0.1l0.6,0.2l0.6,0.1l0.6,0.3l0.4,0.3l0.1,0.1l0.6,0l0.6-0.1l0.1-0.1l0.5-0.4l0.5-0.7l-0.2-1.1
	l-0.2-0.4l-0.2-0.6l-0.4-0.8l-0.1-0.2l-0.4-0.4l-0.6-0.3l-0.3-0.4l-0.1-1.1l-0.2-0.7l-0.1-0.4l0.1-0.4l0.6-0.1l0.6,0.1l0.6-0.5
	l0-0.2l0.5-0.6l0.6,0.3l0.6,0l0.4-0.7l0.2-0.1l0.6,0l0.1,0.1l0.5,1.1l0,0.5l0,0.5l0.1,1.1l0.4,0.2l0.6,0.1l0.6,0.2l0.6,0.1l0.6,0
	l0.6,0.2l0.6,0l0.6-0.1l0.6-0.1l0.6-0.1l0.6-0.1l0.6-0.1l0.6,0.2l0.6,0.4l0.6-0.2l0.6-0.3l0.6-0.1l0.6,0l0.6,0l0.6,0l0.6-0.2
	l0.5-0.1l-0.3-1.1L135,8.9l-0.5-0.9l0.5-0.3l0.6-0.2l0.6,0l0.6,0.1l0.6,0l0.6-0.1l0.6-0.1l0.4-0.4l-0.3-1.1l0.1-1.1l0.4-0.6l0.5-0.5
	l0,0l0.6-0.4l0.6-0.5l0.3-0.1l0.3-0.2l0.6-0.5l0.6,0.3l0.6,0.2l0.2-0.7l0.3-0.3l0.3,0.3l0.3,0.6l0.6,0l0.5-0.7l0.1-0.1l0.6-0.2
	l0.6-0.4l0.6,0.1l0.6,0.4l0.6,0l0.1,0.2l0.1,1.1l-0.1,1.1l0.5,0.4l0.6,0.3l0.6,0.2l0.6-0.3l0.6-0.2l0.6,0.5l0.2,0.1l0.3,0.1l0.3-0.1
	l0.3-0.2l0.6-0.3l0.6,0l0.6,0.1l0.6,0.2l0.1,0.2l0.4,0.8l0.2,0.3l-0.2,0.3l-0.6,0.4l-0.6,0.3L154.3,7l0.5,0.6l0.2,0.4l0.4,0.1
	l0.6,0.2l0.6-0.1l0.6-0.1l0.6-0.1l0,0l0.6-0.5l0.6-0.2l0.4-0.4l0.1-0.1l0.6-0.1l0.3,0.2l0.3,0.4l0.6,0.5l0.6-0.1l0.6-0.8l0,0
	l0.6-0.8l0.3-0.3l0.3-0.3l0.6,0.2l0.1,0.1l0.5,0.3l0.6,0.2l0.6-0.2l0.6,0.1l0.6,0.4l0.4,0.2l0.2,0.6l0.2,0.4l-0.2,0.2l-0.6,0.3
	l-0.6,0.3l-0.6,0l-0.2,0.3l0.2,0.2l0.6,0.1l0.6,0.2l0.4,0.6l0.2,0.3l0.6,0.6l0.4,0.2l0.2,0.4l0.2,0.7l-0.2,0.4l-0.4,0.7l0.1,1.1
	l0.2,1.1l0,0l0.6,0.6l0.2,0.5l0.3,0.6l0.1,0.5l0.4,1.1l0.1,0.1l0.5,1l0.1,0.3l0.3,0.8l-0.3,0.9l-0.1,0.2l-0.5,0.3l-0.6-0.3l-0.1,0
	l-0.5-0.2l-0.3,0.2l-0.2,0.1l-0.6,0.5l-0.6,0l-0.6-0.1l-0.6,0l-0.6-0.2l-0.6,0.1l-0.6-0.1l-0.3-0.3l-0.3-0.4l-0.6-0.4l-0.6-0.1
	l-0.6-0.1l-0.2-0.1l-0.4-0.4l-0.6-0.5l-0.3-0.2l-0.3-0.4l-0.5-0.6l-0.1-0.1l-0.6-0.3l-0.6-0.5l-0.2-0.2l-0.3-0.1l-0.6-0.1l-0.6-0.2
	l-0.3,0.4l-0.2,1.1l0.1,1.1L157,21l0.1,0.2l0.2,0.8l0.4,0.8l0.3,0.3l0.3,0.2l0.6,0.5l0.1,0.4l0.3,1.1l-0.1,1.1l-0.4,0.5l-0.6,0.2
	l-0.6,0.1l-0.6,0l-0.6,0l-0.6-0.1l-0.6-0.1l-0.6,0.4l0.2,1.1l0.4,0.7l0.1,0.4l0.3,1.1l0.2,0.1l0.6,0.1l0.6-0.1l0,0l0.5-0.3l0.6-0.1
	l0.6-0.2l0.6-0.1l0.6-0.1l0.6,0l0.6,0.5l0.3,0.4l0.3,0.2l0.6,0.9l0,0l0.6,0.3l0.6,0.1l0.6,0.3l0.2,0.4l0.4,0.6l0.2,0.5l-0.1,1.1
	l-0.1,0.2l-0.6,0.3l-0.6-0.1l-0.6,0l-0.6-0.4l-0.6,0.4l-0.6,0.4l-0.6-0.1L160,36l-0.1,0.1l-0.5,0.3l-0.6,0.1l-0.6-0.1l-0.6,0.1
	l-0.6,0.7l0,0l-0.6,0.3l-0.6-0.3l0,0l-0.3-1.1l-0.3-0.2l-0.4,0.2l-0.2,0.2l-0.3-0.2l-0.3-0.1l-0.5-1l-0.1-0.6l-0.6,0l-0.6,0.2
	l-0.5-0.7l0.1-1.1l-0.1-0.6l0-0.4l0-0.1l0.6-0.3l0.6-0.5l0.1-0.2l0.2-1.1l0.3-1.1l-0.6-1.1l0,0l-0.6-0.4l-0.6,0.2l-0.6,0.1l-0.6,0.1
	l0,0l-0.6,0.3l-0.4,0.8l-0.1,1.1l0.5,0.7l0.2,0.4l0.2,1.1l-0.4,0.7l-0.6,0.4l0,0l-0.6,0.9l-0.6,0.2l0,0l-0.4,1.1l-0.2,0.3l-0.6,0
	L147,35l-0.4-0.2l-0.6,0l-0.2,0.3l0,1.1l0.2,0.6l0.6,0.5l0,0.1l0.5,0.2l0.6,0.1l0.6,0.1l0.6,0.3l0.3,0.4l-0.3,0.4l-0.6,0.1l-0.6,0.3
	l-0.5,0.3l-0.1,0.1l-0.6,0l-0.6,0.1l-0.2-0.1l-0.4-0.4l-0.4-0.7l-0.2-0.2l-0.6-0.6l-0.3,0.8l-0.2,0.9l-0.1,0.2l-0.5,0.5l-0.6,0.5
	l0,0.1l-0.5,0.6l-0.6,0.2l-0.6,0l-0.6,0.3l-0.1,0.1l0.1,0.6l0.1,0.5l-0.1,0.5l-0.2,0.5l-0.4,0.2l-0.6,0l-0.6,0.1l-0.6,0l-0.6,0.8
	l0,0l0,0l-0.1-1.1l0.1-0.4l0.6-0.2l0.6-0.1l0.2-0.4l-0.2-0.2l-0.6-0.2l-0.3-0.6l0.3-0.9l0.1-0.2l0.5-0.6l0.6-0.4l0.1,0l0.5-0.5
	l0.6-0.4l0.1-0.1l0.4-0.7l0.6-0.2l0.6-0.1l0.1-0.1l-0.1-0.6l-0.5-0.5l-0.1-0.1l-0.3,0.1l-0.3,0.1l-0.6,0.4l-0.6,0l-0.5-0.4l-0.1-0.2
	l-0.6,0l-0.6,0l-0.6-0.1l-0.6-0.1l-0.6-0.3l-0.6-0.3l-0.6,0.4l-0.3,0.7l-0.3,0.5l-0.6,0l-0.2-0.6l-0.2-1.1l-0.2-0.7l-0.6,0.2
	l-0.6-0.1l-0.2-0.4l-0.4-0.2l-0.6-0.5l-0.4-0.4l-0.2-0.3l-0.6-0.6l-0.6,0.2l-0.4,0.7l-0.1,1.1l-0.1,0.1l-0.6,0.2l-0.5-0.4l-0.1-0.1
	l-0.6-0.2l-0.6,0.2l-0.6,0.1l0,0l0,0.1l0.4,1l0.2,0.3l0.6,0.6l0.3,0.2l0.3,0.3l0.2,0.8l-0.2,0.3l-0.4,0.7l-0.2,0.2l-0.6,0.1
	l-0.6,0.1l-0.6-0.2l-0.6,0l-0.6,0.3l-0.6,0.1l-0.6,0.1l-0.6,0.1l-0.6,0.2l-0.6,0.1l-0.6,0.1l0,0l0,0l-0.6-0.1l-0.6-0.2l-0.6-0.1
	l-0.6-0.1l-0.6-0.4l-0.2-0.2l-0.2-1.1l-0.1-0.6l-0.2-0.5l-0.4-0.3l-0.6-0.1l-0.6,0.2l-0.6,0.2l-0.6-0.1l-0.3,0.2l-0.2,0.2l-0.6,0.4
	l-0.6,0l-0.6,0.3l-0.6,0.1l-0.6-0.2l-0.6-0.1l-0.6,0l-0.6,0.1l-0.6,0.3l0,0.1l0,0l0.6,0.3l0.4,0.8l-0.1,1.1l-0.2,1.1l0,1.1l-0.1,0.5
	l-0.6,0.4l-0.4-0.8l-0.2-1.1l0,0l-0.1,0l-0.5,0.3l-0.6,0.2l-0.5,0.6l-0.1,0.2l-0.6,0.2l-0.4-0.4l-0.1-0.1l-0.6-0.7l-0.5-0.3l0-0.2
	l-0.1-0.9l0.1-0.2l0.5-0.9l0-0.1l0.6-0.8l0.5-0.2l0.1-0.3l0.1-0.7l-0.1-0.2l-0.6-0.2l-0.6,0.1l-0.6,0l-0.6,0.2l-0.6,0l-0.6-0.4
	l-0.6-0.2l-0.5-0.3l-0.1-0.1l-0.6-0.6l-0.4-0.4l-0.2-0.3L99,33l-0.1-0.1l0.1-0.1l0.6-0.4l0.6-0.2l0.6,0l0.6,0.7l0,0l0,0l0.6-0.9
	l0-0.2l0-0.5l-0.6-0.3l-0.3-0.3l-0.3-0.4l-0.6-0.5l-0.5-0.2l-0.1-0.7l-0.1-0.4l0.1-0.1l0.6-0.7l0.1-0.4l-0.1-0.2l-0.3-0.9l-0.3-0.7
	L99,25.9l-0.6,0.2l-0.2,0.3l-0.4,0.3l-0.6,0.2l-0.6,0.2l-0.6,0.2l-0.3,0.2l-0.3,0.2l-0.3,0.8l-0.1,1.1l-0.1,0.2l-0.6,0.6l-0.6-0.1
	l-0.6-0.2l-0.6,0.1L92,30.4l-0.6,0l-0.4,0.3l-0.2,0.3l-0.6,0.4l-0.6,0.1l-0.2,0.3l-0.2,1.1L89.1,33l-0.5,0.9L88.6,35l0,0L88,36l0,0
	l0,0l-0.6,0l-0.6-0.2L86.6,36l0.1,1.1l0.1,0.5l0.2,0.6l0.2,1.1l-0.3,1.1l-0.1,0.1L86.2,41l-0.6-0.6l-0.1-0.1l-0.5-1.1l-0.1,0
	l-0.6-0.1l-0.6,0l-0.2,0.1l0.1,1.1l0,0.1l0.6,0.1l0.6,0.7l0.1,0.1l0.1,1.1l0.4,1l0,0l0.3,1.1l-0.3,1.1l-0.1,0.4l-0.2,0.7l0.1,1.1
	l0.1,0.1l0.6,0.6l0.3,0.4l0.3,0.8l0.1,0.3l0.1,1.1l0.1,1.1l0.1,1.1l0.2,0.6l0.2,0.4l0.4,0.4l0.6,0.5l0.1,0.3l0.4,0.9l0.1,0.2
	l0.4,1.1l0,0.2l0.6,0.6l0.3,0.3l0.3,0.6l0.2,0.5l-0.2,0.5l-0.6,0.4l-0.6,0.2l0,0l0,0l-0.6-0.1l-0.6,0l-0.1,0.1L88,61.3l-0.6,0.1
	l-0.3-0.5l0-1.1l0-1.1l-0.2-0.8l-0.1-0.3l0.1-0.6l0-0.4l0-0.2L86.2,56l-0.6,0.1l-0.5,0.4l-0.1,0.1l-0.6,0.1l-0.6-0.1l0,0l-0.6-0.1
	l-0.1,0.1L83,57.6l-0.2,0.3l-0.6-0.2L82,57.6l-0.4-0.4L81,56.6l-0.5-0.1l-0.1,0l-0.3,0l-0.2,1.1l0,0.1l-0.6,0.2L79,57.6l-0.3-0.2
	l-0.6-0.7L78,56.5l-0.1-1.1l-0.1-1.1l-0.1-1.1l0.1-1.1l0.4-0.5l0.6-0.1l0.6,0.3l0.6-0.3l0.6-0.3l0.4-0.3l0.2-0.4l0.4-0.7L81,49.7
	l-0.6-0.2l-0.6,0L79.4,49l-0.1-0.2l-0.1-0.8l-0.4-0.4l-0.6-0.6L77.5,47l-0.4-0.2L77,45.7l0.6-0.7l0.3-0.4l0.3-0.3l0.4-0.7l-0.3-1.1
	l-0.2-0.2l-0.6-0.6l-0.2-0.3l-0.2-1.1l-0.1-0.6l-0.6-0.5l0,0l0,0l0,0.2l0.1,0.9l0.3,1.1l0.1,0.9l0.1,0.2l-0.1,0.1l-0.6,0.6L76,42.5
	l-0.2-0.3l-0.6-0.1l-0.6,0.2l-0.2,0.2l-0.1,1.1l-0.2,1.1L74,44.8L73.5,45l-0.5-0.3l0,0l-0.6-0.3L72,44.7l-0.1,1.1L71.7,46l-0.6,0.3
	l-0.6-0.2l-0.2-0.5L70,44.9l-0.1-0.2l-0.3-1.1l-0.2-0.9l-0.1-0.2l-0.4-0.4l-0.5-0.6l0.1-1.1l0.2-1.1l0.2-0.9l0-0.1l0.5-0.8l0.2-0.3
	l0.1-1.1l0-1.1l0.2-1.1l0.1-0.1l0.5-1l0.1-0.2l0.6-0.6l0.6-0.2l0.6,0l0.6,0.1l0.6,0l0.6-0.1l0,0l0.5-0.5l0.6-0.4l0.2-0.1l-0.2-0.1
	l-0.6-0.2L74,30.1l-0.6-0.3l-0.2-0.2l-0.4-0.7l-0.2-0.4l0.2-0.3l0.6-0.1l0.6-0.5l0.6-0.1l0.6,0.1l0.1-0.1l-0.1-1.1l-0.1-0.2
	l-0.3-0.9l-0.3-0.5L74,25l-0.6,0.1L72.9,25l-0.6,0.1l-0.6-0.6l0-0.3l-0.5-0.5l-0.6-0.4L70,23.3l-0.6,0.3l-0.2-0.5l-0.3-0.7l-0.1-0.3
	l0.1-0.2L69,21l0.4-1l0-0.1l0-0.2l-0.6-0.6l-0.6,0.8l0,0.1l-0.6,0.3l-0.6,0.1L66.5,20l-0.6,0.3L65.3,21l0,0l0,0l-0.1-1.1l-0.2-1.1
	l-0.1-1.1l-0.2-0.3l-0.6-0.3l-0.5,0.6L63.6,18l-0.2,0.9L63,19.5l-0.6,0.4l0.4,1.1l0.2,0.6l0.1,0.5L63,22.2l-0.6,0.1l-0.6-0.1
	l-0.3-0.2L61.3,21l0,0l0,0l0.6-0.9l0.6-0.1l-0.6-0.5l-0.6-0.3l-0.6,0l-0.4,0.9l-0.2,0.9l0,0.2l0,1.1l0,0.1l0.2,1l-0.1,1.1l-0.1,0.2
	l-0.6,0.7l-0.2,0.2l-0.3,0.1l-0.6-0.1l0,0l-0.6-1.1l0-0.1l-0.5-1L57.2,23l-0.4,0.2l-0.2,0.1L56,23.4l-0.6-0.2l-0.1-0.1l-0.5-0.4
	l-0.6-0.6l-0.1-0.1l-0.5-0.5l-0.6-0.1L52.6,21l-0.1-0.3l-0.4-0.8L52,19.8l-0.6-0.3l-0.6-0.1l-0.6-0.1l-0.5-0.4l-0.1-1.1l0.2-1.1
	l-0.2-0.4l-0.6-0.2l-0.6-0.2l-0.6-0.2l-0.6,0.3l-0.6-0.1l-0.5-0.2l0.1-1.1l0-1.1l-0.2-0.3l-0.6-0.3L45,12.8l-0.5-0.4l-0.1-0.1
	l-0.3-1L43.8,11l-0.6-0.3l-0.5-0.4L42.7,10l-0.6-0.2l-0.6-0.5l-0.2-0.2l-0.4-0.7l-0.6,0.3L39.8,9l-0.6-0.4l-0.6-0.2l-0.6,0l-0.2-0.3
	l-0.4-0.6L37.3,7l-0.3-1.1l-0.1-0.5l-0.1-0.6l-0.4-0.4l-0.4,0.4L35.7,5l-0.6,0.6l-0.4,0.3L34.5,6L34,6.1l-0.4-0.2l-0.2-0.1l-0.2,0.1
	l-0.3,0.2L32.4,7l-0.2,0.3l-0.6,0.6l-0.1,0.2l-0.4,1.1l0,0l-0.6,0.7L30,10.2l-0.1,0.1L29.3,11l-0.6,0.3l-0.6,0.1l-0.3,0l-0.3,0.1
	l-0.1-0.1L27,11.2l-0.6-0.7L26,11.3l-0.2,0.8l-0.2,0.2l-0.4,0.4l-0.3,0.7l-0.2,0.4l-0.6,0.1l-0.4-0.5l-0.2-0.4l-0.6,0.3l-0.3,0
	l-0.3,0.1l-0.2,1l-0.1,1.1l-0.3,0.3l-0.6,0.1l-0.6-0.4L20,15.9l-0.6,0.7l-0.6-1l0,0l-0.6-0.8l-0.6,0.6l-0.1,0.2l-0.5,0.6l-0.6,0
	L16,15.9l-0.6,0L15,15.6l-0.2-0.3l-0.2-0.8l0.1-1.1l0.1-0.2l0.6,0.1l0.5-1l-0.3-1.1l0.1-1.1l-0.2-0.3l-0.6-0.3l-0.6,0l-0.6-0.3
	l-0.1-0.1l-0.5-0.6l-0.6-0.1l-0.6-0.4l0.6-0.7l0.6,0l0.6-0.1l0.6,0.3L14.8,8l0.6-0.3L16,7.2L16.2,7L16,6.7l-0.6-0.6l-0.2-0.2
	l-0.4-0.3l-0.3-0.8l0.3-0.6l0.4-0.5l-0.4-0.9L14.2,3l-0.6,0l-0.6,0.2l-0.3-0.5l0-1.1l0.3-0.5l0.2-0.6V0"/>
<path class="st1" d="M80.4,0v0.5l0.4,1.1L81,2.1l0.6,0.2L82.2,2l0.6-0.1l0.6-0.1l0.6-0.2l0.1,0l0.5-0.2l0.6,0.2l0.2,0.1l0.4,0.1
	l0.5-0.1l0,0l0,0l0.5,0.1l0.6,0.4L88,2.2l0.6,0.3l0.3,0.2l0.3,0.9l0.1,0.1l-0.1,0.1l-0.6,1l0.6,0.4L89.7,5l0.6-0.1l0.3,0l0.3,0
	l0.6-0.3l0.6,0l0.2,0.3l0.4,0.7l0.6,0.2l0.6,0.1l0.1,0.1L94,7l0.4,0.1l0.6,0.2l0.6,0.2l0.6,0.1l0.6,0.1l0.6,0.2l0.6,0l0.6-0.2
	L99,7.5l0.6,0.2l0.4,0.4l0.2,0.6l0.2,0.5l0.1,1.1l-0.3,0.8l-0.4,0.3l0.3,1.1l0.1,0.1l0.1-0.1l0.5-0.3l0.6,0l0.6,0.1l0.6-0.6l0.6-0.4
	l0-1.1l-0.4-1.1l0.5-0.6l0.5-0.4L103.5,7l0.1-0.1l0.1,0.1l0.4,0.5l0.6,0.4l0.2,0.2l0.4,0.2l0.5,0.9l0,1.1l0.1,0.6l0.1,0.4l0.5,0.3
	l0.6,0.1l0.6,0.1l0.6,0.3l0.4,0.4l0.2,0.5l0.5,0.5l0.1,0l0.3,0l0.3,0l0,0l0.5,0.5l0.6-0.1l0.6-0.3l0.6-0.1l0.6,0l0.6,0.1l0.6,0.2
	l0.6,0.4l0.3,0.3l0.3,0.6l0.4,0.4l0.2,0.1l0.6,0.2l0.6,0.1l0.6,0.3l0.4,0.3l0.1,0.1l0.6,0l0.6-0.1l0.1-0.1l0.5-0.4l0.5-0.7l-0.2-1.1
	l-0.2-0.4l-0.2-0.6l-0.4-0.8l-0.1-0.2l-0.4-0.4l-0.6-0.3l-0.3-0.4l-0.1-1.1l-0.2-0.7l-0.1-0.4l0.1-0.4l0.6-0.1l0.6,0.1l0.6-0.5
	l0-0.2l0.5-0.6l0.6,0.3l0.6,0l0.4-0.7l0.2-0.1l0.6,0l0.1,0.1l0.5,1.1l0,0.5l0,0.5l0.1,1.1l0.4,0.2l0.6,0.1l0.6,0.2l0.6,0.1l0.6,0
	l0.6,0.2l0.6,0l0.6-0.1l0.6-0.1l0.6-0.1l0.6-0.1l0.6-0.1l0.6,0.2l0.6,0.4l0.6-0.2l0.6-0.3l0.6-0.1l0.6,0l0.6,0l0.6,0l0.6-0.2
	l0.5-0.1l-0.3-1.1L135,8.9l-0.5-0.9l0.5-0.3l0.6-0.2l0.6,0l0.6,0.1l0.6,0l0.6-0.1l0.6-0.1l0.4-0.4l-0.3-1.1l0.1-1.1l0.4-0.6l0.5-0.5
	l0,0l0.6-0.4l0.6-0.5l0.3-0.1l0.3-0.2l0.6-0.5l0.6,0.3l0.6,0.2l0.2-0.7l0.3-0.3l0.3,0.3l0.3,0.6l0.6,0l0.5-0.7l0.1-0.1l0.6-0.2
	l0.6-0.4l0.6,0.1l0.6,0.4l0.6,0l0.1,0.2l0.1,1.1l-0.1,1.1l0.5,0.4l0.6,0.3l0.6,0.2l0.6-0.3l0.6-0.2l0.6,0.5l0.2,0.1l0.3,0.1l0.3-0.1
	l0.3-0.2l0.6-0.3l0.6,0l0.6,0.1l0.6,0.2l0.1,0.2l0.4,0.8l0.2,0.3l-0.2,0.3l-0.6,0.4l-0.6,0.3L154.3,7l0.5,0.6l0.2,0.4l0.4,0.1
	l0.6,0.2l0.6-0.1l0.6-0.1l0.6-0.1l0,0l0.6-0.5l0.6-0.2l0.4-0.4l0.1-0.1l0.6-0.1l0.3,0.2l0.3,0.4l0.6,0.5l0.6-0.1l0.6-0.8l0,0
	l0.6-0.8l0.3-0.3l0.3-0.3l0.6,0.2l0.1,0.1l0.5,0.3l0.6,0.2l0.6-0.2l0.6,0.1l0.6,0.4l0.4,0.2l0.2,0.6l0.2,0.4l-0.2,0.2l-0.6,0.3
	l-0.6,0.3l-0.6,0l-0.2,0.3l0.2,0.2l0.6,0.1l0.6,0.2l0.4,0.6l0.2,0.3l0.6,0.6l0.4,0.2l0.2,0.4l0.2,0.7l-0.2,0.4l-0.4,0.7l0.1,1.1
	l0.2,1.1l0,0l0.6,0.6l0.2,0.5l0.3,0.6l0.1,0.5l0.4,1.1l0.1,0.1l0.5,1l0.1,0.3l0.3,0.8l-0.3,0.9l-0.1,0.2l-0.5,0.3l-0.6-0.3l-0.1,0
	l-0.5-0.2l-0.3,0.2l-0.2,0.1l-0.6,0.5l-0.6,0l-0.6-0.1l-0.6,0l-0.6-0.2l-0.6,0.1l-0.6-0.1l-0.3-0.3l-0.3-0.4l-0.6-0.4l-0.6-0.1
	l-0.6-0.1l-0.2-0.1l-0.4-0.4l-0.6-0.5l-0.3-0.2l-0.3-0.4l-0.5-0.6l-0.1-0.1l-0.6-0.3l-0.6-0.5l-0.2-0.2l-0.3-0.1l-0.6-0.1l-0.6-0.2
	l-0.3,0.4l-0.2,1.1l0.1,1.1L157,21l0.1,0.2l0.2,0.8l0.4,0.8l0.3,0.3l0.3,0.2l0.6,0.5l0.1,0.4l0.3,1.1l-0.1,1.1l-0.4,0.5l-0.6,0.2
	l-0.6,0.1l-0.6,0l-0.6,0l-0.6-0.1l-0.6-0.1l-0.6,0.4l0.2,1.1l0.4,0.7l0.1,0.4l0.3,1.1l0.2,0.1l0.6,0.1l0.6-0.1l0,0l0.5-0.3l0.6-0.1
	l0.6-0.2l0.6-0.1l0.6-0.1l0.6,0l0.6,0.5l0.3,0.4l0.3,0.2l0.6,0.9l0,0l0.6,0.3l0.6,0.1l0.6,0.3l0.2,0.4l0.4,0.6l0.2,0.5l-0.1,1.1
	l-0.1,0.2l-0.6,0.3l-0.6-0.1l-0.6,0l-0.6-0.4l-0.6,0.4l-0.6,0.4l-0.6-0.1L160,36l-0.1,0.1l-0.5,0.3l-0.6,0.1l-0.6-0.1l-0.6,0.1
	l-0.6,0.7l0,0l-0.6,0.3l-0.6-0.3l0,0l-0.3-1.1l-0.3-0.2l-0.4,0.2l-0.2,0.2l-0.3-0.2l-0.3-0.1l-0.5-1l-0.1-0.6l-0.6,0l-0.6,0.2
	l-0.5-0.7l0.1-1.1l-0.1-0.6l0-0.4l0-0.1l0.6-0.3l0.6-0.5l0.1-0.2l0.2-1.1l0.3-1.1l-0.6-1.1l0,0l-0.6-0.4l-0.6,0.2l-0.6,0.1l-0.6,0.1
	l0,0l-0.6,0.3l-0.4,0.8l-0.1,1.1l0.5,0.7l0.2,0.4l0.2,1.1l-0.4,0.7l-0.6,0.4l0,0l-0.6,0.9l-0.6,0.2l0,0l-0.4,1.1l-0.2,0.3l-0.6,0
	L147,35l-0.4-0.2l-0.6,0l-0.2,0.3l0,1.1l0.2,0.6l0.6,0.5l0,0.1l0.5,0.2l0.6,0.1l0.6,0.1l0.6,0.3l0.3,0.4l-0.3,0.4l-0.6,0.1l-0.6,0.3
	l-0.5,0.3l-0.1,0.1l-0.6,0l-0.6,0.1l-0.2-0.1l-0.4-0.4l-0.4-0.7l-0.2-0.2l-0.6-0.6l-0.3,0.8l-0.2,0.9l-0.1,0.2l-0.5,0.5l-0.6,0.5
	l0,0.1l-0.5,0.6l-0.6,0.2l-0.6,0l-0.6,0.3l-0.1,0.1l0.1,0.6l0.1,0.5l-0.1,0.5l-0.2,0.5l-0.4,0.2l-0.6,0l-0.6,0.1l-0.6,0l-0.6,0.8
	l0,0l0,0l-0.1-1.1l0.1-0.4l0.6-0.2l0.6-0.1l0.2-0.4l-0.2-0.2l-0.6-0.2l-0.3-0.6l0.3-0.9l0.1-0.2l0.5-0.6l0.6-0.4l0.1,0l0.5-0.5
	l0.6-0.4l0.1-0.1l0.4-0.7l0.6-0.2l0.6-0.1l0.1-0.1l-0.1-0.6l-0.5-0.5l-0.1-0.1l-0.3,0.1l-0.3,0.1l-0.6,0.4l-0.6,0l-0.5-0.4l-0.1-0.2
	l-0.6,0l-0.6,0l-0.6-0.1l-0.6-0.1l-0.6-0.3l-0.6-0.3l-0.6,0.4l-0.3,0.7l-0.3,0.5l-0.6,0l-0.2-0.6l-0.2-1.1l-0.2-0.7l-0.6,0.2
	l-0.6-0.1l-0.2-0.4l-0.4-0.2l-0.6-0.5l-0.4-0.4l-0.2-0.3l-0.6-0.6l-0.6,0.2l-0.4,0.7l-0.1,1.1l-0.1,0.1l-0.6,0.2l-0.5-0.4l-0.1-0.1
	l-0.6-0.2l-0.6,0.2l-0.6,0.1l0,0l0,0.1l0.4,1l0.2,0.3l0.6,0.6l0.3,0.2l0.3,0.3l0.2,0.8l-0.2,0.3l-0.4,0.7l-0.2,0.2l-0.6,0.1
	l-0.6,0.1l-0.6-0.2l-0.6,0l-0.6,0.3l-0.6,0.1l-0.6,0.1l-0.6,0.1l-0.6,0.2l-0.6,0.1l-0.6,0.1l0,0l0,0l-0.6-0.1l-0.6-0.2l-0.6-0.1
	l-0.6-0.1l-0.6-0.4l-0.2-0.2l-0.2-1.1l-0.1-0.6l-0.2-0.5l-0.4-0.3l-0.6-0.1l-0.6,0.2l-0.6,0.2l-0.6-0.1l-0.3,0.2l-0.2,0.2l-0.6,0.4
	l-0.6,0l-0.6,0.3l-0.6,0.1l-0.6-0.2l-0.6-0.1l-0.6,0l-0.6,0.1l-0.6,0.3l0,0.1l0,0l0.6,0.3l0.4,0.8l-0.1,1.1l-0.2,1.1l0,1.1l-0.1,0.5
	l-0.6,0.4l-0.4-0.8l-0.2-1.1l0,0l-0.1,0l-0.5,0.3l-0.6,0.2l-0.5,0.6l-0.1,0.2l-0.6,0.2l-0.4-0.4l-0.1-0.1l-0.6-0.7l-0.5-0.3l0-0.2
	l-0.1-0.9l0.1-0.2l0.5-0.9l0-0.1l0.6-0.8l0.5-0.2l0.1-0.3l0.1-0.7l-0.1-0.2l-0.6-0.2l-0.6,0.1l-0.6,0l-0.6,0.2l-0.6,0l-0.6-0.4
	l-0.6-0.2l-0.5-0.3l-0.1-0.1l-0.6-0.6l-0.4-0.4l-0.2-0.3L99,33l-0.1-0.1l0.1-0.1l0.6-0.4l0.6-0.2l0.6,0l0.6,0.7l0,0l0,0l0.6-0.9
	l0-0.2l0-0.5l-0.6-0.3l-0.3-0.3l-0.3-0.4l-0.6-0.5l-0.5-0.2l-0.1-0.7l-0.1-0.4l0.1-0.1l0.6-0.7l0.1-0.4l-0.1-0.2l-0.3-0.9l-0.3-0.7
	L99,25.9l-0.6,0.2l-0.2,0.3l-0.4,0.3l-0.6,0.2l-0.6,0.2l-0.6,0.2l-0.3,0.2l-0.3,0.2l-0.3,0.8l-0.1,1.1l-0.1,0.2l-0.6,0.6l-0.6-0.1
	l-0.6-0.2l-0.6,0.1L92,30.4l-0.6,0l-0.4,0.3l-0.2,0.3l-0.6,0.4l-0.6,0.1l-0.2,0.3l-0.2,1.1L89.1,33l-0.5,0.9L88.6,35l0,0L88,36l0,0
	l0,0l-0.6,0l-0.6-0.2L86.6,36l0.1,1.1l0.1,0.5l0.2,0.6l0.2,1.1l-0.3,1.1l-0.1,0.1L86.2,41l-0.6-0.6l-0.1-0.1l-0.5-1.1l-0.1,0
	l-0.6-0.1l-0.6,0l-0.2,0.1l0.1,1.1l0,0.1l0.6,0.1l0.6,0.7l0.1,0.1l0.1,1.1l0.4,1l0,0l0.3,1.1l-0.3,1.1l-0.1,0.4l-0.2,0.7l0.1,1.1
	l0.1,0.1l0.6,0.6l0.3,0.4l0.3,0.8l0.1,0.3l0.1,1.1l0.1,1.1l0.1,1.1l0.2,0.6l0.2,0.4l0.4,0.4l0.6,0.5l0.1,0.3l0.4,0.9l0.1,0.2
	l0.4,1.1l0,0.2l0.6,0.6l0.3,0.3l0.3,0.6l0.2,0.5l-0.2,0.5l-0.6,0.4l-0.6,0.2l0,0l0,0l-0.6-0.1l-0.6,0l-0.1,0.1L88,61.3l-0.6,0.1
	l-0.3-0.5l0-1.1l0-1.1l-0.2-0.8l-0.1-0.3l0.1-0.6l0-0.4l0-0.2L86.2,56l-0.6,0.1l-0.5,0.4l-0.1,0.1l-0.6,0.1l-0.6-0.1l0,0l-0.6-0.1
	l-0.1,0.1L83,57.6l-0.2,0.3l-0.6-0.2L82,57.6l-0.4-0.4L81,56.6l-0.5-0.1l-0.1,0l-0.3,0l-0.2,1.1l0,0.1l-0.6,0.2L79,57.6l-0.3-0.2
	l-0.6-0.7L78,56.5l-0.1-1.1l-0.1-1.1l-0.1-1.1l0.1-1.1l0.4-0.5l0.6-0.1l0.6,0.3l0.6-0.3l0.6-0.3l0.4-0.3l0.2-0.4l0.4-0.7L81,49.7
	l-0.6-0.2l-0.6,0L79.4,49l-0.1-0.2l-0.1-0.8l-0.4-0.4l-0.6-0.6L77.5,47l-0.4-0.2L77,45.7l0.6-0.7l0.3-0.4l0.3-0.3l0.4-0.7l-0.3-1.1
	l-0.2-0.2l-0.6-0.6l-0.2-0.3l-0.2-1.1l-0.1-0.6l-0.6-0.5l0,0l0,0l0,0.2l0.1,0.9l0.3,1.1l0.1,0.9l0.1,0.2l-0.1,0.1l-0.6,0.6L76,42.5
	l-0.2-0.3l-0.6-0.1l-0.6,0.2l-0.2,0.2l-0.1,1.1l-0.2,1.1L74,44.8L73.5,45l-0.5-0.3l0,0l-0.6-0.3L72,44.7l-0.1,1.1L71.7,46l-0.6,0.3
	l-0.6-0.2l-0.2-0.5L70,44.9l-0.1-0.2l-0.3-1.1l-0.2-0.9l-0.1-0.2l-0.4-0.4l-0.5-0.6l0.1-1.1l0.2-1.1l0.2-0.9l0-0.1l0.5-0.8l0.2-0.3
	l0.1-1.1l0-1.1l0.2-1.1l0.1-0.1l0.5-1l0.1-0.2l0.6-0.6l0.6-0.2l0.6,0l0.6,0.1l0.6,0l0.6-0.1l0,0l0.5-0.5l0.6-0.4l0.2-0.1l-0.2-0.1
	l-0.6-0.2L74,30.1l-0.6-0.3l-0.2-0.2l-0.4-0.7l-0.2-0.4l0.2-0.3l0.6-0.1l0.6-0.5l0.6-0.1l0.6,0.1l0.1-0.1l-0.1-1.1l-0.1-0.2
	l-0.3-0.9l-0.3-0.5L74,25l-0.6,0.1L72.9,25l-0.6,0.1l-0.6-0.6l0-0.3l-0.5-0.5l-0.6-0.4L70,23.3l-0.6,0.3l-0.2-0.5l-0.3-0.7l-0.1-0.3
	l0.1-0.2L69,21l0.4-1l0-0.1l0-0.2l-0.6-0.6l-0.6,0.8l0,0.1l-0.6,0.3l-0.6,0.1L66.5,20l-0.6,0.3L65.3,21l0,0l0,0l-0.1-1.1l-0.2-1.1
	l-0.1-1.1l-0.2-0.3l-0.6-0.3l-0.5,0.6L63.6,18l-0.2,0.9L63,19.5l-0.6,0.4l0.4,1.1l0.2,0.6l0.1,0.5L63,22.2l-0.6,0.1l-0.6-0.1
	l-0.3-0.2L61.3,21l0,0l0,0l0.6-0.9l0.6-0.1l-0.6-0.5l-0.6-0.3l-0.6,0l-0.4,0.9l-0.2,0.9l0,0.2l0,1.1l0,0.1l0.2,1l-0.1,1.1l-0.1,0.2
	l-0.6,0.7l-0.2,0.2l-0.3,0.1l-0.6-0.1l0,0l-0.6-1.1l0-0.1l-0.5-1L57.2,23l-0.4,0.2l-0.2,0.1L56,23.4l-0.6-0.2l-0.1-0.1l-0.5-0.4
	l-0.6-0.6l-0.1-0.1l-0.5-0.5l-0.6-0.1L52.6,21l-0.1-0.3l-0.4-0.8L52,19.8l-0.6-0.3l-0.6-0.1l-0.6-0.1l-0.5-0.4l-0.1-1.1l0.2-1.1
	l-0.2-0.4l-0.6-0.2l-0.6-0.2l-0.6-0.2l-0.6,0.3l-0.6-0.1l-0.5-0.2l0.1-1.1l0-1.1l-0.2-0.3l-0.6-0.3L45,12.8l-0.5-0.4l-0.1-0.1
	l-0.3-1L43.8,11l-0.6-0.3l-0.5-0.4L42.7,10l-0.6-0.2l-0.6-0.5l-0.2-0.2l-0.4-0.7l-0.6,0.3L39.8,9l-0.6-0.4l-0.6-0.2l-0.6,0l-0.2-0.3
	l-0.4-0.6L37.3,7l-0.3-1.1l-0.1-0.5l-0.1-0.6l-0.4-0.4l-0.4,0.4L35.7,5l-0.6,0.6l-0.4,0.3L34.5,6L34,6.1l-0.4-0.2l-0.2-0.1l-0.2,0.1
	l-0.3,0.2L32.4,7l-0.2,0.3l-0.6,0.6l-0.1,0.2l-0.4,1.1l0,0l-0.6,0.7L30,10.2l-0.1,0.1L29.3,11l-0.6,0.3l-0.6,0.1l-0.3,0l-0.3,0.1
	l-0.1-0.1L27,11.2l-0.6-0.7L26,11.3l-0.2,0.8l-0.2,0.2l-0.4,0.4l-0.3,0.7l-0.2,0.4l-0.6,0.1l-0.4-0.5l-0.2-0.4l-0.6,0.3l-0.3,0
	l-0.3,0.1l-0.2,1l-0.1,1.1l-0.3,0.3l-0.6,0.1l-0.6-0.4L20,15.9l-0.6,0.7l-0.6-1l0,0l-0.6-0.8l-0.6,0.6l-0.1,0.2l-0.5,0.6l-0.6,0
	L16,15.9l-0.6,0L15,15.6l-0.2-0.3l-0.2-0.8l0.1-1.1l0.1-0.2l0.6,0.1l0.5-1l-0.3-1.1l0.1-1.1l-0.2-0.3l-0.6-0.3l-0.6,0l-0.6-0.3
	l-0.1-0.1l-0.5-0.6l-0.6-0.1l-0.6-0.4l0.6-0.7l0.6,0l0.6-0.1l0.6,0.3L14.8,8l0.6-0.3L16,7.2L16.2,7L16,6.7l-0.6-0.6l-0.2-0.2
	l-0.4-0.3l-0.3-0.8l0.3-0.6l0.4-0.5l-0.4-0.9L14.2,3l-0.6,0l-0.6,0.2l-0.3-0.5l0-1.1l0.3-0.5l0.2-0.6V0"/>
<path class="st0" d="M180,30.4h-0.3l-0.6,0.1l-0.4,0.2l-0.2,0.4l-0.3,0.6l-0.2,1.1L178,33l-0.6,0.7l-0.2,0.1l-0.4,0.2l-0.6,0.1
	l-0.6,0.1l-0.6,0.1l-0.6,0.4l-0.6,0.1l-0.6-0.1l-0.6,0l-0.6-0.1l-0.6-0.2l-0.6-0.1l-0.5,0.7l-0.1,0.3l-0.2,0.8l0.2,0.1l0.6,0.4
	l0.5,0.6l-0.4,1.1l-0.1,0.1l-0.6,0.5l-0.6,0.2l-0.6,0l-0.6,0l-0.6,0l-0.6,0.1l-0.6,0.1l-0.2,0.1l-0.1,1.1l-0.3,0.2l-0.6,0.1
	l-0.4-0.3l-0.2-0.3l-0.6-0.6l-0.6,0.2l-0.6,0.2l-0.6,0.1l-0.6-0.2l-0.3-0.4l-0.3-0.8l-0.2-0.3l-0.4-0.2l-0.6,0.1l-0.6,0.1l-0.3,0.1
	l-0.3,0.2l-0.6,0.3l-0.6,0l-0.6,0.1l-0.6,0.2l-0.6,0.3l0,0l-0.6,0.8l-0.3,0.2l-0.3,0.3l-0.5,0.8l-0.1,0.1l-0.6,0.5l-0.6,0.2H153
	l-0.6-0.1h-0.6l-0.6-0.1l-0.6,0.1l-0.6,0.4l0,0l-0.6,0.4l-0.6,0.2l-0.6,0.1l-0.6-0.1l-0.6,0.1l-0.6,0.2l-0.5,0.2l-0.1,0.1l-0.6,0.2
	l-0.6,0l-0.6,0.5l-0.3,0.3l-0.2,0.5l-0.6,0.4l-0.2,0.2l-0.4,0.4l-0.6,0.2l-0.6,0l-0.6,0.2l-0.6,0.2l-0.6,0.1l0,0l-0.6,0.6l-0.3,0.4
	l-0.3,0.3l-0.6,0.2l-0.6,0.1l-0.6,0.1l-0.6,0.2l-0.6,0.1l-0.6,0l-0.6,0l-0.6,0.1l-0.6,0l-0.2,0.1l-0.4,0.3l-0.6,0l-0.4-0.3l-0.2-0.1
	l-0.6,0l-0.6,0.1l-0.6,0l-0.2,0l-0.4,0.1l-0.6,0.4l-0.6,0.1l-0.6-0.2l-0.6,0l-0.6,0.4l-0.6,0.3l-0.5-1l-0.1-0.3l-0.3-0.7l0.1-1.1
	l0.2-0.5l0.5-0.6l-0.2-1.1l-0.3-0.3l-0.6-0.2l-0.6-0.1l-0.6,0.1l-0.4,0.4l0.4,0.9l0.1,0.2l-0.1,0.2l-0.6,0.8l0.3,1.1l0.1,1.1
	l-0.3,0.4l-0.6,0.3l-0.6,0.1l-0.2,0.2l-0.3,0.3l-0.6,0.3l-0.6,0.1l-0.6,0.1l-0.6,0.1l-0.6,0.2l-0.1,0.1l-0.3,1.1l-0.2,0.5L117,53
	l-0.6-0.1l-0.5,0.3l-0.1,0.1l-0.6,0.5l-0.6-0.3l-0.1-0.3l-0.3-1.1l0-1.1l-0.1-1.1l-0.1-0.1l-0.6-0.7l-0.2-0.3l-0.4-0.2l-0.6-0.4
	l-0.2-0.4l-0.2-1.1l-0.1-0.2l-0.6-0.4l-0.2-0.4l-0.1-1.1l0.2-0.9l0.1-0.2l0.5-0.9l0.5-0.2l0.1-0.6l0.1-0.4l0-1.1l-0.1-0.4l-0.6-0.1
	l-0.6,0.4l-0.2,0.1l-0.3,0.2l-0.6,0.6l-0.1,0.2l-0.2,1.1l-0.3,0.5l-0.6,0.6l-0.6,0l-0.6-0.3l-0.6-0.7l-0.6,0.7l-0.6,0.1l-0.6-0.1
	l-0.6-0.1l-0.6-0.5l-0.2-0.1l-0.4-0.2l-0.6-0.6l-0.2-0.3l-0.4-0.8l-0.6,0.1l-0.6,0.5l-0.6-0.2l-0.5-0.8l-0.1-1.1l-0.6,0.1L99,40.1
	l-0.4,0.3l-0.2,0.1l-0.6,0.3L97.3,41l-0.6,0.2h-0.6l-0.6-0.1l-0.6-0.2l-0.6-0.1l-0.6,0l-0.6,0.1L92.6,41L92,41.3l-0.1,0.1l-0.4,0.4
	L91,42.5l-0.1,0.1L90.3,43l-0.6,0.4l-0.1,0.2l-0.5,1.1l0,0L89,45.7l-0.1,1.1l-0.2,1.1l-0.1,0.4L88.4,49l0,1.1l0.1,0.5l0.2,0.6
	l0.3,1.1l0.1,0.2l0.6,0.7l0.1,0.1l0.4,0.4l0.6,0.2l0.6,0.4l0.1,0.1L92,55l0.5,0.4l0.1,0l0.6,0.8l0.1,0.3l0.5,0.8l0.4,0.3l0.2,0.3
	l0.5,0.8l0,0.3l0.6,0.8l0,0l0.1,1.1l0.4,0.2l0.6,0.1l0.6,0.3l0.6,0.5l0,0l0.6,0.8l0.1,0.2L99,64l0,0l0.6,0.1l0.6,0.4l0.4,0.5
	l0.2,0.4l0.6,0.3l0.6,0.4l0,0l0.6,0.8l0.2,0.2l0.4,0.2l0.6,0.2l0.6,0.2l0.4,0.5l0.1,0.2l0.6,0.5l0.6,0.1l0.6,0.1l0.6,0.1l0.6,0.1
	l0,0l0.5,0.4l0.6,0.3l0.6,0.2l0.2,0.1l0.4,0.1l0.6,0.3l0.6,0.5l0.2,0.2l0.1,1.1l-0.1,1.1l0.3,1.1l0,1.1l-0.4,1.1l-0.1,0.1l-0.3-0.1
	l-0.3-0.1l-0.6-0.1l-0.6,0l-0.5-0.9l0-0.6l-0.6-0.2l-0.2-0.3l-0.4-0.8l-0.1-0.3l0.1-1.1l-0.5-1l-0.6,0l0,0l-0.6-0.1l-0.2,0.1
	l-0.4,0.3l-0.4,0.8l-0.2,0.6l-0.1,0.5l-0.5,1.1l0,0l-0.6,1l0,0l0,0l0.6,0.4l0.6,0.6l0,0l0,0.1l-0.6,0.9l-0.6-0.2l-0.5,0.3l-0.1,0
	l-0.6,0.1l-0.6,0.2l-0.6,0.1l-0.6,0l-0.6-0.1l-0.6-0.2l-0.5,1L99,79.7l-0.6,0l-0.3,0.4l-0.3,0.2l-0.6,0.3l-0.6-0.1l-0.6-0.3l-0.6,0
	l0-0.1l-0.5-0.8l-0.6-0.2l0-0.1L94.1,78l-0.2-1.1l0-1.1l0.1-1.1l-0.1-0.2l-0.3,0.2L93.2,75l-0.6,0.5l-0.1,0.4L92,76.5l-0.4,0.4
	l-0.2,0.2l-0.6,0.1l-0.6,0l-0.4-0.2l-0.2-0.1l-0.6-0.3l-0.6-0.4l-0.2-0.4l0.1-1.1l0.1-0.2l0.6-0.6l0.2-0.4l0.4-0.8l0.2-0.2l-0.2-0.3
	l-0.6-0.1l-0.6,0.1l-0.6,0l-0.6-0.1l-0.6,0.2l-0.1,0.1l-0.5,0.8l-0.6,0l-0.6-0.8l-0.2-0.1l-0.4-0.2L84,72.6l-0.1,0l-0.1,0L83.3,72
	l-0.1-0.5l-0.3-1.1l0.4-0.6l0.4-0.5l0.2-0.2l0.6-0.8l0.2-0.1l0.4-0.6l0.1-0.5l0.5-0.6l0.4-0.5l0.2-0.4l0.6-0.6l0.6,0l0.6,0l0.1,0
	l-0.1,0l-0.6,0L86.8,65l-0.6-0.6L85.8,64l-0.1-0.1l-0.6-0.6L84.5,63l0-0.1l-0.3-1.1l-0.3-0.1l-0.6-0.1l-0.6-0.2l-0.6-0.1l-0.6-0.1
	l-0.6,0l-0.6,0l-0.6,0l-0.6,0l-0.6,0l-0.6,0l-0.6-0.1l-0.6,0l-0.6,0.3l-0.6,0l-0.3-0.6l-0.2-1.1l-0.1-0.4l-0.6-0.5L74,59l-0.6,0.3
	l-0.6-0.1l-0.5-0.5l-0.1-0.1l-0.6-0.6l-0.3-0.4l-0.3-0.6l-0.2-0.5l-0.4-0.9l-0.1-0.2l-0.2-1.1l-0.3-1.1L70,53l-0.6-0.7L69,52.2
	l0.4-0.2l0.6-0.4l0.6,0l0.6-0.1l0.3-0.4l0.3-0.3l0.6-0.1l0.4,0.4l0.2,0.9l0,0.2l0.1,1.1L73,54.3l0.2,1.1l0.3,0.3l0.6,0.1l0.1-0.4
	l0-1.1l0.4-1.1l0.1-1.1l0-0.2l0.2-0.9l0.4-0.7l0.6-0.1l0.5,0.8l0.1,0.2l0.1-0.2l0.5-0.6l0.3-0.5L77,49l-0.1,0l-0.1,0l-0.5,0.4
	l-0.6,0L75.7,49l-0.3-1.1l0.4-1l0-0.1l0.3-1.1l-0.3-0.4l-0.6-0.7l0,0l0,0l-0.6,0.7l-0.2,0.4L74,46.4l-0.6,0.1l-0.2,0.3l-0.4,1
	l-0.1,0.1l-0.5,0.2l-0.6,0.1l-0.6,0l-0.6,0l-0.4-0.3L70,47.7l-0.3-0.9l-0.3-1.1l-0.1-0.2L68.8,45l-0.6,0l-0.6-0.2l-0.6,0.4l-0.5-0.5
	l-0.1-0.2l-0.3-0.9L66,42.5l-0.1-0.1l-0.6-0.5l-0.5-0.5l-0.1-0.1l-0.6-0.7l-0.4,0.8l-0.1,1.1l-0.1,0.1L63,43.1l-0.3,0.5l-0.3,0.5
	L62,44.7l0.4,0.8l0.1,0.3l0.3,1.1l-0.3,0.4l-0.6,0.3l-0.2,0.4l-0.4,0.3L61,47.9l-0.3-0.5l-0.1-0.6l0-1.1l0.1-1.1l0.1-0.4l0.4-0.7
	l0.1-0.5l0.1-0.6l0.2-1.1l0.3-0.6l0.6-0.4l0,0l0.6-0.5l0.6,0.2l0.3-0.7l0.3-0.1l0.6-0.4l0.6-0.6l0,0l0.2,0l0.4,0.1l0.6,0.3l0.5-0.3
	l0.1-0.1l0.6-0.7l0.4-0.3l-0.4-0.6L67.5,36l-0.4-0.5L66.8,35l-0.4-1.1l-0.1,0L66,32.8l0.4-0.6l0.6-0.4l0.3,1l0.3,0.3l0.6-0.1
	l0.4-0.2L68.2,32l-0.5-0.2l-0.1-0.5l0-0.5l-0.5-1l-0.6,0.1l-0.6,0.1l-0.3-0.3l-0.3-0.9l-0.2-0.2l-0.4-0.2l-0.6-0.2l-0.6,0l-0.6,0
	l-0.6,0l-0.6,0L61.3,28l-0.6-0.2l-0.6-0.2l-0.2-0.1l-0.4-0.1l-0.6-0.1l-0.6-0.1L57.8,27l-0.6,0l-0.6,0.2l-0.6,0l-0.6,0l-0.6-0.2
	l-0.6-0.4l-0.2-0.1l-0.3-0.3l-0.6-0.5l-0.2-0.3l-0.4-0.6l-0.3-0.5L52,23.9l-0.6-0.2l-0.6-0.1l-0.6-0.1l-0.6-0.3l-0.1-0.1l-0.5-0.3
	l-0.6-0.4l-0.6-0.3l-0.4-0.1L47.3,22l-0.6-0.6L46.4,21l-0.3-0.4l-0.6-0.3H45l-0.6,0.2L44.3,21l-0.4,0.3l-0.6,0.2l-0.6-0.4L42.6,21
	l-0.3-1.1l-0.2-0.8L42,18.8l-0.4-0.3l-0.6,0.2l0,0.1l-0.6,0.6l-0.6,0.2l-0.6-0.5L39,18.8l0.1-1.1l-0.5-0.7L38,17.2l-0.6-0.3
	l-0.3-0.2l-0.3-0.1l-0.6-0.1l-0.6-0.2l-0.6-0.4l-0.2-0.2l-0.4-0.5L34,14.9l-0.6-0.2L33,14.5l-0.1,0l-0.6-0.3l-0.6-0.3l-0.6-0.1
	l-0.6,0.3l-0.1,0.3l-0.5,1.1l0,0l-0.6,0.5l-0.6,0.3l-0.6,0.1l-0.6,0.2l0.1,1.1l0.5,0.2l0.6,0.4l0.2,0.5l0.4,0.1l0.6,0.2l0.6,0.4
	l0.2,0.3l0.4,0.6l0.2,0.5l0.4,0.4l0.5,0.6l0.1,0.1l0.6,0.8l0.1,0.1l0.5,1l0.1,0.1l0.5,0.4l0.6,0.6l0,0.1l0.5,0.5l0.6,0.6l0,0
	l0.5,1.1l-0.1,1.1l0.2,0.4l0.1,0.6l-0.1,0.3l-0.1-0.3l-0.4-0.8l-0.2-0.3l-0.4-0.1l-0.6,0l-0.6,0l-0.6-0.1l-0.6,0l-0.4,0.3l-0.2,0.3
	l-0.6,0.6l-0.2,0.2l-0.4,1L31,30.7l0.1,0l0.5,1l0,0l0.6,0.4l0.6,0.4l0.4,0.3l0.1,1.1l-0.5,0.6l-0.6,0.3l-0.6-0.1l-0.6-0.2l-0.6,0
	l-0.6-0.2l-0.2-0.3l-0.4-0.2l-0.6,0l-0.6,0.1l0,0l0,0l0.6,0.2l0.5,0.8l0.1,0.3l0.4,0.8l-0.4,0.7l-0.6,0.1l-0.6,0l-0.6-0.3L27.1,36
	L27,35.9l-0.6,0l-0.6,0l-0.6,0L24.9,36l-0.2,0.2L24.3,36l-0.2-0.1l-0.4-1l0.2-1.1l-0.4-0.3l-0.6-0.5l-0.3-0.3l-0.3-0.2l-0.6-0.1
	l-0.6,0.1l-0.3,0.1L20.6,33L20,32.9l-0.2-0.1l-0.4-0.2l-0.6,0l-0.6,0.1l-0.6-0.2l-0.6-0.2l-0.6-0.2l-0.3-0.3L16,31.2l-0.3-0.5
	l-0.3-0.3l-0.6,0l-0.6-0.1L13.6,30l-0.6,0.2l-0.6,0.1L11.9,30l-0.6-0.2l-0.6-0.1l-0.3-0.1l0.3-0.8l0.1-0.3l0.5-0.3l0.6-0.2l0.6-0.3
	l0.3-0.2l0.3-0.4l0.6-0.3l0.6-0.3l0.6,0l0.6,0.1l0.6-0.1l0.6,0l0.6,0l0.6,0l0.6,0.1l0.6,0l0.3-0.2l0.2-1.1l-0.5-0.4l-0.6,0.3
	l-0.2,0.1l-0.4,0.5h-0.6l-0.6,0.3L16,25.8l-0.2-0.5l-0.4-0.6L15,24.2L14.8,24l-0.6-0.3l-0.6,0l-0.6,0l-0.6-0.2l-0.6-0.2l-0.6-0.1
	l-0.6,0.3l-0.3,0.6l-0.2,1.1l0,0l-0.6,0.2L9,25.6l-0.6,0.1l-0.6-0.3l-0.3-0.1l0.1-1.1l0.2-0.1L8.4,24L9,23.6l0.3-0.4l0.3-0.6
	l0.6-0.3l0.6,0.2l0.6,0.2l0.6-0.4l0.1-0.2l0.4-0.2l0.6,0.1l0.4,0.2l0.2,0.2l0.6,0.1l0.6-0.3l0.1,0l0.5-0.1l0.6,0.1l0.6-0.4l0.6-0.4
	l0.6-0.2l0.1,0l0.5-0.3l0.6-0.3l0.5-0.5l-0.5-1.1l-0.6,0.3l-0.6,0L17.1,19L17,18.8l-0.5-1.1l0,0l-0.6,0l-0.1,0l-0.5,0.6L15,17.8
	l-0.2-0.2l-0.5-0.9l-0.1-0.4l-0.3-0.7l-0.3-1.1l0-0.1l-0.6-0.8L13,13.5l-0.1-1.1l-0.4-0.7l-0.4-0.4l-0.2-0.1l-0.6-0.5l-0.6,0.5
	l0,0.1l-0.5,0.3l-0.3-0.3l-0.2-0.2L9,10.7l-0.6,0.6l-0.6,0l-0.6-0.4l-0.6-0.3l-0.6-0.2l-0.3-0.1l-0.2-0.2L4.9,9.2l0,0l0,0l0.6-0.4
	l0.6,0.1l0.6,0.2l0.6-0.1l0.6-0.1l0.6,0.2L9,8.7l0.6-0.1l0.6,0.2l0.1-0.7l-0.1-0.3L9.6,7.9L9,7.9L8.4,7.7L7.8,7.4L7.3,7.1L7.1,7
	L6.7,6.8L6.1,6.3L5.6,5.9l0.4-0.3L6.7,5l0.2-0.2L6.7,3.8l0,0L6.1,2.9L6,2.7l0-1.1L5.5,1.1L5,1.6L4.9,2L4.8,2.7L4.4,3.6L3.9,2.7
	L3.8,2.4L3.2,2.1L2.6,1.6L2.4,2.7l0,1.1L2,4.6L1.5,4.4L0.9,4.3L0.3,3.9H0"/>
</svg>
