<svg width="148" height="89" viewBox="0 0 148 89" fill="none" xmlns="http://www.w3.org/2000/svg">
<g clip-path="url(#clip0_29_68)">
<path d="M28.16 86V87H29.16V86H28.16ZM5.12 86H4.12V87H5.12V86ZM5.12 22.768V21.768H4.12V22.768H5.12ZM28.16 22.768H29.16V21.768H28.16V22.768ZM28.16 41.456H27.16V54.1502L29.1477 41.6126L28.16 41.456ZM66.56 41.456H65.56V54.1501L67.5477 41.6126L66.56 41.456ZM104.96 86V87H105.96V86H104.96ZM81.92 86H80.92V87H81.92V86ZM66.56 86V87H67.56V86H66.56ZM43.52 86H42.52V87H43.52V86ZM28.16 85H5.12V87H28.16V85ZM6.12 86V22.768H4.12V86H6.12ZM5.12 23.768H28.16V21.768H5.12V23.768ZM27.16 22.768V41.456H29.16V22.768H27.16ZM29.1477 41.6126C29.9653 36.4549 31.6158 31.675 34.6714 28.1959C37.6927 24.7558 42.1745 22.488 48.896 22.488V20.488C41.6655 20.488 36.6114 22.9562 33.1686 26.8761C29.7602 30.757 28.0187 35.9611 27.1723 41.2994L29.1477 41.6126ZM48.896 22.488C54.1688 22.488 58.2926 24.2275 61.1098 27.3857C63.9404 30.5589 65.56 35.2863 65.56 41.456H67.56C67.56 34.9536 65.8517 29.6971 62.6023 26.0543C59.3394 22.3965 54.6312 20.488 48.896 20.488V22.488ZM67.5477 41.6126C68.3653 36.4549 70.0158 31.675 73.0714 28.1959C76.0927 24.7558 80.5745 22.488 87.296 22.488V20.488C80.0655 20.488 75.0114 22.9562 71.5686 26.8761C68.1602 30.757 66.4187 35.9611 65.5723 41.2994L67.5477 41.6126ZM87.296 22.488C92.5684 22.488 96.6901 24.2271 99.5067 27.4142C102.338 30.618 103.96 35.4097 103.96 41.712H105.96C105.96 35.0863 104.254 29.766 101.005 26.0898C97.7419 22.3969 93.0316 20.488 87.296 20.488V22.488ZM103.96 41.712V86H105.96V41.712H103.96ZM104.96 85H81.92V87H104.96V85ZM82.92 86V50.672H80.92V86H82.92ZM82.92 50.672C82.92 46.8293 82.5798 43.6425 81.2998 41.4071C80.6415 40.2573 79.7363 39.3595 78.5311 38.7605C77.3397 38.1684 75.9119 37.896 74.24 37.896V39.896C75.7041 39.896 76.8043 40.1356 77.6409 40.5515C78.4637 40.9605 79.0865 41.5667 79.5642 42.4009C80.5563 44.1335 80.92 46.8347 80.92 50.672H82.92ZM74.24 37.896C71.1234 37.896 68.7412 38.526 67.2936 40.8659C66.6096 41.9715 66.1851 43.3849 65.925 45.1198C65.6643 46.8595 65.56 48.9883 65.56 51.568H67.56C67.56 49.0277 67.6637 47.0125 67.903 45.4162C68.1429 43.8151 68.5104 42.7005 68.9944 41.9181C69.8828 40.482 71.3406 39.896 74.24 39.896V37.896ZM65.56 51.568V86H67.56V51.568H65.56ZM66.56 85H43.52V87H66.56V85ZM44.52 86V50.672H42.52V86H44.52ZM44.52 50.672C44.52 46.8293 44.1798 43.6425 42.8998 41.4071C42.2415 40.2573 41.3363 39.3595 40.1311 38.7605C38.9397 38.1684 37.5119 37.896 35.84 37.896V39.896C37.3041 39.896 38.4043 40.1356 39.2409 40.5515C40.0637 40.9605 40.6865 41.5667 41.1642 42.4009C42.1562 44.1335 42.52 46.8347 42.52 50.672H44.52ZM35.84 37.896C32.7234 37.896 30.3412 38.526 28.8936 40.8659C28.2096 41.9715 27.7851 43.3849 27.525 45.1198C27.2643 46.8595 27.16 48.9883 27.16 51.568H29.16C29.16 49.0277 29.2637 47.0125 29.503 45.4162C29.7429 43.8151 30.1104 42.7005 30.5944 41.9181C31.4828 40.482 32.9406 39.896 35.84 39.896V37.896ZM27.16 51.568V86H29.16V51.568H27.16Z" fill="black"/>
<path d="M133.983 60.8183L147.222 70.4368L142.165 85.9998H125.801L120.744 70.4368L133.983 60.8183Z" fill="#FFC43D"/>
<path d="M130.983 60.8183L144.222 70.4368L139.165 85.9998H122.801L117.744 70.4368L130.983 60.8183Z" fill="#EF476F"/>
<path d="M127.983 60.8183L141.222 70.4368L136.165 85.9998H119.801L114.744 70.4368L127.983 60.8183Z" fill="#1B9AAA"/>
<path d="M124.983 60.8183L138.222 70.4368L133.165 85.9998H116.801L111.744 70.4368L124.983 60.8183Z" fill="#06D6A0"/>
<path d="M121.983 60.8183L135.222 70.4368L130.165 85.9998H113.801L108.744 70.4368L121.983 60.8183Z" fill="black"/>
</g>
<defs>
<clipPath id="clip0_29_68">
<rect width="147.903" height="88.6583" fill="white"/>
</clipPath>
</defs>
</svg>
