<?xml version="1.0" encoding="utf-8"?>
<!-- Generator: Adobe Illustrator 27.9.0, SVG Export Plug-In . SVG Version: 6.00 Build 0)  -->
<svg version="1.1" id="Layer_1" xmlns="http://www.w3.org/2000/svg" xmlns:xlink="http://www.w3.org/1999/xlink" x="0px" y="0px"
	 viewBox="0 0 180 100" style="enable-background:new 0 0 180 100;" xml:space="preserve">
<style type="text/css">
	.st0{opacity:0.3;fill:none;stroke:#7E85B1;stroke-width:0.5;stroke-linecap:round;stroke-linejoin:round;}
	.st1{opacity:0.3;fill:none;stroke:#BCFD42;stroke-width:0.5;stroke-linecap:round;stroke-linejoin:round;}
</style>
<path class="st0" d="M99.4,35.1l-0.6-0.5l0.5-0.6l0.6,0.5L99.4,35.1z"/>
<path class="st0" d="M100,35.6l-0.6-0.5l0.5-0.6l0.6,0l0.6,0.5l-0.5,0.6L100,35.6z"/>
<path class="st0" d="M107.2,36.2l-0.6-0.5l0.5-0.6l0,0l0,0l-0.6,0l-0.6-0.5l0.5-0.6l0,0l0.6-0.2l0.6,0.1l0,0l0.6,0l0.6,0.5l0,0.6
	l-0.5,0.6l-0.6,0l0,0L107.2,36.2z"/>
<path class="st0" d="M105.5,36.4l-0.6-0.5l0.5-0.6l0.6,0.5L105.5,36.4z"/>
<path class="st0" d="M122.4,38.2l-0.6-0.2l0.5-0.6l0.6,0.5L122.4,38.2z"/>
<path class="st0" d="M117,38.3L117,38.3l0.6,0l0.6,0l0.6,0l0,0l0,0l-0.6,0l-0.6-0.5l0,0l-0.6,0l-0.6,0l0,0l0,0L117,38.3z"/>
<path class="st0" d="M136.7,37.3l-0.6-0.5l0-0.6l0.6-0.2l0.6,0.1l0,0l0.6,0.5l-0.5,0.6L136.7,37.3z"/>
<path class="st0" d="M116,40.7l-0.6-0.5l0-0.6l0-0.6l0-0.6l0,0l-0.6-0.2L114,38l0,0l-0.6,0l-0.6,0l-0.6-0.5l0.6-0.4l0.6,0l0.6,0
	l0.6-0.2l0.6,0l0,0l0.6-0.3l0.6,0l0.6,0l0.6,0.2l0,0l0.6,0l0.6,0.2l0.6,0.2l0,0l0.6,0l0.6,0.5l0,0l0.6,0.2l0.6,0.2l-0.6,0.3l-0.6,0
	l-0.3,0.3l0,0.6l-0.2,0.6l-0.6,0l-0.6,0l-0.6,0l-0.6-0.2l-0.6,0.3l-0.6,0l0,0L116,40.7z"/>
<path class="st0" d="M99.4,43.1l-0.6-0.5l0.6-0.3l0.6,0l0.6,0l0.6,0.2l-0.6,0.3l-0.6,0.3L99.4,43.1z"/>
<path class="st0" d="M114.3,42l-0.6-0.5l0.5-0.6l0.6,0l0.6,0.5l-0.5,0.6L114.3,42z"/>
<path class="st0" d="M106.6,42.6L106.6,42.6l0.6,0l0.6,0l0.6,0l0,0l0-0.6l0.5-0.6l0.6,0l0.6,0l0,0l0,0l-0.6-0.5l0-0.6l0,0l-0.6,0
	l0,0l-0.5,0.6l0,0l0,0.6l-0.5,0.6l-0.6,0l-0.6,0l0,0L106.6,42.6z"/>
<path class="st0" d="M139.5,41.1l-0.3-0.5l0.2-0.6l0.6,0.5L139.5,41.1z"/>
<path class="st0" d="M119.9,43.5l-0.6-0.2l0.6-0.3l0.3,0.3L119.9,43.5z"/>
<path class="st0" d="M109.8,44.6L109.8,44.6l0.6,0l0,0l0,0L109.8,44.6L109.8,44.6z"/>
<path class="st0" d="M148.7,42.7l0.5,0.1l0.6,0.1l0.4-0.3l-0.1-0.6l-0.4-0.5l0,0l-0.6-0.3l-0.3-0.2l-0.3-0.4l-0.6,0.2l-0.3,0.2
	l-0.3,0.3l-0.1,0.3l0.1,0.1l0.4,0.5l0.2,0.2l0.6,0.3L148.7,42.7z"/>
<path class="st0" d="M96.3,48.5L96,48l0-0.6l0.2-0.6l0,0l0.2-0.6l0.3-0.3l0.6,0l0.6,0.2l0,0.6l0,0.6l0,0.6l-0.5,0.6l-0.6,0
	L96.3,48.5z"/>
<path class="st0" d="M90.9,48.4L90.9,48.4l0.6,0l0,0l0,0L90.9,48.4L90.9,48.4z"/>
<path class="st0" d="M108.2,47L108.2,47L108.2,47l0.2-0.6l0-0.6l0.1-0.6l-0.4-0.3l-0.6-0.1l0.5-0.6l0.6,0l0.6,0l0,0l0,0l-0.6,0
	l-0.6-0.5l0,0l0,0l-0.5,0.6l-0.6,0l0,0l0,0.6l0,0l0.6,0.5l0,0.6l0,0.6l0,0L108.2,47z"/>
<path class="st0" d="M132.7,45.7l-0.6-0.5l0.5-0.6l0.6,0.5L132.7,45.7z"/>
<path class="st0" d="M126.1,45.6L126.1,45.6l0.6,0l0,0l0,0L126.1,45.6L126.1,45.6z"/>
<path class="st0" d="M100,49.1l-0.6-0.2l0.5-0.6l0.3,0.5L100,49.1z"/>
<path class="st0" d="M85,50L85,50l0.6,0l0,0l0,0L85,50L85,50z"/>
<path class="st0" d="M148.3,45.9l-0.3-0.3l-0.3-0.5l0.5-0.6l0,0l0,0l-0.6,0l-0.6-0.3l-0.3-0.2l-0.3-0.5l0,0l-0.6-0.5l0.5-0.6l0.6,0
	l0.6,0.2l0.3,0.3l0.4,0.3l0.6,0.1l0.6,0l0.1,0l0.3,0.5l0.2,0.3l0.3,0.3l-0.2,0.6l0,0l0,0.6l-0.5,0.6l-0.6-0.2L148.3,45.9z"/>
<path class="st0" d="M125.6,47.4L125.6,47.4l0.6,0l0.6,0l0,0l0,0l-0.6,0L125.6,47.4L125.6,47.4z"/>
<path class="st0" d="M146.2,45.8l0.3,0.3l0.1-0.3l0-0.6l-0.2-0.1l-0.6,0.2l0,0l0,0L146.2,45.8z"/>
<path class="st0" d="M94.7,50.7l-0.6-0.2l0-0.6l0.5-0.6l0.6,0l0.6,0.5l-0.5,0.6l0,0L94.7,50.7z"/>
<path class="st0" d="M50.7,55.5L50.1,55l0.5-0.6l0,0l0-0.6l0,0l0,0L50,54.5l-0.6-0.5l0-0.6l0.5-0.6l0.6,0l0,0l0.5-0.6l0,0l0.6-0.2
	l0.6,0.1l0,0.6l0,0l0.6,0l0.6,0l0,0l0.5-0.6l0.6,0.5l0,0l0.6,0.5l0,0.6l0,0l0.6,0.2l0.6,0l0.6,0.2l-0.6,0.3l-0.6,0l-0.6,0.3l-0.6,0
	l-0.6-0.5l0,0l-0.6-0.5l0,0l0,0l0,0.6l-0.5,0.6l-0.6,0l-0.6,0l0,0l-0.5,0.6L50.7,55.5z"/>
<path class="st0" d="M96,51.7l-0.3-0.3l0.3-0.3l0.3,0.3L96,51.7z"/>
<path class="st0" d="M94.2,52.4l-0.6-0.2l0.5-0.6l0.6,0.2l0.6,0.2l-0.5,0.6L94.2,52.4z"/>
<path class="st0" d="M92.5,52.8l-0.6-0.5l0.6-0.3l0.6,0.2L92.5,52.8z"/>
<path class="st0" d="M91.3,52.9l-0.6-0.5l0.6-0.3l0.6,0.2L91.3,52.9z"/>
<path class="st0" d="M40.7,57.5L40,57l0.6-0.3l0.3,0.3L40.7,57.5z"/>
<path class="st0" d="M139.6,49.4l-0.6-0.2l0.6-0.2l0.6,0l0.2,0.1l-0.1,0.6L139.6,49.4z"/>
<path class="st0" d="M54.5,57.5L53.8,57l0.6-0.3l0.3-0.3l0.2-0.6l0.6,0.5l0,0.6l-0.5,0.6L54.5,57.5z"/>
<path class="st0" d="M78.9,55.1L78.9,55.1L78.9,55.1l0.2-0.6l0.1-0.6l-0.4-0.3l-0.4,0.3l-0.1,0.6l0,0l0,0L78.9,55.1z"/>
<path class="st0" d="M141.5,50.7l-0.6-0.5l0.6-0.3l0.2,0.3L141.5,50.7z"/>
<path class="st0" d="M143.3,50.6L143.3,50.6L143.3,50.6l0.2-0.6l-0.3-0.1l-0.6,0.2l0,0l0,0L143.3,50.6z"/>
<path class="st0" d="M136.8,52.2l-0.6-0.5l0.5-0.6l0.6,0.5L136.8,52.2z"/>
<path class="st0" d="M41.5,59.7L41.5,59.7L41.5,59.7l0-0.6l0,0l0,0L41.5,59.7z"/>
<path class="st0" d="M91,56.1l-0.3-0.3l-0.3-0.5l0,0l-0.6-0.5l0.5-0.6l0.6,0l0.6,0l0.6,0.5l0,0.6l-0.5,0.6l0,0L91,56.1z"/>
<path class="st0" d="M76.6,57L76.6,57L76.6,57l0-0.6l0,0l0,0L76.6,57z"/>
<path class="st0" d="M128.5,52.9L128.5,52.9L128.5,52.9l0-0.6l0.5-0.6l0,0l0.5-0.6l0,0l0.1-0.6l-0.2-0.6l0.5-0.6l0.6,0.5l0,0l0,0
	l0-0.6l0,0l-0.6,0l0,0l-0.5,0.6l-0.6,0l0,0l-0.1,0.6l0.2,0.6l0,0.6l-0.5,0.6l0,0L128.5,52.9z"/>
<path class="st0" d="M120.5,53.5l0.2,0.1l0.3-0.1l0.2-0.6l0,0l0,0l-0.6-0.2l-0.4,0.3L120.5,53.5z"/>
<path class="st0" d="M138.1,53l-0.6-0.2l0.5-0.6l0.6,0.5L138.1,53z"/>
<path class="st0" d="M60.7,60.2L60.1,60l0-0.6l0.5-0.6l0,0l0.6-0.3l0.6,0.2l0,0l0.6,0l0.6,0.5l-0.6,0.2l-0.6,0.2l-0.3,0.3l-0.2,0.6
	L60.7,60.2z"/>
<path class="st0" d="M47.7,61.8L47,61.6l0-0.6l0.5-0.6l0,0l0.5-0.6l0.6,0l0,0l0.6-0.3l0.3-0.3l0.2-0.6l0.6,0l0.6,0l0.6,0l0.6,0.5
	l-0.5,0.6l0,0l-0.5,0.6l-0.6,0l0,0l0,0l0.6,0l0.6,0.5l-0.5,0.6l0,0l-0.6,0.3L50,61.3l0,0l-0.6-0.5l0,0l0,0l-0.2,0.6l-0.3,0.1
	l-0.6,0.3L47.7,61.8z"/>
<path class="st0" d="M110.8,57.1l-0.6-0.5l0.5-0.6l0.6,0.5L110.8,57.1z"/>
<path class="st0" d="M140,54.8l-0.6-0.5l0.5-0.6l0.6,0.5L140,54.8z"/>
<path class="st0" d="M35.8,63L35.8,63l0.6,0l0,0l0,0L35.8,63L35.8,63z"/>
<path class="st0" d="M74.5,60L74.5,60L74.5,60l0.5-0.6l0,0l0,0l-0.6-0.1l-0.3,0.2L74.5,60z"/>
<path class="st0" d="M43.6,63L43.6,63L43.6,63l0.6-0.3l0.6-0.3l0,0l0,0l-0.6-0.2l-0.6-0.2l0,0l0,0l-0.2,0.6L43.6,63z"/>
<path class="st0" d="M46.6,63.3l-0.6-0.5l0.6-0.3l0.6-0.3l0.3,0.5l-0.2,0.6L46.6,63.3z"/>
<path class="st0" d="M106.8,58.6l-0.6-0.5l0.5-0.6l0.2,0.6L106.8,58.6z"/>
<path class="st0" d="M140.7,55.9l-0.6-0.5l0-0.6l0.5-0.6l0.6,0.5l0,0.6L140.7,55.9z"/>
<path class="st0" d="M138.3,55.7l-0.3-0.2l-0.3-0.5l0.5-0.6l0.6,0l0.6,0.5l-0.5,0.6l0,0L138.3,55.7z"/>
<path class="st0" d="M121.6,56.9L121.6,56.9l0.6,0l0,0l0.5-0.6l0,0l0,0l-0.6,0l0,0L121.6,56.9L121.6,56.9z"/>
<path class="st0" d="M143.1,55.7l-0.6-0.5l0.6-0.3l0.6,0l0.6,0.2l-0.5,0.6L143.1,55.7z"/>
<path class="st0" d="M31.7,64.5L31.7,64.5l0.6,0l0,0l0-0.6l0,0l-0.6,0l0,0L31.7,64.5z"/>
<path class="st0" d="M57.4,63.1l-0.6,0l0.6-0.3l0.6,0l0.3,0.3L58,63.1L57.4,63.1z"/>
<path class="st0" d="M111,58.8L111,58.8L111,58.8l0-0.6l0,0l-0.6,0l0,0l0,0L111,58.8z"/>
<path class="st0" d="M72.9,62.4L72.9,62.4L72.9,62.4l0-0.6l0.6-0.4l0.6-0.2l0.6,0l0,0l0,0l-0.6,0l-0.6-0.2l-0.6,0.3l0,0l0,0.6
	L72.9,62.4z"/>
<path class="st0" d="M115.3,59.6l-0.6-0.5l0.6-0.4l0.6,0.3L115.3,59.6z"/>
<path class="st0" d="M129.5,58L129.5,58l0.6,0.2l0.2-0.3l0.1-0.6l-0.4-0.5l0,0l-0.6,0l0,0l-0.1,0.6L129.5,58z"/>
<path class="st0" d="M143.3,57.4l-0.6-0.5l0.5-0.6l0.6,0l0.6,0.5l-0.6,0.3L143.3,57.4z"/>
<path class="st0" d="M58.5,64.1l0.2,0.1l0.6,0.1l0.5-0.3l0.1-0.1l0.4-0.5l0.1-0.1l0.6-0.2l0.4-0.3l0.2-0.6l0,0l0,0L60.9,62l-0.6,0.3
	l0,0l-0.6,0.5l-0.2,0.2l-0.4,0.4l-0.2,0.3L58.6,64L58.5,64.1z"/>
<path class="st0" d="M97.4,61.1L97.4,61.1l0.6,0l0,0l0.2-0.6l-0.3-0.3l-0.6,0.3l0,0L97.4,61.1z"/>
<path class="st0" d="M86.8,63l-0.6-0.5l0.6-0.3l0.6-0.3l0.6,0.5L87.4,63L86.8,63z"/>
<path class="st0" d="M103.5,62.3l-0.6-0.5l0-0.6l0.6-0.3l0.6-0.3l0.6,0.5l0,0.6l-0.5,0.6L103.5,62.3z"/>
<path class="st0" d="M142.2,59.2l-0.3-0.5l0.2-0.6l0.6,0.5L142.2,59.2z"/>
<path class="st0" d="M45.1,67.3l-0.4-0.3l-0.2-0.6l0.5-0.6l0.6,0l0,0l0.5-0.6l0.6,0l0.6,0.5l-0.5,0.6l0,0l0,0.6l-0.6,0.3l-0.6,0
	L45.1,67.3z"/>
<path class="st0" d="M55,66.1l0.2,0.3l0.3-0.3l0.3-0.2l0.6-0.5l0,0l0.6-0.5l0.1-0.2l-0.2-0.6l0,0l0,0l-0.6,0.3l-0.6,0.4l0,0
	l-0.5,0.6l0,0L55,66.1z"/>
<path class="st0" d="M108.3,62.5l-0.6-0.5l0,0l-0.6-0.5l0.6-0.3l0.6,0l0.2,0.2l0.1,0.6L108.3,62.5z"/>
<path class="st0" d="M145.3,59.6l-0.3-0.5l0.2-0.6l0,0l0-0.6l0.6-0.3l0.6,0.2l0,0.6l0,0.6l-0.6,0.3L145.3,59.6z"/>
<path class="st0" d="M48.7,67.2L48.7,67.2L48.7,67.2l0-0.6l0,0l0,0L48.7,67.2z"/>
<path class="st0" d="M85.7,64.8l-0.6-0.5l0.5-0.6l0,0l0.5-0.6l0.6,0l0.3,0.5l0.3,0.5l-0.6,0.3l-0.6,0.1L85.7,64.8z"/>
<path class="st0" d="M74.9,65.1L74.9,65.1L74.9,65.1l0.5-0.6l0,0l0,0l-0.6-0.2l-0.6,0.3l0,0l0,0L74.9,65.1z"/>
<path class="st0" d="M114.3,62.3l-0.2-0.3l0-0.6l-0.2-0.6l0.3-0.4l0.6,0l0.3,0.3l-0.2,0.6l0,0l0,0.6L114.3,62.3z"/>
<path class="st0" d="M140.5,60.5l-0.2-0.6l-0.4-0.5l0.5-0.6l0.6,0.5l0,0l0.3,0.5l-0.2,0.6L140.5,60.5z"/>
<path class="st0" d="M126.8,61L126.8,61L126.8,61l0-0.6l0,0l0,0L126.8,61z"/>
<path class="st0" d="M0.2,71.1l0.3,0L1.1,71l0.2-0.1l0.4-0.3l0.4-0.3l0.1-0.6l0,0l0,0l-0.6-0.4l-0.2-0.1l-0.4-0.1l-0.6,0l-0.3,0"/>
<path class="st0" d="M121.5,62L121.5,62L121.5,62l0-0.6l0-0.6l0,0l0,0l0,0.6L121.5,62z"/>
<path class="st0" d="M54.8,68.4l-0.2-0.6l0.2-0.2l0.2,0.2L54.8,68.4z"/>
<path class="st0" d="M131.3,61.8l0.3,0.3l0.3-0.3l-0.1-0.6l-0.2-0.6l0-0.6l0-0.6l0-0.6l0,0l-0.6-0.5l0,0l0,0l-0.3,0.6l-0.1,0.6l0,0
	l0,0l0.2,0.6l0,0.6l0,0.6l0.5,0.4L131.3,61.8z"/>
<path class="st0" d="M143,61.5l-0.6-0.5l0.5-0.6l0.6,0.5L143,61.5z"/>
<path class="st0" d="M138.8,61.5l-0.6-0.2l0,0l-0.4-0.5l-0.2-0.6l0-0.6l0-0.6l0.6-0.3l0.6,0l0.6,0.2l0,0.6l-0.1,0.6l0.1,0.6l0.2,0.6
	L138.8,61.5z"/>
<path class="st0" d="M104.3,64.5L104.3,64.5l0.6,0l0,0l0-0.6l0,0l-0.6,0l0,0L104.3,64.5z"/>
<path class="st0" d="M48.9,69.7l-0.6-0.2l0-0.6l0-0.6l0,0l-0.6-0.2L47,67.9l0.5-0.6l0,0l0,0l-0.6-0.5l0-0.6l0.5-0.6l0.6,0l0,0
	l0.2-0.6l0.3-0.3l0.6-0.3l0.6,0l0.6,0l0,0l0.5-0.6l0.6,0.5l-0.5,0.6l0,0l0,0l0,0l0.5-0.6l0,0l0.5-0.6l0.6,0l0,0l0.6-0.3l0.6-0.3
	l0.6,0.2l0.3,0.3l0.3,0.3l0.6-0.3l0.3,0.5l-0.2,0.6l-0.6,0l0,0l-0.6,0.2l-0.6,0.1l-0.3,0.3l-0.2,0.6l-0.6,0l0,0l-0.2,0.6l0.2,0.6
	l-0.6,0.3l-0.6,0.2l-0.6,0l-0.6,0.2l0,0l-0.3,0.6l0,0.6l0.1,0.6l-0.1,0.6l-0.6-0.1L48.9,69.7z"/>
<path class="st0" d="M115.7,65.1l-0.3-0.3l0-0.6l0.3-0.3l0.6,0l0.6,0.2l0,0.6l-0.5,0.6L115.7,65.1z"/>
<path class="st0" d="M109.8,65.8l-0.3-0.5l0-0.6l0.3-0.2l0.6,0.1l0,0.6L109.8,65.8z"/>
<path class="st0" d="M118.1,65.2l-0.6-0.5l0,0l-0.6-0.5l0.2-0.6l0.3-0.3l0.3-0.3l0.2-0.6l0.6,0.5l0,0.6l0,0l0.3,0.5l0.3,0.3l0.3,0.3
	l-0.2,0.6l-0.6,0L118.1,65.2z"/>
<path class="st0" d="M136,63.2L136,63.2L136,63.2l0-0.6l0-0.6l0,0l0,0l0,0.6L136,63.2z"/>
<path class="st0" d="M146.1,62.7l-0.6-0.2l0.6-0.3l0.3,0.3L146.1,62.7z"/>
<path class="st0" d="M142.6,63.2l-0.6-0.5l0.5-0.6l0.6,0.5L142.6,63.2z"/>
<path class="st0" d="M0.4,74l0.3,0l0.6-0.2l0,0l0.5-0.4l0.5-0.3l0.1,0L3,72.8l0.4-0.3l0.2-0.2l0.6-0.4l0.1,0l0.5-0.1l0.6-0.1
	l0.6-0.2l0.6-0.2L7.1,71l0.1,0l0.4-0.1l0.6-0.1l0.6-0.1l0.6-0.1l0.6-0.1l0.6,0l0.6,0l0.6,0l0.6,0l0.6,0l0.6-0.1l0.6-0.1l0.6-0.1
	l0.6-0.2l0.3-0.2l0.2-0.3l0.3-0.4l0.3-0.3l0.5-0.3l0.1-0.1l0.6-0.5l0,0l0.5-0.6l0,0l0.6-0.4l0.3-0.2l0.2-0.3l0.2-0.4l0.3-0.5l0-0.1
	l0.4-0.6l0.1-0.2l0.3-0.4l0.3-0.3l0.4-0.3l0.2-0.2l0.6-0.3l0.6-0.2l0.1-0.1l0.4-0.6l0-0.1l0.4-0.5l0.1-0.2l0.4-0.4l0.1-0.1l0.6-0.3
	l0.6-0.3l0,0l0.6-0.3l0.5-0.3l0.1-0.1l0.3-0.5l0.3-0.3l0.6-0.2l0.5-0.2l0.1-0.1l0.6-0.6l0,0l0.6-0.3l0.6-0.3l0.1,0l0.5-0.5l0.3-0.2
	l0.3-0.2l0.6-0.4l0.1-0.1l0.5-0.3l0.6-0.4l0,0l0.6-0.1l0.6-0.1l0.6-0.3l0.6-0.3l0,0l0.6-0.4l0.5-0.3l0.1,0l0.6-0.2l0.6-0.2l0.4-0.2
	l0.2-0.1l0.6-0.2l0.6-0.1l0.6-0.2l0.2-0.1l0.4-0.2l0.6-0.3l0.2-0.1l0.3-0.2l0.5-0.4l0.1,0l0.6-0.4l0.4-0.2l0.2-0.1l0.6-0.2l0.6-0.1
	l0.6-0.2l0.3-0.2l0.3-0.1l0.6-0.4l0.1-0.1l0.4-0.3l0.6-0.1l0.6-0.1l0.6-0.2l0.1-0.1l0.4-0.4l0.3-0.3l0.2-0.1l0.6-0.1l0.6-0.2
	l0.6-0.3l0.2-0.1l0.3-0.2l0.6-0.2l0.5-0.3l0.1-0.1l0.6-0.4l0.4-0.2l0.2-0.1l0.6-0.2l0.6-0.2l0.6-0.1l0.6-0.1l0.4-0.1l0.2-0.1
	l0.6-0.4l0.3-0.1l0.3-0.1l0.6-0.3l0.4-0.3l0.1-0.1l0.6-0.4l0.6-0.2l0.6,0l0.6,0l0,0l0.6-0.3l0.6,0l0.6-0.2l0.6-0.2l0.6,0l0.6,0
	l0.6,0l0.6,0l0.6,0l0.6,0l0.6,0l0.6,0l0.6,0l0.6-0.1l0.6-0.1l0.6-0.1l0.6-0.1l0.6-0.1l0,0l0.6-0.1l0.6-0.1l0.6,0l0.6-0.2l0.6-0.2
	l0.6-0.2l0.3-0.1l0.3-0.1l0.6-0.2l0.6-0.2l0.6-0.3l0,0l0.6-0.2l0.6-0.3l0.3-0.2l0.3-0.1l0.6-0.4l0.2-0.2L81,38l0.6-0.4l0,0l0.6-0.4
	l0.4-0.3l0.2-0.2l0.3-0.4l0.3-0.4l0.6-0.2l0,0l0.5-0.6l0,0l0.6-0.5l0.1-0.2l0.4-0.6l0,0l0.1-0.6l0.2-0.6l0.1-0.3l0.1-0.3l0.2-0.6
	l0.1-0.1l0.6-0.3l0.4-0.3l0.1-0.1l0.6-0.3l0.6-0.3l0,0l0.6-0.2l0.6-0.2l0.6-0.2l0.3-0.1l0.3-0.1l0.6-0.1l0.6-0.1l0.6-0.1l0.6-0.2
	l0.6-0.3l0,0l0.6-0.1l0.6-0.1l0.6-0.2l0.6-0.2l0.3-0.2l0.3-0.1l0.6-0.2l0.6-0.2l0.6-0.2l0.4-0.1l0.2-0.1l0.6-0.1l0.6-0.1l0.6-0.1
	l0.6,0l0.6,0l0.6,0l0.6,0l0.6,0l0,0l0.6,0l0.6,0l0.6,0l0,0l0.6-0.1l0.6-0.1l0.6-0.2l0.6-0.2l0.5-0.2l0.1-0.1l0.6-0.2l0.6,0l0.4,0.1
	l0.2,0l0.6,0.1l0.6,0.2l0.6,0l0.3,0l0.3,0l0.6,0.1l0.6,0l0.6,0l0.6,0.1l0.2,0l0.4,0.3l0.3,0.3l0.3,0.1l0.6,0.1l0.6,0.1l0.6,0l0.6,0
	l0.6-0.1l0.6-0.1l0.6-0.1l0.6-0.2l0.2-0.1l0.4-0.2l0.6-0.4l0.2-0.1l0.4-0.2l0.6-0.1l0.6-0.1l0.6-0.1l0.6-0.1l0.6-0.1l0.6-0.1
	l0.6-0.2l0.6-0.1l0,0l0.6-0.2l0.6-0.2l0.6-0.1l0.6-0.1l0.6-0.2l0,0l0.6-0.2l0.6-0.3l0.4-0.3l0.2-0.1l0.6-0.3l0.6-0.3l0,0l0.6-0.2
	l0.6-0.3l0.6-0.2l0.6-0.2l0,0l0.6-0.1l0.6-0.2l0.6-0.2l0.6-0.2l0.2-0.1l0.4-0.2l0.6-0.3l0.4-0.2l0.2-0.2l0.6-0.3l0.6-0.2l0,0
	l0.6-0.5l0.3-0.2l0.3-0.2l0.6-0.3l0.3-0.2l0.3-0.1l0.6-0.2l0.6-0.3l0.6-0.2l0.6,0l0.6,0l0.6,0l0,0l0.6-0.2l0.6-0.2l0.6,0l0.6-0.2
	l0.6-0.2l0,0l0.6-0.2l0.6-0.2l0.6-0.2l0.6,0l0,0l0.6-0.3l0.6-0.3l0,0l0.6-0.2l0.6-0.3l0.2-0.2l0.4-0.3l0.6-0.2l0.3-0.2l0.3-0.2
	l0.6-0.3l0.3-0.2l0.3-0.2L158,13l0.6-0.2l0.6-0.2l0,0l0.2-0.6l0.3-0.2l0.6-0.4l0,0l0.3-0.6l0.2-0.1l0.6-0.4l0.2-0.1l0.4-0.3l0.4-0.4
	l0.1-0.2l0.6-0.3l0.3-0.2l0.3-0.2l0.4-0.5l0.1-0.2l0.3-0.4l0.3-0.3l0.4-0.3l0.2-0.2l0.6-0.4l0,0l0.3-0.6l0.1-0.6l0,0l0.1-0.6
	l0.3-0.6l0,0l0.5-0.6l0,0l0.2-0.6l0.1-0.6l0.1-0.6l0,0l0.6-0.3L169,1l0,0l0.6-0.2l0.6-0.2l0.6-0.1l0.6,0l0.6,0l0.6-0.2l0.6-0.2l0,0
	l0.6-0.2l0.6,0.1l0,0l0.6,0l0.6,0l0.6,0l0.6,0l0.6,0l0.6,0l0.6,0l0.6,0l0.6,0l0.3,0"/>
<path class="st0" d="M51.2,70.4l0.2,0.1l0.6,0.1l0.4-0.3l0.1-0.6l0,0l0,0l-0.2-0.6l-0.5-0.5l0.6-0.4l0.3-0.2l-0.3-0.1L51.8,68
	l-0.2,0.1l-0.3,0.6l0,0l0,0.6l0,0.6L51.2,70.4z"/>
<path class="st0" d="M114.7,66.6L114,66l0.6-0.3l0.6,0.2L114.7,66.6z"/>
<path class="st0" d="M133.1,64.5L133.1,64.5l0.6,0l0,0l0-0.6l0.2-0.6l0-0.6l-0.3-0.3l-0.6-0.2l0,0l-0.6,0l0,0l-0.1,0.6l-0.1,0.6
	l0.3,0.3L133,64L133.1,64.5z"/>
<path class="st0" d="M59.9,71.4l-0.3-0.5l0-0.6l-0.3-0.3l-0.6-0.2l0.2-0.6l0.3-0.2l0.6-0.1l0.3,0.2l0.3,0.5l0,0.6l-0.2,0.6
	L59.9,71.4z"/>
<path class="st0" d="M115.9,67l-0.6-0.5l0.6-0.3l0.6,0.2L115.9,67z"/>
<path class="st0" d="M111.2,66.8l0.5,0.4l0.6-0.5l0,0l0-0.6l0,0l-0.6-0.3l-0.4,0.4L111.2,66.8z"/>
<path class="st0" d="M69.5,71.3l-0.6-0.5l0-0.6l0.2-0.6l0.2-0.6l0.6,0.5l0,0l0.2,0.6L70,70.6l0,0L69.5,71.3z"/>
<path class="st0" d="M143.4,66l-0.6-0.5l0.5-0.6l0.6,0.5L143.4,66z"/>
<path class="st0" d="M125.5,67.4L125.5,67.4l0.6,0l0,0l0,0l-0.6-0.5l0-0.6l0-0.6l0-0.6l0,0l0,0l0,0.6l0,0.6l0,0.6L125.5,67.4z"/>
<path class="st0" d="M131.5,67.5L131.5,67.5L131.5,67.5l0.5-0.6l0,0l0-0.6l0,0l-0.6-0.2l-0.3,0.3l0,0.6L131.5,67.5z"/>
<path class="st0" d="M119.6,68.5L119.6,68.5L119.6,68.5l0.6-0.2l0.6-0.2l0.1-0.2l-0.1-0.3l-0.6-0.2l0,0l0,0l-0.5,0.6l0,0L119.6,68.5
	z"/>
<path class="st0" d="M113.8,70.1l-0.6-0.5l0-0.6l0.2-0.6l0.1-0.6l-0.1-0.6l0.2-0.6l0.6,0l0.6,0.5l0,0l0.6,0.5l0,0.6l-0.5,0.6l-0.6,0
	l0,0l-0.2,0.6L113.8,70.1z"/>
<path class="st0" d="M116.1,69.6l-0.6-0.2l0.5-0.6l0.6,0.5L116.1,69.6z"/>
<path class="st0" d="M108.9,69.9L108.9,69.9l0.6,0l0,0l0,0l-0.6-0.5l0,0l0,0L108.9,69.9z"/>
<path class="st0" d="M121.8,68.9l0.3,0.3l0.3-0.3l-0.3-0.1L121.8,68.9z"/>
<path class="st0" d="M121.9,70.6l0.3,0.1l0.6-0.2l0,0l0.5-0.6l0,0l0.5-0.6l0.6,0l0,0l0.1-0.6l-0.2-0.3l-0.6,0.3l0,0l0,0.6l-0.5,0.6
	l-0.6,0l-0.6,0l-0.6,0l0,0l0,0L121.9,70.6z"/>
<path class="st0" d="M137.2,71.1l-0.6-0.5l0.5-0.6l0,0l0-0.6l0.6-0.3l0.6,0.2l0,0.6l0,0.6l-0.5,0.6L137.2,71.1z"/>
<path class="st0" d="M127.2,72.5L127.2,72.5l0.6,0.2l0.6-0.3l0,0l0.5-0.6l0,0l0.5-0.6l0,0l0-0.6l0.5-0.6l0,0l0.6-0.3l0.1-0.3l0-0.6
	l-0.2-0.6l0,0l-0.6,0l0,0l0,0.6l-0.1,0.6l0.2,0.6l-0.5,0.6l0,0l-0.5,0.6l0,0l-0.5,0.6l0,0l-0.6,0.3L127.2,72.5L127.2,72.5z"/>
<path class="st0" d="M59.4,80.1L59.4,80.1l0.6,0.2l0.6,0.1l0.6-0.2l0.3-0.2l0.3-0.3l0.2-0.3l0.1-0.6l0-0.6l0-0.6l0.2-0.4l0.1-0.2
	l0.4-0.6l0,0l0.5-0.6l0,0l0.5-0.6l0.6,0.5l0,0l0,0l0.5-0.6l0,0l0.6-0.3l0.2,0.3l-0.1,0.6l0,0l0,0l0.6,0.2l0.6-0.1l0.6,0.2l0.6-0.2
	l0.1-0.3l0-0.6l-0.2-0.6l0,0l-0.3-0.5l-0.3-0.5l0.2-0.6l0.1-0.6l0.1-0.6l0.6,0l0.6,0l0.6,0l0.6,0.5l0,0l0.6,0l0,0l0.5-0.6l0,0
	l0.6-0.3l0.3-0.3l0-0.6l0-0.6l0.2-0.3l0.6-0.3l0,0l0,0l-0.6-0.5l0,0l0,0l-0.6,0.3l-0.6,0l-0.6,0.2l-0.6,0.2l-0.6,0l-0.6-0.2L68,68.5
	l0.5-0.6l0.6,0l0.6,0l0,0l0.6-0.3l0.4-0.3l-0.1-0.6L70.5,66l0.3-0.3l0.6,0l0.6-0.3l0.6,0l0.6,0l0,0l0,0l-0.6,0l-0.6,0l-0.6-0.5l0,0
	l0,0l-0.6,0.3l-0.6,0.3L69.5,65l0,0l-0.6,0l0,0l-0.6,0.5l-0.3,0.2L67.8,66l-0.2,0.3l-0.3,0.6l0,0l0,0l0.6,0l0.2,0.6l0.4,0.5L68,68.5
	l0,0l-0.1,0.6l-0.4,0.2l-0.6,0.3l-0.6,0l-0.6,0.1l-0.3,0.1l-0.2,0.6l-0.6-0.1l-0.2,0.2l-0.2,0.6l0,0.6l-0.1,0.6l0,0l0,0l0.2,0.6
	l0.4,0.5l0,0l0.6,0.5l-0.6,0.4l-0.1,0.2L64.4,75l-0.6,0.2l0,0l-0.5,0.6l-0.6-0.3l-0.6,0l-0.6,0.1l-0.6,0.2L60.7,76l0,0.6l-0.4,0.4
	l-0.6-0.1l-0.6-0.1l0,0l0,0l0,0.6l0,0l0.6,0.5l0,0l0.3,0.5l-0.2,0.6l0,0l-0.6,0.4L58.7,79l0-0.6l0,0l0,0l0,0.6l-0.4,0.6l0.5,0.4
	L59.4,80.1z"/>
<path class="st0" d="M0.6,76.1l0.3,0l0.6,0l0.6,0l0.6,0l0.6,0l0.6,0l0,0l0.5-0.6l0.6,0l0.6,0l0.6,0l0,0l0.5-0.6l0.6,0l0,0L7.9,74
	l0.6-0.1l0.6-0.2l0,0l0.6-0.3l0.6-0.1l0.6-0.1l0.6-0.1L12,73l0.3-0.1l0.3-0.3l0.6-0.3l0.6,0.1l0.6-0.1l0.3-0.1l0.3-0.2l0.6-0.3
	l0.2-0.1l0.4-0.3l0.6-0.3l0,0l0.6-0.2l0.6-0.3l0.1-0.1l0.4-0.4l0.2-0.2l0.3-0.5l0.1-0.2l0.4-0.5l0.3-0.2l0.3-0.1l0.6-0.5l0,0
	l0.6-0.5l0.3-0.1l0.3-0.2l0.6-0.1l0.6-0.2l0.6-0.3l0,0L24,66l0.4-0.3l0.2-0.2l0.4-0.4l0.2-0.2l0.4-0.5l0.1-0.2l0.3-0.5l0.2-0.2
	l0.6-0.4l0,0l0.6-0.4l0.6,0l0.6-0.3l0,0l0.6-0.3l0.2-0.3l0.4-0.3l0.4-0.3l0.2-0.2l0.6-0.5l0,0l0.6-0.2l0.6-0.3l0.6-0.2l0,0l0-0.6
	l0.6-0.2l0.6-0.2l0.3-0.3l0.3-0.2l0.6-0.3l0.6-0.2l0,0l0.6-0.2l0.6-0.5l0,0l0.6-0.2l0.6-0.2l0.6,0.1l0.6,0.1l0,0l0.6,0.5l0,0l0.6,0
	l0.6,0l0.6,0l0,0l0.6-0.3l0.3-0.3l0.2-0.6l0,0l0-0.6l0.2-0.6l0.3-0.2l0.6,0.1l0,0l0,0l0.2-0.6l0.1-0.6l0.1-0.2l0.6,0.1l0,0.6l0,0.6
	l0,0l0,0l0-0.6l0.5-0.6l0.6,0l0.6,0.5l-0.5,0.6l0,0l0,0.6L45.4,56l-0.6,0l0,0l0,0.6l0,0l0,0l0.5-0.6l0.6,0l0.6,0l0.6,0l0.6,0.5
	L47.2,57l0,0l-0.5,0.6l0,0l0,0l0.6,0l0,0l0.5-0.6l0.6,0l0.6,0l0,0l0,0l-0.6,0l-0.6-0.5l0-0.6l0.5-0.6l0.6,0.2l0.6,0.2l0,0l0.6,0.5
	l0,0.6l0,0.6l0,0.6l-0.5,0.6l-0.6,0l0,0l-0.6,0.3L48,59.2l-0.6,0l-0.6,0l0,0l0,0l0.6,0.5l-0.5,0.6l0,0L46.4,61l0,0l-0.5,0.6l0,0
	l-0.2,0.6l0.3,0.5L45.4,63l-0.6,0.4l0,0l-0.5,0.6l-0.6,0l0,0l-0.2,0.6L43.1,65L43,65.3l0.2,0.3l0.2,0.3l0,0.6l-0.1,0.3L43,67
	l-0.2,0.6l-0.6,0l0,0l0,0.6l0,0l0.6,0.5l0,0l0.6,0.5l-0.6,0.3L42.4,70l0,0l-0.5,0.6l-0.6,0l-0.6-0.5l0-0.6l0,0l-0.6,0L39.3,69l0,0
	l-0.6,0l0,0l0,0l0.6,0.5l0,0.6l0,0.6l0,0.6l0,0l0.6,0.5l0,0l0,0l0.5-0.6l0,0l0.5-0.6l0.6,0l0.6,0l0.6,0.5l0,0l0.6,0.2l0.6,0l0.3-0.3
	l0.2-0.6l0,0l0.6-0.3l0.6,0.2l-0.2,0.6l0.3,0.3l0.6-0.3l0,0l0,0L46,70.2l0.6-0.3l0.6,0l0.6,0.2l0,0.6l0,0l0.2,0.6l-0.1,0.6l0,0
	l-0.5,0.6l-0.6,0l-0.6-0.5l0,0l0,0l0,0.6l-0.5,0.6l0,0l0,0l0.6,0l0.6,0.2l0.6,0l0.3,0.3l0,0.6l-0.3,0.2L47,74.6l-0.6,0.2l-0.6-0.1
	l-0.6,0l-0.3,0.2L44.6,75L44,75.6l0,0l-0.3,0.6l-0.2,0.6l0,0l0,0l0.6,0.2l0.6,0l0.6-0.3l0,0l0.5-0.6l0.6,0.5l0,0l0.6,0l0,0l0.5-0.6
	l0,0l0-0.6l0.6-0.4l0.6-0.2l0.6,0.2l0.6,0.2l0,0l0,0l0.5-0.6l0.3,0.5l0.3,0.5l0,0.6l-0.6,0.3l-0.6,0.3l0,0l-0.5,0.6l0,0l0,0.6l0,0
	l0,0l0.5-0.6l0,0l0.6-0.3l0.6,0.2l-0.5,0.6l0,0l-0.5,0.6l0,0l0,0.6l0,0l0.2,0.6l-0.2,0.3l-0.6,0.3l0,0l-0.2,0.6l-0.3,0.3l-0.2,0.3
	l-0.4,0.4l-0.2,0.2l-0.4,0.4l-0.6,0.2l0,0l-0.6,0.2l-0.6,0l-0.6,0.3l-0.6,0.2l0,0l-0.5,0.6l0,0l-0.2,0.6l0.3,0.5l0,0l0.3,0.5
	l-0.1,0.6L45,86.9l0,0l0,0l0.6,0.1l0.3-0.2l0.3-0.3l0.3-0.3l0.3-0.3l0.6,0.2l0,0l0.6,0.5l-0.2,0.6l0.2,0.3l0.6,0.2l0,0.6L48.5,89
	l-0.3,0.5l-0.1,0.2l0,0.6l0.2,0.1l0.6,0.2l0.6-0.2l0.2-0.2l0.4-0.4l0.6-0.2l0,0l0.6-0.3l0.6,0.2l0,0l0.6,0l0,0l0.6-0.3l0.6,0
	l0.6,0.2l0,0l0.6,0l0.6,0l0.6,0l0.3,0.5l0.3,0.5l-0.5,0.6l0,0l-0.5,0.6l0,0L55,91.9l0,0l0,0.6l0,0l0.6,0l0.6,0l0.6,0l0.6,0l0.6,0.5
	l0,0l0.3,0.5l-0.1,0.6L58.2,94l-0.6,0.5l0,0l-0.6,0.3l-0.6,0l-0.6,0.3l0,0l-0.5,0.6l0,0l-0.5,0.6l-0.6,0l0,0l-0.5,0.6l-0.6,0
	l-0.6-0.5l0,0l-0.6,0l-0.6,0l-0.6,0l-0.6-0.2l-0.6-0.2l0,0l-0.6,0l-0.6,0l-0.4-0.5l-0.2-0.2l-0.3-0.4l-0.2-0.6l-0.3-0.4l-0.6-0.1
	l0,0l0,0L46,94.9l0.1,0.6l0.3,0.4l0.3,0.2l0,0.6l0,0.6l0.2,0.6l-0.3,0.5l-0.1,0.1l-0.2,0.6l0.4,0.5l0,0l0,0l0.6-0.2l0.3-0.5l0.2-0.3
	l0.6-0.3l0.6,0.5l0,0l0.2,0.6l0.4,0.3l0.3,0.2l0,0.3"/>
<path class="st0" d="M0.5,75.2l0.3,0l0.6-0.3l0,0L2,74.7l0.6-0.2l0.6-0.2l0.6-0.1l0.6-0.1l0,0L4.9,74l0.6-0.1l0.6-0.1l0.6-0.2
	l0.6-0.2l0.3-0.2L7.8,73l0.2-0.3l0.3-0.4L9,72.1L9.5,72l0,0l0.6-0.2l0.6-0.1l0.6,0l0.6-0.1l0.6-0.3l0,0l0.6-0.1l0.6-0.1l0.6-0.1
	l0.6-0.1l0.6,0l0.6-0.1l0.6-0.4l0.1-0.1l0.5-0.3l0.5-0.3l0.1-0.1l0.4-0.6l0.1-0.2l0.4-0.4l0.2-0.2l0.4-0.4l0.2-0.1l0.6-0.3l0.2-0.3
	l0.3-0.4l0.3-0.3l0.3-0.4l0.2-0.2l0.4-0.4l0.3-0.2l0.3-0.1l0.6-0.1l0.6-0.5l0,0l0.6-0.5l0.2-0.2l0.4-0.2l0.4-0.4l0.1-0.1l0.6-0.5
	l0,0l0.5-0.6l0,0l0.6-0.3l0.4-0.3l0.2-0.1l0.6-0.1l0.4-0.4l0.2-0.1l0.6-0.4l0.6-0.2l0,0l0.6-0.2l0.6-0.4l0.6,0l0,0l0.1-0.6l0.4-0.4
	l0.6-0.3l0,0l0.6-0.4l0.6-0.1l0.6-0.2l0,0l0.6-0.3l0.6-0.3l0.6,0l0,0l0.6-0.2l0.6-0.3l0.6-0.1l0.6,0l0.6,0l0.6,0l0.6-0.1l0.2-0.1
	l0.4-0.4l0.1-0.2l0.4-0.6l0,0l0.6-0.2l0.6-0.3l0.6-0.2l0,0l0.3-0.6l0.2-0.1l0.6-0.3l0.6-0.2l0.6-0.1l0,0l0.6-0.2l0.6-0.2l0.4-0.2
	l0.1-0.1l0.6-0.3l0.4-0.3l0.1-0.1l0.6-0.4l0.2-0.1l0.4-0.2l0.6-0.3l0.6-0.2l0.6,0l0.6-0.1l0,0l0.6-0.3l0.6-0.2l0.6-0.1l0.6-0.1
	l0.6,0l0.6,0.1l0.6-0.2l0,0l0.6-0.1l0.6-0.1l0.6,0.1l0,0l0.6,0.3l0.6,0.1l0,0l0.6,0.2l0.6,0l0.6-0.3l0,0l0.6-0.2l0.6,0l0.6-0.1
	l0.6-0.1l0.6-0.2l0,0l0.6-0.3l0.6-0.3l0,0l0.6-0.2l0.6,0l0.6,0l0.6-0.1l0.6,0l0.6,0l0.6,0.1l0,0l0.6,0.3l0.6,0l0.6-0.1l0.6-0.1
	l0.6-0.2l0,0l0.6-0.3l0.6,0.2l0,0l0.6,0l0.6,0l0,0l0-0.6l0.5-0.6l0,0L75,45l0,0l0.6-0.2l0.6,0l0.6,0.1l0,0.6l0,0.6l-0.5,0.6l0,0l0,0
	l0.6,0l0.6,0l0.6,0l0.6,0.5l0,0l0.6,0l0.6,0.2l0.6,0l0.6,0.2l0,0.6l0,0.6l0,0l0.6,0l0.6,0l0.6,0l0.6,0l0.6,0l0,0l0.6-0.3l0.6-0.3
	l0,0l0.5-0.6l0.6,0l0,0l0.6-0.3l0.6,0.2l0,0l0.6,0l0.6,0l0.6,0l0,0l0.6-0.3l0.6-0.3l0.6,0l0.6,0l0,0l0.2-0.6l0.3-0.3l0.6-0.3l0,0
	l0.5-0.6l0.6,0l0,0l0.6-0.3l0.6-0.3l0,0l0.6-0.3l0.6,0.2l0,0l0,0l0.5-0.6l0,0l0.6-0.3l0.6,0.2l0,0l0.6,0.5l0,0.6l0,0l0.6,0.5
	l-0.3,0.6l0.4,0.5L99.1,46l-0.6,0l-0.6-0.5l0-0.6l0,0l-0.6-0.5l0,0l-0.6,0l0,0L96,45.1l0,0l-0.6,0.3l-0.6-0.2l0,0l0,0l0,0.6
	l-0.5,0.6l-0.6,0l0,0L93.4,47l-0.2,0.3l-0.3,0.3l0,0.6l0.3,0.5l0,0.6l0,0l0.6,0.5l-0.5,0.6l0,0l-0.6,0.3l-0.6,0.3l-0.6-0.5l0.6-0.3
	l0.3-0.3l-0.3-0.3l-0.6-0.2l0,0l-0.6,0l-0.6,0L89.8,49l0,0l0,0l0,0.6l-0.5,0.6l0,0l-0.5,0.6l-0.6-0.5l0-0.6l0,0l-0.6,0l0,0l0,0
	l0.6,0.5l0,0.6l0,0l0.6,0l0.6,0.5l0,0l0.3,0.5l0.3,0.5l-0.5,0.6l-0.6,0l-0.6,0l0,0l-0.5,0.6l0,0l0,0.6l0,0.6l-0.5,0.6l0,0l0,0l0.6,0
	l0,0l0.5-0.6l0.6,0.5l0,0l0.3,0.5l0,0.6l0.3,0.5l0,0l0.3,0.5l-0.2,0.6l0,0l-0.6,0.3l-0.6,0.3l-0.6,0l-0.6,0L87,59l0,0l0,0l0.6,0.5
	l-0.5,0.6l-0.6,0l-0.6,0l0,0l-0.5,0.6l-0.6,0l0,0l-0.5,0.6l-0.6,0l0,0l0,0.6l0,0l0.3,0.5l0.3,0.3l0.6,0.2l0,0.6l-0.6,0.3l-0.6,0.3
	l0,0l-0.6,0.3L83,64.5l-0.3-0.3L82,64l0,0l-0.6,0l-0.6,0l-0.6,0l-0.6,0l0,0l-0.5,0.6l0,0l0,0l0.6,0.2l0.6-0.1l0.6,0l0.6,0l0.6,0.2
	l-0.5,0.6l0,0L81,66.3l-0.6-0.5l0,0l0,0l-0.5,0.6l-0.6,0l-0.6,0l0,0l0,0l0.6,0l0.6,0l0.6,0l0.6,0l0.6,0.5l-0.6,0.3l-0.6,0l-0.6,0
	l-0.6,0l-0.6,0.3l0,0l0,0.6l0,0l0.6,0l0.6,0l0.6,0l0.6,0.5l0,0l0.6,0l0.6,0.5l0,0l0.3,0.5l-0.2,0.6l-0.6,0l-0.6-0.5l0,0l-0.6,0
	l-0.6,0l-0.6,0l0,0L79,70.5l0,0l0,0.6l-0.5,0.6l-0.6,0l0,0l0,0.6l-0.5,0.6l-0.6-0.5l0-0.6l0,0l-0.6,0l-0.6,0l-0.6-0.5l0,0l-0.6,0
	l0,0l0,0.6l-0.5,0.6l0,0l0,0.6l-0.5,0.6l-0.6-0.5l0,0l0,0l-0.5,0.6l-0.6,0l0,0l0,0.6l0,0.6l0,0.6l-0.5,0.6l0,0l0,0.6l0,0l0.6,0.5
	l0,0l0.6,0.5l0,0l0.6,0l0,0l0-0.6l0-0.6l0.5-0.6l0.6,0l0.6,0.5l0,0l0.2,0.6l0.4,0.5l0,0l0.6,0.1l0.6,0.2l0.3,0.1l0.3,0.2l0.6,0.3
	l0,0l0.2,0.6l0.4,0.5l-0.2,0.6l-0.2,0.6l-0.6,0l-0.6-0.2l-0.6,0l-0.6,0.2l-0.3,0.2l-0.3,0.1l-0.6,0.2L74,81.8l0,0l0,0.6L73.5,83l0,0
	l-0.5,0.6l0,0l-0.5,0.6l-0.6,0l-0.6,0l-0.6,0l0,0L70.1,85l-0.6-0.1L69.2,85l-0.2,0.6l0,0l0,0l0.6,0.1l0.6,0l0.3-0.2L70.1,85l0.5-0.6
	l0.6,0l0.6,0.5l0,0l0,0l0.5-0.6l0.6,0.5l0,0l0.6,0.1l0.3-0.2l0.3-0.2l0.4-0.5l0.1-0.2l0.6-0.5l0,0l0.1-0.6l0.3-0.6l0,0l0.6-0.2
	l0.6-0.2l0.3-0.3l0.2-0.6l0.6,0l0.6,0.5l0,0l0.6,0.5l0,0.6l0,0.6l0,0l0.6,0l0.6,0.5l-0.5,0.6l0,0l0,0l0.6,0.5l0,0.6l-0.5,0.6l-0.6,0
	l-0.6-0.5l0-0.6l0,0l-0.6-0.5l0,0l0,0l0,0.6l0,0.6l0,0l0.6,0.5l0,0.6l-0.5,0.6l0,0l0,0l0.6,0l0.6,0l0.6,0l0.6,0l0.6,0.5l0,0.6
	l-0.5,0.6l-0.6,0l-0.6-0.5l0,0l0,0l0,0.6l-0.5,0.6l0,0L78.9,90l-0.6,0l0,0l0,0.6l0,0l0,0l0.5-0.6l0,0l0.5-0.6l0.6,0l0,0l0.5-0.6
	l0.6,0.5l-0.5,0.6l0,0l-0.5,0.6l-0.6,0l0,0l0,0l0.6,0.5l0,0l0.6,0.5l-0.5,0.6l0,0l-0.5,0.6l0,0l0,0.6l0,0l0.6,0.5l0,0.6l-0.5,0.6
	l-0.6-0.5l0,0l-0.6,0l0,0l0,0l0.6,0.5l-0.5,0.6l-0.6,0l-0.6,0l0,0l0,0.6l0,0l0.6,0l0.6,0.5l0,0.6l0,0.3"/>
<path class="st1" d="M0.5,74.9l0.3,0l0.6-0.2L2,74.5l0.6-0.2l0.1-0.1l0.4-0.1l0.6-0.1l0.6-0.1l0.6-0.1l0.6-0.1l0.6-0.1l0.6-0.2l0,0
	l0.6-0.2l0.4-0.4l0.1-0.2l0.3-0.4l0.2-0.1l0.6-0.1l0.6-0.1l0.6-0.2l0.6-0.2l0.6-0.1l0,0l0.6-0.1l0.6-0.1l0.6-0.1l0.6-0.1l0.6-0.1
	l0.6-0.1l0.6,0l0.6-0.2l0.3-0.3l0.2-0.2l0.5-0.5l0.1-0.1l0.6-0.3l0.2-0.3l0.3-0.6l0,0l0.5-0.6l0,0l0.6-0.3l0.4-0.4l0.1-0.1l0.5-0.5
	l0.1-0.2l0.4-0.4l0.2-0.2l0.3-0.4l0.2-0.2l0.6-0.2l0.6-0.2l0.1-0.1l0.5-0.4l0.2-0.2l0.3-0.2l0.5-0.4l0.1-0.1l0.6-0.5l0.1-0.1
	l0.5-0.5l0.1-0.1l0.5-0.4l0.2-0.2l0.3-0.3l0.4-0.3l0.2-0.1l0.6-0.2l0.6-0.3l0.1-0.1l0.5-0.2l0.6-0.3l0.1-0.1l0.5-0.3l0.4-0.3
	l0.2-0.1l0.6-0.4l0.1-0.1l0.4-0.4l0.2-0.2l0.3-0.1l0.6-0.2l0.6-0.1L34,57l0.2-0.2l0.3-0.2l0.6-0.4l0.3-0.1l0.3-0.1l0.6-0.4l0.1-0.2
	l0.4-0.6l0,0l0.6-0.2l0.6-0.2l0.6-0.3l0.3-0.1l0.3-0.1l0.6-0.3l0.6-0.3l0,0l0.6-0.1l0.6-0.1l0.6-0.3l0.6-0.2l0,0l0.6-0.1l0.6-0.2
	l0.6-0.1l0.6-0.1l0.6-0.2l0.1-0.1l0.4-0.3l0.6-0.4l0,0l0.6-0.3l0.4-0.3l0.1-0.1l0.6-0.3L49,50l0,0l0.6-0.2l0.6-0.2l0.6,0l0.6-0.2
	l0.4-0.2l0.2-0.1l0.6-0.1l0.6-0.2l0.6-0.2l0.6-0.2l0.6,0l0.6-0.1l0,0l0.6-0.1l0.6-0.1l0.6-0.1l0.6-0.1l0.6-0.2l0.6-0.2l0,0l0.6-0.2
	l0.4-0.4l0.2-0.1l0.6-0.1l0.6,0.1l0,0l0,0l0.6-0.2l0.6-0.2l0.3-0.3l0.3-0.1l0.6-0.1l0.3,0.2l0.3,0.3l0.6,0.2l0,0l0,0l0.5-0.6l0.6,0
	l0.6,0.5l0,0l0.6,0l0,0l0.6-0.3l0.6,0l0.6,0l0.6,0.2l0,0l0.6,0l0,0l0.6-0.2l0.6-0.1l0.6-0.2l0.6-0.2l0.6,0l0,0l0.6-0.3l0.6-0.4l0,0
	l0.6-0.2l0.6-0.2l0.6,0l0.6,0l0.6,0.1l0.6,0l0.6-0.2l0.6-0.2l0.6,0l0.6-0.1l0.6,0.1l0.6,0.1l0,0l0.6,0l0.6,0l0.6,0l0.6,0l0.6,0
	l0.6,0l0,0l0.5-0.6l0,0l0.6-0.3l0.6,0.2l0,0l0,0l0.6-0.3l0.6-0.3l0,0l0.5-0.6l0.6,0l0,0l0-0.6l0.5-0.6l0.6,0l0,0l0.5-0.6l0,0l0-0.6
	l0-0.6l0.2-0.6l0.2-0.6l0,0l0.6-0.3l0.6,0l0.6-0.3l0,0l0.5-0.6l0.6,0l0.6,0l0.6,0l0.6,0.5l0,0l0,0l0.5-0.6l0.6,0l0.6,0l0.6,0l0.6,0
	l0.6,0l0.6,0l0.6,0l0.6,0l0,0l0.5-0.6l0.6,0l0.6,0l0.6,0l0.6,0l0.6,0.5l-0.5,0.6l-0.6,0l-0.6,0l0,0l0,0l0.6,0l0.6,0.5l0,0l0.6,0.5
	l-0.5,0.6l0,0l0,0l0,0l0.5-0.6l0.6,0l0.6,0l0.6,0l0.6,0.5l0,0.6l0,0l0.6,0l0.6,0l0.6,0.1l0.6,0l0.6-0.3l0.6,0.1l0.6,0l0.6,0.2
	l-0.6,0.3l-0.6,0.3l0,0l-0.5,0.6l0,0l0,0.6l0,0l0.6,0.5l0,0l0.6,0l0,0l0.5-0.6l0,0l0.2-0.6l0.3-0.3l0.6-0.3l0.6,0l0.3,0.5l0.3,0.5
	l-0.5,0.6l-0.6,0l0,0l0,0.6l-0.6,0.3l-0.6,0l-0.3,0.3l-0.2,0.6l0,0l-0.5,0.6l0,0l0,0.6l0,0l0.6,0l0,0l0.5-0.6l0.6,0.5l0,0l0.6,0
	l0.6,0l0.6,0.2l0.6,0.2l0,0l0.6,0l0.2,0.6l-0.1,0.6l0,0l-0.2,0.6l-0.3,0.2l-0.6,0.4l0,0l-0.5,0.6l-0.6-0.5l0-0.6l0,0l-0.6,0l0,0
	l-0.5,0.6l-0.6,0l0,0l-0.5,0.6l-0.6-0.5l0-0.6l0,0l0,0l0,0.6l0,0.6l-0.5,0.6l0,0l0,0.6l-0.6,0.3l-0.6-0.2l0,0l-0.6,0l0,0l-0.6,0.3
	l-0.6,0.1l-0.6-0.3l0,0l-0.6,0l0,0l-0.5,0.6l0,0l0,0l0.6,0.5l0,0l0.3,0.5l-0.2,0.6l-0.6,0l0,0l-0.5,0.6l-0.6-0.5l0,0l-0.6,0l0,0
	l0,0.6l0,0.6l0,0.6l0,0.6l0,0l0.6,0.5l-0.5,0.6l-0.6,0l-0.6-0.5l0,0l-0.6-0.5l0,0l0,0l-0.5,0.6l0,0l0,0l0.6,0l0.6,0.5l-0.5,0.6
	l-0.6,0l-0.6,0l0,0l0,0.6l0,0.6l-0.5,0.6l-0.6,0l-0.6,0l-0.6,0l0,0l0,0.6l-0.5,0.6l0,0l0,0.6l0,0.6l0,0l0.6,0.5l0,0.6l0,0l0.6,0.5
	l0,0l0.6,0.5l0,0.6l-0.1,0.6l-0.3,0.6l0,0l-0.5,0.6l0,0l0,0l0.6,0l0.6,0l0.6,0.5l0,0l0.6,0l0.6,0l0,0l0-0.6l0-0.6l0.5-0.6l0.6,0
	l0.6,0l0,0l0.5-0.6l0,0l0,0l-0.6-0.5l0-0.6l0-0.6l0,0l-0.3-0.5l0.2-0.6l0.6,0l0.6,0.5l0,0.6l0,0l0.3,0.5l0.3,0.5l0,0l0.6,0.5
	l-0.5,0.6l0,0l0,0.6l-0.6,0.3l-0.3,0.3l0.3,0.3l0.2,0.3l0.2,0.6l0.2,0.3l0.3,0.3l0.3,0.3l0.3,0.3l0.3,0.3l0.6,0.2l0,0l0.6,0l0.3,0.5
	l0.3,0.3l0.6,0.2l0,0l0.3,0.5l0.3,0.5l0,0l0.3,0.5l-0.2,0.6l0,0l0,0.6l0,0l0.6,0.5l0,0.6l0,0l0.6,0.5l-0.6,0.3l-0.6,0l-0.3,0.3
	l0,0.6l0.3,0.3l0.6,0.2l-0.5,0.6l0,0l-0.5,0.6l-0.6-0.5l0,0l0,0l-0.5,0.6l0,0l-0.5,0.6l0,0l0,0.6l-0.5,0.6l0,0l0,0l0.6,0.5l0,0l0,0
	l0-0.6l0-0.6L110,75l0.6,0.2l0.6,0l0.6,0.2l0,0l0.6,0.5l0,0.6l0,0.6l-0.5,0.6l0,0l-0.5,0.6l0,0l-0.6,0.2l-0.6,0.1l-0.6,0.3l-0.6-0.5
	l0,0l-0.6,0l0,0l0,0l0.6,0.5l-0.5,0.6l-0.6,0l-0.6-0.5l0-0.6l0,0l0,0l-0.5,0.6l-0.6,0l-0.6,0l0,0l-0.5,0.6l0,0l0,0.6l0,0l0.6,0l0,0
	l0.5-0.6l0.6,0.5l0,0.6l-0.5,0.6l0,0l0,0.6l-0.5,0.6l-0.6,0l0,0l0,0.6l0,0l0.6,0l0,0l0.5-0.6l0.6,0l0.6,0l0.6,0l0.6,0.5l0,0l0.3,0.5
	l0,0.6l-0.2,0.4l-0.1,0.2l0,0.6l0.2,0.6l0,0l0.6,0l0,0l0.5-0.6l0.6,0.2l0.6-0.1l0.6-0.2l0.6,0.5l0,0l0,0l0.5-0.6l0,0l0-0.6l0.5-0.6
	l0.6,0.5l0,0l0.6,0.5l0,0l0,0l0.5-0.6l0.6,0l0.3,0.5l0,0.6l0,0.6l0,0.6l0,0.6l0.3,0.3l0.6,0l0.6,0.1l0,0.6l0,0l0.6,0.5l0,0l0.3,0.5
	l-0.3,0.3l-0.6,0.3l0,0l-0.6,0.2l-0.6,0l-0.6,0.1l-0.6,0.1l-0.6-0.2l0,0l0,0l-0.6,0.2l-0.6,0.1l-0.2,0.3l0.2,0.6l0,0l0.4,0.5
	l0.1,0.6l0.2,0.4l0.1,0.2l0.4,0.5l-0.2,0.6l-0.2,0.3l-0.2,0.3l0,0.3"/>
<path class="st0" d="M0.5,74.8l0.3,0l0.6-0.2l0.6-0.3l0,0l0.6-0.2l0.6-0.2l0.6-0.2l0.6-0.1l0.3-0.1l0.3-0.2l0.6-0.2L6,73l0.6-0.2
	l0.6-0.1l0.1-0.1l0.2-0.6L7.7,72l0.6-0.3l0.6-0.1l0.6-0.1l0.5-0.2l0.1,0l0.6-0.1l0.6-0.1l0.6-0.1l0.6-0.1l0.6-0.1l0.6-0.1l0.6-0.1
	l0.6-0.1l0.6-0.1l0.6-0.2l0.1-0.1l0.5-0.4l0.3-0.2l0.3-0.3l0.5-0.4l0,0l0.4-0.6l0.1-0.2l0.3-0.4l0.2-0.2l0.6-0.3l0.2-0.2l0.3-0.3
	l0.3-0.3l0.3-0.5l0.1-0.1l0.4-0.6l0,0l0.6-0.5l0.6-0.2l0,0l0.6-0.3l0.5-0.4l0.1-0.1l0.6-0.4l0.2-0.1l0.4-0.3l0.3-0.3l0.2-0.2
	l0.4-0.4l0.2-0.2l0.4-0.4l0.1-0.1l0.5-0.5l0,0l0.6-0.3l0.6-0.3l0,0l0.6-0.2l0.6-0.3l0.3-0.2l0.3-0.2l0.5-0.4l0.1,0l0.6-0.4l0.2-0.2
	l0.3-0.3l0.4-0.4l0.2-0.1l0.6-0.2l0.6-0.2l0.6-0.1l0,0l0.6-0.2l0.6-0.4l0.2-0.1l0.4-0.3l0.6-0.3l0.2-0.1l0.4-0.4l0.1-0.2l0.4-0.3
	l0.6-0.3l0.2-0.1l0.4-0.1l0.6-0.2l0.6-0.2l0.2-0.1l0.3-0.1l0.6-0.1l0.6-0.2l0.6-0.2l0.2-0.1l0.4-0.2l0.6-0.2l0.6-0.1l0.6-0.2
	l0.6-0.1l0.3-0.1l0.3-0.1l0.6-0.3l0.4-0.3l0.2-0.2l0.6-0.5l0,0l0.6-0.3l0.6-0.2l0.4-0.2l0.2-0.1l0.6-0.2l0.6-0.3l0.6-0.2l0,0
	l0.6-0.1l0.6-0.2l0.6-0.2l0.6-0.1l0.6-0.2l0.1-0.1l0.4-0.2l0.6-0.2l0.6-0.1l0.6-0.1l0.6-0.1l0.6,0l0,0l0.6-0.1l0.6-0.2l0.6-0.3
	l0.2-0.1l0.4-0.2l0.6-0.3l0.2-0.1l0.4-0.2l0.6-0.2l0.6,0l0.6-0.1l0.6-0.2l0.2-0.1l0.4-0.1l0.6-0.1l0.6,0l0.6,0l0.6-0.2l0.6,0l0.6,0
	l0.6,0l0.6-0.1l0.6-0.1l0.6,0l0.6,0l0,0l0.6,0.1l0.6,0l0.6-0.2l0.6,0l0.6,0l0.6,0l0.1-0.1l0.4-0.2l0.6-0.3l0.3-0.1l0.3-0.1l0.6-0.1
	l0.6,0l0.6-0.1l0.6,0l0.6-0.1l0.6-0.3l0.3-0.2l0.3-0.1l0.6-0.1l0.6-0.5l0,0l0.6-0.2l0.6,0.1l0,0l0.6,0l0,0l0.6-0.3l0.3-0.3l0.3-0.3
	l0.6-0.3l0.6,0l0,0l0.6-0.2l0.6-0.1l0.6-0.3l0,0l0.6-0.3l0.6-0.3l0,0l0.5-0.6l0,0l0.6-0.3l0.3-0.3l0.1-0.6l0.1-0.6l0,0l0.2-0.6
	l0.3-0.3l0.6-0.3l0,0l0.6-0.3l0.3-0.3l0.3-0.1l0.6-0.2l0.6,0.2l0,0l0,0l0.5-0.6l0,0l0.6-0.4l0.6-0.2l0,0l0.5-0.6l0,0l0.6-0.3
	l0.6,0.2l0,0l0,0l0.5-0.6l0.6,0l0,0l0.6-0.3l0.6,0l0.3-0.3l0.3-0.3l0.6,0l0.6,0.2l0,0l0,0l0.6-0.3l0.6,0l0.6,0l0.6,0l0.6,0l0.6,0
	l0.6-0.3l0.6,0l0.6,0.5l0,0.6l0,0.6l0,0l0.6,0.1l0.6,0l0.6,0l0.6,0l0.6,0.2l0,0l0.6,0l0.6,0l0.6,0l0.6,0l0.6,0l0.6,0.1l0.6,0l0.6,0
	l0.6,0l0.6,0.2l0,0l0.6,0l0.6,0l0,0l0.5-0.6l0.6,0l0.6,0.1l0.6-0.2l0.6,0l0.6,0l0.6,0.2l0.6,0.2l0,0l0,0l0.6-0.3l0.6-0.3l0.6,0
	l0.6,0l0.6,0l0.6,0l0.6,0l0.6,0l0.6,0l0.6,0l0.6,0l0,0l0.5-0.6l0.6,0l0.6,0.5l0,0.6l0,0l0.6,0.5l0,0l0.6,0l0.6,0l0.6,0l0.6,0.5l0,0
	l0.6,0.5l-0.5,0.6l0,0l-0.5,0.6l0,0l0,0.6l-0.5,0.6l-0.6,0l-0.6,0l0,0l0,0.6l0,0.6l0,0l0.6,0l0.6,0.5l0,0.6l-0.5,0.6l0,0l0,0.6l0,0
	l0.6,0l0.6,0.5l0,0.6l0,0l0.3,0.5l-0.2,0.6l0,0l-0.6,0.3l-0.6-0.2l0-0.6l0,0l-0.6-0.1l-0.3,0.2l-0.3,0.3l-0.6,0l-0.3-0.3l-0.3-0.3
	l-0.2-0.3l-0.4-0.3l-0.3-0.2l-0.3-0.2l-0.6,0.2l0,0l0,0.6l0,0l0.4,0.5l0.1,0.6l-0.4,0.5l-0.6,0l-0.6,0l-0.6,0l-0.2,0.3l-0.4,0.4
	l-0.6,0.2l0,0l-0.5,0.6l0,0l-0.6,0.3l-0.6,0.3l0,0l0,0.6l0,0l0.6,0l0,0l0.2-0.6l0.2-0.6l0.6,0.2l0.6,0l0.6,0l0.6,0.2l0,0l0.6,0
	l0.6,0l0.6,0.2l0.6,0.2l0,0l0.6,0l0,0l0.5-0.6l0.6,0l0.6,0.5l0,0l0.6,0.5l-0.5,0.6l0,0l-0.2,0.6l-0.3,0.3l-0.6,0l-0.6,0.1l-0.3,0.3
	l0.3,0.5l0,0l0.3,0.5l0.3,0.2l0.6,0.3l0,0l0.6,0l0,0l0-0.6l0,0l-0.6-0.5l0.2-0.6l0.3-0.3l0.6,0l0.6-0.4l0.6,0l0.6,0l0.6,0l0.6,0l0,0
	l0-0.6l0.5-0.6l0.6,0.5l0,0l0.6,0.5l0,0l0.6,0.5l-0.5,0.6l-0.6,0l0,0l0,0l0.6,0l0.6,0.5l0,0.6l0,0l0,0l0-0.6l0-0.6l0-0.6l0.5-0.6
	l0.6,0.1l0.6,0l0.6-0.2l0.3,0.5l-0.2,0.6l0,0l0,0.6l-0.2,0.6l-0.3,0.6l0,0l0,0.6l-0.5,0.6l-0.6,0l-0.6,0l-0.6-0.5l0,0l0,0l-0.5,0.6
	l0,0l-0.5,0.6l0,0l-0.5,0.6l0,0l-0.5,0.6l0,0l-0.5,0.6l-0.6,0l0,0l-0.6,0.3l-0.6,0.3l-0.6,0l0,0l0,0.6l0,0.6l0,0.6l0,0l0.6,0.2
	l0.6-0.3l0.6,0l0,0l0.5-0.6l0.6,0.2l0.6,0.2l0,0.6l0,0l0.6,0.2l0.4,0.3l-0.1,0.6l0,0.6l0.3,0.3l0.2,0.3l0.4,0.3l0.6,0.1l0,0l0.2,0.6
	l0.1,0.6l-0.2,0.6l0,0l-0.5,0.6l-0.6,0l-0.6-0.5l0-0.6l0,0l-0.6,0l0,0l0,0.6l0,0.6l0,0.6l0,0l0,0l0.5-0.6l0.6,0.5l0,0l0.3,0.5
	l0.3,0.5l-0.2,0.6l0,0.6l0.3,0.5l-0.5,0.6l0,0l-0.5,0.6l0,0l0,0.6l0,0.6l0,0l0.6,0l0,0l0-0.6l0,0l-0.6-0.5l0.5-0.6l0,0l0.5-0.6
	l0.6,0l0,0l0.5-0.6l0,0l0.6-0.3l0.6,0.2l0,0l0.6,0.5l0,0.6l-0.5,0.6l-0.6,0l-0.6,0l0,0l0,0l0.6,0l0.6,0l0.6,0.5l0,0.6l0,0l0.6,0
	l0.2,0.6l-0.1,0.6l0,0l-0.5,0.6l-0.6-0.5l0,0l-0.6,0l-0.6,0l0,0l-0.5,0.6l0,0l-0.5,0.6l-0.6,0l0,0l-0.2,0.6l0,0.6l-0.2,0.6l0,0l0,0
	l0.6,0.5l-0.5,0.6l0,0l-0.5,0.6l-0.6-0.5l0,0l-0.6,0l-0.6,0l-0.6,0l0,0l0,0.6l-0.5,0.6l0,0l0,0.6l0,0l0.6,0l0.3,0.5l-0.2,0.6l0,0
	l-0.6,0.3l-0.3,0.3l0.1,0.6l0.2,0.6l-0.5,0.6l-0.6,0l0,0l0,0l0.6,0.5l-0.2,0.6l0,0.6l0.3,0.5l-0.5,0.6l0,0l0,0.6l0,0l0.6,0.5l0,0
	l0,0l0.2-0.6l0-0.6l-0.3-0.5l0.6-0.3l0.3-0.3l0.3-0.3l0.6,0l0.6-0.3l0,0l0.2-0.6l0-0.6l-0.1-0.6l0.1-0.6l0.1-0.6l0.6,0l0.6,0
	l0.6,0.5l0,0l0.6,0l0.6,0l0.3,0.5l0.3,0.5l0,0.6l0,0l0.6,0.5l0,0l0.6,0l0.6,0.5l-0.2,0.6l-0.1,0.6l0.1,0.6l0.3,0.5L141,80l-0.6,0
	l-0.6,0l-0.6,0l-0.6,0l0,0l-0.5,0.6l0,0l0,0.6l0,0l0.6,0.2l0.3-0.3l0.2-0.6l0,0l0.5-0.6l0.6,0l0.6,0l0,0l0.5-0.6l0.6,0l0,0l0-0.6
	l0.2-0.6l0.2-0.6l0,0l0.5-0.6l0.6,0l0.6,0.5l-0.5,0.6l0,0l-0.5,0.6l0,0l0,0l0.2,0.6l0,0.6l0,0.2l-0.6,0.4l-0.6,0l0,0l0,0l0.2,0.6
	l-0.1,0.3l-0.2,0.3l-0.3,0.6l-0.6,0l0,0l-0.6,0.1l-0.6,0l-0.6,0.2l-0.3,0.4l-0.2,0.2l-0.6,0.1l-0.3,0.3l-0.1,0.6l-0.1,0.3l-0.6,0.4
	l-0.2-0.6l-0.1-0.6l-0.3-0.3l-0.6-0.2l0,0l0,0l-0.6,0.2l-0.6,0.1l-0.3-0.3l-0.4-0.3l-0.6,0.1l-0.3,0.3l-0.2,0.3l-0.3,0.3l-0.2,0.2
	l-0.3,0.5l-0.2,0.3l-0.2,0.3l-0.1,0.6l0.2,0.6l0.3,0.4l0.1,0.2l0,0.2l-0.2,0.4l0,0.6l0.3,0.4l0.1,0.1l0,0.6l0.2,0.6l0.4,0.3l0.2,0.2
	l-0.1,0.6l0,0l-0.6,0.1l-0.2-0.1l-0.5-0.2l-0.6,0.3l0,0l-0.5,0.6l-0.5-0.5l-0.1-0.3l-0.1-0.3l-0.5-0.4l-0.1-0.1l0-0.6l-0.6-0.4
	l-0.6,0.2l-0.3,0.3l-0.1,0.6l-0.1,0.2l-0.6,0.2l-0.2,0.2l-0.1,0.6l0.4,0.5l0,0l0.5,0.5l0.2,0.6l0,0l0.3,0.5l0,0.3"/>
<path class="st0" d="M0.5,74.6l0.3,0l0.6-0.2l0.1-0.1l0.5-0.2l0.6-0.2l0.6-0.3l0,0l0.6-0.3L4,73l0.2-0.1l0.6-0.2l0.6-0.2l0.4-0.2
	l0.2,0L6.5,72l0.6-0.2l0.6-0.3l0.2-0.1l0.4-0.1l0.6-0.1l0.6,0l0.6-0.1l0.6-0.1l0.6-0.1l0.6-0.1l0.6-0.1l0.6-0.1l0.6-0.1l0.6-0.1
	l0.6-0.1l0.6-0.1l0.2-0.1l0.3-0.1l0.5-0.5l0,0l0.6-0.5l0.1-0.1l0.4-0.3l0.2-0.3l0.3-0.5l0.1-0.1l0.5-0.3l0.5-0.3l0.1,0l0.6-0.6l0,0
	l0.4-0.6l0.1-0.2l0.3-0.4l0.3-0.3l0.4-0.3l0.2-0.2l0.6-0.2l0.6-0.2l0.1,0l0.5-0.4l0.3-0.3l0.2-0.2l0.5-0.4l0,0l0.6-0.5l0,0l0.5-0.5
	l0.1-0.1L26,61l0.1-0.1l0.4-0.3l0.6-0.4l0,0l0.6-0.3l0.6-0.2l0.3-0.2l0.3-0.2l0.6-0.4l0.1,0l0.5-0.4l0.3-0.2l0.3-0.2l0.5-0.5l0,0
	l0.6-0.4l0.6-0.3l0,0l0.6-0.2l0.6-0.1l0.6-0.2l0.2-0.2l0.3-0.3l0.6-0.4l0,0l0.6-0.3L36,55l0.3-0.3l0.5-0.4l0.1-0.1l0.6-0.2l0.6-0.3
	l0.3-0.2l0.2-0.1l0.6-0.1l0.6-0.2l0.6-0.2l0.6-0.2l0,0l0.6-0.2l0.6-0.3l0.3-0.1l0.3-0.2l0.6-0.2l0.6-0.2l0.6,0l0.6-0.2l0,0l0.6-0.3
	l0.4-0.3l0.2-0.2l0.4-0.4l0.2-0.1l0.6-0.2l0.6-0.1l0.6-0.1l0.6-0.3l0.1,0l0.5-0.2l0.6-0.2l0.6-0.2l0.5-0.2l0.1-0.1l0.6-0.2l0.6-0.1
	l0.6-0.2l0.4-0.2l0.2-0.1l0.6-0.3l0.6-0.3l0,0l0.6-0.1L56,47l0.6,0l0.6-0.1l0.6-0.2l0.6-0.3l0,0l0.6-0.3l0.6-0.3l0.1-0.1l0.4-0.2
	l0.6-0.2l0.6,0l0.6-0.1l0.6-0.1l0.6-0.1l0.6-0.1l0.6,0l0.6,0l0,0l0.6-0.1l0.6,0l0.6,0l0,0l0.6,0l0.6,0l0,0l0.6-0.1l0.6,0l0,0l0,0
	l0.6-0.1l0.6,0l0,0l0.6,0.1l0.6,0l0.6,0l0.6-0.1l0.6-0.2l0,0l0.6-0.2l0.6-0.2l0.6-0.1l0.6-0.1l0.6,0l0.6-0.1l0.3-0.1l0.3-0.1
	l0.6-0.3l0.4-0.3l0.1-0.1l0.6-0.2l0.6-0.2l0.3-0.2l0.2-0.1l0.6-0.3l0.6-0.3l0,0l0.6-0.3l0.4-0.4l0.1-0.1l0.6-0.2l0.6-0.3l0.6-0.2
	l0,0l0.6-0.2l0.4-0.5l0.1-0.1l0.6-0.4l0.2-0.2l0.4-0.4l0.1-0.2l0.4-0.4l0.2-0.2l0.3-0.4l0.2-0.2l0.4-0.5l0.1-0.1l0.4-0.4l0.2-0.2
	l0.3-0.3l0.6-0.3l0,0l0.6-0.2l0.6-0.3l0.4-0.2l0.2-0.2l0.6-0.4l0,0l0.5-0.6l0,0l0.6-0.3l0.3-0.3l0.3-0.2l0.6-0.1l0.6-0.3l0,0
	l0.6-0.3l0.6-0.3l0,0l0.6-0.2l0.6-0.1l0.6-0.1l0.6,0l0.6-0.1l0.6-0.1l0.6-0.1l0,0l0.6-0.1l0.6-0.1l0.6-0.1l0.6-0.1l0.6-0.1l0.6,0
	l0.6,0l0.6-0.1l0.6-0.2l0,0l0.6-0.1l0.6,0l0,0l0,0l0.6-0.2l0.6,0l0.6-0.1l0.6,0.1l0,0l0.6,0.5l0,0l0.6,0l0.6,0l0.6,0l0.6,0.2l0.6,0
	l0.6,0l0.6,0.1l0,0l0.6,0.2l0.6-0.3l0.6,0l0.6,0.5l0,0l0.6,0.1l0.6,0l0.6-0.2l0.6,0l0,0l0.6-0.2l0.6,0l0.6,0l0.6,0l0.6-0.4l0.6,0
	l0,0l0.6-0.1l0.6,0l0.6,0l0,0l0.6,0l0.6,0.1l0.6,0l0.6-0.2l0.6,0l0.6,0l0,0l0.6-0.2l0.6-0.2l0.6-0.2l0.6,0l0.6-0.2l0.6,0l0.6,0.1
	l0.6,0l0.6-0.2l0.6,0l0.6,0l0,0l0.5-0.6l0,0l0.6-0.3l0.6,0l0.6,0l0.6-0.3l0.6,0.2l0.6,0.2l0,0l0,0l0.5-0.6l0,0l0.5-0.6l0.6,0l0.6,0
	l0,0l0.5-0.6l0.6,0.5l0,0l0.6,0.2l0.6,0l0.6,0.2l0,0l0.6,0l0,0l0.5-0.6l0.6,0l0.6,0l0,0l0-0.6l0.6-0.3l0.6,0l0.6,0l0.6-0.1l0.6-0.2
	l0,0l0.6-0.2l0.6-0.2l0.3-0.3l0.3-0.2l0.6-0.1l0.6-0.3l0,0l0.6-0.3l0.6-0.3l0,0l0.6-0.3l0.6-0.3l0.6,0l0.6,0.5l-0.5,0.6l0,0l0,0.6
	l0,0l0.6,0l0,0l0.5-0.6l0.6,0.5l0,0l0.6,0l0.6,0l0.6,0.5l-0.5,0.6l0,0l-0.2,0.6l0.3,0.5l0,0l0.6,0l0.6,0l0.6,0l0.6,0l0.6,0l0.6,0
	l0,0l0.5-0.6l0.6,0l0.6,0l0.6,0.5l0,0l0.6,0.5l-0.5,0.6l-0.6,0l0,0l0,0.6l0,0.6l0,0.6l-0.5,0.6l0,0l0,0.6l0,0l0.6,0l0.6,0l0.6,0.5
	l0,0l0.6,0.5l0,0.6l-0.5,0.6l0,0l0,0l0.6,0l0.6,0.5l0,0l0.6,0.5l0,0.6l0,0.6l-0.5,0.6l-0.6,0l-0.6,0l0,0l0,0.6l-0.6,0.3l-0.3,0.3
	l0.3,0.5l0,0l0,0l0.6-0.2l0.2,0.2l0.4,0.3l0.6,0.1l0,0l0.2,0.6l-0.1,0.3l-0.6,0.3l-0.6-0.1l-0.3,0.2l-0.3,0.1l-0.4,0.5l0.1,0.6
	L165,38l0,0l0.6,0.3l0.6,0.1l0.2,0.1l0,0.6l-0.2,0.3l-0.3,0.3l0.3,0.2l0.6,0l0.4-0.3l0.1-0.6l0,0l0-0.6l0,0l-0.3-0.5l0-0.6l0.2-0.6
	l0.6,0.2l0.6,0l0.3,0.3l-0.1,0.6l0.1,0.6l0.4,0.3l0.2,0.2l0.1,0.6l0.3,0.4l0.3,0.2l0.3,0.5l-0.2,0.6l0,0.6l0.4,0.5l0,0l0.6,0.4
	l0.6,0l0.3,0.1l0.3,0.5l-0.6,0.2l-0.6,0.4l0,0l-0.5,0.6l-0.6-0.2l-0.6,0l-0.2,0.3l-0.3,0.6l0,0l0,0l0.6,0.5l0,0l0.6,0.5l0,0.6l0,0
	l0.6,0l0.6,0.5l-0.5,0.6l-0.6,0l0,0l0,0l0.6,0.5l0,0.6l-0.5,0.6l-0.6,0l-0.6,0l0,0l-0.5,0.6l0,0l0,0.6l-0.5,0.6l-0.6,0l0,0l0,0
	l0.6,0l0,0l0.5-0.6l0.6,0l0.6,0.5l0,0l0.6,0.5l0,0l0,0l0.2-0.6l0.3-0.3l0.6-0.3l0,0l0.6-0.3l0.6,0.2l-0.5,0.6l0,0l-0.5,0.6l0,0
	l0,0.6l-0.5,0.6l-0.6,0l0,0l0,0l0.6,0.5l0,0l0,0l0.5-0.6l0.6,0l0.6,0l0.6,0l0.6,0.5l0,0l0.6,0l0.6,0.5l-0.5,0.6l-0.6-0.2l-0.6,0.3
	l0,0l-0.5,0.6l-0.6,0l-0.6,0l0,0l-0.5,0.6l0,0l-0.6,0.3l-0.6,0.3l0,0l-0.2,0.6l-0.2,0.6l-0.6-0.5l0,0l-0.6,0l0,0l0,0l0.6,0.5l0,0.6
	l0,0.6l-0.5,0.6l0,0l0,0.6l0,0l0.6,0.5l0,0l0.6,0l0.6,0l0.6,0l0,0l0-0.6l0-0.6l0-0.6l0.5-0.6l0,0l0.5-0.6l0.6,0.5l-0.5,0.6l0,0
	l0,0.6l0,0l0.6,0.5l0,0l0.6,0l0.6,0.5l-0.6,0.1l-0.4,0.5l-0.1,0.6l0.1,0.6l-0.1,0.1l-0.2,0l0-0.6L173,61l-0.6-0.1l0,0l0,0l-0.5,0.6
	l0,0l-0.6,0.2l-0.6,0l-0.6,0.1l-0.3,0.4l-0.2,0.4l-0.1,0.2l-0.2,0.6l-0.2,0.1l-0.6,0.4l-0.6,0.2l0,0l-0.6,0.1l-0.6,0.1l-0.6,0.2
	l-0.3,0.3l-0.3,0.2l-0.6,0.1l-0.3,0.4l-0.2,0.6l0,0.2l-0.3-0.2l-0.3-0.2l-0.6,0.2l0,0l-0.3,0.6l-0.2,0.2l-0.6,0.2l-0.3,0.3l-0.3,0.3
	l-0.4,0.4l-0.1,0.1l-0.4,0.5l-0.1,0.2l-0.6,0l-0.6,0.2l-0.1,0.3l-0.4,0.4l-0.6,0.1l-0.2,0.2l-0.3,0.2l-0.3,0.4l0,0.6l-0.1,0.4
	l-0.4-0.3l-0.2-0.1l-0.3,0.1l-0.3,0.1l-0.6,0.3l-0.6,0.2l-0.1,0.1l-0.4,0.4l-0.2,0.2l-0.3,0.3l-0.5,0.3l-0.1,0.3l-0.1,0.3l0.2,0.2
	l0.3-0.2l0.3-0.1l0.1,0.1l-0.1,0.1l-0.4,0.5l0.1,0.6l0.4,0.3l0.2,0.2l0,0.6l0,0.6l-0.1,0.5l-0.1,0.1l-0.3,0.6l0.5,0.4l0.1,0.1
	l0.5,0.2l0.6,0.1l0.1,0.1l0.5,0.5l0.1,0.4l0,0.1l0,0.2l0,0.4l-0.1,0.6l0.3,0.4l0.1,0.1l0.6,0.5l0.1,0.1l0,0.1l-0.6,0.4l-0.2,0.1
	l-0.4,0.2l-0.3,0.4l-0.1,0.6l0.5,0.5l0.1,0l0.6,0.5l0,0.1l0,0.1l-0.5,0.5l-0.1,0.1l-0.6,0.1l-0.6,0.6l0,0l0,0l0.1,0.6l0.2,0.6
	l-0.2,0.2l-0.3-0.2l-0.3-0.2l-0.3-0.4l-0.1-0.6l0.1-0.6l0.2-0.3l0.4-0.4l0-0.6l0-0.6l0-0.6l-0.1-0.6l-0.3-0.6l0.2-0.6l0.1-0.6
	l-0.2-0.6l-0.2-0.6l-0.3-0.4l-0.1-0.1l-0.3-0.5l-0.1-0.6l-0.1-0.6l-0.2-0.2l-0.1-0.4l-0.6-0.4l-0.6,0.1l-0.3-0.1l0.3-0.2l0.6-0.4
	l0,0l0.4-0.6l-0.1-0.6l-0.4-0.3l-0.6,0.1l-0.6,0.2l-0.2,0.1l-0.1,0.6l-0.2,0.4l-0.4,0.2l-0.1,0.1l-0.5,0.5l-0.1,0.2l-0.3,0.5
	l-0.3,0.5l-0.5-0.4l-0.2-0.1l-0.1,0.1l-0.5,0.5l-0.1,0.1l0.1,0.1l0.6,0.1l0.2,0.3l0.1,0.6l0,0.6l0.1,0.6l0.5,0.2l0.6,0l0.2-0.3
	l0.2-0.6l0.1-0.6l0-0.6l0,0l0.1-0.6l0.4-0.5l0.3,0.5l0,0.6l0.2,0.6l0.3,0.4l0.2,0.1l0.3,0.5l-0.1,0.6l-0.2,0.3l-0.4,0.3l-0.2,0.1
	l-0.4,0.5l0,0.6l0.2,0.6l0.1,0.6l-0.1,0.6l-0.2,0.3l-0.3,0.3l-0.3,0.5l0,0.1l0.1,0.1l0.6,0.3l0.6-0.1l0.1,0.1l0.2,0.6l0.1,0.6
	l0.4,0.5l0.1,0.1l0.5,0.1l0.6,0.2l0.1,0.1l0.1,0.6l-0.1,0.6l0.1,0.6l0.5,0.5l0.1,0.1l0.6,0.4l0.1,0.1l0.6,0.4l0.1,0.1l0,0.3"/>
</svg>
