<?xml version="1.0" encoding="utf-8"?>
<!-- Generator: Adobe Illustrator 27.9.0, SVG Export Plug-In . SVG Version: 6.00 Build 0)  -->
<svg version="1.1" id="Layer_1" xmlns="http://www.w3.org/2000/svg" xmlns:xlink="http://www.w3.org/1999/xlink" x="0px" y="0px"
	 viewBox="0 0 180 100" style="enable-background:new 0 0 180 100;" xml:space="preserve">
<style type="text/css">
	.st0{opacity:0.3;fill:none;stroke:#7E85B1;stroke-width:0.5;stroke-linejoin:round;}
	.st1{opacity:0.3;fill:none;stroke:#BCFD42;stroke-width:0.5;stroke-linejoin:round;}
</style>
<path class="st0" d="M12.5,32.9l-0.1,0l-0.1,0l0.1,0L12.5,32.9z"/>
<path class="st0" d="M11.4,34.1l-0.2,0.4l-0.6-0.2l-0.1-0.2l0.1-0.1l0.6-0.1L11.4,34.1z"/>
<path class="st0" d="M11.4,34.5l-0.3,0.2l-0.6-0.2l0,0l-0.2-0.4l0.3-0.3l0.5-0.1l0.1,0l0.1,0l0.4,0.4L11.4,34.5z"/>
<path class="st0" d="M15.8,36.4l-0.2,0.3L15,36.7l-0.6-0.2l-0.5-0.1l-0.2-0.2l-0.6,0L13,36l0.1,0l0.6,0l0.1,0l0.5,0.3l0.6,0l0.6-0.1
	L15.8,36.4z"/>
<path class="st0" d="M15.6,36.4L15.6,36.4l-0.7,0l-0.1,0l0.1,0L15.6,36.4L15.6,36.4z"/>
<path class="st0" d="M15.9,36.8L15.6,37L15,37.1L14.3,37l-0.6,0L13.1,37l-0.6-0.1l-0.3-0.1l0.3-0.4l0,0l0.2-0.4l0.5-0.2l0.6,0.1
	l0.6,0.1l0.6,0l0.6,0L16,36l0.1,0.4L15.9,36.8z"/>
<path class="st0" d="M15.7,36.8l-0.1,0.1l-0.6,0l-0.3-0.1l-0.3-0.1l-0.6-0.1l-0.6,0.1l-0.2-0.4L12.8,36l0.3-0.1l0.6,0l0.6,0.1l0,0
	l0.6,0.1l0.5-0.1l0.2,0l0.1,0l0.3,0.4L15.7,36.8z"/>
<path class="st0" d="M15.1,37.2L15,37.3l-0.6,0l-0.1,0l-0.6-0.1l-0.6,0l-0.6-0.1l-0.6-0.3l0,0l0,0l0.4-0.4l0.2-0.3l0-0.1l0.6-0.3
	l0.6,0.1l0.6,0.1l0.6,0l0.6,0l0.6,0.1l0,0.4L16,36.8l-0.4,0.3L15.1,37.2z"/>
<path class="st0" d="M15.1,37.2L15,37.3l-0.6,0l-0.1,0l-0.6-0.1l-0.6,0l-0.6-0.1l-0.6-0.3l0,0l0,0l0.4-0.4l0.2-0.3l0-0.1l0.6-0.3
	l0.6,0.1l0.6,0.1l0.6,0l0.6,0l0.6,0.1l0,0.4L16,36.8l-0.4,0.3L15.1,37.2z"/>
<path class="st0" d="M14.5,39.2l-0.2,0.1l-0.6,0.2l-0.6,0l-0.6-0.2l-0.1-0.1l-0.1-0.4l-0.4-0.3l-0.4-0.1l-0.2-0.1L11,38.4l-0.3,0.4
	l-0.2,0.1L10,39.2l-0.2,0.1l-0.6,0.1l-0.6,0.1l-0.6,0l-0.6,0l-0.4-0.2l0.4-0.2l0.6-0.2l0,0l0.6-0.3l0.1,0L9.1,38l0.1-0.1l0.3-0.3
	l0.4-0.3l0.2-0.1l0.5-0.4l0,0l0.4-0.4l0.2-0.2l0.4-0.2l0.1-0.4l0.2-0.3l0.6-0.1l0.6,0.1l0.6,0l0.6,0.1l0.6,0.1l0.6-0.1l0.6-0.2l0,0
	l0.6-0.2l0.6,0l0.6,0.2l0.1,0.1l0.1,0.4l-0.3,0.1L17.7,36l-0.1,0.1l-0.5,0.3l-0.2,0.3l-0.1,0.1l-0.3,0.4l-0.3,0.2l-0.4,0.2l-0.2,0.2
	L15.4,38l-0.1,0.4l-0.2,0.4L15,38.9L14.5,39.2z"/>
<path class="st0" d="M13.8,39.2l-0.1,0l-0.6,0l-0.1,0l0-0.4l-0.6-0.3l-0.2-0.1l-0.5-0.2L11.2,38l0,0l-0.1,0l-0.6,0.2l-0.1,0.1
	l-0.1,0.4L9.8,39l-0.6,0.2l0,0l-0.6,0.1l-0.6,0l-0.4-0.1l0.4-0.1l0.5-0.3l0.1-0.1L9,38.4l0.2-0.2L9.5,38l0.4-0.4l0,0l0.5-0.4
	l0.1-0.1l0.4-0.3l0.3-0.2l0.2-0.2l0.5-0.3l0.1-0.1l0.1-0.4l0.4-0.2l0.6,0l0.6,0.1l0.4,0.1l0.2,0.1l0.6,0l0.6-0.1l0.2,0l0.5-0.1
	l0.6-0.2l0.6,0l0.4,0.4l-0.4,0.2L17.1,36l-0.2,0.2l-0.2,0.2l-0.2,0.4l-0.3,0.3l-0.1,0.1l-0.5,0.3l-0.2,0.1L15,38L15,38.2l-0.1,0.2
	l-0.3,0.4L14.3,39L13.8,39.2z"/>
<path class="st0" d="M14.1,39.5l-0.4,0.2l-0.6,0.1l-0.6-0.2l0-0.1l-0.4-0.4l-0.2-0.3l-0.6-0.1l0,0l0,0l-0.5,0.4l-0.1,0l-0.6,0.2
	l-0.6,0.1l0,0l-0.6,0.1l-0.6,0l-0.6,0l-0.4-0.1l-0.2-0.1l-0.2-0.3l0.2-0.2L7,38.8l0.3-0.1l0.6-0.2l0.3-0.1l0.4-0.3L8.7,38l0.4-0.4
	l0.1-0.1l0.4-0.3L9.8,37l0.2-0.2l0.4-0.4l0,0l0.4-0.4l0.2-0.2l0.1-0.2l0.2-0.4l0.4-0.4l0.6,0.1l0.6,0.1l0.6,0.1l0.3,0.1l0.4,0.1
	l0.6,0.1l0.6-0.1l0,0l0.6-0.3l0.6-0.1l0.1,0l0.6,0l0.2,0l0.5,0.1l0.6,0.2l0.1,0.1l0,0.4l-0.1,0.1L18.3,36l-0.1,0.1l-0.6,0.3
	l-0.1,0.1l-0.2,0.3L17,37.2l0,0l-0.6,0.4l0,0L15.8,38l-0.2,0.4l0,0.1l-0.1,0.3l-0.5,0.4L15,39.2l-0.6,0.3L14.1,39.5z"/>
<path class="st0" d="M13.5,39.5l-0.5,0.1l-0.2-0.1l-0.4-0.1l-0.3-0.3l-0.2-0.4l-0.1-0.1l-0.6-0.1l-0.2,0.2l-0.5,0.3l-0.1,0.1
	l-0.5,0.2l-0.6,0.1l-0.5,0.1l-0.1,0l-0.6,0l-0.6,0l0,0l-0.6-0.3l-0.1-0.1l0.1-0.1l0.6-0.3l0.1,0l0.6-0.2l0.5-0.2l0.2-0.1L8.8,38
	l0.4-0.3l0,0l0.5-0.4l0.1-0.1l0.4-0.3l0.3-0.2l0.2-0.2l0.5-0.3l0.1,0l0.2-0.4l0.2-0.4l0.2-0.2l0.6,0l0.6,0.2l0,0l0.6,0l0.6,0.1
	l0.6,0.1l0.6-0.1l0.3-0.1l0.4-0.2l0.6-0.2l0.6,0l0.6,0.1l0.5,0.2l0,0.4l-0.5,0.3L18,36l-0.5,0.3l-0.2,0.1l-0.3,0.4L16.9,37l-0.1,0.2
	l-0.5,0.3l-0.2,0.1L15.6,38l0,0l-0.1,0.4l-0.1,0.4L15,39.1l-0.1,0.1l-0.5,0.2l-0.6,0.1L13.5,39.5z"/>
<path class="st0" d="M6.1,40.3L6,40.5l-0.6-0.2L6,40.2L6.1,40.3z"/>
<path class="st0" d="M7.3,41.2L7.3,41.2v-0.2V41.2L7.3,41.2z"/>
<path class="st0" d="M4,42.3l-0.6,0.3l-0.6-0.1l-0.6-0.2l0.3-0.4l0.3-0.1l0.6,0l0.5,0.2L4,42.3z"/>
<path class="st0" d="M4.9,42.7l-0.2,0.1L4,42.9L3.4,43l-0.6-0.2l-0.4-0.2l-0.3-0.1l-0.6-0.3l0.1-0.4L2,41.5l0.1-0.1l0.6-0.1l0.6,0
	l0.6,0l0.5,0.2l0.1,0.1l0.6,0.3l0,0.1l0.1,0.3l-0.1,0.1L4.9,42.7z"/>
<path class="st0" d="M4.5,42.7L4,42.8l-0.6,0.1l-0.6-0.2l-0.2-0.1l-0.4-0.2l-0.5-0.2l0.1-0.4l0.3-0.3l0.3-0.1l0.4-0.1l0.6,0L4,41.5
	l0.2,0.1l0.5,0.2L5,41.9l0.2,0.4l-0.5,0.3L4.5,42.7z"/>
<path class="st0" d="M4.1,42.7L4.1,42.7l-0.7,0.2l-0.6-0.2l0,0l-0.6-0.2l-0.3-0.2l0.2-0.4l0.2-0.2l0.6-0.2l0.3,0l0.3,0l0.2,0L4,41.6
	l0.6,0.3l0,0L5,42.3l-0.3,0.2L4.1,42.7z"/>
<path class="st0" d="M3.7,42.7l-0.3,0.1l-0.3-0.1l-0.3-0.1l-0.6-0.2l-0.2-0.1l0.2-0.4l0,0l0.6-0.3l0.6,0L4,41.7l0.3,0.2l0.2,0.4
	L4,42.5L3.7,42.7z"/>
<path class="st0" d="M3.7,43.1l-0.3,0l-0.1,0l-0.5-0.1l-0.6-0.3l-0.1,0l-0.6-0.3l-0.1-0.1L1.5,42l0-0.1l0.2-0.4l0.4-0.3l0.6-0.1
	l0.6,0l0.6,0l0.6-0.1L5,41.5l0.3,0.1l0.2,0.2l0.1,0.4l-0.3,0.3l-0.1,0l-0.6,0.2L4,43L3.7,43.1z"/>
<path class="st0" d="M10.6,43.1l-0.1,0.2l-0.2-0.2l0.2-0.1L10.6,43.1z"/>
<path class="st0" d="M10.6,43.1l-0.1,0.2l-0.2-0.2l0.2-0.1L10.6,43.1z"/>
<path class="st0" d="M11.3,45l-0.2,0.2l-0.6,0l-0.6-0.1L9.7,45l0-0.4l0.1-0.4l0.1-0.4l-0.2-0.4l-0.3-0.4l0.6-0.3l0.2-0.1l0.5-0.3
	l0.6,0.1l0.2,0.3l0.2,0.4l0.1,0.4l-0.1,0.4l-0.2,0.4l-0.2,0.4L11.3,45z"/>
<path class="st0" d="M8.3,45.8L7.9,46l-0.4-0.2l0.4-0.4L8.3,45.8z"/>
<path class="st0" d="M13.9,45.8l-0.2,0.1L13.1,46l-0.6,0.1l-0.6,0.1l-0.5-0.4l-0.1,0l-0.6-0.2L10,45.4l-0.2,0l-0.6-0.3L9.1,45
	l0.1-0.2l0-0.2l0.2-0.4l0.1-0.4l-0.2-0.4l-0.1-0.1l-0.3-0.3l0.3-0.3l0.2-0.1l0.4-0.4L9.2,42l-0.3-0.1l0.3-0.3l0.2-0.1l0.4,0l0.6-0.1
	l0.3-0.2l0.4-0.3l0.1-0.1l0.5-0.1l0.6,0.1l0,0l0.2,0.4l-0.2,0.1L12,41.5l-0.2,0.2l-0.3,0.2l0.1,0.4l0.2,0.4l0,0.1l0.1,0.3l0.1,0.4
	l0.1,0.4l0.1,0.4l0.3,0.3l0.3,0.1l0.3,0.1l0.5,0.3l0.2,0.2l0.1,0.2L13.9,45.8z"/>
<path class="st0" d="M7.9,45.8L7.9,45.8L7.9,45.8L7.9,45.8L7.9,45.8z"/>
<path class="st0" d="M14.4,46.2L14.4,46.2l-0.7,0.1l-0.6,0l-0.6,0.1l-0.6,0l-0.4-0.3L11.1,46l-0.3-0.2l-0.4-0.1l-0.6-0.1l-0.5-0.1
	l-0.1,0L8.8,45L9,44.6l0.2-0.3l0-0.1l0.1-0.4l-0.1-0.2l-0.1-0.2l-0.4-0.4L9,42.7l0.1-0.2l0.1-0.2l-0.1-0.1l-0.6-0.3l0,0l0-0.1
	l0.2-0.3l0.4-0.1l0.6-0.1l0.5-0.2l0.1-0.1l0.4-0.3l0.3-0.1l0.6-0.2l0.6,0l0.6,0.1l0.4,0.2l-0.2,0.4l-0.2,0.1l-0.5,0.3l-0.1,0.1
	l-0.5,0.3l-0.1,0.4l0.2,0.4l0.1,0.4l0.1,0.4l0.1,0.4l0.1,0.3l0.1,0.1l0.5,0.2l0.4,0.2l0.2,0.2l0.2,0.2l0.4,0.4l0,0l0.4,0.4
	L14.4,46.2z"/>
<path class="st0" d="M21.4,46.7l0.3-0.1l-0.3-0.1V46.7L21.4,46.7z"/>
<path class="st0" d="M21.4,46.8l0.6-0.2l-0.6-0.3l-0.1,0.3L21.4,46.8z"/>
<path class="st0" d="M19.1,47l-0.2,0.2l-0.6,0.1L18,47l-0.4-0.1l-0.6-0.2l0,0l0,0l0.6-0.1l0.6,0l0.6,0.1l0.1,0.1L19.1,47z"/>
<path class="st0" d="M18.7,48.2l-0.5,0.2l-0.6,0.2l-0.6-0.1l-0.6-0.2l-0.3-0.1L15.6,48l-0.3-0.2l0.3-0.3l0.2-0.1l0.4-0.3l0.2-0.1
	l-0.2-0.1l-0.4-0.3l-0.2-0.2l-0.6,0l-0.6,0.2l-0.6,0l-0.6,0l0,0l-0.6,0.1l-0.6,0l-0.1-0.1l-0.6-0.4l0,0l-0.5-0.4l-0.1-0.1l-0.6-0.1
	l-0.6-0.1l-0.6,0.2l-0.1,0.1l-0.6,0.3l-0.6-0.2l0-0.1l0-0.1l0.4-0.3l0.2-0.1l0.6-0.2L8.6,45l0.3-0.4l0.2-0.4l0.1-0.3l0-0.1l0,0
	l-0.3-0.4l-0.4-0.4l0,0l0-0.1l0.3-0.3L9,42.3l-0.5-0.2l-0.2-0.2l0.2-0.4l0.1,0l0.6-0.2l0.6-0.1l0.3-0.1l0.4-0.3l0.2-0.1l0.5-0.2
	l0.5-0.1l0.1-0.1l0.6-0.1l0.6,0l0.1,0.1l0.5,0.2l0.2,0.1l-0.1,0.4l-0.1,0.1l-0.6,0.2l-0.2,0.1l-0.5,0.2l-0.2,0.1l-0.1,0.4l0.2,0.4
	l0.1,0.4l0,0.4l0,0.2l0.1,0.2l0.4,0.4l0.2,0.1l0.6,0.2l0.1,0.1l0.4,0.4l0.2,0.2l0.3,0.2l0.4,0.3l0.2,0.1l0.5,0.3l0.6,0l0.6,0
	l0.6,0.1l0.4,0.1l0.2,0l0.6,0.1l0.6,0.2l0.2,0.1l0.2,0.4l-0.1,0.4l-0.1,0.4l-0.1,0l-0.6,0.2L18.7,48.2z"/>
<path class="st0" d="M18.3,48.2l-0.1,0.1l-0.6,0.2l-0.6,0l-0.6-0.2l0,0l-0.6-0.4l0,0l0,0l0.6-0.4l0,0l0.6-0.4l-0.5-0.4l0-0.1
	l-0.1-0.2l0.1,0l0.6,0l0.3,0l0.4,0.1l0.6,0.1l0.6,0.1l0.6,0.1l0.1,0.1l0.2,0.3l-0.1,0.4l0,0.1l-0.3,0.3l-0.3,0.1L18.3,48.2z"/>
<path class="st0" d="M17.7,48.2l-0.1,0l-0.6,0l-0.1,0l-0.5-0.3l-0.1,0l0.1,0l0.6-0.1l0.6-0.1l0.6,0l0.1,0.3l-0.1,0.1L17.7,48.2z"/>
<path class="st0" d="M18.3,48.6L18.3,48.6l-0.7,0.3l-0.6-0.1l-0.3-0.1l-0.4-0.1l-0.6-0.2l-0.2-0.1L15,47.9l-0.2-0.1l0.2-0.2l0.1-0.1
	l0.5-0.3l0.1-0.1l-0.1-0.1L15,46.8l-0.6,0l-0.6,0L13.1,47l-0.1,0l-0.5,0l-0.2,0l-0.5-0.1l-0.5-0.3l-0.1-0.1l-0.4-0.3L10.5,46
	l-0.6-0.2l-0.1,0l-0.6,0L9,45.8L8.5,46l-0.5,0.2l-0.2,0.1l-0.6,0l-0.2-0.1L7,45.8l0.3-0.4l0,0l0.6-0.3L8.2,45l0.4-0.3l0.1-0.1
	l0.2-0.4l0.1-0.4l-0.3-0.4l-0.1-0.1l-0.3-0.3l0.2-0.4l0.1-0.4L8,41.9l0.1-0.4l0.4-0.2l0.6-0.1l0.1,0L9.8,41l0.4-0.3l0.2-0.1l0.5-0.3
	l0.1-0.1l0.6-0.3l0.1,0l0-0.4l-0.1-0.1l-0.5-0.2l-0.2-0.1l-0.1,0.1l-0.6,0.2l-0.6,0.1l-0.1,0l-0.6,0.2l-0.6,0.1l-0.6,0l-0.6,0
	l-0.6,0l-0.2-0.3l-0.2-0.4l0.3-0.4l0.2-0.1l0.6-0.2l0.6-0.1l0.1,0L8.3,38l0.2-0.1l0.2-0.3l0.4-0.3l0.1-0.1l0.4-0.4l0.1-0.1l0.2-0.3
	l0.4-0.4l0,0l0.3-0.4l0.2-0.4l-0.2-0.4l-0.3-0.1l-0.4-0.3L10,34.1l0.2-0.4l0.3-0.1l0.6-0.2l0.5-0.1l0.2-0.4l0,0l0.6-0.2l0.6,0.2
	l0.1,0.1l-0.1,0l-0.6,0.2l-0.5,0.2l0,0.4l0,0.4l0,0.4l0.4,0.2l0.6,0.2l0.3,0l0.3,0l0.6,0.2l0.6,0.1l0.6-0.2l0.2-0.1l0.5-0.1l0.6-0.1
	l0.6,0l0.6,0.1l0.5,0.2l0.1,0l0.6,0.4l0,0.4L18.8,36l0,0l-0.6,0.4l0,0l-0.4,0.4l-0.3,0.3l-0.1,0.1l-0.6,0.4l0,0L16.3,38l0,0
	l-0.1,0.4l-0.1,0.4l-0.4,0.3l-0.1,0.1L15,39.5l-0.1,0l-0.5,0.2l-0.5,0.2l0.2,0.4l0.3,0.3l0.1,0.1L14.3,41l0,0.1l-0.5,0.4l-0.1,0.1
	l-0.6,0.2l-0.1,0l-0.3,0.4l0.4,0.4l0,0l0.2,0.4l-0.1,0.4l0.2,0.4l0.3,0.2l0.1,0.2l0.4,0.4l0.2,0.2l0.2,0.2l0.4,0.3l0.1,0.1l0.6,0.3
	l0.3,0.1l0.4,0.1l0.6,0.1l0.6,0.1l0.6,0.1l0.6,0.1l0,0l0.6,0.2l0.5,0.2l0.2,0.4L20,47.4l-0.1,0.4L19.5,48l-0.3,0.1l-0.3,0.1
	L18.3,48.6z"/>
<path class="st0" d="M17.9,48.6l-0.4,0.1l-0.6-0.1l0,0l-0.6-0.2l-0.6-0.2l0,0l-0.6-0.4l0.4-0.4l0.2-0.1l0.4-0.3l-0.4-0.3l-0.6,0
	l-0.6,0.1l-0.6,0l-0.6,0l-0.6,0.1l-0.6-0.1l-0.3-0.2l-0.3-0.2l-0.2-0.2l-0.4-0.3l-0.2-0.1l-0.5-0.1l-0.6-0.1l-0.4,0.2l-0.2,0.1
	l-0.6,0.3l-0.2,0l-0.4,0l0,0l-0.1-0.4l0.2-0.2l0.2-0.2l0.4-0.2L8.4,45l0.2-0.1l0.2-0.3l0.2-0.4l0.1-0.4l-0.3-0.4l-0.2-0.2l-0.2-0.2
	l0.2-0.3l0.1-0.1l0.1-0.4l-0.2-0.1l-0.4-0.3l0.1-0.4l0.2-0.1l0.6-0.2l0.6-0.1l0,0l0.6-0.4l0,0l0.6-0.3l0.2,0l0.5-0.2l0.6-0.1l0.2,0
	l-0.2,0l-0.3-0.4l-0.3-0.4l0,0l-0.6-0.2l-0.3,0.2l-0.4,0.1l-0.6,0.2l-0.3,0.1l-0.3,0.1l-0.6,0.1l-0.6,0l-0.6,0l-0.6-0.1l-0.1-0.1
	l-0.3-0.4l0.3-0.4l0,0l0.6-0.2l0.6-0.1L8,38.4L8.5,38l0,0l0.4-0.4l0.3-0.2l0.2-0.2l0.4-0.3l0.1,0l0.4-0.4l0.2-0.2l0.2-0.2l0.4-0.4
	l0.1-0.2l0.1-0.2l0-0.4l-0.1,0l-0.6-0.2l-0.2-0.2l-0.2-0.4l0.3-0.4l0.1,0l0.6-0.1l0.6,0.2l0.1,0.4l0,0l0,0l0,0.4l0,0l0.6,0.3l0.1,0
	l0.5,0.1l0.6,0.1l0.6,0.2l0.2,0.1l0.4,0l0.2,0l0.4-0.2l0.6-0.2l0,0l0.6-0.2l0.6,0l0.6,0.2l0,0l0.6,0.2l0.4,0.2l0,0.4l-0.3,0.2
	L18.6,36l-0.4,0.2l-0.3,0.2l-0.3,0.4l0,0l-0.3,0.3l-0.3,0.2l-0.3,0.2l-0.4,0.2L16.1,38l-0.2,0.4l-0.1,0.4l-0.2,0.1l-0.3,0.3L15,39.4
	l-0.5,0.2l-0.2,0.1l-0.6,0.2l-0.5,0.1l0.5,0.4l0,0l0.5,0.4l-0.1,0.4l-0.4,0.3l-0.3,0.1l-0.3,0.1l-0.6,0.3L12.4,42l-0.1,0.3l0.1,0.2
	l0.2,0.2l0.1,0.4l0,0.4l0.2,0.4l0.2,0.2l0.3,0.2l0.3,0.1l0.3,0.3l0.3,0.4l0,0l0.5,0.4l0.1,0.1l0.5,0.3l0.1,0.1l0.6,0.1l0.6,0
	l0.6,0.1l0.6,0.1l0.3,0l0.4,0.1l0.6,0.2l0.3,0.1L20,47l-0.1,0.4l-0.1,0.4l-0.3,0.2l-0.6,0.2l-0.1,0l-0.6,0.3L17.9,48.6z"/>
<path class="st0" d="M18.4,48.9l-0.2,0.1l-0.6,0.3l-0.6-0.2l-0.2-0.2l-0.4-0.2l-0.5-0.2l-0.1,0L15,48.4l-0.5-0.2l-0.2-0.1l-0.5-0.3
	l-0.1-0.1l-0.6,0.1l-0.1,0l0.1,0.2l0.2,0.2l-0.2,0.1l-0.4-0.1l-0.2,0L11.8,48l-0.6-0.1l-0.1,0l-0.3-0.4l0-0.4l-0.2-0.3l0,0l-0.6-0.3
	l-0.6-0.1l-0.6,0.2l-0.6,0.1l-0.6,0l-0.6-0.3l-0.1-0.1l0.1-0.1l0.1-0.3l0.1-0.4L7.3,45l0,0l0.6-0.3l0.1,0l0.4-0.4l0.1-0.4l-0.3-0.4
	l-0.3-0.3l-0.1-0.1l0.1-0.4l-0.1-0.4l-0.3-0.4l0.1-0.4l0.4-0.3L8,41.1l0.5-0.3l0.6-0.1l0.1,0l0.6-0.4l0,0l0,0l-0.6-0.1l-0.6,0
	l-0.6,0l-0.6,0l-0.1,0l-0.5,0.4l0,0l-0.5,0.4L6,41.2l-0.2,0.3l0.2,0.4l0,0.4l-0.2,0.4L5.3,43l-0.2,0.1l0.2,0.4l-0.6,0.3L4,43.5
	l-0.2-0.1l-0.5-0.1l-0.6-0.2l-0.1-0.1l-0.6-0.2l-0.5-0.2l-0.1,0l-0.5-0.3L1,41.9l0.1-0.4l0.4-0.3l0.1-0.1l0.6-0.2l0.6-0.2L3.4,41
	L4,40.8l0.1-0.1l0.1-0.4l0.3-0.4l0.1-0.1l0.6-0.2l0.3-0.2l-0.1-0.4l0.3-0.4L6,38.7l0.4-0.3l0.3-0.1l0.6-0.2L7.5,38l0.4-0.2l0.2-0.2
	l0.4-0.3l0.1-0.1l0.4-0.4l0.1-0.1l0.1-0.3L9.6,36l0.2-0.2l0.1-0.1l0.2-0.4l-0.3-0.3l-0.1,0l-0.3-0.4l-0.1-0.4l0.1-0.4l0.4-0.2
	l0.5-0.1l0.1-0.1l0.6-0.3l0,0l0.4-0.4l0.2-0.1l0.6-0.1l0.6,0l0.6,0.1l0.5,0.2l0.1,0.4l-0.5,0.4l-0.1,0.1l-0.4,0.3l0.4,0.4l0,0
	l0.6,0.2l0.6,0.1l0.6-0.1l0.6-0.1l0.6,0l0.6,0l0.6,0l0.6,0.2l0.5,0.2l0.2,0l0.5,0.3l0.1,0.2l0.1,0.2l0,0.4l-0.1,0.1L20,36l-0.5,0.4
	l0,0l-0.6,0.4l-0.1,0.1l-0.3,0.3l-0.4,0.4l0,0L17.9,38l0.3,0.1l0.6,0.1l0.6,0.2l0.1,0l0.5,0.4l-0.2,0.4l-0.3,0.4l-0.1,0l-0.3,0
	l-0.3,0l-0.6-0.1l-0.6,0l-0.6,0l-0.4,0.1l0,0.4l0,0.4l-0.3,0.2l-0.4,0.2l-0.1,0.4l-0.2,0.2l-0.1,0.2L15,41.9l0,0l-0.3,0.4l0.1,0.4
	l0,0.4l0,0.4l0.1,0.4l0.1,0.3l0.1,0.1l0.3,0.4l0.2,0.4l0.1,0.1l0.5,0.3l0.1,0l0.6,0.1l0.5,0.2l0.1,0l0.6,0.1l0.6,0.1l0.6,0.2
	l0.1,0.1l0.5,0.2l0.3,0.2l0.1,0.4l-0.1,0.4l-0.1,0.4L20.1,48l-0.3,0.1l-0.4,0.2L19,48.6l-0.1,0.1L18.4,48.9z"/>
<path class="st0" d="M18.1,48.9l-0.5,0.2L17,48.9l-0.1,0l-0.6-0.3L16,48.6l-0.4-0.1L15,48.2l0,0l-0.6-0.3l-0.1,0L14,47.4l-0.3-0.1
	l-0.5,0.1l-0.1,0l-0.6,0l-0.6,0.1l-0.4-0.2l-0.2-0.2l0-0.2l-0.4-0.4l-0.2-0.2l-0.4-0.2l-0.3-0.1l-0.6-0.1l-0.6,0.1l-0.1,0l-0.6,0.2
	l-0.6,0l-0.5-0.2l0.1-0.4L7,45.4l0.3-0.3L7.6,45l0.3-0.2l0.3-0.2l0.4-0.3l0,0l0.1-0.4l-0.1-0.1l-0.2-0.2L8,43.1l0.1-0.4l0-0.4
	l-0.1-0.1l-0.2-0.3l0.1-0.4l0.1-0.1l0.5-0.3L8.5,41l0.6-0.2l0.6-0.1l0,0l0.6-0.4l0,0l0.5-0.3l-0.5-0.3l-0.6,0.2l-0.5,0.1l-0.1,0
	L8.5,40l-0.6,0l-0.6,0.1l-0.5,0.2l-0.1,0.1l-0.2,0.3L6,41l-0.4,0.1l-0.1,0.4l0.3,0.4l0.1,0.4l-0.3,0.4l-0.2,0.2L4.7,43l-0.2,0
	l0.2,0.1l0.2,0.3l-0.2,0.1l-0.3-0.1L4,43.3l-0.6,0L3,43.1L2.8,43l-0.6-0.3l-0.2-0.1l-0.5-0.2l-0.3-0.2l0.1-0.4l0.2-0.4l0,0L2,41.1
	l0.1,0L2.8,41L3,41.1l0.4,0l0.4,0L4,41.1l0.4-0.3l0.2-0.4l0,0l0.6-0.4l0,0L6,39.6l0-0.1l0-0.1l-0.1-0.3L6,39l0.1-0.2l0.5-0.4l0.2,0
	l0.5-0.2L7.9,38l0,0l0.5-0.4l0.1-0.1l0.3-0.3l0.3-0.3l0.1-0.1l0.2-0.4l0.3-0.3l0,0l0.4-0.4l0.2-0.3l0-0.1l0,0l-0.4-0.4l-0.3-0.3
	l-0.1-0.1l-0.2-0.4l0.1-0.4l0.1-0.1l0.6-0.2l0.2-0.1l0.4-0.2l0.2-0.2l0.5-0.3l0.1-0.1l0.5-0.1l0.6,0l0.6,0.1l0.1,0.1l0.1,0.4
	l-0.3,0.2l-0.6,0.1l-0.2,0.1l-0.3,0.4l0,0.4l0.4,0.3l0.6,0.1l0,0l0.6,0.1l0.6,0.1l0.6-0.2l0.1,0l0.5-0.1l0.6,0l0.6,0l0.6,0.1
	l0.4,0.1l0.2,0.1l0.6,0.2l0.2,0.1l0.3,0.4l0,0.4L19.5,36l-0.1,0L19,36.4l-0.2,0.1l-0.4,0.3l-0.3,0.3l-0.1,0.1l-0.4,0.4l-0.1,0.1
	L17.2,38l0,0.4l0.4,0.1l0.6,0l0.6,0l0.5,0.3l-0.5,0.4l-0.2,0l-0.4,0l-0.3,0l-0.3,0l-0.6,0l-0.3,0l-0.4,0.1l-0.4,0.3l-0.1,0.4
	l-0.2,0.2l-0.3,0.2l-0.1,0.4l-0.1,0.4L15,41.2l-0.2,0.3l-0.4,0.4l0,0L14,42.3l0.2,0.4l0.1,0.3l0,0.1l0,0.2l0,0.2l0,0.4l0,0l0.2,0.3
	l0.3,0.4l0.2,0.2l0.2,0.2l0.5,0.4l0,0l0.6,0.2l0.6,0.2l0,0l0.6,0.1l0.6,0.1l0.6,0.1l0.5,0.2l0.1,0l0.6,0.2l0.2,0.1l0.1,0.4l-0.1,0.4
	l-0.1,0.4l-0.1,0.1l-0.5,0.3l-0.1,0.1l-0.6,0.3l-0.1,0l-0.6,0.3L18.1,48.9z"/>
<path class="st0" d="M17.6,48.9L17.6,48.9h-0.2l-0.6-0.1l-0.6-0.2l-0.1,0l-0.6-0.2l-0.4-0.2L15,48l-0.4-0.3l0.1-0.4l-0.3-0.3l-0.6,0
	l-0.6,0.1l-0.6,0l-0.6,0L11.5,47l-0.4-0.2l-0.2-0.2l-0.4-0.4l0,0L9.8,46l-0.6-0.1l-0.6,0.2l-0.2,0.1l-0.4,0.2l-0.6,0l-0.4-0.2l0-0.4
	l0.2-0.4l0.2-0.1L7.9,45l0,0l0.5-0.4l0.1-0.1l0.1-0.3l0.1-0.4l-0.2-0.4l0,0l-0.4-0.4l0.1-0.4l0-0.4l-0.4-0.4l0,0l0-0.1L8,41.5
	l0.6-0.3l0.2-0.1L9.2,41l0.6-0.1l0.2-0.1l0.5-0.3l0.2-0.1l0.4-0.3l0.3-0.1l0.1-0.4l-0.4-0.2l-0.6,0.1l-0.3,0.1l-0.3,0.1l-0.6,0.2
	l-0.6,0.1l-0.6,0l-0.6,0l-0.1,0l-0.5,0.1l-0.2,0.3l-0.3,0.4L6,40.8l-0.6,0.1L5,40.7l0-0.4l0.3-0.2l0.5-0.2L6,39.9l0.2-0.3L6,39.2
	l0.2-0.4l0.4-0.2l0.6-0.1l0,0l0.6-0.2L8.1,38l0.5-0.3l0.1-0.1l0.5-0.4l0.1-0.1l0.3-0.3l0.3-0.4l0,0l0.3-0.4l0.3-0.3l0.1-0.1l0.2-0.4
	l-0.3-0.3l-0.1-0.1L10,34.5l-0.1-0.4l0,0l0-0.1l0.1-0.3l0.5-0.2l0.6-0.2l0,0l0.4-0.4l0.2-0.2l0.5-0.2l0.1,0l0.6,0l0.3,0l0.3,0.4
	l-0.6,0.2l-0.6,0.2l0,0l-0.2,0.4l0,0.4l0.2,0.4l0,0l0.6,0.1l0.6,0.1l0.6,0.2l0.1,0l0.5,0.1l0.2-0.1l0.5-0.2l0.6-0.2l0.6-0.1l0.1,0
	l0.6,0l0.2,0l0.5,0.1l0.6,0.2l0.4,0.2l0.2,0.1l0.2,0.2l0,0.4l-0.2,0.2L19.2,36l-0.3,0.2l-0.2,0.2l-0.4,0.3l-0.1,0.1l-0.3,0.4
	l-0.3,0.2l-0.2,0.2l-0.4,0.3L16.7,38l-0.2,0.4l0.4,0.4l0.1,0l-0.1,0l-0.6,0.1l-0.3,0.3l-0.3,0.2l-0.3,0.2L15,39.9l-0.3,0.1l-0.2,0.4
	l0.3,0.4l-0.1,0.4l-0.4,0.3l-0.1,0.1l-0.4,0.4L13.7,42l-0.4,0.2l0.4,0.2l0.1,0.2l0.2,0.4l-0.1,0.4l0,0.4l0.2,0.4l0.2,0.3l0.1,0.1
	l0.4,0.4l0.1,0.1l0.4,0.3l0.3,0.1l0.6,0.2l0.1,0l0.5,0.1l0.6,0.1l0.6,0.1l0.6,0.1l0.3,0.1l0.4,0.1l0.6,0.3l0,0l0.1,0.4l-0.1,0.4
	l0,0.2l0,0.2l-0.6,0.4l-0.1,0l-0.5,0.3l-0.3,0.1l-0.3,0.2L17.6,48.9z"/>
<path class="st1" d="M18.3,49.3L18.3,49.3l-0.7,0.3l-0.6,0l-0.4-0.2l-0.3-0.4l0,0l-0.6-0.1l-0.6,0.1L15,49l-0.6,0.3l-0.4-0.3l-0.2,0
	l-0.6,0l-0.6-0.1l-0.2-0.2l-0.4-0.2l-0.6-0.2l-0.1,0L10.5,48l-0.4-0.2l-0.2-0.4l0-0.2L9.7,47l-0.5-0.3l-0.6,0l-0.6,0l-0.6,0
	l-0.3-0.2l-0.3-0.1l-0.4-0.3l0.1-0.4l0.1-0.4l0.1-0.3l0-0.1l0.6-0.3l0.1-0.1l0.5-0.3L8,44.2l0.1-0.4l-0.2-0.4l0,0l-0.4-0.4l0-0.4
	l-0.2-0.4l0-0.1l-0.3-0.3v-0.4l-0.3-0.1l-0.2,0.1l0,0.4l0,0.4l-0.3,0.4L6,42.9l-0.1,0.1l0,0.4l-0.4,0.4l-0.1,0L4.7,44l-0.4-0.1
	L4,43.8l-0.6-0.2l-0.6-0.1l0,0l-0.5-0.4L2.1,43l-0.6-0.1L1,42.7l-0.2-0.1l-0.4-0.3l0-0.4l0.1-0.4l0.3-0.4l0,0l0.6-0.3l0.2-0.1
	l0.4-0.1l0.6-0.1l0.6,0.1l0.2-0.2l0.2-0.4L4,39.7l0.1-0.1l0.2-0.4l0.3-0.4l0.6,0.1l0.1-0.2l0.1-0.4L6,38.2L6.6,38l0.1,0l0.6-0.2
	l0.3-0.2l0.3-0.2l0.3-0.2l0.3-0.3l0.1-0.1l0.2-0.4l0.4-0.4l0,0l0.2-0.4l0.1-0.4l-0.3-0.4l0,0l-0.3-0.4l-0.1-0.4l0.1-0.4l0.3-0.3
	l0.2-0.1l0.5-0.2l0.6-0.2l0.1,0l0.6-0.4l0,0l0.6-0.3l0.6,0l0.6,0l0.6,0l0.6,0.1l0.5,0.3l0.1,0.3l0.2,0.1L15,33.3l0.6,0.3l0.3,0.1
	l0.3,0l0.6,0l0.6,0l0.6,0l0.6,0.1l0.6,0.1l0.4,0.2l0.2,0.1l0.5,0.3l0.2,0.3l0.1,0.1l0.4,0.4l-0.1,0.4l-0.3,0.3l0,0.1l-0.1,0.4
	l-0.1,0.4l0.1,0.4l0.2,0.4l0,0l0.6,0.3l0.6,0.1l0,0l0.6,0.4l0.1,0.1l0.2,0.3l0.1,0.4l-0.3,0.4l0,0l-0.3,0.4l-0.2,0.4l-0.1,0.1
	l-0.6,0.3l0,0h-0.6h-0.6l-0.3,0.4l-0.1,0.4l-0.2,0.3l-0.1,0.1l-0.3,0.4l-0.3,0.2l-0.6-0.1l-0.6,0l-0.6,0.2l-0.3,0.1l-0.1,0.4
	l0.3,0.4l0.1,0.4l0.1,0.2l0.1,0.2l-0.1,0.4l0.3,0.4l0.3,0.2l0.3,0.2l0.3,0.1l0.4,0.3l0.3,0l0.6,0.1l0.6,0.3l0.1,0l0.6,0.4l0,0.4
	l0,0.4l-0.1,0.4l-0.4,0.4l-0.2,0.1l-0.6,0.2l-0.1,0.1l-0.5,0.3l-0.1,0L18.3,49.3z"/>
<path class="st0" d="M15,50.1L15,50.1l-0.6,0.1l-0.4-0.1l0.4-0.1L15,50.1L15,50.1z"/>
<path class="st0" d="M16.5,50.5l-0.2,0.1l-0.6-0.1l0.6-0.1L16.5,50.5z"/>
<path class="st0" d="M4.8,51.3l-0.1,0.1l-0.6,0l-0.1,0L3.4,51l-0.1-0.1l-0.2-0.4l0.3-0.1L4,50.5l0,0l0.6,0.3l0.1,0.1L4.8,51.3z"/>
<path class="st0" d="M13.4,53.6l-0.3,0.1l-0.6,0l-0.6,0l-0.4-0.1l-0.3-0.1l-0.6-0.1l-0.6-0.1l-0.3-0.1l-0.4-0.2L8.5,53l-0.3-0.1
	l-0.3-0.2l-0.6-0.1l-0.2-0.1l0.2-0.3l0.6,0.2l0.6,0.1l0.6,0l0.2-0.3l-0.2-0.2l-0.1-0.2l-0.2-0.4l0.3-0.2l0.5,0.2l0.1,0l0.6,0.3
	l0,0.2l0,0.2l0,0l-0.6,0.3l0.6,0.1l0.6,0.2l0.3,0.1l0.3,0.1l0.6,0.2l0.2,0.1l0.5,0.3L13.4,53.6z"/>
<path class="st0" d="M11.2,56.4L11.2,56.4l-0.7,0l0,0L9.8,56l0,0l0,0l0.6,0l0.1,0.1L11.2,56.4L11.2,56.4z"/>
<path class="st0" d="M16.6,56.4l-0.4,0.1l-0.6-0.1l0,0L15.2,56l0.5-0.2l0.5,0.2l0.1,0.2L16.6,56.4z"/>
<path class="st0" d="M20.2,58l-0.1,0.2L19.7,58l-0.3-0.2l-0.1-0.2l0.1-0.4l0.1-0.1l0,0.1l0.4,0.4l0.2,0.1L20.2,58z"/>
<path class="st0" d="M20.8,58.3l-0.1,0.1l-0.6,0.1l-0.6-0.3l-0.1,0L18.9,58l-0.1-0.1l-0.2-0.3l-0.2-0.4l-0.2-0.3l-0.1-0.1l-0.4-0.4
	l0.3-0.4l-0.2-0.4l-0.1-0.1l-0.5-0.3l0.5-0.1l0.2,0.1l0.5,0.3l0.3,0.1l0.4,0.2L19,56l0.2,0.4l0.2,0.1l0.3,0.3l0.3,0.3l0.1,0.1
	l0.3,0.4l0.2,0.4l0.1,0.2L20.8,58.3z"/>
<path class="st1" d="M21.8,58.7L21.4,59l-0.6,0.1l-0.6,0l-0.6-0.3l-0.1,0l-0.6-0.2l-0.2-0.1L18.2,58l0,0l-0.4-0.4l-0.2-0.2l-0.6-0.1
	l-0.2,0l-0.4,0l-0.6-0.3l0,0L15,56.5l-0.2-0.1L14.4,56l0-0.4l0.2-0.4l-0.2-0.4l0,0L14,54.4l-0.3-0.2l-0.6-0.1l-0.6,0.1l-0.6,0
	L11.5,54l-0.4-0.1l-0.6-0.1l-0.6-0.1l-0.5-0.1l-0.2-0.1l-0.4-0.3l-0.2-0.1l-0.6-0.3l-0.1-0.1l-0.5-0.2l-0.4-0.2l0-0.4l0.4-0.2
	L7.9,52l0.6-0.3l-0.2-0.4l0-0.4l0.2-0.3l0.1-0.1L9,50.1l0.2,0l0.2,0l0.4,0.2l0.5,0.1l-0.5,0.4l0,0l0,0l0.6,0.4l0,0l0.6,0.4l0,0
	l0.2,0.4l0.1,0.4l0.3,0.1l0.6,0.2l0.3,0.1l0.4,0.1l0.4-0.1l0.2-0.3l0.6,0.2l0,0.1l0,0.3l0,0.1l0,0.1l0.1,0.3l0.2,0.4l0.4,0.2
	l0.5,0.2l0.1,0.1l0.6,0l0.6,0l0.6,0.1l0.4,0.2l0.2,0.2l0.3,0.2l0.3,0.2l0.3,0.2l0.3,0.3l0,0l0.3,0.4l0.3,0.3l0.2,0.1l0.3,0.4
	l0.1,0.1l0.3,0.3l0.2,0.4l0.2,0.3l0.1,0.1L21.8,58.7z"/>
<path class="st0" d="M21.6,58.7l-0.2,0.1L20.8,59l-0.6-0.1l-0.3-0.2l-0.3-0.1l-0.6-0.3l-0.1,0L18.4,58l-0.2-0.2L18,57.6l-0.3-0.4
	l-0.1-0.1L16.9,57l-0.6,0L16,56.8l-0.4-0.1L15,56.4l0,0L14.6,56l0.1-0.4l0.3-0.4l0.1-0.3l0.6,0l0.1-0.1l0.6-0.1l0.6-0.1l0.6,0.1
	l0.2,0.1l0.4,0.3l0.2,0.1l0.5,0.3l0.2,0.1l0.3,0.4l0.1,0.1l0.2,0.3l0.4,0.4l0.1,0l0.4,0.4l0.2,0.3l0.1,0.1l0.2,0.4l0.2,0.4l0.1,0.2
	L21.6,58.7z"/>
<path class="st0" d="M21.4,58.7l-0.6,0.1l-0.6-0.1l-0.1,0l-0.6-0.3l-0.3-0.1l-0.3-0.2L18.6,58l-0.3-0.4l-0.1-0.2L18,57.2l-0.4-0.3
	l-0.2,0l-0.4-0.1l-0.6,0l-0.6-0.1l-0.4-0.2L15,56.2L14.8,56l0.1-0.4l0.1-0.1l0.6,0l0.3,0.1l0.4,0.1l0.5-0.1l-0.3-0.4l0-0.4l0.5-0.1
	l0.6,0.1l0,0l0.6,0.4l0,0l0.6,0.3l0,0l0.4,0.4l0.2,0.3l0.1,0.1l0.5,0.4l0.1,0.1l0.3,0.3l0.3,0.4l0.1,0.1L21,58l0.2,0.4L21.4,58.7z"
	/>
<path class="st0" d="M21.7,59.1l-0.3,0.1l-0.6,0.1l-0.6,0.2l-0.6-0.3l0,0l-0.6-0.3l0,0l-0.6-0.3l-0.1-0.1L17.6,58l0,0l-0.6-0.2
	l-0.4-0.2l-0.3-0.1l-0.6-0.3l-0.1,0l-0.5-0.4L15,56.7l-0.6-0.3l-0.1-0.1L14,56l0-0.4l0-0.4l-0.2-0.4l0,0l-0.6-0.2l-0.6,0l-0.6,0
	l-0.6-0.1l-0.6-0.1l0,0l-0.6-0.2L9.4,54L9.2,54l-0.6-0.3l-0.1,0l-0.4-0.3l-0.2-0.1l-0.6-0.3l0,0l-0.6-0.3l-0.2-0.1l-0.1-0.4l0.3-0.4
	l0,0l0.6-0.1l0.4-0.3l0-0.4l0.1-0.4l0,0l0.2-0.3L8.5,50l0.6-0.1L9.8,50l0.6,0.1l0.6,0l0.6,0l0.6-0.4l0,0l0.6-0.1l0.6,0l0.5,0.1
	l0.2,0L15,50l0.5,0.2L15,50.5l-0.6-0.1l-0.6-0.1l-0.6-0.1l-0.6,0l-0.3,0.3l-0.3,0.3l-0.1,0.1l-0.1,0.4l0.2,0.1l0.6,0.2l0.6-0.1
	l0.6,0l0.6,0l0.6,0l0.3,0.1L15,51.8l-0.3,0.2l0.3,0.4l0,0l0.1,0.4l0,0.4l0,0.4l0.2,0.4l0.3,0.1l0.6,0.1l0.6,0l0.5,0.1l0.1,0l0.6,0.3
	l0.1,0.1l0.5,0.4l0,0l0.6,0.4l0,0l0.3,0.3l0.3,0.4l0.1,0.1l0.5,0.3l0.2,0.2l0.3,0.2l0.4,0.4l0,0l0.2,0.4l0.3,0.4l0.2,0.3l0.1,0.1
	l-0.1,0.1L21.7,59.1z"/>
<path class="st0" d="M21.3,59.1l-0.5,0.1l-0.6,0l-0.1,0l-0.6-0.3l-0.2-0.1l-0.4-0.2l-0.4-0.2l-0.2-0.2L17.9,58l-0.4-0.4l-0.1,0
	l-0.5-0.1l-0.6-0.2l-0.2-0.1l-0.4-0.2l-0.2-0.2L15,56.6l-0.4-0.2l-0.3-0.3L14.2,56l-0.1-0.4l0.1-0.4l-0.2-0.4l-0.4-0.3l-0.2-0.1
	l-0.4-0.1l-0.6,0.1l-0.6,0l-0.6-0.2l-0.6-0.1L10.1,54l-0.2,0l-0.6-0.2l-0.2-0.1l-0.4-0.3l-0.1-0.1L7.9,53l-0.4-0.2l-0.3-0.1
	l-0.6-0.3l0,0l-0.1-0.4L6.6,52l0.6-0.2l0.6,0L8,51.7l0-0.4l0-0.4l0.2-0.4l0.2-0.4l0.1,0L9.2,50l0.6,0.1l0.2,0l0.4,0.2l0.6,0.1
	l0.3,0.1l-0.3,0.3l-0.3,0.1l0.1,0.4l0.1,0.1l0.4,0.3l0.2,0.3l0.3,0.1l0.3,0.1l0.3-0.1l0.4-0.1l0.6,0l0.3,0.2l0.3,0.1l0.2,0.3
	l0.1,0.4l0,0.4l0.1,0.4L15,54l0,0.1l0.6,0.3l0.6,0.1l0.6,0l0,0l0.6,0.1l0.6,0.3l0.1,0.1l0.5,0.3l0.1,0.1l0.5,0.3l0.2,0.2l0.1,0.2
	l0.3,0.4l0.2,0.2l0.3,0.2l0.3,0.4l0,0l0.5,0.4l0.1,0.4l0,0.1l0.2,0.3l0.3,0.4L21.3,59.1L21.3,59.1z"/>
<path class="st0" d="M21.4,59.9l0.4,0l-0.4-0.2V59.9L21.4,59.9z"/>
<path class="st0" d="M21.4,59.9l0.4,0l-0.4-0.2V59.9L21.4,59.9z"/>
<path class="st0" d="M19.9,59.9l-0.4,0.2l-0.6-0.2l-0.1,0l-0.6-0.2l-0.5-0.2l-0.1-0.1l-0.4-0.3l0.4-0.2l0.6,0.1l0.3,0.1l0.3,0.1
	l0.6,0l0.4,0.4L19.9,59.9z"/>
<path class="st0" d="M17.8,63.4l-0.3,0.3l-0.4-0.3l-0.2-0.3L16.8,63l0.1-0.4v-0.4v-0.4l0,0l0.2-0.4l0.4-0.3l0.1-0.1l0.3-0.4l0.2-0.4
	l-0.4-0.4l-0.2-0.1l-0.5-0.3l-0.2-0.1l-0.4-0.3l0-0.4l0.4-0.2l0.6-0.2l-0.6-0.3L16.8,58l-0.5-0.2l-0.2-0.2l-0.4-0.2l-0.3-0.2
	L15,56.9l-0.2-0.1l-0.4-0.2L14,56.4L13.8,56l0-0.4l0-0.2l-0.1-0.2l-0.5-0.3l-0.6,0l-0.6-0.1l-0.1,0l-0.5-0.1l-0.6-0.1L10,54.4
	l-0.2-0.1l-0.6-0.2L9,54l-0.5-0.3l-0.2-0.1l-0.4-0.4l0,0L7.3,53L7,52.9l-0.4-0.2l-0.4-0.2l-0.2-0.4l0-0.4l0.5-0.2l0.6-0.1l0.1-0.1
	l0.1-0.4l0.1-0.4l0.3-0.4l0.1,0l0.6-0.2l0.6-0.1l0.6,0.1l0.6,0l0.6,0l0.6-0.1l0.1-0.1l0.5-0.2l0.6,0l0.6,0l0.6,0.1l0.3,0.1l0.3,0.1
	l0.6,0.2l0.5,0.1l0.2,0l0.6,0.3l0,0l0,0l-0.6,0.3l-0.6-0.2l-0.6,0l-0.6-0.1l-0.4,0l-0.3,0l-0.3,0l-0.4,0.1l-0.6,0.2l-0.1,0.1
	l0.1,0.2l0.6,0l0.6,0l0.6,0l0.4,0.1l0.2,0l0.6,0.2l0.2,0.1L15.6,52l-0.1,0.1l-0.2,0.4l0,0.4l0,0.4l0,0.4l0.3,0.4l0.1,0l0.6,0.1
	l0.6,0l0.6,0.1l0.2,0.1l0.4,0.2l0.4,0.2l0.3,0.2l0.3,0.2l0.4,0.3l0.1,0.1l0.3,0.4l0.2,0.4l0.1,0l0.5,0.4l0.1,0.1l0.5,0.3l0.2,0.2
	l0.3,0.2l0.2,0.4l0.2,0.3l0,0.1l0.1,0.4L22.1,59l-0.1,0.1l-0.5,0.2l-0.6,0.1l-0.5,0.1l0,0.4l0.5,0.3l0.6,0.1l0.2,0.1l0.3,0.4
	l-0.5,0.2L21,61.1l-0.2,0.2l-0.3,0.2l-0.3,0.4l-0.1,0.4l0,0l-0.4,0.4l-0.2,0.1L18.8,63l-0.6,0L17.7,63L17.8,63.4z"/>
<path class="st0" d="M19.6,64.6l-0.1,0.1l-0.3-0.1l-0.3-0.1l-0.6,0l-0.6,0l-0.6-0.1l-0.1-0.1l-0.4-0.4l-0.1-0.1l-0.6-0.2l-0.3-0.1
	L15.1,63L15,62.7l0,0l-0.2-0.4l-0.2-0.4l-0.2-0.3l-0.1-0.1l0-0.4l0-0.4l-0.4-0.4l-0.1-0.1l-0.6-0.3l0,0l-0.4-0.4l0.4-0.2l0.6,0
	l0.6,0.1l0.5,0.2l0.2,0.1l0.6,0.3l0.5-0.4l-0.3-0.4L15.6,59l-0.5-0.3L15,58.5l-0.1-0.2l0.1-0.1l0.6-0.2l0.3-0.1l-0.3-0.4l0,0
	L15,57.2l0,0l-0.6-0.4l-0.5,0l-0.2,0l-0.1,0l-0.6,0.1l-0.3-0.1l-0.3-0.2l-0.6,0l-0.6,0.1l-0.6-0.1l-0.6-0.2l-0.1,0L9.5,56l0.4-0.3
	l0.6,0l0.6,0.2l0.2,0.1l0.4,0.2l0.6,0l0.5-0.2l-0.5-0.3l0,0l-0.5-0.4l-0.1,0L11.1,55l-0.5-0.2l-0.2,0l-0.6-0.2l-0.2-0.1l-0.4-0.2
	L8.7,54l-0.2-0.1L8,53.6l-0.1-0.1l-0.3-0.3l-0.4-0.2l-0.5-0.2l-0.1-0.1l-0.5-0.3L6,52.2l-0.3-0.1l-0.3-0.2l-0.4,0.2l-0.2,0.1
	l-0.1-0.1l-0.3-0.4L4,51.6l-0.6-0.3l0,0L3,50.9l-0.2-0.4l0,0l0,0l0.6-0.3L4,50.3l0.6,0l0.5,0.2l0.2,0.2l0.2,0.2L6,51.2l0.6,0
	l0.6-0.3l0,0l0-0.4l0.2-0.4l0.4-0.2l0.6-0.2l0.4,0l0.3,0l0.1,0l0.5,0.1l0.6,0l0.6,0l0.1,0l0.5-0.2l0.6-0.1l0.6,0l0.6,0l0.6,0.1
	l0.6,0.2l0.1,0l0.5,0.2l0.6,0.1l0.3,0.1l0.3,0.2l0.3,0.2L17,50.9l-0.1,0L16.3,51l-0.4-0.1l-0.3-0.1l-0.6,0l-0.6,0L14,50.9l0.3,0.1
	l0.6,0.1l0.4,0.2l0.2,0.1l0.4,0.3l-0.1,0.4l-0.3,0.3l-0.1,0.1l0,0.4l0,0.4l0,0.4l0.2,0.2l0.3,0.2l0.3,0.1l0.6,0l0.6,0.1l0.5,0.2
	l0.1,0l0.6,0.3l0.1,0.1l0.5,0.3l0.1,0.1l0.3,0.3L20,56l0.1,0.2l0.3,0.2l0.4,0.3l0.2,0.1l0.5,0.3l0.2,0.1l0.4,0.4l0,0.1l0.2,0.3
	l0.1,0.4l0,0.4l-0.2,0.4l-0.1,0.1l-0.6,0.2l-0.6,0.1l-0.2,0.1l0,0.4l0.2,0.1l0.6,0.1l0.6,0.1l0.1,0.2l0,0.2l0,0.1L21.4,61l-0.2,0.1
	l-0.4,0.4l0,0l-0.3,0.4l-0.1,0.4l-0.2,0.3L20,62.7L19.5,63L19.3,63l-0.4,0.3l-0.2,0.1l0.2,0.3l0.1,0.1l0.3,0.4l0.3,0.3L19.6,64.6z"
	/>
<path class="st0" d="M24.3,66.6L24,66.6l-0.4-0.1l-0.3-0.1l-0.6,0l-0.6,0l-0.6-0.1l-0.6-0.1l-0.3-0.1l-0.4-0.3l-0.1-0.1l-0.3-0.4
	l-0.2-0.1l-0.6-0.2L18.2,65l0,0l-0.6-0.1l-0.6-0.1l-0.4-0.2l-0.2-0.1l-0.3-0.3l-0.3-0.2l-0.5-0.2L15,63.8l-0.6-0.3l0-0.1L14,63
	l-0.1-0.4l-0.1-0.2l-0.1-0.1l-0.3-0.4l-0.2-0.1l-0.5-0.3l-0.2-0.1l-0.3-0.3l-0.3-0.2l-0.3-0.2l-0.4-0.2l-0.3-0.1l-0.4-0.4l0,0
	l-0.2-0.3l0.1-0.4l-0.1-0.4l0-0.4l0.2-0.3l0.1,0l0.6-0.2l0.6,0.2l0.1,0l0.6,0.1l0.4-0.1l0.2-0.1l0.3-0.3l-0.3-0.2l-0.6-0.2l0,0
	l-0.6-0.1L11.1,57l-0.6-0.3l-0.1,0l-0.6-0.1l-0.6-0.2l-0.1-0.1L8.9,56L9,55.6l0.2-0.3l0.2-0.1l0.3-0.4l-0.5-0.3l-0.1-0.1l-0.5-0.2
	L8.2,54l-0.3-0.1l-0.6-0.2l0-0.2l0-0.2L6.6,53l-0.4-0.2L6,52.7l-0.6-0.1l-0.6,0l-0.4-0.1L4,52.3l-0.2-0.2l-0.4-0.3l-0.2-0.1
	l-0.4-0.4l-0.1-0.1l-0.3-0.3l-0.2-0.4l0.1-0.4l0.3-0.2l0.6-0.1l0.6,0l0.6,0l0.6,0L6,50.1L6.6,50l0.6-0.2l0.4-0.1l0.3-0.1l0.6-0.2
	l0.6,0l0.6,0l0.6-0.1l0.4-0.1l0.2-0.1l0.6-0.2l0.6,0l0.6,0l0.6,0l0.6,0.3l0.1,0l0.6,0.1l0.6,0.2l0.3,0.1l0.4,0l0.6,0.1l0.3,0.2
	l0.3,0.4l0,0.4l-0.6,0.3l-0.6,0.1l0.2,0.4l-0.1,0.4l-0.2,0.2L16,52.5l-0.1,0.4l-0.1,0.4l0,0.4l0.4,0.3l0.6,0l0.6,0.1l0.1,0l0.6,0.1
	l0.6,0.3l0.1,0l0.6,0.4l0,0l0.4,0.4l0.2,0.4l0,0.2l0.1,0.2l0.5,0.4l0,0l0.6,0.3l0.4,0.1l0.3,0.1l0.3,0.3l0.3,0.4l0.1,0.1l0.4,0.3
	l-0.3,0.4l-0.1,0l-0.1,0.4l-0.1,0.4l-0.4,0.3l-0.6,0l-0.3,0L21,59.9l0.4,0.1l0.6,0l0.4,0.2l0,0.4l-0.3,0.4l0,0l-0.6,0.1l-0.3,0.3
	l-0.3,0.3l-0.1,0.1l-0.1,0.4l-0.2,0.4l-0.3,0.3L20,63l-0.4,0.4l0.1,0.4l0.5,0.2l0.3,0.2l0.2,0.4l0.1,0.4l0.1,0l0.6,0.2l0.6,0.1
	l0.1,0.1l0.5,0.1l0.5,0.3l0.2,0.1l0.6,0.2l0.2,0.1L24.3,66.6z"/>
<path class="st0" d="M180,94.2h-0.3l-0.6-0.1l-0.4-0.1l-0.2-0.1l-0.4-0.3l-0.2-0.2l-0.3-0.2l-0.3-0.4l0,0l-0.6-0.3l-0.2-0.1l0-0.4
	l0.2-0.3l0.1-0.1l0.2-0.4l0.2-0.4l-0.5-0.1l-0.6-0.2l-0.6-0.1l-0.6,0.4l-0.1,0.1l-0.2,0.3l-0.4,0.2l-0.6,0.1l-0.6,0l-0.6-0.1
	l-0.2,0.1l0.1,0.4l-0.5,0.1l-0.6,0.3l-0.6,0l-0.1,0l0.1,0.1l0.6,0l0.3,0.3l0.4,0.3l0.3,0.1l0.3,0l0.2,0l0.5-0.1l0.6-0.2l0.6,0.1
	l0.3,0.2l0,0.4l0.2,0.4l0.1,0.1l0.2-0.1l0.5-0.1l0.6,0.1l0.1,0l-0.1,0l-0.6,0.4l-0.1,0l-0.4,0.4l-0.1,0.4l-0.1,0.1l-0.6,0.3l0,0
	l-0.6,0.2l-0.6,0.1l-0.6,0l-0.6,0l-0.6,0l-0.6,0l-0.6,0l-0.6-0.1l-0.4-0.1l-0.2-0.1l-0.5-0.3l-0.1-0.1l-0.4-0.3l-0.3-0.3l-0.1-0.1
	l-0.2-0.4l-0.3-0.3l-0.1-0.1l-0.5-0.2l-0.6,0l-0.6,0l-0.6,0l-0.6,0l-0.4-0.1l-0.2-0.4l0.2-0.4l0-0.4l0.4-0.3l0.6-0.1l0.5,0l0.1,0
	l0.6-0.3l0.2-0.1l-0.2-0.1l-0.6-0.1l-0.6,0l-0.3,0.2l-0.4,0.2l-0.6,0l-0.3-0.2l-0.3-0.4l-0.1,0l-0.4-0.3l-0.3-0.2l-0.3-0.2l-0.4-0.3
	l-0.1-0.1l-0.5-0.4l0,0l-0.6,0l-0.6,0l-0.5,0l-0.1,0l-0.1,0l-0.5,0l-0.6-0.2l-0.2-0.1l-0.4-0.2l-0.6-0.2l0,0l-0.5-0.4l0.5-0.4l0,0
	l0.1-0.4l-0.1,0l-0.6-0.2l-0.2-0.2l-0.4-0.3l-0.1-0.1l-0.5-0.4l0,0l-0.6-0.2l-0.3-0.1l0-0.4l0.3-0.1l0.4,0.1l0.3,0.1l0.4,0.3
	l0.3,0.1l0.6,0.1l0.6,0.1l0.6,0.1l0.1,0l0.6,0.4l0,0l0.6,0.1l0.6,0l0.6-0.1l0.1,0l0.6-0.1l0.6-0.2l0.5-0.1l0.2-0.1l0.6-0.3l0.2-0.1
	l0.4-0.1l0.6-0.1l0.3-0.2l-0.3-0.3l-0.1-0.1l-0.6-0.3l-0.6,0l-0.5-0.1l-0.2,0l-0.6,0l-0.6,0l0,0l-0.6,0.1l-0.6,0.1l-0.6,0.1l-0.6,0
	l-0.6-0.3l-0.2-0.1l-0.5-0.3l-0.5-0.1l-0.2,0l-0.6-0.3l-0.1-0.1l-0.5-0.4l-0.1-0.1L153,83l0.1-0.4l0.2-0.2l0.1-0.2l0.1-0.4l0.3-0.4
	l0.1-0.1l0.6-0.2l0.6,0l0.3-0.1l0.2-0.4l-0.5-0.1l-0.6,0l-0.3,0l-0.3,0l-0.6,0.1l-0.6,0.1l-0.2,0.1l-0.4,0.3l-0.2,0.1l-0.5,0.3
	l-0.2,0.1l-0.4,0.2l-0.4,0.2l-0.3,0.1l-0.6,0.2l-0.6,0l-0.6-0.1l-0.6-0.2l0,0l-0.6,0l0,0l-0.6,0.2l-0.4,0.2l0.4,0.3l0.3,0.1l0.1,0.4
	l-0.4,0.1l-0.6,0.1l-0.6,0.1l-0.6,0.2l0,0l-0.6,0.2l-0.6,0.1l-0.2,0.1l-0.4,0.2l-0.6,0.1l-0.6,0l-0.6,0.1l-0.6,0.1l-0.1,0l-0.5,0.1
	l-0.6,0.1l-0.6,0.1l0,0l-0.6,0.3l-0.6,0.1l-0.6-0.1l-0.5-0.3l-0.1-0.4l0.3-0.4l0.2-0.2l0.1-0.1l0.6-0.4l0,0l0.2-0.4l0.1-0.4l0-0.4
	l0.3-0.2l0.2-0.2l0.4-0.4l0.1-0.2l0.1-0.2l0.2-0.4l0.1-0.4l-0.4-0.4l-0.1-0.4l0,0l0,0l0.3-0.4l-0.1-0.4l-0.2-0.4l0,0l-0.2-0.4
	l-0.2-0.4l-0.1-0.4l0.5-0.3l0.6-0.1l-0.6,0l-0.5-0.3l-0.1-0.4l-0.1-0.1l-0.3-0.3l-0.3-0.4l-0.1-0.1l-0.4-0.3l-0.1-0.4L136,74l0,0
	l-0.3-0.3l0.2-0.4l0.1,0l0.1,0l0.5,0.1l0.6,0.1l0.6,0.1l0.6,0.1l0,0l0.6,0l0.6,0l0.6,0.2l0.6,0.2l0.1,0l0.6,0.2l0.5,0.2l0.1,0.1
	l0.6,0.1l0.6,0l0.6,0l0.6,0l0.6,0l0.6,0l0.6,0l0.6,0l0.6-0.1l0.1,0l0.5-0.2L149,74l0.5-0.3l0.1,0l0.5-0.2l0.6-0.2l0,0h0.6l0,0
	l0.6,0.1l0.6,0.2l0.6,0l0.6,0l0.6-0.1l0.3-0.3l0.3-0.4l0,0l0,0l0.6,0.4l0,0l0.6,0.1l0.3-0.1l0.4-0.3l0.1-0.1l0.1-0.4l0-0.4l0.5-0.1
	l0.6-0.3l0.1,0l0.6-0.3l0,0l0,0l0.6,0l0.1,0l0.6-0.3l0.1-0.1l-0.1-0.2l-0.1-0.1l-0.5-0.1l-0.6,0l-0.3,0l-0.3,0.1l-0.6,0l-0.6-0.1
	l-0.6,0.1l-0.6,0.1l-0.6,0l-0.6,0.1l-0.2,0.1l-0.4,0.2l-0.5,0.2l-0.1,0.1l-0.6,0.3l-0.3,0.1l-0.4,0.1l-0.6,0l-0.6,0l-0.6,0l-0.6-0.1
	l-0.6,0l-0.6,0.1l-0.6-0.1l0,0l-0.6,0l-0.6-0.1l-0.6-0.1l-0.6,0l-0.6,0l-0.6-0.1l-0.2-0.1l-0.4-0.1l-0.6-0.1l-0.6-0.1l-0.3-0.1
	l-0.3-0.1l-0.6-0.3l-0.1,0l-0.6-0.2l-0.4-0.2l-0.2,0l-0.6,0l-0.6,0l-0.6,0l-0.6,0l-0.6,0l-0.6,0.1l-0.1,0l-0.5,0.2l-0.6,0.1l-0.6,0
	l-0.6,0l-0.6,0l-0.6-0.1l-0.6,0l-0.6,0l-0.6,0l-0.6-0.1l-0.6,0.1l-0.6,0.2l0,0l-0.6,0.2l-0.6,0l-0.6-0.1l-0.5-0.2l-0.1,0l-0.6-0.1
	l-0.5-0.3l-0.1-0.1l-0.6-0.1l-0.6,0.1l-0.6,0l-0.6,0l-0.2,0l-0.4,0.1l-0.6,0.1l-0.6,0.2l0,0l-0.6,0.4l0,0l-0.6,0.3l-0.4,0.1
	l-0.2,0.1l-0.6,0.1l-0.6-0.1l-0.1-0.1l-0.5-0.3l-0.2-0.1l-0.4-0.3l-0.6,0.1l-0.6,0l-0.6,0l-0.6-0.1l-0.2-0.1l-0.5-0.1l-0.6,0l-0.6,0
	l-0.6,0l-0.6,0l-0.6,0l-0.6,0l-0.6-0.1l-0.3-0.2l-0.3-0.3l-0.1-0.1l0.1-0.1l0.3-0.3l0.3-0.4l0,0l0.2-0.4l0.4-0.4l0,0l0.6-0.3
	l0.2-0.1l0.4-0.2l0.6-0.1l0.6,0l0.6,0l0.2,0l-0.2,0l-0.6-0.4l-0.1-0.1l-0.2-0.3l-0.5-0.3l-0.2-0.1l-0.3-0.4l0.4-0.3l0.2-0.1l0.5-0.3
	l0.3-0.1l-0.3-0.2l-0.1-0.2l-0.5-0.4l0-0.1l-0.1-0.3l0.1-0.4l0,0l0.6-0.2l0.5-0.1l0.2-0.1l0.6-0.2l0.5-0.1l0.1-0.1l0.4-0.3l0.3-0.2
	l0.6-0.1l0.2-0.1l0.4-0.3l0.1-0.1l0.6-0.4l0.1,0l0.5-0.3l0.6,0.1l0.6-0.1l0.2-0.1l0.4-0.1l0.6,0l0.5-0.2l0.1-0.1l0.2-0.3l-0.2-0.4
	l0.6-0.2l0.3-0.2l0.4-0.3l0.2-0.1l0.3-0.4l-0.4,0l-0.1,0l-0.5,0.1l-0.6,0.3l-0.1,0l-0.6,0.1l-0.4-0.1l0.3-0.4l0.1-0.1l0.2-0.3
	l0.2-0.4l0.2-0.2l0.2-0.2l0-0.4l-0.2,0l-0.6,0l-0.6,0l-0.6,0l-0.6-0.1l-0.4-0.1l-0.3-0.2l-0.6,0.2l0,0l-0.1,0.4l-0.2,0.4l0.2,0.4
	l-0.5,0.2l-0.6,0l-0.6,0.2l0,0l-0.6,0.3l0,0l-0.2,0.4l-0.4,0.2l-0.2,0.2l-0.4,0.2l-0.3,0.2l-0.3,0.1l-0.6,0.2l-0.2,0.1l0,0.4
	l-0.3,0.4l-0.2,0.1l-0.3,0.3l-0.3,0.2l-0.6,0.2l-0.1,0l-0.6,0.3l-0.2,0.1l-0.5,0.3l-0.3,0.1l-0.3,0.1l-0.6,0.1l-0.4,0.1l-0.3,0.2
	l-0.2,0.2l-0.4,0.2l-0.6,0.2l-0.1,0l-0.5,0.2l-0.6,0.1l-0.4,0.1l-0.2,0.1l-0.6,0.1l-0.6,0.2l-0.1,0l-0.5,0.2l-0.6-0.1l-0.1,0
	l-0.4-0.4L98,63.7l-0.6,0.1l0,0.4l0,0l-0.6,0L96,64.4l-0.6,0l-0.6-0.1l-0.5-0.1l-0.2,0l-0.2,0l-0.5,0.2l-0.6,0.2l-0.2,0l-0.4,0.1
	l-0.6,0.2L91.3,65l-0.4,0.2l-0.6,0.1l-0.6,0l-0.6,0l-0.6,0L87.8,65l-0.2-0.1l-0.3-0.3L87,64.5l-0.6-0.1l-0.3-0.2l-0.2-0.4l-0.1-0.1
	l-0.6-0.1l-0.5-0.2l-0.2,0l-0.6,0l-0.6,0.1l0.5,0.4l0.1,0.1l0.4,0.3l0.2,0l0.4,0l0.3-0.1l0.2,0.1l0.4,0.1l0.4,0.3l0,0.4l0,0.4
	l-0.3,0.4l-0.1,0.1l-0.5,0.3l-0.2,0.1l-0.6,0.3l-0.1,0l-0.6,0l-0.1,0l-0.6,0l-0.6,0l-0.6,0l-0.6,0l-0.6-0.1L80,66.3l-0.6-0.1l-0.6,0
	L78,66.4l-0.6,0l-0.6,0l-0.6,0l-0.6,0l-0.6,0l-0.6,0l-0.6-0.1l-0.6,0l-0.6-0.1l-0.6-0.1l0,0L71,66.1l-0.6-0.3l-0.1,0l-0.6-0.3
	l-0.1-0.1L69.3,65l-0.1-0.4L69,64.3l-0.2-0.1l-0.4-0.1L68,64.2l0,0.4l-0.3,0.3l-0.6,0.1l-0.4-0.3l0-0.4l-0.1-0.4l-0.1-0.1l-0.1-0.3
	L66.2,63l0.2-0.3l0.1-0.1l-0.1-0.1l-0.2-0.3L66,61.9l0.1-0.4l0.4-0.3l0-0.1l0.1-0.4l0.3-0.4l0.2-0.1l0.6-0.1l0.6-0.1l0.2-0.1
	l0.4-0.2l0.3-0.2l0.3-0.2l0.3-0.2l0.4-0.2l0.2-0.1l0.3-0.4L71,58l-0.3-0.4l-0.3-0.1l-0.4-0.3l-0.2-0.1l-0.6-0.3l-0.1,0l-0.6-0.1
	l-0.5-0.2l-0.1-0.2L67.5,56l-0.1-0.4l-0.3-0.3l-0.1,0l-0.5-0.4l-0.1-0.4l0-0.2L66.3,54L66,53.6l0-0.4l0.5-0.3l0.1-0.1l0.5-0.2
	l0.6-0.1l0.6-0.1l0.4,0l0.2-0.1l0.6-0.2l0.6-0.1l0,0l0.6-0.2l0.6-0.1l0.6,0l0.1,0l0.5-0.1l0.6-0.2l0.1,0l0.6-0.3l0.6-0.1l0.1-0.1
	l0.6-0.3l0,0l0.5-0.4l0.1-0.4l0-0.2l0-0.2l0.2-0.4l0-0.4l-0.2-0.1l-0.6-0.1l-0.6-0.1l-0.2-0.1L74.2,48l-0.3-0.2l-0.3-0.2l-0.2-0.2
	L72.9,47l0,0l-0.3-0.4l-0.3-0.4l0.3-0.4l0.2-0.2l0.6-0.1l0.6,0l0.4-0.1l-0.4-0.3L74.1,45l-0.5-0.2l-0.6,0l-0.6,0l-0.6,0l-0.6,0
	l-0.6,0l-0.6-0.1L69,44.7l-0.6,0l-0.6-0.1l-0.1,0l-0.5-0.2l-0.5-0.2l-0.2-0.1l-0.6-0.1l-0.6-0.3l0,0l-0.6-0.4l-0.1-0.1l-0.4-0.3
	l-0.3-0.2l-0.6-0.1l-0.2,0l0.2-0.4l0,0l0.6-0.1l0.5-0.3l0-0.4L64,41.1l-0.1,0l-0.6-0.1l-0.6-0.2l0,0l-0.6,0l-0.1,0l-0.6,0.2L61,41.1
	l-0.3,0.3l-0.1,0.1l-0.3,0.4l-0.1,0.4L60,42.4l-0.6-0.1l0,0l-0.4-0.4l-0.2-0.3l-0.1-0.1l0.1-0.2l0.1-0.2l0.4-0.4l0.2-0.4l0,0
	l0.6-0.4l0,0l0.6-0.1l0.6-0.3l0.1-0.1l0.2-0.3l0.4-0.2l0.6-0.1l0.6,0l0.6,0.1l0.6,0l0.6-0.1l0.6,0l0.1,0l-0.1-0.3l-0.1-0.1L65.2,38
	l0,0l-0.6,0l-0.6-0.2l-0.2-0.1l0.2-0.1l0.5-0.3l0.2-0.1l0.6,0l0.5,0.1l0.1,0l0.6,0l0.2,0l-0.2-0.3l-0.1-0.1l-0.6-0.4l0,0l0,0
	l0.1-0.4l0.5-0.2l0.6-0.1l0.2,0l0.4-0.3l0.1,0l-0.1,0l-0.6-0.1L66.5,35L66,35.2l-0.2,0l-0.6,0.1l-0.6,0l-0.6,0l-0.6,0l-0.6,0l-0.6,0
	l-0.2,0.2L61.7,36l-0.4,0.3l-0.2,0.1l-0.5,0.1l-0.5,0.2L60,36.9l-0.4,0.3l-0.2,0.1l-0.5,0.3l-0.2,0.1l-0.6,0.1l-0.3-0.2l-0.3-0.3
	l-0.6-0.1l-0.4,0.4l0,0.4l0.4,0.4l0,0l0,0.4l0,0h-0.6l0,0l-0.2-0.4L55.7,38l-0.2-0.1l-0.6-0.2l-0.4-0.1l-0.3-0.1l-0.4-0.3L53.6,37
	l-0.3-0.2l-0.3-0.3l-0.2-0.1L52.4,36l-0.1,0l-0.6-0.3l-0.1-0.1l-0.5-0.3L51,35l-0.2-0.1l-0.4-0.4l0-0.4l-0.1-0.4l0,0v-0.4l0,0
	l0.3-0.4l0.4-0.2l0.4-0.2l0.3-0.2l0.6-0.2l-0.6-0.3L51,31.8l-0.1,0l-0.5-0.3l-0.1-0.1L50,30.9l-0.2-0.4l0-0.1l-0.1-0.3l0-0.4
	l-0.3-0.4l-0.2,0l-0.6,0l0,0l-0.6,0.2l-0.6,0.1l-0.4-0.3L46.7,29l-0.1-0.2L46.3,29l0,0.4l0.1,0.4l-0.1,0.4l-0.2,0.4l-0.2,0.2
	l-0.1,0.2l-0.3,0.4l-0.1,0.4l-0.1,0L44.6,32l-0.6-0.2l0,0l-0.6-0.2l-0.6-0.1L42,31.3l0,0l-0.6-0.2l-0.6,0.1l-0.4,0.1l-0.2,0l-0.6,0
	l-0.1,0l-0.5-0.1l-0.6-0.1l-0.6-0.1L37,30.9l-0.1,0l-0.6-0.3l-0.1,0l-0.6-0.3l-0.1-0.1l-0.3-0.4l-0.2-0.2l-0.2-0.2L34.3,29l0,0
	l-0.5-0.4l-0.1-0.2l-0.2-0.2l-0.2-0.4L33,27.5l0,0L32.7,27l-0.1-0.4l0-0.4l-0.1-0.4l0.2-0.4l0.3-0.3l0-0.1l0-0.1l-0.2-0.3l0-0.4
	l0.2-0.2l0.3-0.2l0.4-0.1l0.6-0.2l0,0l0.1-0.4l0.4-0.4l-0.1-0.4L34.3,22l0-0.1l0,0l0.4-0.4l0.2-0.1l0.6-0.2l0.6,0l0.1-0.1l0.5-0.4
	l0.1-0.1l0.6-0.1l0.6,0.1l0.2,0l0.5,0.1l0.6,0l0.3-0.1l0.4-0.2l0.6,0l0.3-0.2L40.9,20l-0.2-0.3l0-0.1l-0.3-0.4l0.4-0.1l0.6,0l0.6,0
	l0.6,0.2l0.1,0l0.6,0l0,0l0.5-0.4l0.1-0.2l0.2-0.2l0.4-0.2l0.6,0l0.6,0l0.6-0.1l0.6-0.1l0.5-0.1l-0.2-0.4l-0.3-0.2l-0.4-0.2L46.5,17
	l-0.3,0.3l-0.4,0.2l-0.6,0.2l0,0l0,0l-0.1-0.4L45,16.8l0-0.4l-0.4-0.2l-0.1-0.2l-0.2-0.4L44,15.3l-0.1-0.1l-0.3-0.3l0.1-0.4
	l-0.2-0.4l-0.2-0.2l-0.2-0.2l0.2-0.2l0.6-0.2l0.6,0.3l0.1,0.1l0.1,0.4l0,0.4l0.1,0.4l0.3,0.3l0,0l0.1,0.4l0.1,0.4l-0.1,0.4l0.5,0.2
	l0.6,0.2l0.6,0.1l0,0l0.6,0.3l0.2,0.1l0.2,0.4l0.3,0.4l0,0l0.6,0l0.6,0.2l0.3,0.1l0.4,0.4l0,0l0.6,0.4l0.1,0.1l0.1,0.3l0.1,0.4
	l0.4,0.2l0.4,0.2l0.2,0.4l0.1,0.2l0.1-0.2l0.1-0.4l0.2-0.4l-0.1-0.4l0-0.4l0.1-0.4l-0.2-0.4l0.5-0.3L53,18l0.6-0.2l0.6,0l0.4,0.1
	l0.2,0.1l0.6,0.1l0.3-0.1l0-0.4l-0.2-0.2l-0.6-0.1l-0.6,0L54,17.2l-0.3-0.4l-0.2-0.4l-0.6,0.1l-0.1-0.1l-0.2-0.4l-0.1-0.4l-0.2-0.3
	l-0.6,0.2l-0.6-0.3L51,15.1l-0.1-0.3l-0.2-0.4l-0.3-0.3l-0.1-0.1l-0.5-0.3l-0.6,0l-0.5,0.3l-0.2,0.4l0,0l0,0l-0.3-0.4l-0.3-0.3
	l-0.1-0.1l-0.4-0.4l-0.1-0.4l-0.1-0.1L47,12.5l-0.5-0.4l0,0l-0.4-0.4l-0.2-0.1l-0.6-0.1l-0.6-0.2l0,0l-0.6-0.2l-0.6,0.1L43.1,11
	l0.2-0.1l0.3-0.3l-0.1-0.4l-0.1-0.4l0.2-0.4L43.8,9l0.1-0.3L44,8.6l-0.1-0.1l-0.1-0.3l-0.2-0.4l0.3-0.2l0.6,0l0.6,0.2l0.1,0l0.5,0.3
	L46,8.2l0.5,0.3l0.6-0.3l0,0l0.6-0.1l0.6-0.2l0.1-0.1l-0.1,0l-0.6-0.2l-0.5-0.2l-0.1,0l-0.6-0.2L46.4,7l0.1-0.1l0.2-0.3l0.1-0.4
	l-0.3-0.1l-0.3,0.1l-0.3,0.1l-0.6,0l-0.6-0.1l0,0l0,0l0.1-0.4l0.1-0.4l-0.1-0.4l0.6-0.4l0.1,0l0.3-0.4l0.2-0.4l0.1-0.1l0.6-0.3
	l0.1,0l0.6-0.3l0.1-0.1l0-0.4l-0.1-0.1l-0.6,0.1l0,0l-0.6,0.3l-0.1,0.1l-0.5,0.3l-0.3,0.1l-0.4,0.3l-0.1,0.1l-0.6,0.3l-0.3,0.1
	l-0.4,0.2l-0.2,0.1L42.6,5l-0.2,0.1L42,5.4l-0.6,0.1l0,0l0,0l-0.6-0.2l-0.2-0.2l-0.2-0.4l-0.2-0.3l-0.4,0.3l-0.2,0.1l-0.2,0.3
	l-0.4,0.4l-0.1,0.2l-0.2,0.2l-0.1,0.4l-0.1,0.4L38.4,7l0.4,0.1l0.5,0.3l0.1,0l0.6,0.1l0.6,0.2l0.1,0.1l-0.1,0.1l-0.2,0.3l0,0.4
	L40.7,9l0,0l0,0l-0.6,0.4l0.1,0.4l-0.1,0.1L40,9.8l0.1-0.4l-0.6-0.1l-0.6-0.1l-0.6,0l-0.6,0l-0.6,0.1l-0.6,0.1l-0.6-0.1l-0.6-0.1
	l-0.6,0.2l-0.1,0.1l0.1,0.1l0.5,0.3l0.1,0l0.6,0.1h0.6l0.6,0.1l0.4,0.2l0.2,0.1l0.6,0.1l0.5,0.2l0.1,0.1l0.4,0.3l-0.4,0.3l-0.4,0.1
	l-0.3,0l-0.2,0l-0.4-0.1L36.9,11l-0.6,0.1L36,11.4l-0.1,0.4l0.3,0.4l0,0l0.4,0.4l-0.2,0.4l-0.2,0.2l-0.6,0.2l0.1,0.4l0.5,0.4
	l-0.1,0.4l-0.3,0.4l0,0.4l0.3,0.4l0.1,0.2l0.2,0.2l0.3,0.4l0.1,0.4l0,0.4l-0.1,0.4L36.4,18l-0.2,0.2l-0.3,0.2l-0.4,0.3l-0.3,0.1
	l-0.3,0.1l-0.6,0l-0.6,0L33,19.1l-0.3,0.1l-0.3,0.2l-0.5,0.2l-0.1,0.1h-0.6l-0.4-0.1l-0.2,0l-0.6,0l-0.6-0.3l0,0l-0.4-0.4l-0.2-0.2
	l-0.6-0.2l-0.6,0.2l-0.3,0.2l-0.3,0.4l-0.1,0.1l-0.4,0.3l-0.3,0.2l-0.6,0.2l-0.6,0L24,20l0,0l-0.6,0.1L23,20.4l-0.3,0.2l-0.1,0.2
	l-0.3,0.4l-0.2,0.1l-0.6-0.1l-0.1,0l-0.5-0.1l-0.6-0.2L20,20.8l-0.3-0.4l0-0.4l0.4-0.4l0,0l0.6-0.1l0.6,0.1l0.6-0.3l0.4-0.1l0.3-0.1
	l0.3-0.3l0.4-0.4l0,0l0.6-0.2l0.4-0.1l0.3-0.2l0.6-0.2l0.1,0l0.4-0.4l0-0.4l-0.1-0.4l0.3-0.4l0,0l0.4-0.4l0.3-0.3l0.1-0.1l0.4-0.4
	l0.1-0.1l0.3-0.3l0.3-0.3l0.6-0.1L27.8,14l-0.6-0.3L27,13.7l-0.4-0.1L26,13.7l-0.1,0l-0.3,0l-0.3,0l-0.5-0.4l-0.2-0.2l-0.1-0.2
	l-0.4-0.4L24,12.3l-0.6,0.2l0,0l0,0l-0.5-0.4l0.1-0.4l-0.1-0.4l-0.1-0.2L22.3,11l-0.3-0.1l-0.6,0l-0.6-0.1l-0.6-0.1l-0.4-0.1
	l-0.3-0.1l-0.4-0.3L18.8,10l-0.2-0.2l-0.2-0.4l-0.2-0.3l0,0l-0.5-0.4l-0.1-0.1l-0.6-0.3l-0.1,0L16.3,8l-0.6-0.2l-0.1,0L15,7.6
	l-0.2-0.1l-0.4-0.3l0,0l-0.1-0.4L14,6.3l-0.2-0.4l-0.1-0.1l-0.6-0.2l-0.1-0.1l-0.5-0.1l-0.6-0.3l-0.1,0l-0.6-0.3l-0.1,0l-0.5-0.4
	l0,0L9.8,4.2L9.2,4.1l-0.6,0L7.9,4.2L7.5,4.3L7.3,4.4L6.9,4.3L6.6,4.2L6.2,3.9l0-0.4l0.2-0.4l0.2-0.4l0.2-0.4l0,0L6.7,2L6.6,1.9
	L6.4,1.6L6,1.2l0,0L5.8,0.8L5.6,0.4V0.2"/>
<path class="st0" d="M180,94.9h-0.3l-0.6-0.1l-0.3-0.1l-0.3-0.1l-0.6-0.1l-0.6,0l-0.4,0.1l-0.3,0.1l-0.4,0.3l-0.3,0.1l-0.5,0.2
	l-0.2,0.1l-0.6,0.2l-0.4,0.1l-0.2,0.1l-0.6,0.2l-0.6,0l-0.6,0l-0.6,0l-0.6,0l-0.6,0.1v0.4l0,0l0,0l-0.6-0.2h-0.6l-0.6-0.1l-0.6-0.1
	l0,0l-0.6-0.3l-0.1-0.1l-0.6-0.3l-0.1-0.1l-0.5-0.3l-0.2-0.1l-0.4-0.2l-0.6-0.2l-0.3,0l-0.3,0l-0.6-0.1l-0.5-0.3l-0.1-0.1l-0.4-0.3
	l-0.3-0.1l-0.6-0.3l0,0l-0.6-0.4l0,0v-0.4l0,0l0.4-0.4l-0.1-0.4l-0.1-0.4l-0.1-0.4l0-0.4l0-0.1l-0.3-0.3l-0.3-0.2l-0.4-0.2l-0.2-0.1
	l-0.6-0.2l-0.3-0.1l-0.4,0l-0.6-0.1l-0.6-0.2l-0.4-0.2l-0.2-0.1l-0.6-0.2l-0.3-0.1l-0.3,0l-0.6-0.4l0,0l-0.4-0.3l-0.1-0.4l0-0.4
	l-0.1-0.2l-0.2-0.2l-0.3-0.4l-0.2-0.1l-0.5-0.3l-0.1-0.1l-0.6-0.3l-0.1-0.1l-0.3-0.3l0-0.4l0.3-0.2l0.6-0.1l0.6,0l0.6,0l0.2,0
	l-0.2-0.1l-0.6-0.1l-0.5-0.2l-0.2,0l-0.6,0l-0.6,0l0,0h-0.6l0,0l-0.6-0.3l-0.4-0.1l-0.2-0.2l-0.1,0.2l-0.5,0.2l-0.6,0l-0.6,0l-0.6,0
	l-0.6,0.1l-0.4,0.1l-0.3,0.1h-0.6l-0.6-0.1l-0.6,0.2l-0.6,0.1l-0.1,0l-0.6,0.2l-0.6,0.1l-0.6,0.1l-0.2,0l-0.5,0.1l-0.6,0.2l0,0
	l-0.6,0.2l-0.6,0l-0.6,0.1l-0.6,0l-0.6,0l0,0h-0.6l0,0l-0.6-0.2l-0.4-0.2l-0.2-0.2l-0.2-0.2l-0.3-0.4l-0.2-0.4l0,0v-0.4l0,0l0.3-0.4
	l0.2-0.4l0.2-0.4l0,0l0.6-0.4l0.1,0l0.6-0.3l0.1-0.1l0.5-0.4l0.1-0.1l0.6-0.3l0,0l0.2-0.4l-0.1-0.4l0-0.4l0-0.4l0.1-0.4l0-0.4
	l-0.1-0.4l0-0.1l-0.2-0.3l-0.2-0.4l-0.2-0.3l-0.1-0.1l-0.4-0.4l-0.2-0.1l-0.3-0.2l-0.3-0.2l-0.3-0.2l-0.4-0.4l0,0l-0.4-0.4l-0.2-0.4
	l0,0l-0.2-0.4l-0.4-0.4l0,0l-0.5-0.4l-0.1-0.4l0.5-0.2l0.3-0.1l0.3-0.1l0.6-0.1l0.6-0.1l0.6,0l0.6,0l0.6,0.1l0.6,0.1l0,0l0.6,0
	l0.6,0l0.6,0l0.6,0.1l0.6,0.1l0.2,0.1l0.4,0.1l0.6,0.1l0.3,0.1l0.3,0.1l0.6,0.1l0.6,0l0.6,0l0.6,0l0.6,0l0.6-0.1l0.6-0.1l0.6-0.1
	l0,0l0.6-0.4l0,0l0.6-0.2l0.5-0.2l0.1-0.1l0.6-0.2l0.6,0l0.6,0.1l0.6,0l0.6-0.1l0.3-0.1l0.4-0.3l0.6,0l0.4-0.1l0.2-0.4l-0.6-0.1
	l-0.2,0.1l-0.4,0.3l-0.6,0.1l-0.1,0l-0.6,0.2l-0.6,0l-0.6,0.1l-0.6,0l-0.6-0.1l-0.6,0l-0.6,0l-0.6-0.1l-0.6-0.1l-0.6,0l-0.6,0
	l-0.6,0l-0.6-0.1l-0.4-0.1l-0.3-0.1l-0.6-0.1l-0.6-0.1l-0.2-0.1l-0.4-0.1l-0.6-0.1l-0.6-0.2l-0.1,0l-0.6-0.2l-0.4-0.1l-0.3-0.1
	l-0.6-0.1l-0.6-0.1l-0.2-0.1l-0.5-0.1l-0.6-0.2l-0.6,0l-0.6,0.2l-0.1,0l-0.6,0.1l-0.6,0l-0.6,0l-0.6,0l-0.6,0l-0.6-0.2l0,0l-0.6,0
	l-0.6,0l-0.6,0l-0.6,0l-0.6,0.1l0,0l-0.6,0.3l-0.5,0.1l-0.2,0l-0.6,0.1l-0.6,0l-0.6-0.1l-0.1,0l-0.6-0.2l-0.4-0.2l-0.2-0.1l-0.6-0.2
	l-0.6,0.2l-0.6,0.1l-0.6,0l-0.6,0l-0.2,0l-0.4,0.2l-0.4,0.2l-0.2,0.2l-0.3,0.2l-0.3,0.1l-0.6,0.2l-0.5,0.1l-0.2,0.1l-0.6,0.2l-0.6,0
	l-0.6-0.3l0,0l-0.6-0.3l-0.1,0l-0.5-0.4l0,0l-0.6,0l-0.6,0l-0.6,0l0,0l0,0l-0.6,0l-0.6,0l-0.6,0l-0.6,0l-0.6,0l-0.6,0l-0.4,0.1
	l-0.1,0.4l-0.2,0.1l-0.6,0.2l-0.6,0l-0.6-0.2l-0.6-0.1l-0.3,0l-0.4,0l-0.6-0.3l0,0l0-0.4l0,0l0.6-0.3l0.6,0l0.1,0l0.5-0.4l0-0.1
	l0-0.3l0-0.4l0.2-0.4l0.2-0.4l0.2-0.4l0,0l0.1-0.4L107,67l0.1,0l0.6-0.3l0.6-0.1l0.2-0.1l-0.2-0.1l-0.6-0.3l0,0L107,66l-0.6,0
	l-0.6-0.2l0,0l-0.2-0.4l0.2-0.3l0.2-0.1l0.4-0.2l0.3-0.2l0.4-0.4l0,0l0.6-0.2l0.6,0l0.1-0.2l0.2-0.4l0.3-0.2l0.4-0.2l0.3-0.2
	l0.6-0.2l0,0l0.6-0.3l0,0l0.6-0.3l0.2-0.1l0.5-0.3l0.1-0.1l0.3-0.4l-0.2-0.4l-0.2-0.3l-0.6,0.1l-0.3,0.3l-0.3,0.2l-0.6,0.2l0,0
	l-0.6,0.4l-0.1,0l-0.6,0.4l-0.1,0l-0.5,0.2l-0.3,0.1l-0.4,0.3l-0.4,0.1l-0.3,0.1l-0.6,0l-0.5,0.3l-0.1,0.2l-0.3,0.2l-0.4,0.1l-0.6,0
	l-0.6,0.2l-0.2,0.1l-0.4,0.2l-0.5,0.2l-0.1,0.1l-0.6,0.2l-0.6,0l-0.6,0l-0.6,0.1l0,0l-0.6,0.1l-0.6,0L98,64.8l-0.6,0.1l-0.6,0
	l-0.6,0l-0.6,0l-0.6-0.1l-0.6-0.1l-0.6,0.1L92.8,65l-0.2,0l-0.4,0.2l-0.3,0.2l-0.4,0.1l-0.6,0.1l-0.6,0l-0.6-0.1L89,65.4l-0.6,0
	l-0.1,0l-0.6-0.1L87.1,65L87,64.9L87,65l-0.1,0.4l-0.2,0.4l-0.3,0.2l-0.6,0.2l0,0l-0.5,0.4l-0.1,0.1l-0.6,0.2l-0.6,0l-0.6-0.1
	l-0.6,0l-0.6,0l-0.6,0l-0.5-0.1l-0.2,0L80,66.5l-0.6,0l-0.6,0l-0.6,0l-0.6,0l-0.6,0l-0.6,0l-0.2,0l-0.4,0.1l-0.6-0.1l-0.2-0.1
	l-0.4,0l-0.6,0l-0.6,0l0,0l0,0l-0.6,0l-0.6,0l-0.5,0L71,66.7L70.9,67l0,0.4l-0.3,0.4l-0.2,0.1l-0.6,0.2l-0.6,0l-0.6,0l-0.6,0l-0.6,0
	l-0.6-0.1l-0.3-0.2l-0.2-0.4L66,67l0.4-0.4l0-0.1l0.6-0.2l0.6,0l0,0l0.6-0.3l0.6-0.1l0.4,0L69,65.5l-0.1-0.1l-0.5-0.2l-0.6,0.1
	l-0.6,0L66.5,65l-0.1,0l-0.3-0.4l0-0.4l0-0.4L66,63.4l-0.2-0.2L65.5,63l0.1-0.4l-0.1-0.4l-0.1-0.4l0.1-0.4l0.1-0.4l0-0.1l0.2-0.3
	l0.2-0.4l0.2-0.1l0.6-0.3l0,0l0.6-0.1l0.6-0.2l0.2-0.1l0.4-0.2l0.2-0.2l0.4-0.3l0.2-0.1l0.3-0.4l0-0.4l-0.1-0.4l-0.3-0.2l-0.2-0.2
	L69,57l-0.4-0.2l-0.2-0.1l-0.6-0.2l-0.2-0.2L67.2,56l-0.1-0.4l0,0l-0.6-0.4l-0.1-0.1L66,54.8l-0.1-0.4l0-0.4l-0.1-0.2l-0.1-0.2
	l0-0.4l0.2-0.2l0.2-0.2l0.4-0.2l0.6-0.2l0.1,0l0.5-0.1l0.4-0.3l0.2-0.1l0.5-0.3l0.1-0.1l0.6-0.3l0.2,0l0.4-0.1l0.6-0.1l0.6,0
	l0.6,0.1l0.6,0l0.6-0.3l0.1-0.1l0.4-0.3l-0.1-0.4l-0.1-0.4l-0.2-0.3l-0.2-0.1l-0.5-0.4l0,0l-0.2-0.4l-0.4-0.4l-0.1-0.1l-0.5-0.3
	l-0.1-0.1l-0.4-0.3L71,47.2L70.6,47l-0.3-0.2L70,46.6l-0.3-0.2l-0.4-0.2L69,46.1l-0.6-0.2l-0.3-0.1l-0.3-0.1l-0.5-0.2l-0.2-0.1
	l-0.6-0.2L66.1,45l-0.3-0.1l-0.4-0.3l-0.3-0.1l-0.6-0.3l-0.1,0l-0.6-0.3l-0.3-0.1l-0.3,0l-0.6-0.1l-0.5-0.2l-0.2-0.1l-0.4-0.2
	L61.3,43l-0.6,0l-0.6,0l-0.6-0.1l-0.3-0.1l-0.3-0.1l-0.6-0.3l0-0.1L58,41.9l-0.1-0.4l0.1-0.4l0.1-0.1l0.2-0.3l0.2-0.4l0-0.4l0.2-0.2
	l0.1-0.1l0.3-0.4l0.3-0.2l0.2-0.2l0.3-0.4l0.2-0.2l0.2-0.2L60,37.7L59.4,38l0,0l-0.3,0.4l-0.3,0.2l-0.5,0.2L58.1,39L58,39.2
	l-0.6,0.4l0,0l-0.6,0.4l0,0l0,0l-0.6-0.1l-0.5-0.3l-0.1-0.2l-0.6-0.1l-0.6-0.1l0,0L53.6,39l-0.6-0.2l-0.6,0.1l-0.6,0.2l0,0l-0.1,0.4
	l-0.3,0.4L51,40.2l-0.6,0.1L49.7,40l-0.3-0.1l-0.3-0.1l-0.6-0.1L48,39.5l-0.2-0.1l-0.6-0.1l-0.6,0h-0.6l-0.3,0.2l0.3,0.4l0,0
	l0.6,0.4l0,0l0,0l0,0l-0.6-0.4l-0.6,0.1l-0.6,0.1l-0.6,0.2l0.2,0.4l-0.2,0.4l0,0l-0.3,0.4v0.4l0.3,0.4l0,0l0.6,0.2l0.6,0.2l0.1,0.1
	l0.4,0.4l0.1,0l0.6,0.2l0.6,0.2l0,0l0.5,0.4l-0.5,0.2l-0.6,0h-0.6l-0.6,0.2l0,0l-0.6,0.4l0,0l-0.6,0l-0.1,0l-0.5-0.2l-0.5-0.2
	l-0.2-0.4l0,0l0,0l0.1-0.4l0.5-0.3l0.2-0.1l0.4-0.4l-0.6-0.3L43,42.3l-0.3-0.1l-0.4-0.3L42,41.5l-0.2,0.4v0.4l-0.2,0.4l-0.3,0.1
	L41,42.7l-0.3-0.1l-0.6-0.3h-0.6h-0.6h-0.6l-0.6,0.1l-0.6,0.3l0,0l-0.6,0.1l-0.3-0.1l-0.3-0.1h-0.6l-0.6-0.1l-0.2-0.2v-0.4l-0.2-0.4
	l-0.2-0.4l0,0l0,0l0.3-0.4l0.1-0.4l0.2-0.4v-0.4v-0.4l0,0l0.3-0.4l-0.2-0.4L34.3,38l0,0v-0.4v-0.4v-0.4l0,0l0.1-0.4L34.3,36l0,0
	l-0.1-0.4L34,35.2l0.1-0.4l0.2-0.4v-0.4v-0.4L34,33.3l-0.2-0.4l-0.2-0.2l-0.2-0.2L33,32.2l-0.3-0.1l-0.1-0.4l-0.2-0.4l0,0L32,30.9
	l-0.3-0.4l0,0l-0.5-0.4l-0.2-0.4l0,0l-0.1-0.4L30.8,29l0-0.4l-0.1-0.4l-0.3-0.4l0,0v-0.4V27l-0.3-0.4L30,26.2l-0.1-0.4l0.5-0.3
	l0.1-0.1l0.4-0.4l0.2-0.2l0.3-0.2l0.1-0.4l0-0.4l0.2-0.4l0.1-0.1l0.5-0.3l0.1-0.1l0.4-0.3l0.3-0.2l0.2-0.2l0.1-0.4l0.4-0.4l-0.6,0
	l0,0l-0.6,0.3L32,21.9L31.7,22l-0.6,0.3l0,0l0,0l-0.6-0.2L29.8,22l-0.6,0l-0.4,0.3l-0.1,0.4L28.5,23L27.8,23l-0.6-0.1l-0.6-0.1
	l-0.2-0.1l-0.4-0.3l-0.2-0.1l-0.5-0.2l-0.6-0.1L24,22.1l-0.6,0.1l-0.6,0l-0.6-0.1l-0.5-0.2l-0.2-0.1l-0.6-0.1l-0.4-0.2l-0.2-0.1
	l-0.4-0.3l-0.2-0.2l-0.2-0.2l-0.3-0.4L19,20l0.1-0.4l0.4-0.3l0.1-0.1l0.5-0.4l0.1,0l0.3-0.4l0.2-0.2l0.6-0.1l0.1,0l0.6-0.3l0.2-0.1
	l0.4-0.4l0.1-0.4l0,0l0.2-0.4l0.2-0.4l0.1-0.4l0-0.4l-0.5-0.4l0,0l-0.6-0.1l-0.6-0.1l-0.6-0.1l-0.2-0.1l-0.4-0.2l-0.5-0.2L19.5,14
	l-0.6-0.3l0,0l-0.6-0.4l0,0l-0.6-0.1L17,12.9l-0.1-0.1l-0.4-0.3l-0.2-0.4l0,0l-0.6-0.2L15,11.8l-0.1,0l-0.6-0.3l-0.1-0.1L13.7,11
	l0,0l-0.6-0.2l-0.6-0.1l-0.2-0.1l-0.4-0.3l-0.1-0.1l-0.5-0.4l0,0l-0.6-0.3l-0.3-0.1V9L9.9,8.6L9.8,8.5L9.4,8.2L9.2,8.1L8.8,7.8
	L8.5,7.4l0,0L8.5,7L8.4,6.7L8.2,6.3L7.9,6L7.3,6.1L6.6,5.9L6.5,5.9L6,5.7L5.3,5.6L4.9,5.5L4.7,5.4L4.3,5.5L4,5.5l-0.6,0l-0.6,0l0,0
	L2.2,5.1L2.1,4.9l0-0.2l0-0.4l0,0l0.2-0.4l0.2-0.4l0.1-0.4l0.1-0.4l0.1-0.1l0.4-0.3L3.3,2L3.2,1.6L2.8,1.2l-0.1,0L2.5,0.8L2.4,0.4
	V0.2"/>
<path class="st0" d="M180,98.9h-0.3H179h-0.6h-0.6l-0.6-0.1l-0.6-0.1l-0.6,0.2l-0.6,0.2l-0.1,0l-0.4,0.4l-0.2,0.2l-0.3,0.2l-0.3,0.1
	l-0.6,0h-0.6l-0.6,0l-0.3-0.1l-0.3-0.1l-0.6-0.2l-0.6,0.1l-0.3,0.2l-0.3,0.1l-0.2-0.1l0-0.4l0-0.4l0-0.4l-0.1-0.4l-0.2-0.4l-0.1-0.1
	l-0.6-0.1l-0.6,0.1l-0.6,0l-0.6-0.2l-0.1,0l-0.6-0.4l0,0l-0.6-0.3l-0.1,0l-0.3-0.4l-0.2-0.4l-0.1-0.1l-0.6-0.3l-0.6,0l-0.2,0
	l-0.5-0.1l-0.6-0.2l-0.5-0.2L161,95l-0.5-0.3l-0.2-0.1l-0.6-0.2l-0.6,0l-0.1,0l-0.4-0.4l-0.2-0.2l-0.2-0.2l-0.4-0.4l-0.1-0.1
	l-0.4-0.3l-0.3-0.2l-0.3-0.2l-0.3-0.2l-0.4-0.1l-0.3-0.2l-0.6-0.2l0,0l-0.6-0.3l-0.2-0.1l-0.4-0.1l-0.6,0l-0.6,0l-0.6-0.1l-0.6-0.1
	l-0.5-0.2l-0.1-0.1l-0.6-0.3l-0.6,0.2l-0.6,0l-0.6-0.1h-0.6l-0.6-0.1h-0.6l0,0l-0.6-0.4l0,0l-0.6-0.4l0,0l-0.6-0.4l0,0l-0.4-0.4
	l-0.1-0.4l-0.1-0.4l-0.1-0.1l-0.2-0.3l-0.4-0.4l0,0l-0.6-0.4l0,0l-0.2-0.4l-0.4-0.3l-0.6-0.1l0,0l-0.6,0l-0.2,0l-0.4,0.1l-0.6,0.2
	l-0.6,0l-0.6,0l-0.6,0.1l0,0l-0.6,0.1l-0.6,0l-0.6,0.1l-0.6,0l-0.6,0.1l0,0l-0.4,0.4l-0.2,0.2l-0.3,0.2l-0.3,0.1l-0.5-0.1l-0.2,0
	l-0.6-0.1l-0.6,0h-0.6l-0.6,0l-0.6,0l-0.3,0.1l-0.4,0.1l-0.6,0.2l-0.5,0.1l-0.2,0l-0.2,0l-0.4-0.1l-0.5-0.3l-0.1-0.4l-0.1-0.4l0,0
	l0,0l0.2-0.4l0.4-0.4l0,0l0.6-0.2l0.6-0.1l0.6-0.1l0.3-0.1l0.3-0.1l0.4-0.2l0.3-0.2l0.4-0.2l0.3-0.1l0.6-0.2l0.1-0.1l0.5-0.4
	l0.1-0.1l0.3-0.3l0.2-0.4l0.1-0.2l0.1-0.2l0.4-0.4l0.1-0.1l0.4-0.3l0.3-0.2l0.2-0.2l0.4-0.3l0.1-0.1l0.6-0.4l0,0l0.4-0.4l0.2-0.2
	l0.2-0.2l0.1-0.4l-0.2-0.4l-0.1-0.4l0,0l-0.1-0.4l-0.1-0.4l-0.2-0.4l-0.2-0.4l0,0l-0.3-0.4l-0.3-0.4l0,0l-0.5-0.4l-0.1-0.1L133,76
	l-0.2-0.2l-0.3-0.2l-0.3-0.4l-0.1-0.1l-0.3-0.3l-0.4-0.3l-0.2-0.1l-0.5-0.3l-0.3-0.1l-0.3-0.1l-0.2-0.3l-0.4-0.3l-0.2-0.1l-0.5-0.2
	l-0.6-0.2l-0.1,0l-0.2-0.4L128,72l0.1-0.4l0.1-0.2l0.3-0.2l-0.3-0.1l-0.6,0.1l-0.4,0.1l-0.3,0l-0.6,0l-0.6,0l-0.4,0l-0.2,0l-0.6-0.1
	l-0.6-0.2l-0.6,0l-0.6,0.1l-0.6,0h-0.6l-0.6,0.1l-0.2,0.1l-0.4,0.2l-0.2,0.1l-0.4,0.3l-0.3,0.1l-0.4,0.3l-0.2,0.1l-0.4,0.1l-0.5,0.2
	l-0.2,0.1l-0.6,0.1l-0.6,0l-0.6-0.1l-0.4-0.1l-0.2-0.1l-0.6-0.2l-0.6,0l-0.6-0.1l0,0l-0.5-0.4l-0.1-0.1l-0.6-0.2l-0.6,0l-0.6,0
	l-0.6,0l-0.6,0l-0.6,0l-0.6,0.1l-0.6,0.1l-0.6,0l-0.6-0.1l-0.6-0.1l-0.1,0l-0.6,0l-0.6-0.2l-0.3-0.2l-0.4-0.4l0,0l-0.3-0.4l-0.3-0.4
	l0,0l-0.1-0.4l0.1-0.2l0.3-0.2l-0.1-0.4l-0.2-0.4l0,0l-0.5-0.4l-0.1-0.1l-0.6-0.3l-0.1,0l-0.6-0.4l0,0l-0.6-0.2L99.6,67l-0.4-0.3
	l-0.2-0.1l-0.5-0.1L98,66.2l-0.3-0.1L97.3,66l-0.6,0l-0.6,0l-0.6,0l-0.5-0.1l-0.1,0l-0.6-0.1l-0.6,0.1l-0.1,0L92.8,66l-0.6,0l-0.6,0
	l-0.6,0l-0.6,0l-0.6,0L89,66l-0.6,0l-0.6,0.1l0,0L87,66.4l-0.6,0.1l-0.2,0.1L85.9,67l-0.1,0l-0.6,0L84.5,67l-0.6,0.1l-0.6,0L82.5,67
	l-0.2,0l-0.5,0l-0.3,0l-0.4,0.1l-0.6,0L80.2,67L80,66.9l-0.6,0l-0.6,0l-0.6,0L77.4,67l0,0l-0.6,0.2l-0.4,0.2l-0.1,0.4l-0.1,0.1
	l-0.6,0l-0.6,0l-0.6,0l-0.6,0l-0.6,0l-0.6,0.2l0,0l-0.4,0.4v0.4l0,0.4l-0.2,0.1H71l-0.3-0.1l-0.4-0.2L70,68.9l-0.3-0.1L69,68.5l0,0
	l-0.6-0.1l-0.6,0l-0.6,0l-0.2,0l-0.5,0.2l-0.3-0.2l-0.3-0.3l0-0.1l-0.1-0.4l-0.1-0.4l0-0.4l-0.2-0.4l-0.1-0.2L65,66.2l0-0.4l0.2-0.4
	l0,0l0.2-0.4l0.1-0.4l0.2-0.4l0.1-0.4l-0.5-0.4l-0.2-0.3L65.1,63l0-0.4l0-0.4l0.1-0.2l0-0.2l0.1-0.4l0.1-0.4l0.2-0.4l0.2-0.3
	l0.1-0.1l0.6-0.4l0,0l0.6-0.2l0.6-0.1l0.3-0.1l0.4-0.2l0.4-0.2l0.2-0.3l0.1-0.1l0.5-0.4l0,0l0-0.4l0-0.1l-0.1-0.3l-0.4-0.4l-0.1,0
	l-0.6-0.3L68,56.8l-0.2,0l-0.5-0.4L67.1,56l0,0l-0.6-0.4l0,0l-0.6-0.4l-0.1-0.1l-0.2-0.3l-0.1-0.4l0-0.4l-0.2-0.4l0-0.4l0.2-0.4
	l0.3-0.2l0.5-0.2l0.1,0l0.6-0.2l0.5-0.1l0.2-0.1l0.5-0.3l0.1-0.1l0.4-0.3L69,51l0.2-0.1l0.4-0.4l-0.5-0.4l-0.1,0l-0.6-0.3l0,0
	l-0.6-0.3l-0.4-0.1l-0.2-0.1l-0.3-0.3l-0.3-0.3l-0.2-0.1l-0.4-0.4l0,0l-0.6-0.4l0,0l-0.6-0.2l-0.3-0.2L63.9,47l0,0l-0.6-0.2
	l-0.3-0.2l-0.3-0.1l-0.6-0.1l-0.5-0.2l-0.2-0.1l-0.6-0.2L60,45.8l0,0l-0.6-0.1l-0.6,0h-0.6l-0.6-0.2l-0.6-0.2l-0.6,0.2l-0.6,0.1
	l-0.6,0l-0.6,0l-0.6,0l-0.6-0.1l-0.6-0.1l-0.6-0.1L51,45.4l0,0V45l-0.2-0.4l-0.5-0.2l-0.6,0l-0.6,0.2l-0.1,0.1L48.7,45l-0.2,0.2
	h-0.6l-0.6,0l-0.6,0l-0.6,0.1l-0.6,0.1l-0.6,0l0,0h-0.6l-0.6,0l-0.6,0.1L42,45.6l-0.6,0l-0.6,0l-0.6-0.2l-0.6,0.1l-0.6,0.2l-0.6,0.1
	h-0.6l-0.6,0l-0.6,0l-0.6,0.1l-0.3,0l-0.3,0L34.3,46l-0.6,0.1l-0.6,0l-0.2,0l-0.4,0.2l-0.6,0.2l-0.6,0.1l0,0h-0.6l0,0l-0.6-0.1
	l-0.6,0l-0.6,0l-0.6,0l-0.6,0.1l0,0l-0.6,0.2l-0.6,0l-0.6-0.1l-0.6,0.1L24.2,47L24,47.2l-0.6,0.2l0,0l0,0l-0.6-0.2l-0.6,0h-0.6
	l-0.1,0.2L21,47.8L20.8,48l-0.1,0.2l-0.5,0.3l-0.3,0.1l-0.4,0.2l-0.2,0.2l-0.5,0.3l-0.1,0.1l-0.3,0.4l-0.2,0.2l-0.4,0.2l0.4,0.4
	l0.1,0.2l0.1,0.2l0,0.4l0,0l-0.6,0l-0.6,0.2l-0.1,0.2l-0.1,0.4l-0.3,0.4l-0.2,0.3l0,0.1l-0.1,0.4l0,0.4l0.1,0.1l0.6-0.1l0,0l0,0
	l0.6,0l0.6,0.2l0.5,0.2l0.2,0.1l0.6,0.2l0.4,0.2l0.3,0.2l0.2,0.2l0.1,0.4l0,0.4l0.1,0.4l0.3,0.2l0.6,0.2l0.3,0l0.4,0l0.6,0.2
	l0.2,0.2l0,0.4l0.4,0.4l0,0l0.1,0.4l-0.1,0.4l0,0l-0.6,0.3l0,0l0,0.4l0.1,0.2l0.2,0.2l-0.1,0.4l-0.2,0.3l0,0.1l-0.1,0.4l0,0.4
	l0.1,0.2l0.1,0.2l-0.1,0.2l-0.6-0.1l-0.1-0.1l-0.5-0.1l-0.1,0.1L21,61.9l0,0.4l-0.2,0.2l-0.1,0.2L20.4,63l-0.1,0.4l0.4,0.4l0.1,0
	l0.6,0.4l-0.1,0.4l0.1,0.1l0.5-0.1l0.1-0.1l0.2,0.1l0.5,0.1L23,65l0.3,0.3l0.1,0.1l0.5,0.3l0.2,0.1l0.5,0.2l0.2,0.2l0.2,0.4
	l-0.5,0.3L24,66.9l-0.6,0l-0.6,0l-0.6,0l-0.6-0.2l-0.6-0.1l0,0l-0.6-0.1l-0.4-0.3l-0.2-0.4l0,0l-0.6-0.2l-0.6-0.1l0,0l-0.6-0.1
	l-0.6-0.2L16.6,65l-0.3-0.1l-0.6-0.3l-0.1,0l-0.4-0.4L15,64.2l-0.5-0.3l-0.2-0.1l-0.6-0.3l0,0l-0.6-0.3l-0.1,0l-0.5-0.3l-0.1-0.1
	l-0.2-0.4l-0.3-0.4l0,0l-0.3-0.4l-0.4-0.3L11,61.1l-0.5-0.3l-0.2-0.1l-0.4-0.3l-0.1-0.1l-0.3-0.4l-0.2-0.4l0,0L9,59.1l0-0.4l0.1-0.4
	l0.1-0.2L9.3,58v-0.4l-0.1-0.1l-0.3-0.3l-0.3-0.3l-0.1-0.1l-0.2-0.4L8.5,56l0-0.2l0-0.2l0,0l-0.2-0.3l0-0.4l0.2-0.2l0-0.2l0,0
	l-0.6-0.2L7.3,54l-0.1,0l-0.5-0.4l0-0.4l-0.1,0L6,53l-0.6-0.1l0,0l-0.6-0.1L4,52.7l-0.4-0.2l-0.2-0.3l-0.2-0.1L2.8,52l-0.5-0.3
	l-0.1-0.3l0-0.1L2,50.9l-0.2-0.4l-0.1-0.4l0.2-0.4l0.3-0.1l0.6-0.1l0.6,0L4,49.3l0,0l0.6-0.2l0.6,0L6,48.9v-0.4v-0.4v-0.4l0,0
	l0.2-0.4l0-0.4l0.1-0.4L6,46.2l0-0.4l0.1-0.4L6.2,45l0.4-0.4l0,0l0.6-0.2l0.3-0.2l0.2-0.4l-0.2-0.4l-0.2-0.4l-0.1-0.2L6.6,43
	l-0.1,0.1l-0.2,0.4l-0.2,0.4L6,44l-0.6,0.1l-0.6,0L4,44l-0.6-0.1l-0.6,0.3l-0.5-0.3l-0.2-0.2L2,43.5l-0.2-0.4l-0.3,0l-0.6-0.2
	l-0.4-0.1l-0.2-0.2l-0.1-0.1L0,41.9l0.1-0.4l0.1-0.2l0.1-0.1l0.6-0.4l0,0l0.6-0.2l0.6-0.1l0.4-0.1l0.2-0.1l0.6-0.2l0.1-0.2l0.2-0.4
	l0.1-0.4l0-0.4l0.1-0.4L4,38.1L4.2,38l0.5-0.2l0.6-0.1L6,37.6l0,0l0.6,0l0.6-0.1l0.6-0.3l0.1-0.1l0.2-0.3l0.2-0.4l0.2-0.2L8.7,36
	l0.2-0.4l-0.2-0.4l-0.1-0.1l-0.2-0.3l-0.1-0.4l0-0.4l0.1-0.4l0.2-0.3l0.1-0.1l0.6-0.4l0.1,0l0.6-0.2l0.5-0.2l0.2-0.2l0.2-0.2
	l0.3-0.4l0.2-0.1l0.6-0.1h0.6l0.6,0l0.6-0.1l0.6,0l0.6,0l0.3-0.1l0.3,0l0.3,0l0.3,0.1l0.4,0.3l0.3,0.2l0.6,0.1l0.6,0.1l0.6,0.1l0,0
	l0.6,0.1l0.6-0.1l0.3-0.1l0.3-0.1l0.6-0.3l0,0l0.6-0.2l0.2-0.2l0.3-0.4l0.2-0.1l0.3-0.3l0.3-0.3l0.1-0.1l0.1-0.4l0.1-0.4l0.2-0.4
	l-0.1-0.4l-0.1-0.4l0-0.4l-0.1-0.4l-0.2-0.1L23.1,27L23,26.6l-0.3-0.3l-0.1-0.1l-0.2-0.4l-0.4-0.4l0,0l-0.6-0.2l-0.6-0.1l-0.2-0.1
	l-0.5-0.3l-0.2-0.1l-0.4-0.4l0,0v-0.4l-0.4-0.4l-0.2-0.4l0-0.4l0,0l-0.2-0.4l-0.5-0.4l0,0l-0.4-0.4l-0.2-0.1l-0.4-0.3l0-0.4l0.2-0.4
	L17.3,20l-0.1-0.4L17,19.2l-0.1-0.1l-0.3-0.3l0.1-0.4l0.2-0.3L17,18l0.1-0.4v-0.4l0-0.4l-0.1-0.4L17,16.1l0-0.4l-0.1-0.1l-0.2-0.3
	l-0.2-0.4l-0.3-0.2l-0.4-0.2l-0.2-0.3l-0.1-0.1l-0.2-0.4l-0.2-0.4L15,12.9l0,0l-0.3-0.4l-0.3-0.2L14,12.1l-0.3-0.3l-0.2-0.1
	l-0.4-0.4l0,0l-0.6-0.1L11.9,11l-0.1-0.1l-0.6-0.3l-0.1,0l-0.6-0.3l-0.2-0.1l-0.4-0.1L9.2,9.8L9.1,9.8L8.7,9.4L8.6,9l0-0.1L7.9,8.8
	L7.7,8.6L7.3,8.2l0,0L7.1,7.8L6.9,7.4L6.6,7l0,0L6,6.8L5.7,6.7L5.3,6.5L4.7,6.4L4,6.3l0,0L3.4,6.2L3.2,6.3L2.8,6.4l-0.6,0L1.8,6.3
	L1.5,6.1L0.9,5.9L0.8,5.6L0.8,5.5V5.1L0.7,4.7l0.1-0.3l0-0.1L1,3.9l0.3-0.4l0.1-0.3l0-0.1l0.1-0.4l0.1-0.4V2L1.5,1.8L0.8,1.6l0,0
	l0,0l0.1-0.4L0.8,0.8l0,0L0.7,0.4V0.2"/>
<path class="st0" d="M180,98.7h-0.3H179h-0.6h-0.6h-0.6l0,0l-0.6-0.1l-0.3,0.1l-0.3,0.1l-0.6,0.2l-0.2,0.1l-0.4,0.4l-0.1,0.1
	l-0.4,0.3l-0.2,0.1l-0.6,0h-0.6l-0.6,0l-0.2-0.1l-0.5-0.1l-0.6-0.2l-0.6,0l-0.5,0.2l-0.2,0l-0.1,0l0-0.4l0-0.4l0-0.4l-0.1-0.4
	l-0.3-0.4l-0.2-0.1l-0.6-0.1l-0.6,0.1l-0.6,0l-0.6-0.2l0,0l-0.6-0.4l-0.1,0l-0.6-0.3l0,0l-0.3-0.4l-0.2-0.4l-0.2-0.1l-0.6-0.3H163
	l0,0l-0.6-0.1l-0.6-0.2l-0.4-0.1L161,95l-0.4-0.2l-0.2-0.1l-0.6-0.2l-0.6,0l0,0l-0.4-0.4l-0.3-0.3l-0.1-0.1l-0.4-0.4l-0.1-0.1
	l-0.3-0.3l-0.4-0.2l-0.2-0.2l-0.4-0.3l-0.3-0.1l-0.4-0.3l-0.3-0.1l-0.3-0.1l-0.6-0.3l0,0l-0.6-0.2l-0.6,0l-0.6,0l-0.6-0.1l-0.6-0.1
	l-0.4-0.1l-0.3-0.2l-0.5-0.2l-0.2,0l-0.2,0l-0.4,0.1l-0.6,0l-0.6-0.1h-0.6l0,0l-0.6-0.1l-0.6-0.1l-0.4-0.3l-0.2-0.1l-0.5-0.3
	l-0.2-0.1l-0.5-0.3l-0.1-0.1l-0.3-0.3l-0.2-0.4l-0.1-0.4l-0.1-0.3l-0.1-0.1l-0.5-0.4l-0.1-0.1l-0.4-0.3l-0.2-0.2l-0.1-0.2l-0.5-0.3
	l-0.3-0.1l-0.3-0.1l-0.6,0l-0.4,0.1l-0.2,0l-0.6,0.2l-0.6,0l-0.6,0l-0.6,0.1l-0.3,0l-0.3,0.1l-0.6,0l-0.6,0.2l-0.6,0l-0.6,0.1
	l-0.1,0l-0.4,0.4l-0.2,0.1l-0.4,0.3l-0.2,0.1l-0.3-0.1l-0.3-0.1l-0.6,0l-0.6,0h-0.6l-0.6,0l-0.6,0l-0.4,0.1l-0.3,0.1l-0.6,0.2
	l-0.6,0.1l0,0l0,0l-0.6-0.1l-0.4-0.3l-0.1-0.4l0-0.4l0.2-0.4l0.3-0.3l0.1-0.1l0.5-0.1l0.6-0.1l0.6-0.1l0.4-0.1l0.2-0.1l0.4-0.3
	l0.2-0.2L130,85l0.1-0.1l0.6-0.1l0.2-0.2l0.5-0.4l0,0l0.4-0.4l0.2-0.4l0.1-0.1l0.2-0.3l0.4-0.4l0.1,0l0.5-0.3l0.2-0.2l0.3-0.2
	l0.4-0.3l0.2-0.1l0.5-0.3l0.1-0.1l0.4-0.4l0.2-0.2l0.2-0.2l0.1-0.4l-0.2-0.4l-0.1-0.4l-0.1-0.4l0,0l-0.1-0.4l-0.2-0.4l-0.2-0.4
	l-0.1-0.1l-0.2-0.3l-0.3-0.4l-0.1-0.1l-0.4-0.3l-0.2-0.2L133,76l-0.3-0.2l-0.2-0.2l-0.3-0.4l-0.1-0.2l-0.2-0.2l-0.5-0.4l0,0
	l-0.6-0.4l0,0l-0.6-0.3l-0.1-0.1l-0.5-0.4l0,0l-0.6-0.2l-0.6-0.2l0,0l-0.2-0.4l0.1-0.4l0.1-0.4l0.1-0.1l0.5-0.3l-0.5-0.2l-0.6,0.1
	l-0.5,0.1l-0.1,0l-0.6,0l-0.6,0l-0.2,0l-0.4,0l-0.6-0.1l-0.6-0.2l-0.6,0l-0.6,0.1l-0.6,0h-0.6l-0.6,0l-0.3,0.1l-0.4,0.2l-0.3,0.2
	l-0.4,0.3l-0.4,0.1l-0.3,0.2l-0.3,0.2l-0.4,0.1l-0.5,0.3l-0.1,0.1l-0.6,0.1l-0.6,0l-0.6-0.1l-0.4-0.1l-0.3-0.1l-0.6-0.2l-0.6,0
	l-0.5-0.1l-0.1,0l-0.5-0.4l-0.2-0.1l-0.6-0.2l-0.6,0l-0.6,0l-0.6,0l-0.6,0l-0.6,0l-0.6,0.1l-0.6,0.1l-0.6,0l-0.6-0.1l-0.5-0.1
	l-0.2,0l-0.6,0l-0.6-0.2l-0.2-0.1l-0.4-0.4l0,0l-0.3-0.4l-0.3-0.4l-0.1-0.2l0-0.2l0-0.1l0.5-0.3l-0.2-0.4l-0.2-0.4l-0.1-0.1
	l-0.4-0.3l-0.2-0.1l-0.6-0.3l0,0l-0.3-0.4l-0.3-0.1l-0.6-0.2L99.7,67l-0.5-0.4l0,0l-0.6-0.2L98,66.2l-0.2,0l-0.5-0.2l-0.6,0l-0.6,0
	l-0.6,0L95,65.8l-0.3-0.1l-0.6-0.1l-0.6,0.1l-0.1,0.1L92.8,66l-0.6,0l-0.6,0l-0.6,0l-0.6,0l-0.6,0L89,66l-0.6,0l-0.6,0.1l-0.1,0
	L87,66.3l-0.6,0.1l-0.3,0.1L85.8,67l-0.1,0l-0.6,0L84.5,67l-0.6,0.1l-0.6,0L82.5,67l-0.1,0l-0.6,0l-0.4,0L81.2,67l-0.6,0L80.2,67
	L80,66.9l-0.6,0l-0.6,0l-0.6,0l-0.6,0.1l-0.1,0l-0.5,0.1l-0.5,0.2l-0.1,0.4l-0.1,0.1l-0.6,0l-0.6,0l-0.6,0l-0.6,0l-0.6,0l-0.6,0.2
	l-0.3,0.1l-0.2,0.4v0.4l0,0.4l-0.1,0H71l-0.1,0L70.3,69l-0.2-0.1l-0.5-0.1l-0.5-0.2l-0.1,0l-0.6-0.1l-0.6,0l-0.6,0l-0.3,0.1
	l-0.3,0.1l-0.2-0.1l-0.4-0.4l0,0l-0.1-0.4l-0.1-0.4l0-0.4l-0.2-0.4l-0.2-0.2L65,66.2l0-0.4l0.2-0.3l0.1-0.1l0.2-0.4l0.1-0.4l0.2-0.4
	l0.1-0.4l-0.5-0.4l-0.2-0.3l0-0.1l0-0.4l0-0.4l0.1-0.1l0-0.3l0.1-0.4l0.1-0.4l0.2-0.4l0.2-0.2l0.1-0.1l0.5-0.4l0,0l0.6-0.2l0.6-0.1
	l0.3-0.1l0.3-0.2l0.4-0.2l0.2-0.3l0.2-0.1l0.5-0.3l0-0.1l0-0.4l-0.1-0.2l-0.1-0.2l-0.4-0.4l-0.1,0l-0.6-0.3L68,56.8l-0.3,0l-0.5-0.4
	L67.1,56l0,0l-0.6-0.4l-0.1,0l-0.6-0.3l-0.1-0.1l-0.2-0.3l-0.1-0.4l0-0.4l-0.2-0.4l0-0.4l0.2-0.4l0.3-0.2l0.6-0.2l0.1,0l0.6-0.2
	l0.5-0.2l0.1-0.1l0.6-0.3l0.1-0.1l0.4-0.3L69,51l0.3-0.1l0.4-0.3l0.1-0.1l-0.1-0.1l-0.4-0.3L69,50l-0.6-0.3l-0.1-0.1l-0.6-0.3
	l-0.2-0.1l-0.4-0.3l-0.2-0.1l-0.5-0.4l0,0L66,48.2L65.8,48l-0.3-0.2l-0.3-0.2l-0.6-0.2l0,0L64.2,47l-0.3-0.2l-0.6-0.2l0,0l-0.6-0.1
	l-0.6-0.1l-0.3-0.1l-0.3-0.1l-0.6-0.2l-0.3-0.1L60,45.7l-0.6-0.1l-0.6,0h-0.6l-0.6-0.1L57,45.4l-0.2,0l-0.2,0l-0.4,0.1l-0.6,0.1
	l-0.6,0l-0.6,0l-0.6,0l-0.6-0.1l-0.6-0.1l-0.6-0.1l-0.3,0L51,45l0,0l-0.1-0.4l-0.5-0.2l-0.6,0l-0.6,0.2l0,0.1L48.6,45l-0.2,0.2h-0.6
	l-0.6,0l-0.6,0l-0.6,0.1l-0.6,0.1l-0.6,0.1l-0.6,0l-0.6,0l0,0l-0.6,0L42,45.5l-0.6,0l-0.6,0l-0.4-0.1l-0.2,0l-0.6,0l0,0l-0.6,0.2
	l-0.6,0.1h-0.6l-0.6,0l-0.6,0l-0.6,0.1l-0.6,0.1l0,0L34.3,46l-0.6,0.1l-0.6,0l-0.4,0.1l-0.2,0.1l-0.6,0.2l-0.6,0.1h-0.6l-0.6-0.1
	l-0.6,0l-0.6,0l-0.6,0l-0.6,0.1l-0.3,0.1l-0.3,0.1l-0.6,0.1l-0.6-0.1l-0.6,0.1L24.1,47L24,47.1l-0.6,0.2l-0.6-0.1l-0.6,0h-0.6
	l-0.1,0.3l-0.3,0.4l-0.2,0.2l-0.1,0.2l-0.5,0.3l-0.3,0.1l-0.4,0.2l-0.2,0.2l-0.5,0.3l-0.1,0.1l-0.3,0.4l-0.2,0.1l-0.5,0.3l0.4,0.4
	l0.1,0.3l0,0.1l0,0.4l0,0l0,0l-0.6,0l-0.1,0l-0.6,0.2l-0.1,0.2l-0.1,0.4l-0.3,0.4l-0.2,0.2l-0.1,0.2l-0.1,0.4l0,0.4l0.1,0.1l0.6-0.1
	l0.6,0l0.6,0.2l0.4,0.2l0.2,0.1l0.6,0.2l0.3,0.1l0.3,0.2l0.1,0.2l0.1,0.4l0,0.4l0.1,0.4l0.3,0.2l0.6,0.2l0.1,0l0.5,0.1l0.6,0.2
	l0.2,0.2l0,0.4l0.4,0.4l0,0l0.1,0.4l-0.1,0.4l0,0l-0.6,0.3l0,0.1l0,0.4l0.1,0.2l0.2,0.2l-0.1,0.4l-0.1,0.2l0,0.2l-0.1,0.4l0,0.4
	l0.1,0.2l0.1,0.2l-0.1,0.2l-0.6-0.1L22,61.5l-0.5-0.1l-0.1,0.1L21,61.9l0,0.4l-0.2,0.2l-0.1,0.2L20.4,63l-0.1,0.4l0.3,0.4l0.2,0
	l0.6,0.3l-0.1,0.4l0.1,0.2l0.6-0.2l0,0l0,0l0.6,0.2L23,65l0.4,0.4l0.1,0l0.6,0.3l0.1,0l0.6,0.2l0.2,0.2l0.2,0.4l-0.4,0.3L24,66.9
	l-0.6,0l-0.6,0l-0.6,0l-0.6-0.2l-0.3-0.1l-0.3,0l-0.6-0.1l-0.4-0.3l-0.3-0.4l0,0l-0.6-0.3l-0.5-0.1l-0.2,0l-0.6-0.1l-0.6-0.2
	L16.7,65l-0.4-0.1l-0.6-0.3l0,0l-0.5-0.4L15,64.2l-0.5-0.3l-0.2-0.1l-0.6-0.3l-0.1-0.1L13.1,63l0,0l-0.6-0.3l0-0.1l-0.2-0.4
	l-0.3-0.4l0-0.1l-0.2-0.3l-0.4-0.3l-0.1,0l-0.6-0.3l-0.2-0.1l-0.5-0.4l-0.1,0l-0.3-0.4l-0.2-0.4l0-0.1l-0.1-0.3l0-0.4l0.1-0.4l0,0
	L9.3,58v-0.4l-0.1-0.2L9,57.2l-0.4-0.4l0,0l-0.3-0.4L8.5,56l0,0l0-0.4l0-0.1l-0.2-0.3l0-0.4l0.1-0.2l0-0.2l0,0l-0.6-0.2L7.4,54
	l-0.1,0l-0.5-0.4l0-0.4l-0.1-0.1L6,53l-0.6-0.1l-0.1,0l-0.6,0L4,52.7l-0.4-0.2l-0.2-0.3l-0.2-0.1L2.8,52l-0.5-0.3l-0.1-0.4l0,0
	L2,50.9l-0.2-0.4l-0.1-0.4l0.2-0.4l0.2-0.1l0.6-0.1l0.6,0L4,49.4l0.2,0l0.5-0.1l0.6,0L6,49l0.2-0.1v-0.4l0.1-0.4l0.3-0.4l-0.2-0.4
	L6.2,47l0-0.4L6,46.2l0-0.4l0.1-0.4L6.2,45l0.4-0.4l0,0l0.6-0.2l0.3-0.2l0.2-0.4l-0.2-0.4l-0.2-0.4l-0.1-0.2l-0.6,0.1l-0.1,0.2
	l-0.2,0.4l-0.2,0.4L6,44l-0.6,0.1l-0.6,0L4,44l-0.6-0.1l-0.6,0.3l-0.5-0.3l-0.2-0.2L2,43.5l-0.2-0.4L1.5,43l-0.6-0.2l-0.4-0.1
	l-0.3-0.3l-0.1-0.1L0,41.9l0.1-0.4l0.1-0.2l0.1-0.2l0.6-0.4l0.1,0l0.6-0.2l0.6-0.1l0.5-0.1l0.2,0l0.6-0.2l0.1-0.2l0.2-0.4l0.1-0.4
	l0-0.4l0.1-0.4L4,38.1L4.3,38l0.4-0.2l0.6-0.1L6,37.6l0.6,0l0,0l0.6-0.1l0.6-0.3l0-0.1l0.3-0.3l0.2-0.4l0.2-0.2L8.7,36l0.2-0.4
	l-0.2-0.4l-0.2-0.2l-0.2-0.2l-0.1-0.4l0-0.4l0.1-0.4l0.2-0.3l0.1-0.1l0.6-0.3l0.1,0l0.5-0.2l0.5-0.2l0.1-0.2l0.2-0.2l0.3-0.4
	l0.2-0.1l0.6-0.1l0.6,0l0.6,0l0.6-0.1l0.6,0l0.6,0l0.6-0.1l0,0l0,0l0.6,0.2l0.3,0.2l0.4,0.2l0.6,0.1l0.6,0.1l0,0l0.6,0.1l0.6,0.1
	l0.6,0l0.6-0.2l0,0l0.6-0.3l0.6-0.1l0,0l0.3-0.4l0.3-0.4l0,0l0.5-0.4l0.2-0.1l0.2-0.3l0.1-0.4l0.1-0.4L24,29l-0.2-0.4l-0.1-0.4
	l-0.1-0.4v-0.4l-0.3-0.3L23.2,27l-0.2-0.4l-0.4-0.4l0,0l-0.2-0.4l-0.4-0.4l-0.1,0l-0.6-0.2l-0.6-0.1l-0.1,0l-0.6-0.3L20,24.7
	l-0.5-0.4l0-0.4l0,0l-0.3-0.3l-0.2-0.4l0-0.4l0-0.1l-0.1-0.3l-0.5-0.4l-0.1-0.1l-0.4-0.3l-0.3-0.1l-0.3-0.2l0-0.4l0.3-0.4L17.4,20
	l-0.1-0.4l-0.2-0.4L16.9,19l-0.2-0.2l0.1-0.4l0.2-0.2l0.3-0.2l0.1-0.4v-0.4l-0.1-0.4l-0.1-0.4l-0.1-0.4l0-0.4l-0.1-0.3l-0.1-0.1
	l-0.2-0.4l-0.4-0.2l-0.3-0.2l-0.3-0.4l0,0l-0.2-0.4l-0.2-0.4L15,12.9l0-0.1l-0.3-0.3l-0.4-0.2l-0.3-0.2l-0.4-0.3l-0.1-0.1l-0.5-0.4
	l0,0l-0.6-0.1L12,11l-0.2-0.1l-0.6-0.3l0,0l-0.6-0.3l-0.1,0l-0.5-0.1L9.2,9.8l0,0L8.8,9.4L8.6,9L8.5,8.9L7.9,8.7L7.7,8.6L7.3,8.2
	L7.3,8.1L7.2,7.8L7,7.4L6.7,7L6.6,7L6,6.7L5.8,6.7L5.3,6.4L4.7,6.3L4.4,6.3L4,6.2L3.4,6.2L3.1,6.3L2.8,6.4l-0.6,0L1.9,6.3L1.5,6.1
	L1,5.9L0.8,5.5l0,0V5.1L0.7,4.7l0.1-0.2l0.1-0.2l0.2-0.4l0.3-0.4l0.1-0.1l0.1-0.3l0.1-0.4l0.1-0.4L1.8,2L1.5,1.7L1.2,1.6L1,1.2
	L0.9,0.8L0.8,0.6L0.8,0.4V0.2"/>
</svg>
