<?xml version="1.0" encoding="utf-8"?>
<!-- Generator: Adobe Illustrator 27.9.0, SVG Export Plug-In . SVG Version: 6.00 Build 0)  -->
<svg version="1.1" id="Layer_1" xmlns="http://www.w3.org/2000/svg" xmlns:xlink="http://www.w3.org/1999/xlink" x="0px" y="0px"
	 viewBox="0 0 180 100" style="enable-background:new 0 0 180 100;" xml:space="preserve">
<style type="text/css">
	.st0{opacity:0.3;fill:none;stroke:#7E85B1;stroke-width:0.5;stroke-linejoin:round;}
	.st1{opacity:0.3;fill:none;stroke:#BCFD42;stroke-width:0.5;stroke-linejoin:round;}
</style>
<path class="st0" d="M96.2,77l-1.4-0.6L93.1,77l1.7,0.7L96.2,77z"/>
<path class="st0" d="M96.2,77l-1.4-0.6L93.1,77l1.7,0.7L96.2,77z"/>
<path class="st0" d="M114.3,99.1v-1.3l-1.1-1l-2.1-1.1l-1.6-0.5l-0.5-0.5l-2.1-0.8l-2.1,1.3l-2.1-1.8l-2.1-0.7l-0.4-0.1l-1.6-0.9
	l-2.1-1l-2.1-0.5l-1-0.2l1-0.9l2.1-1.1l0.6-0.7l1.4-1.6l1-1l1-0.2l2.1-0.3l2.1-1.4l0.6-0.7l0.8-2.6l-1.4-2l-0.2-0.6l-1.2-2.6
	l1.4-0.6l0.6,0.6l1.4,2.2l0.2,0.4l0.2,2.6l1.7,1.8l1.3,0.8l0.7,0.8l2.1,1.7l0,0l1.9,2.6l0.1,0.6l0.2,2l0.7,2.6l1.1,2.4l0.1,0.2
	l1.9,2.1l0.8,0.5v1.3"/>
<path class="st0" d="M76.6,69.2l-0.3-0.3l-2.1-0.7L72.2,69l-0.1,0.2l0.1,0.8l0.6,1.8l1.5,1.4l2.1-0.7l1.1-0.6L76.6,69.2z"/>
<path class="st0" d="M51.9,99.1v-1.3l-0.2-0.5l-2.1-1.8l-2.1-0.2l-0.1-0.1l0.1-0.1l2.1-0.1l2.1-2.2l0-0.2l0-0.5L51.3,90l0.4-1.6
	l2.1-0.1l2.1,0.7l2.1,0.4l2.1-0.1l2.1-1.1l0.4-0.8L61.9,87l-2.1-1.9l-0.3-0.3l0.3-2.6l0,0l1.3-2.6l0.1-2.6l-1.4-0.5l-2.1,0.1
	L55.8,76l-2.1-1.2l-0.4-0.4l-0.7-2.6l-0.5-2.6l-0.5-2.1l-0.2-0.5l-1.9-0.8l-2.1,0.1l-2.1,0.2l-2.1,0.1l-2.1,0L40,66.5l1.4,2.4
	l0.1,0.2l2,1.3l1.2,1.3l-1.2,2.3l-0.2,0.3l0.2,0.4l1.5,2.2l0.6,1.8l0.3,0.8l-0.3,0.2l-2.1,1.7l-0.6,0.7l-1.1,2.6l0.7,2.6L41.9,90
	l-0.5,1.4L41,92.6l-1.6,2.6l-0.2,0l-1.9,0.5L37,95.2l-1.8-1.2l-1.7-1.4l-0.3-2.4l0-0.2l-0.6-2.6l-1.1-2.6l-0.3-0.2l-2.1-1.5L27,82.6
	l-0.9,2.2L25,87.4l0,0l-2.1,1.7L21.2,90l-0.3,0.3l-1.4,2.3l-0.7,0.7l-2.1,0.3l-1.2-1L15.2,90L15,87.4l-0.3-2.6l0,0l-2.1-2.5
	l-0.9,2.5l0,2.6L12,90l0.6,1.3l1.2,1.3l0.2,2.6l-0.4,2.6v1.3"/>
<path class="st0" d="M53.4,99.1v-1.3L52,95.2l0.7-2.6l0.6-2.6l0.5-0.3l1.1,0.3l0.9,0.3l2.1,0.5l2.1,0l2.1-0.1l1-0.7l1.1-2.2l0.3-0.4
	L64,87.2l-2.1-2.3l-0.1-0.1l-0.5-2.6l0.6-1.1l1.1-1.5l0.9-1.4l2.1-0.6l2.1-0.3l2.1,0L72,77l0.2-0.2l2.1-0.9l2.1-1.4l0.1-0.1l2-1.3
	l2.1-1.2l0.1-0.1l-0.1-0.1l-2.1-2.3l-0.1-0.2l-2-2l-2.1-0.3l-2.1,0.6l-1.5,1.8l0.6,2.6l-0.7,2.6l-0.5,0.7L68.1,76L66,76.1L64,76.3
	l-2.1-0.9L59.9,75l-2.1,0.2l-2.1-0.7l-0.2-0.1l-0.9-2.6l-0.9-2.5l0-0.1l-1.1-2.6l-1-1.5l-2.1-0.3L47.6,65l-2.1,0.2l-2.1-0.1
	l-2.1-0.4l-1.2-0.8l-0.9-0.6l-2.1-0.6l-0.5,1.2l0.5,2.3l0.1,0.3l1.6,2.6l0.3,0.3l2.1,1.3l1.5,1l-1.5,1.7l-0.6,0.9l0.6,2.2l0.2,0.4
	l1.8,2.6l-2,2.4l-0.1,0.2l-1,2.6l0.5,2.6L40.4,90l-0.9,2.6l-0.2,0.2l-2.1-0.1l-0.2-0.1l-1.9-1.4L34.7,90l-0.8-2.6l-0.7-2.2L33,84.8
	l-1.9-1.4l-1.5-1.3l-0.6-0.6L27,81l-1,1.2l-0.9,2.6L25,85l-1.6,2.3l-0.4,0.4l-2.1,0.7L19.3,90l-0.4,0.7L16.8,91L16.4,90L16,87.4
	l-0.2-2.6l-1.1-2.3l-0.3-0.3L14,79.6l0.2-2.6l-1.6-0.5L12.3,77l-0.4,2.6l-0.6,2.6l-0.7,2l-0.1,0.6l0,2.6l0.1,0.7L11,90l1.2,2.6
	l0.5,1.4l0.4,1.2l-0.2,2.6v1.3"/>
<path class="st0" d="M86.5,61.3l-2-0.4l-1.1,0.4l1.1,1L86.5,61.3z"/>
<path class="st0" d="M55.2,99.1v-1.3l-1.5-2.5l-0.1-0.1l0.1-0.4l0.8-2.2l1.2-0.5l2.1,0.2l2.1-0.1l2.1,0.1l2.1-1.3l2.1-0.5l2.1,0.5
	l1.3-1.1l-0.9-2.6l-0.4-0.2L66,85.9l-1.5-1.2L64,83.5l-0.4-1.4l0.4-0.6l2.1-1.7l1-0.3l1.1-0.2l2.1,0.2l2.1-0.1l2.1-0.3l2.1-0.9
	l1.5-1.2l0.6-0.6l2.1-1.4l0.7-0.6l1.3-2.3l0.1-0.3l-0.1-0.1l-1.9-2.5l-0.2-0.2l-1.6-2.4l0.1-2.6l-0.5-2l-2.1,0.1l-2.1,1.2l-0.7,0.7
	l-1.3,1l-2.1,1.4l-0.3,0.2L69,69.2l0.6,2.6l-1.5,1.4L66,73.8L64,74.1l-2.1-0.7l-2.1-0.1l-2.1-0.2l-1.1-1.3l0.1-2.6l-1-0.8l-1.6-1.8
	l-0.5-0.8l-1.1-1.8l-1-0.7l-2.1,0.1l-2.1,0.5l-0.8,0.1L45.5,64l-0.6-0.1l-1.4-0.2l-2.1-0.9l-1.9-1.4l-0.1-0.1l-2.1-1.6l-2.1,1.3
	L35,61.3l0,2.6l0.3,0.9l0.5,1.7l0.6,2.6l0.6,2.6l0.2,2.6l0.1,0.3l0.8,2.3l1.2,1.5l0.7,1.1l-0.7,2.5l0,0.1l-0.9,2.6l-0.1,2.6
	l-1.1,1.9l-1.8-1.9l-0.2-0.2l-0.8-2.4L33.2,83l-1.4-0.8l-0.7-0.4l-2.1-2.2l-0.1,0L27,79l-0.5,0.5L25,81.3l-0.5,0.9l-0.9,2.6
	l-0.6,0.9l-2.1,0.7L18.8,87l-1.3-2.2l-0.8-1.6l-0.4-1l-0.1-2.6L16.2,77l-1.3-2.6L14.7,74l-1,0.3l-1.1,0.1l-2,2.5l0,0.2l-0.4,2.4
	l-0.4,2.6l-0.5,2.6l-0.2,2.6L9.5,90l1.1,2.5l0,0.1l0.9,2.6l-0.2,2.6v1.3"/>
<path class="st0" d="M54.4,99.1v-1.3l-0.7-1.2l-0.8-1.4l0.4-2.6l0.4-1.1l2.1-0.2l2.1,0.3l2.1,0l2.1,0l2.1-1.4l1-0.3l1-1.8l0.3-0.8
	L66,87.2L64,85.6l-0.7-0.8l-0.8-2.6l1.5-2l0.8-0.6l1.3-0.7l2.1-0.4l2.1,0.1l2.1-0.3l2.1-0.5l1.9-0.8l0.1-0.1l2.1-2.2l0.4-0.3
	l1.6-0.8l1.2-1.8l-1.2-1.6l-0.9-1l-1.2-1.8l-0.9-0.8l-1.1-2.1l-2.1,0.5l-2.1,1.2l-0.7,0.4L70.2,68l-0.4,1.2l0.4,1.5l0.3,1.1
	l-0.3,0.8L68.1,74l-1.4,0.4L66,74.6L64,75l-1.4-0.7l-0.7-0.2L59.9,74l-2.1,0.1L56,71.8l-0.2-1.2l-0.3-1.4l-1.7-1.9l-0.3-0.7
	l-1.7-2.6l-0.1-0.1L50,63.9l-0.4,0l-2.1,0.4l-2.1,0.1l-2.1-0.2l-1.4-0.4l-0.6-0.3l-2.1-1.5l-1.3-0.8l-0.8-0.6l-1,0.6l-0.5,2.6
	l0.7,2.6l0.8,2.6l0,0.1l2.1,2l1,0.4l-1,1.6l-0.3,1l0.3,1.1l0.4,1.5l1.6,2.6l-1.1,2.6l-0.9,2.2l-0.1,0.4l0.1,1.6l0.1,1l-0.1,1.3
	L39.1,90l-1.7,0.9L36.2,90l-1-1l-0.6-1.6l-0.8-2.6l-0.6-0.9l-2.1-1.3l-0.5-0.4l-1.6-1.7L27,79.9l-1.9,2.2L25,82.5l-0.7,2.2l-1.3,1.8
	l-2.1,0.5l-0.6,0.2l-1.4,1.2l-2.1-1.1l0-0.2l-0.1-2.6l-1.1-2.6l-0.2-2.6l0.1-2.6l-0.7-1.4l-2.1-0.1L11.4,77l-0.5,2.6l-0.3,1
	l-0.3,1.6l-0.5,2.6l-0.1,2.6l0.5,2.6l0.4,1l0.7,1.6l0.9,2.6l-0.2,2.6v1.3"/>
<path class="st0" d="M61.9,99.1v-1.3l-1.7-2.6l1.7-0.3l2.1-0.8l2.1-0.5l2.1,0.5l2.1-0.6l2.1-0.2l2.1,0.9l2.1-0.2l2.1-1.4l0.2-0.1
	l1.8-1l2.1-0.1l1.7-1.5l-1.7-1.9l-1.4-0.7l-0.7-0.2l-2.1-1l-2.1-0.1l-2.1,0.4l-2.1-0.7l-1.6-1l1.6-2.5l0.9-0.1l1.1,0l2.1-0.4
	l2.1-0.7l2.1,0l2.1-0.5l1-1l0.9-2.6l0.2-0.1l0.3,0.1l1.8,1.8l0.6,0.8l1.5,1.1l1.4-1.1l0.3-2.6l0.3-0.7l2.1,0.4l0.6-2.3l-0.6-0.5
	l-2.1-0.6l-1.4-1.5l-0.6-0.3L86.6,71l-2.1-0.6l-1-1.2l-1.1-1.6l-0.7-1l0.7-1.5l2.1,0l2.1,0.1l1.9-1.3L88,61.3l-1.4-1.6L84.5,59
	l-2.1,0.3L80.4,59l-0.5-0.3l-1.5-0.8l-2.1-0.3l-2.1,0.7l-0.5,0.4l-1.6,0.6l-1.4,2l-0.7,1.3l-1.5,1.3l-0.5,0.3l-1.5,2.3l-0.4,2.6
	l-0.2,1l-1.6,1.6L64,71.8l-0.2-0.1l-1.9-1.3l-1.3-1.3l-0.2-2.6l-0.6-0.7l-2.1-0.6l-2.1-1l-0.1-0.2l-1.9-2l-1.3-0.7L51.7,61l-2.1,0.2
	L49,61.3l-1.5,0.3l-2.1,0.2L44,61.3l-0.5-0.2l-2.1-1.5l-0.9-0.9l-1.1-1.4l-2.1-1l-2.1,1l-1.5,1.4l-0.6,0.9l-0.8,1.7l0,2.6l0.6,2.6
	l0.3,1.2l0.3,1.5l0.3,2.6l0,2.6l0.6,2.6l0.8,2.4l0.1,0.2l-0.1,0.2l-2.1,0.2l-0.7-0.3l-1.4-1.1L30.2,77l-1.1-1.4L27,75.9L26,77
	l-1,0.9l-1.6,1.7l-0.4,0.9l-1.3,1.7l-0.8,0.8l-1-0.8l-0.6-2.6L19,77l-0.2-2.4l0-0.2l0,0l2.1-2.3l0.1-0.3l-0.1-0.2l-2.1-1.1l-1.6-1.2
	L16.8,69l-2.1-0.5l-1.6,0.7l-0.5,0.4l-1.1,2.2l-0.9,1.6l-0.7,1l-1.4,2.1L8.2,77l-0.4,2.6l-0.6,2.6l-0.6,2.6l-0.1,0.7l-0.3,1.9
	l0.3,2.3l0,0.3l0.6,2.6l1.2,2.6l0.2,2.6v1.3"/>
<path class="st0" d="M61.9,99.1v-1.3l-1.7-2.6l1.7-0.3l2.1-0.8l2.1-0.5l2.1,0.5l2.1-0.6l2.1-0.2l2.1,0.9l2.1-0.2l2.1-1.4l0.2-0.1
	l1.8-1l2.1-0.1l1.7-1.5l-1.7-1.9l-1.4-0.7l-0.7-0.2l-2.1-1l-2.1-0.1l-2.1,0.4l-2.1-0.7l-1.6-1l1.6-2.5l0.9-0.1l1.1,0l2.1-0.4
	l2.1-0.7l2.1,0l2.1-0.5l1-1l0.9-2.6l0.2-0.1l0.3,0.1l1.8,1.8l0.6,0.8l1.5,1.1l1.4-1.1l0.3-2.6l0.3-0.7l2.1,0.4l0.6-2.3l-0.6-0.5
	l-2.1-0.6l-1.4-1.5l-0.6-0.3L86.6,71l-2.1-0.6l-1-1.2l-1.1-1.6l-0.7-1l0.7-1.5l2.1,0l2.1,0.1l1.9-1.3L88,61.3l-1.4-1.6L84.5,59
	l-2.1,0.3L80.4,59l-0.5-0.3l-1.5-0.8l-2.1-0.3l-2.1,0.7l-0.5,0.4l-1.6,0.6l-1.4,2l-0.7,1.3l-1.5,1.3l-0.5,0.3l-1.5,2.3l-0.4,2.6
	l-0.2,1l-1.6,1.6L64,71.8l-0.2-0.1l-1.9-1.3l-1.3-1.3l-0.2-2.6l-0.6-0.7l-2.1-0.6l-2.1-1l-0.1-0.2l-1.9-2l-1.3-0.7L51.7,61l-2.1,0.2
	L49,61.3l-1.5,0.3l-2.1,0.2L44,61.3l-0.5-0.2l-2.1-1.5l-0.9-0.9l-1.1-1.4l-2.1-1l-2.1,1l-1.5,1.4l-0.6,0.9l-0.8,1.7l0,2.6l0.6,2.6
	l0.3,1.2l0.3,1.5l0.3,2.6l0,2.6l0.6,2.6l0.8,2.4l0.1,0.2l-0.1,0.2l-2.1,0.2l-0.7-0.3l-1.4-1.1L30.2,77l-1.1-1.4L27,75.9L26,77
	l-1,0.9l-1.6,1.7l-0.4,0.9l-1.3,1.7l-0.8,0.8l-1-0.8l-0.6-2.6L19,77l-0.2-2.4l0-0.2l0,0l2.1-2.3l0.1-0.3l-0.1-0.2l-2.1-1.1l-1.6-1.2
	L16.8,69l-2.1-0.5l-1.6,0.7l-0.5,0.4l-1.1,2.2l-0.9,1.6l-0.7,1l-1.4,2.1L8.2,77l-0.4,2.6l-0.6,2.6l-0.6,2.6l-0.1,0.7l-0.3,1.9
	l0.3,2.3l0,0.3l0.6,2.6l1.2,2.6l0.2,2.6v1.3"/>
<path class="st0" d="M59.3,99.1v-1.3l-0.9-2.6l1.4-0.4l2.1-0.3l2.1-0.9l2.1-0.5l2.1,0.7l2.1-0.7l2.1-0.3l2.1,1l2.1-0.3l1.3-0.9
	l0.7-0.8l2.1-1l2.1-0.4L83,90l-0.5-0.6l-2.1-1l-1-1l-1-0.5l-2.1-0.2l-2.1,0.5l-2.1-0.7l-2.1-1.4l-0.5-0.3l-1.1-2.6l1.6-0.2l2.1-0.2
	l2.1-0.1l2.1-0.4l2.1-0.7l2.1,0l2.1-0.6l0.4-0.3l0.5-2.6l1.2-0.7l1.5,0.7l0.5,0.5l1.6,2.1l0.5,0.3l0.4-0.3l0.5-2.6l1.2-2.5l0.6-0.1
	l-0.6-0.1l-2.1-2l-0.8-0.6l-1.3-0.3l-2.1-0.6l-1.5-1.8l-0.6-0.9l-1.2-1.7l1.2-2.5l2.1,0.5l2.1,0.3l1.3-0.9l-0.3-2.6l-1-1.1l-2.1-0.6
	L82.5,60l-2.1-0.4l-1.6-0.9l-0.4-0.2l-2.1-0.1l-0.7,0.3l-1.4,0.5l-2.1,0.9l-0.8,1.1l-1.3,2.4l-0.3,0.2l-1.8,1l-1,1.6l-0.4,2.6
	l-0.3,2.6L66,71.9L64,72.2l-1.2-0.4l-0.8-0.6l-2-2l-0.1-2.6l0,0l-2.1-0.7l-2.1-0.9l-0.6-1l-1.5-1.5l-2.1-1l-2.1,0.1L47.6,62
	l-2.1,0.2l-2.1-0.6l-0.4-0.2l-1.6-1.2l-1.5-1.4l-0.5-0.7l-2.1-1.2l-2.1,1l-1,0.9l-1.1,1.7l-0.4,0.9l0,2.6l0.4,1.8l0.2,0.8l0.5,2.6
	l0.3,2.6l0,2.6L35,77l0.3,0.8l1.1,1.8l-1.1,1.8l-2.1-1l-1.6-0.8l-0.4-0.4L29.7,77l-0.6-0.8L27,76.4L26.5,77L25,78.4l-1.1,1.2
	l-0.9,1.9l-0.6,0.7l-1.5,1.5L19,82.2l-0.2-1l-0.2-1.6L18.5,77l-0.4-2.6l0.7-2l0.6-0.7l-0.6-0.3l-2.1-1.7l-1.5-0.5L14.7,69l-0.3,0.1
	l-1.8,1.5l-0.6,1.1l-1.5,2.5l-0.1,0.1L8.7,77l-0.1,2.2l0,0.4l-0.7,2.6l-0.8,2.6l-0.3,2.6L7.1,90l0.8,2.6L8.6,94L9,95.2l0,2.6v1.3"/>
<path class="st0" d="M57.4,99.1v-1.3l-1.2-2.6l1.6-0.5l2.1-0.5l2.1-0.2l2.1-1l1.8-0.4l0.2,0l0.1,0l1.9,0.8l1.9-0.8l0.2-0.2l2.1-0.6
	l0.8,0.8l1.2,0.6l2.1-0.4l0.3-0.2l1.7-1.9l1.8-0.7l-1.8-1.6l-2.1-0.8L74.3,88l-1.7-0.6l-0.4-0.1l-2.1-1.4l-1.6-1.1L68.1,84l-1.3-1.8
	l1.3-0.6l2.1-0.2l2.1-0.1l2.1-0.1l2.1-0.5l2.1-0.8l2.1,0.1l1-0.3l0.8-2.6l0.3-0.3l2.1-1.2l2.1,0.6l2-1.7l-2-1.8l-1.5-0.8l-0.6-0.1
	l-2-2.5l0,0l-1.8-2.6l1-2.6l0.8-1.5l1.8,1.5l0.2,0.1l2.1,0.4l0.6-0.4l-0.1-2.6l-0.5-0.6l-2.1-0.5l-2.1,0.6l-2.1-0.5l-2.1-1.1l-2.1,0
	l-2.1,0.9l-2.1,1.1l-0.1,0.1l-1.4,2.6l-0.6,0.5l-2.1,1.4l-0.5,0.7l-0.4,2.6l0,2.6L66,72.3L64,72.6l-2.1-0.7l-2.1-0.1l-0.1,0
	l-0.5-2.6L58,66.5l-0.2-0.1l-2.1-0.6l-1.2-1.9L53.7,63l-2.1-1.2L49.6,62l-2.1,0.5l-2.1,0.2L43.5,62l-1.3-0.7l-0.8-0.6l-2.1-1.9
	l-0.2-0.2l-1.9-1.3l-2.1,1l-0.3,0.3l-1.6,2.6l0,2.6l0.7,2.6l0.5,2.6l0.2,2.6l0.1,2.6l0.5,1.7l0.4,0.9l1.7,2.4l0.2,0.2l0,2.6
	l-0.2,0.7L35.3,83l-0.5-0.8L33.2,81l-2.1-1.1l-0.3-0.3L29.1,77l0-0.1L28.4,77L27,77L25,79l-0.6,0.6l-1.3,2.6l-0.1,0.4l-2.1,2
	l-2.1-1.4l-0.5-1l-0.2-2.6L17.9,77l-0.7-2.6l0.8-2.6l-1.3-1.1l-2.1-0.7l-1.9,1.8l-0.1,0.1l-1.6,2.5l-0.4,0.5L9.1,77l-0.2,2.6
	l-0.3,2.6l0,0l-0.9,2.6l-0.3,2.6L7.8,90l0.8,2.1l0.2,0.5l1,2.6l-0.1,2.6v1.3"/>
<path class="st0" d="M56.6,99.1v-1.3l-0.8-1.5l-0.6-1.1l0.6-1l2.1-0.3l2.1-0.3l2.1,0l1.7-0.9l0.4-0.2l2.1-0.4l1.4,0.7l0.6,0.2
	l0.6-0.2l1.5-1.2l2.1-0.8l2.1,1.9l2.1-1.3l1.3-1.3l-1.3-1l-2.1-0.1l-2.1,0.1l-1-1.5l-1-0.7l-2.1-1.4l-0.9-0.6L66,83.2l-0.5-1
	l0.5-0.5l2.1-0.9l2.1-0.1l2.1-0.1l2.1-0.2l2.1-0.6l0.8-0.3l1.2-0.8l2.1-0.7l0.5-1.1l1.6-1.3l2.1-1l2.1,0l0.3-0.3L86.6,74l-2.1-0.6
	L84,71.8l-1.5-1.8l-0.6-0.8L80.4,67l-0.3-0.5l0.3-1.7l0.3-0.9l0.6-2.6l-0.9-0.3l-2.1-1.2L76.3,60l-2.1,1l-0.6,0.3l-1.5,1.3l-0.7,1.3
	L70.2,65l-1.9,1.5l-0.2,1.1l-0.2,1.5l0.2,2l0.1,0.6l-0.1,0.1l-2.1,1L64,73.1l-2.1-0.7l-2.1-0.1l-1.6-0.5l0.3-2.6l-0.8-1.4l-2.1-0.9
	l-0.2-0.2L54,63.9l-0.3-0.3l-2.1-1.4l-2.1,0.1l-2.1,0.5L45.5,63l-2.1-0.4l-2.1-1.1l-0.1-0.1l-1.9-1.7l-1.1-0.9l-0.9-0.7l-1.4,0.7
	l-0.7,0.4l-1.4,2.2l0,2.6l0.8,2.6l0.5,2.6l0.2,2.6l0,1.2l0.1,1.4l1,2.6l1,1.4l1,1.2l-0.2,2.6l-0.7,2.6l0,0.2l-0.5-0.2l-1.5-0.3
	l-1.3-2.3l-0.7-0.6l-2.1-1.1l-0.9-0.9l-1.2-1.8L27,77.7l-2,1.9L25,79.6l-1.5,2.5l-0.6,1.6l-1.1,1l-0.9,0.4l-1.6-0.4l-0.5-0.3
	l-1.1-2.3l-0.2-2.6L17.3,77l-0.6-1.7l-0.4-0.9l0.4-2.4l0-0.2l0,0L14.7,71l-0.8,0.8l-1.3,0.9l-1.1,1.7l-1,1.2l-1,1.4l-0.3,2.6L9,82.2
	l-0.4,1.9l-0.2,0.7L8,87.4L8.5,90l0.1,0.2l0.8,2.4l1.2,2.6l-0.2,2.6v1.3"/>
<path class="st0" d="M55.9,99.1v-1.3l-0.1-0.2l-1.3-2.4l1.3-2.1l2.1,0.1l2.1-0.2l2.1,0.1l0.8-0.4l1.2-0.8l2.1-0.5l2.1,0.8l2.1-1.7
	l1.1-0.5l-1.1-2.1L70,87.4l-1.9-1.3L66,84.8l-0.1-0.1l-1.3-2.6l1.5-1.3l2.1-0.7l2.1,0.1l2.1-0.1l2.1-0.2l1.2-0.4l0.9-0.4l2.1-1.4
	l1.2-0.8l0.9-0.6l2.1-1.6l0.8-0.3l0.1-2.6l-0.9-1.1l-1.2-1.5l-0.9-1.3l-0.9-1.3l0.4-2.6l-0.2-2.6l-1.3-0.8l-2.1,0.2l-1.1,0.6
	L74.3,62l-2,2L72.2,64l-2.1,1.6l-1.2,1l-0.6,2.6l0.4,2.6l-0.7,0.6L66,73.2L64,73.5l-2.1-0.7l-2.1-0.1l-2.1-0.5l-0.4-0.5l0.4-2.1
	l0.1-0.5l-0.1-0.2l-2.1-1.5L55,66.5l-1.3-2.1l-0.3-0.5l-1.7-1.2l-2.1,0.1l-2.1,0.5l-2.1,0.1l-2.1-0.4L41.4,62l-0.9-0.7l-1.1-1
	l-2-1.6l0,0l-0.1,0l-2,1.2l-0.9,1.4l0,2.6l0.8,2.6l0.1,0.7l0.4,1.9l0.3,2.6l0.2,2.6L37,77l0.3,0.5l1.7,2.1l-0.4,2.6l-0.8,2.6
	l-0.4,2.6l-0.1,0.2l-0.2-0.2l-1.8-1.7l-0.3-0.9l-1.7-2.6l-0.1,0l-2-1.1l-1.4-1.5l-0.6-1L27,78.3l-1.3,1.3L25,80.4l-1.1,1.8l-1,2.6
	l0,0l-2.1,0.9l-2.1-0.1l-0.5-0.8l-1.2-2.6L17,79.6l-0.2-2.5l0-0.1l-1-2.6l-1-2.2l-2.1,1.4l-0.5,0.8l-1.5,1.8L10.1,77l-0.4,2.6
	l-0.4,2.6l-0.5,2.6l-0.2,2.6L9,90l1,2.6l0.7,1.5l0.4,1.1l-0.2,2.6v1.3"/>
<path class="st0" d="M113.3,58.7L113.3,58.7h-0.2l0.1,0.2L113.3,58.7z"/>
<path class="st1" d="M77.6,99.1v-1.3l0.8-0.2l2.1-1.8l2.1-0.1l1-0.4l1-0.1l2.1-1.3l1.1-1.2l0.6-2.6l-1-2.6l-0.1-2.6l1.4-0.2l2.1-0.2
	l2.1-0.4l2.1-1.1l2.1-0.7l0.2-0.1l1.9-0.5l2.1-0.3l2.1-1l0.5-0.8l-0.5-2.1l-0.2-0.5l-1.8-1.3l-2.1-0.9l-0.8-0.4l-1.2-0.6L94.8,72
	l-0.4-0.3l-1.7-1.2l-2.1-1l-0.8-0.4l0.4-2.6l0.4-2.2l0-0.4l0-0.3l-0.3-2.3L89,58.7l-0.4-0.4l-2.1-1.5l-2.1-0.7l-0.2,0l-1.9-0.9
	l-2.1-1l-0.7-0.6l-1.3-1.2l-2.1,0l-2.1,0.4l-2.1-0.1l-2.1,0.5l-0.4,0.4l-1.5,2.6l-0.1,0.2L67,58.7l-1,1.2l-1.2,1.4L64,63.1l-2.1-0.4
	l-2.1-1l-0.7-0.5l-1.3-1.3l-2.1-1.3l-0.2-0.1l-1.9-1l-2.1-0.4L49.6,57L47.6,57l-2.1,0.7l-2.1-0.7l-0.9-0.8l-1.2-1.5l-1.3-1.1
	l-0.8-0.7l-2.1,0l-1.4,0.7l-0.7,0.3l-2.1,1.5l-0.8,0.9l-1.3,1.5l-0.7,1.1l-0.9,2.6l0.1,2.6l0.3,2.6l0.5,2.6l0.6,2.2l0.1,0.4L31.1,72
	l-2.1,0.3L27,72.6L25,73.7l-0.4-1.9l-0.4-2.6l-1.3-2.3l-0.6-0.3l-1.4-0.7l-2.1,0.1l-2.1-0.5l-2.1-1L12.7,65l-1.7,1.5l-0.3,0.3
	l-2.1,1.1l-2.1,1l-0.2,0.2l0.2,1.4l0.1,1.2L6.5,72l-1.9,2.4l-0.1,0.1L2.8,77l-0.4,0.9l-0.7,1.7l-0.1,2.6l-0.7,2.6l-0.6,1.7L0,87.4
	l0.3,1.7L0.5,90l0.9,2.6l0.9,2.6l-0.4,2.6v1.3"/>
<path class="st0" d="M180,76.4h-1l-2.1,0.2l-1.8,0.4l-0.3,0.2l-2.1,0.9l-2.1,0.1l-2.1,0l-2.1,0.1l-2.1-0.6l-1.1-0.8l-0.9-0.9
	l-2.1-1.2l-1.1-0.6l-0.9-0.2l-2.1-0.3l-2.1-0.1l-2.1-0.3l-2.1-0.3l-2.1-0.3l-2.1-0.6l-0.9-0.5l-0.5-2.6l0.9-2.6l0.5-1l0.8-1.6
	l-0.2-2.6l-0.7-1.9l-0.2-0.7l-1.2-2.6l-0.6-0.8l-2.1-0.2l-1.5,0.9l-0.6,0.4l-2.1,1.7l-1.8-2.2l-0.3-0.4l-2.1-1.7l-2.1-0.2l-0.5-0.3
	l-1.6-1.3l-2.1-0.9l-2.1-0.1l-2,2.3l0.5,2.6l0,2.6l0.3,2.6l-0.1,2.6l-0.7,0.5l-2.1-0.2l-0.3-0.3l-1.7-1.1l-1.4-1.5l-0.6-0.4
	l-2.1,0.1l-0.4,0.3l0.4,0.4l1.1,2.2l1,1l1.5,1.6l0.6,1l2.1,1.3l0.9,0.3l1.1,2.4l0,0.2l0,1.3l0,1.3l0,0.7l2.1,0.5l2.1-0.3l2.1-0.1
	l2.1,1l0.6,0.8l0,2.6l0.3,2.6l1.2,1.1l2.1,0.1l2.1-1l2.1,0.8l1.4,1.5l0.7,0.9l2.1,0.4l2.1-0.3l2.1-0.7l2.1,0.2l2.1,1.7l0.8,0.5
	l1.2,0.8l2.1,0l2.1-0.2l2.1,0.1l2.1,0.7l2.1,0.2l2.1-0.1l2.1,0.3l2.1,0.8l0,0l2.1,1l2.1,0.7l1.7,0.9l0.3,0.2l2.1,0.4h1"/>
<path class="st0" d="M129.2,53.5l-1.5-0.7l-2.1,0.3l-0.4,0.4l0.1,2.6l-0.2,2.6l0.5,2.6l0,0l2.1,2.3l0.2,0.3l-0.2,0.3l-2.1,1.5
	l-1.6,0.8l0.6,2.6l-0.2,2.6l1.2,2.5l0.6,0.2l1.4,0.1l2.1-0.1l2.1,0.8l1.5,1.8l0.4,2.6l0.2,0.8l2.1,1.3l2.1-0.6l2.1,0.5l0.9,0.6
	l1.1,1.1l2.1,0.3l2.1-0.2l2.1-0.4l2.1-0.2l2.1,0l2.1,0l2.1,0.5l2.1,0.4l2.1-0.3l2-1.2l-2-2l-0.7-0.6l-1.4-0.6l-1.9-2l-0.1-0.1
	l-2.1-0.7l-2.1-0.8l-2.1-0.6l-2.1-0.2l-1.6-0.3l-0.5-0.1l-2.1-0.9l-2.1-1.4l-0.2-0.2l0.2-0.9l0.3-1.7l1.3-2.6l0.4-0.6l1.2-2l0-2.6
	l-0.8-2.6l-0.3-0.6L142,57l-2.1,1.5l-0.3,0.3l-1.7,1.5l-2.1-0.6l-0.4-0.9l-1.3-2.6l-0.3-0.3l-2.1-0.6l-2.1-1.3L129.2,53.5z"/>
<path class="st0" d="M90.6,45.7l-2-1.2l-2,1.2l-0.1,0.4l-2.1,0l-2.1,0.5l-1,1.7l0.9,2.6l0.1,0.1l0.1-0.1l1.9-1l2.1-1.4l2.1,0.4
	l1.1-0.6L90.6,45.7z"/>
<path class="st0" d="M112,43.1l-0.8-0.7l-1.1,0.7l1.1,1L112,43.1z"/>
<path class="st0" d="M155.9,40.5l-1.6-0.8l-2.1,0.2l-1.3,0.6l-0.8,0.9l-1.1,1.7l0.7,2.6l0.4,1.1l0.5-1.1l1.5-1l2.1-1.4l0.3-0.2
	L155.9,40.5z"/>
<path class="st0" d="M180,73.8h-1l-2.1,0.1l-2.1,0.2l-2.1-2.3l-0.1-0.1l-2-0.3l-2.1,0.1l-2.1,0.1l-2.1,0l-2.1-0.1l-2.1-0.3l-2.1-0.2
	l-2.1,0.2l-2.1,0l-2.1-0.3l-2.1-0.9l-1-0.7l-0.4-2.6l0.8-2.6l-0.4-2.6l-1.1-2.1l-0.2-0.5l-0.6-2.6l0.5-2.6l0.3-0.1l2.1-0.3l2.1-0.5
	l2.1-0.6l2.1-0.2l2-0.9l-0.6-2.6l0.4-2.6l0.3-0.3l2.1-1.9l0.3-0.4l-0.3-1.2l-0.2-1.4l0-2.6l-1.8-1.3l-2.1-0.2l-2.1-1l-2.1,1
	l-2.1,0.8l-2.1,0.2l-1.3,0.3l-0.8,1l-0.4,1.6l-1.6,1.5l-1.9,1.1l-0.1,0.3l-0.7,2.3l0.7,1l2.1,1.1l0.9,0.5l-0.9,0.9l-1.3,1.7
	l-0.8,0.9l-1.7,1.7l-0.3,0.2l-2.1,0.2l-0.3-0.4l-1.8-1.1l-2.1-0.3l-2.1-0.4l-1-0.8l-1.1-1.1l-2.1-0.7l-2.1,0.2l-2.1,1.2l-0.3,0.4
	l-1.3,2.6l-0.1,2.6l0.7,2.6l-0.3,2.6l-0.7,0.7l-0.9-0.7l-1.1-0.7l-2.1-1l-1.3-0.9l-0.7-0.7l-2-1.9l0,0l-0.1,0l-2,1.2l-2.1,1
	l-2.1,0.4l0,0l-0.7,2.6l0.8,0.9l2.1-0.6l2.1,0.2l1.9,2.1l0.1,0.2l2.1,1.6l0.8,0.8l0.8,2.6l0.5,2.6l0,0l2.1,0.1l2.1,2.2l0.1,0.4
	l-0.1,0.5l-0.4,2.1l0.2,2.6l0.2,0.2l2.1,0.3l0.5-0.5l1.5-1.8l0.8-0.8l1.3-0.6l2.1,0.1l0.9,0.5l0.2,2.6l-0.1,2.6l1.1,2.1l0.5,0.5
	l1.5,1l2.1,0l1.4-1l0.6-0.3l0.7,0.3l1.4,1.4l0.9,1.2l1.2,0.9l2.1,0.6l2.1-0.4l2.1-0.9l2.1,2l0.2,0.4l1.9,2.3l0.8,0.3l1.2,0.3
	l1.5-0.3l0.5-0.2l2.1-0.9l2.1,0.6l0.9,0.4l1.2,0.5l2.1-0.3l2.1,0l2.1,0.6l2.1,1.3l2.1,0.1l1.5,0.5l0.5,0.3l1.3,2.3v1.3"/>
<path class="st0" d="M180,75h-1l-2.1,0.2l-2.1,0.3l-2.1,0.1l-2.1-0.2l-2.1-0.3l-1.7-0.8l-0.3-0.2l-2.1-0.8l-2.1-0.3l-2.1-0.4
	l-2.1-0.3l-2.1,0l-2.1-0.1l-2.1-0.2l-2.1-0.3l-0.9-0.2l-1.1-0.6l-1.5-2l0.5-2.6l0.9-2.2l0.1-0.4l-0.1-1.1l-0.2-1.5l-1-2.6l-0.9-2.6
	l-0.1-0.3l-1.8-2.3l1.8-1.4l2.1,0.2l2.1,0.1l2.1-0.4l2.1-0.7l1.8-0.3l0.2-0.4l0.2-2.2l0.3-2.6l1.5-1.7l0.9-0.9l0-2.6l-0.8-2.6
	l-0.1-0.1l-2.1-0.5l-2.1-0.9l-2.1,0.9l-1.7,0.7l-0.4,0.2l-2.1,0.9l-1.2,1.5l-0.9,0.9l-2.1,1.6l-0.2,0.1l-0.9,2.6l1.1,0.8l2.1,1.1
	l0.9,0.8l-0.9,1.6l-1.1,1l-1,2.1l-0.5,0.5l-1.6,0.3L140,55l-2.1,1l-1.7-2.5l-0.3-0.2l-2.1-0.4l-2.1-0.2l-2.1-1.8l-0.1,0l-1.9-0.8
	l-2.1,0l-1.3,0.8l-0.7,0.8l-0.9,1.8l0.3,2.6l0.3,2.6l0.1,2.6l-1.8,1.6l-2.1-1.5l-0.1-0.1l-1.9-1.1l-2.1-1.1l-0.3-0.4l-1.7-1.5
	l-2.1,1.1l-0.8,0.4l0.8,1l1.2,1.6l0.8,0.8l1.5,1.8l0.6,0.5l2.1,2l0.1,0.1l1.3,2.6l0.7,0.7l2.1,1.3l0.4,0.6l0.6,2.6L122,77l1.5,1.8
	l1.6-1.8l0.5-0.3l2.1-0.8l2.1,0l2,1l-0.2,2.6l-0.1,2.6l0.4,0.7l2.1,1.8l2.1,0l2.1-1.1l2.1,1l0.2,0.2l1.8,2.4l0.9,0.2l1.2,0.3
	l2.1-0.3l0,0l2.1-1l2.1,0.5l0.5,0.5l1.1,2.6l0.5,0.6l2.1,0.7l2.1-0.6l1.9-0.7l0.2-0.1l0.3,0.1l1.7,0.3l2.1,1l2.1-0.1l2.1-0.1
	l2.1,0.4l2.1,0.9l0.3,0.1l1.8,0.6l2.1,0.6l1.6,1.4l0.5,0.8l2.1,0.5h1"/>
<path class="st0" d="M155.3,37.9l-1-0.4l-1.1,0.4l-0.9,0.3l-2.1,1.1l-1.5,1.2l-0.5,0.8l-1.8,1.8l-0.2,2.4l0,0.2l0,0l2.1,1.6l0.6,1
	l-0.2,2.6l1.7,0.4l2.1-0.4l0.1,0l1.8-2.6l0.1-0.7l0.3-1.9l1.7-1.2l1.2-1.4l0.7-2.6l-1.9-1.9L155.3,37.9z"/>
<path class="st0" d="M180,66.5h-1l-2.1-0.3l-2.1-0.3l-1.9,0.7l-0.1,0.1l-2.1,1.5l-2.1,0.6l-2.1,0.3l-2.1-0.1l-2.1-0.9l-2.1-1.1
	l-1.4-0.4l-0.7-0.7l-0.6-1.9l-1.4-2.1l-0.6-0.5l-1.4-1.2l-1.7-1.4l0.5-2.6l1.2-0.8l2.1-0.5l2.1-0.9l0.7-0.4l1.3-0.3l2.1-0.2l2.1-1.1
	l1.1-0.9l-1.1-0.7l-2.1-1.2l-1-0.8l0.8-2.6l0.2-0.3l1.6-2.3l-1.6-1.9l-0.3-0.7l-0.4-2.6l-0.7-2.6l-0.7-1.3l-2.1-0.2l-2.1,0.3
	l-2.1-1.2l-2.1,1.5l-1.1,0.8l-0.9,0.4l-2.1-0.1l-2.1-0.1l-1.8,2.5l-0.2,0.7l-2.1,1.7l-2.1,0.2l-0.1,0.1l-0.6,2.6l-0.8,2.6l0,2.6
	l-0.5,2.3l-2.1-0.1l-2.1-0.3l-2.1-1.4l-0.5-0.4l-1.5-1.8l-1.6-0.8l-0.5-0.1l-0.2,0.1l-1.8,1.3l-1.4,1.3l-0.6,0.3l-1.8,2.3l-0.2,0.4
	l-1.5,2.2l-0.3,2.6l0,2.6l-0.3,0.1l-0.3-0.1l-1.8-0.8l-2-1.8l-0.1-0.1l-2.1-1.5l-2.1,0.8l-1.6,0.8l-0.5,0.3l-2.1,0.5l-2.1,0.9
	l-0.8,0.9l-0.3,2.6l-0.1,2.6l1.2,2.1l2.1,0.2l2.1-2.2l2.1,0.7l1.3,1.8l0.8,1.8l0.4,0.8l-0.4,0.9l-0.7,1.7l0.4,2.6l0.3,0.4l2.1,0.5
	l2-0.9l0.1,0l0.7,0l1.4,2.6l-0.4,2.6l0.4,0.7l2.1,1.8l0.5,0.1l1.5,0.4l1-0.4l1.1-0.8l1.1-1.8l1-1l1,1l0,2.6l0.9,2.6l0.2,0.2l2.1,2.3
	l0.3,0.2l1.7,0.8l2.1,0.1l2.1,0l2.1,1.7l0.1,0.1l1.9,0.9l2.1,1l2.1-0.5l2.1,0.5l0.3,0.8l1.8,1.8l2,0.8l0.1,0l2.1,0.7l2.1,0.1
	l2.1-0.6l2.1,0.2l2.1,1l2.1,0.2l2.1,0.6l1.3,0.4v1.3"/>
<path class="st0" d="M180,69.2h-1l-2.1-1.5l-2.1-0.9l-2.1,0.9l-2.1,1.4l-0.3,0.1l-1.8,0.5l-2.1,0.2l-2.1,0l-2.1-0.4l-1.1-0.3l-1-0.5
	l-2.1-0.3l-2.1-0.2l-2.1-0.7l-1.4-1l1.4-1.1l1.3-1.5l-1.3-0.9l-2.1-0.8l-0.4-0.8l-1.6-2.6l-0.1-2.6l2-1.6l1.4-1l0.7-0.1l2.1-0.1
	l2.1-0.5l2.1-0.7l2.1-0.5l1.2-0.7l-1.2-0.6l-2.1-1.3l-0.4-0.7l0.4-1.2l0.5-1.4l1.5-2.1l0.4-0.5l-0.4-0.4l-0.9-2.2l-0.2-2.6l-0.7-2.6
	l-0.2-0.5l-2.1-0.1l-2.1,0.3l-2.1-1.3l-2,1.5l-0.1,0l-2.1,0.9l-2.1,0l-2.1,0.1l-1.2,1.6l-0.9,2.6l0,0l-2,0.6l-2,2l-0.1,0.2l-0.7,2.4
	l0.2,2.6l0.5,2.2l0.1,0.4l-0.1,0.1l-2.1,0.7l-2.1-0.6l-2.1-0.2l-0.1,0l-2-1l-1.8-1.6l-0.2-0.2l-2.1-1.1l-2.1,1.1l-0.3,0.3l-1.7,0.9
	l-1.3,1.7l-0.7,1.3l-0.9,1.3l-0.3,2.6l1,2.6l-1.9,0.7l-1.8-0.7l-0.2-0.1l-2.1-2l-0.6-0.5l-1.5-1.1l-2.1,0.8l-0.6,0.3l-1.5,0.9
	l-2.1,0.5l-2.1,1l-0.2,0.2l-0.3,2.6l0.4,2.6l0.2,0.3l2.1,0.7l1-1.1l1.1-0.7l2.1,0.5l0.2,0.2l1.8,2.6l0.1,0.2l1.3,2.4l-1.1,2.6
	l1.6,2.6l0.3,0.1l0.2-0.1l1.9-0.8l2.1,0.1l0.7,0.8l-0.1,2.6l-0.2,2.6l1.8,1.8l2.1,0.4l2.1-2.1l0.1-0.1l2-2l2,2l-0.2,2.6l0.3,0.8
	l0.7,1.8l1.3,1.5l2,1.1l0.1,0l2.1,0.1l0.9-0.1l1.2-0.3l0.3,0.3l1.7,1.4l2.1,1l0.4,0.2l1.6,0.9l2.1-0.6L147,90l1.2-0.3l0.3,0.3
	l0.9,2.6l0.8,0.8l2.1,0.9l2.1,0.6l2.1,0l2.1-0.8l2.1,0.4l1.5,0.6l0.6,0.3l2.1-0.3l2.1,0.4l2.1,0.9l2.1,1.1l1.2,0.2v1.3"/>
<path class="st0" d="M180,72.8h-1l-2.1-0.2l-1.4-0.8l1.2-2.6l-1.8-1.1l-2.1,0.7l-0.7,0.4l-1.4,0.9l-2.1,0.4l-2.1,0.1l-2.1,0
	l-2.1-0.2l-2.1-0.5l-2.1-0.1l-2.1,0.1l-2.1-0.1l-2.1-0.5l-0.3-0.1l-1.3-2.6l0.7-2.6l-1-2.6l-0.2-0.3l-1-2.3l-0.6-2.6l1.6-1.8l1-0.8
	l1.1-0.3l2.1-0.5l2.1-0.1l2.1-0.7l2.1-0.9l0.4-0.1l-0.4-0.2l-1.5-2.4l0.8-2.6l0.8-0.7l1.4-1.9l-0.9-2.6l-0.1-2.6l-0.5-1.8l-2.1-0.5
	l-2.1,0.1l-0.9-0.4l-1.2-0.8l-1,0.8l-1.1,0.5l-2.1,0.8l-2.1,0.1l-2.1,0.4l-0.6,0.8l-0.8,2.6l-0.7,0.6l-2.1,0.9l-1.1,1.1l-0.9,2.6
	l1.4,2.6l-0.3,2.6l-1.3,1.3l-2.1,0.4l-2.1-0.9l-2.1-0.3l-2.1-0.5l0,0l-2-2l-2.1-0.6l-2.1,0.4l-2.1,1.1l-0.9,1.1l-1.2,2.2l-0.3,0.4
	l-0.3,2.6l0.6,1.3l0.4,1.3l-0.4,2l-2.1-0.8l-2.1-0.9l-0.5-0.3l-1.5-1.5l-1.2-1.1l-0.8-0.6l-1.6,0.6l-0.5,0.3l-2.1,1.2l-2.1,0.4
	l-1.4,0.7l-0.7,2.6l2,2.5l2.1-1.3l2.1,0.4l1,1l1.1,1.6l1.4,1l0.7,2.6l-0.9,2.6l0.9,1.4l2.1-0.4l2.1,0.1l1.3,1.5l-0.3,2.6l0,2.6
	l1.1,1.1l2.1,0.4l1.4-1.5l0.6-0.7l1.8-1.9l0.3-0.1l2.1,0.1l0,0l0.4,2.6l-0.2,2.6l1.2,2.6l0.6,0.7l2.1,1.2l2.1,0.1l2.1-1.1l1.6,1.7
	l0.5,0.4l2.1,1.4l2.1,0.7l2.1-0.5l2.1-0.7l1.1,1.2l0.9,2.5l0.1,0.1l2,0.9l2.1,0.6l2.1-0.2l2.1-0.9l2.1,0.5l2.1,0.9l2.1-0.3l2.1,0.1
	l2.1,0.8l0.2,0.1l1.9,1.1l2.1,0.1l1.7,1.4v1.3"/>
<path class="st0" d="M180,64.6h-1l-2.1-0.1l-2.1-0.1l-2.1,0.4l-2.1,1.5l-0.7,0.2l-1.4,0.3l-2.1-0.1l-1.8-0.3l-0.3-0.2l-2.1-1.9
	l-1-0.6l-1.1-0.6l-1.7-2l-0.3-2l-0.1-0.7l0.1-0.2l2.1-1.1l1.3-1.3l0.7-0.4l2.1-1.1l0.8-1.1l1.2-1.1l2.1-0.9l2.1-0.1l0.8-0.5l0.4-2.6
	l-1.2-0.1l-0.1,0.1l-1.9,2l-2.1-0.6l-2.1-1.2l-0.2-0.1l-0.1-2.6l0.3-0.4l2.1-1.9l0.2-0.3l-0.2-0.3l-2.1-1.5l-0.7-0.9l-1.2-2.6
	l-0.1-0.3l-0.7-2.3l-1.3-2.6l0-0.1l-2.1-0.3l-2.1,0.3l-2.1-1.1l-1.5,1.1l-0.5,0.4l-2.1,1.4l-2.1-0.2l-2.1-0.1l-2.1,0.8l-0.3,0.3
	l-0.8,2.6l-0.9,0.9L140,39l-1.5,1.5l-0.5,2.6l-0.1,0.2l-0.7,2.4l-0.3,2.6l-1,0.9l-2.1-0.4l-0.7-0.5l-1.3-2.6l0,0l-2-1l-2.1-0.4
	l-2.1,1l-0.4,0.4l-1.7,1.6l-1,1l-1,1.3l-0.7,1.3l-1.3,2l-0.5,0.6l-0.6,2.6l-1,0.8l-0.8-0.8l-1.2-1.3l-2.1-1.2l-2.1,0.7l-2.1,1
	l-2.1,0.6l-0.4,0.2l-1.7,0.7l-1.8,1.9l-0.2,2.4l0,0.2l-2,2.5l-0.1,0.1l-1.3,2.6l1.4,0.7L103,67l2.1,0.6l2.1,0l1.1-1l0.9-1l2.1,0.9
	l0.1,0.1l1.2,2.6l-1.1,2.6l0.3,2.6l1.6,2.6l0.1,0.1l0.3-0.1l1.7-0.3l2.1-0.8l0.9,1.2l-0.2,2.6l1.4,2.5l0.1,0.1l1.9,1.3l2.1,0.5
	l2.1,0.3l0.9,0.5l1.1,0.8l2.1,1.7l0.1,0.2l1.9,1.2l2.1,0.7l2.1,0.1l1.9,0.5l0.1,0l2.1,1.5l1.9,1.1l0.1,0.1l2.1,0.8l2.1-0.1l1.9,1.9
	l0.1,0.1l2.1,0.6l2.1,1l2.1,0.6l2.1,0l2.1-0.6l2.1,0.2l1.2,0.7v1.3"/>
<path class="st0" d="M180,64.6h-1l-2.1-0.1l-2.1-0.1l-2.1,0.4l-2.1,1.5l-0.7,0.2l-1.4,0.3l-2.1-0.1l-1.8-0.3l-0.3-0.2l-2.1-1.9
	l-1-0.6l-1.1-0.6l-1.7-2l-0.3-2l-0.1-0.7l0.1-0.2l2.1-1.1l1.3-1.3l0.7-0.4l2.1-1.1l0.8-1.1l1.2-1.1l2.1-0.9l2.1-0.1l0.8-0.5l0.4-2.6
	l-1.2-0.1l-0.1,0.1l-1.9,2l-2.1-0.6l-2.1-1.2l-0.2-0.1l-0.1-2.6l0.3-0.4l2.1-1.9l0.2-0.3l-0.2-0.3l-2.1-1.5l-0.7-0.9l-1.2-2.6
	l-0.1-0.3l-0.7-2.3l-1.3-2.6l0-0.1l-2.1-0.3l-2.1,0.3l-2.1-1.1l-1.5,1.1l-0.5,0.4l-2.1,1.4l-2.1-0.2l-2.1-0.1l-2.1,0.8l-0.3,0.3
	l-0.8,2.6l-0.9,0.9L140,39l-1.5,1.5l-0.5,2.6l-0.1,0.2l-0.7,2.4l-0.3,2.6l-1,0.9l-2.1-0.4l-0.7-0.5l-1.3-2.6l0,0l-2-1l-2.1-0.4
	l-2.1,1l-0.4,0.4l-1.7,1.6l-1,1l-1,1.3l-0.7,1.3l-1.3,2l-0.5,0.6l-0.6,2.6l-1,0.8l-0.8-0.8l-1.2-1.3l-2.1-1.2l-2.1,0.7l-2.1,1
	l-2.1,0.6l-0.4,0.2l-1.7,0.7l-1.8,1.9l-0.2,2.4l0,0.2l-2,2.5l-0.1,0.1l-1.3,2.6l1.4,0.7L103,67l2.1,0.6l2.1,0l1.1-1l0.9-1l2.1,0.9
	l0.1,0.1l1.2,2.6l-1.1,2.6l0.3,2.6l1.6,2.6l0.1,0.1l0.3-0.1l1.7-0.3l2.1-0.8l0.9,1.2l-0.2,2.6l1.4,2.5l0.1,0.1l1.9,1.3l2.1,0.5
	l2.1,0.3l0.9,0.5l1.1,0.8l2.1,1.7l0.1,0.2l1.9,1.2l2.1,0.7l2.1,0.1l1.9,0.5l0.1,0l2.1,1.5l1.9,1.1l0.1,0.1l2.1,0.8l2.1-0.1l1.9,1.9
	l0.1,0.1l2.1,0.6l2.1,1l2.1,0.6l2.1,0l2.1-0.6l2.1,0.2l1.2,0.7v1.3"/>
<path class="st0" d="M180,65.5h-1l-2.1-0.2l-2.1-0.2l-2.1,0.6l-1.2,0.9l-0.9,0.6l-2.1,0.5l-2.1,0.1l-2.1-0.2l-2.1-1l0,0l-2.1-1.5
	l-1-1.1l-1.1-1.2l-0.9-1.4l-1.1-2.3l-0.4-0.4l0.4-0.8l1.4-1.8l0.7-0.2l2.1-0.8l2.1-0.7l1.4-0.8l0.7-0.3l2.1-1.8l1.3-0.5l-1.3-0.4
	l-2.1-1.2l-1.5-1l0.4-2.6l1.2-1.7l1.1-0.9l-1.1-0.8l-1.6-1.8l-0.5-1.1l-0.3-1.5l-0.7-2.6l-1.1-2l-2.1-0.2l-2.1,0.3l-1.2-0.6
	l-0.9-0.5l-0.6,0.5l-1.4,1l-2.1,1.4l-2.1-0.2l-2.1-0.2l-1.3,0.5l-0.8,1.1l-0.5,1.5l-1.6,1.6l-2.1,0.2l-0.8,0.9l-0.6,2.6l-0.7,1.9
	l-0.2,0.7l-0.1,2.6l-1.7,1.5l-2.1-0.3l-1.5-1.1l-0.5-1l-1.4-1.6l-0.6-0.3l-2.1-0.5l-1.5,0.8l-0.5,0.4l-2.1,1.9l-0.3,0.3l-1.7,2.1
	l-0.3,0.5l-1.8,2.6l0,0.2l-0.4,2.4l-1.6,1.2l-1.3-1.2l-0.7-0.7l-2.1-1.3l-2.1,0.7l-2.1,1l-0.9,0.3l-1.1,0.3l-2.1,0.9l-1.4,1.4
	l-0.3,2.6l-0.4,2.3l-0.3,0.3l-1.8,1.7l-0.5,0.9l0.5,0.2l1.5-0.2l0.5-1.4l0.3,1.4l1.7,0.5l2.1,0l0.5-0.5l1.5-1.7l2.1,0.8l0.6,0.9
	l1.1,2.6l-1.1,2.6l0.3,2.6l1,1.7l2.1,0l2.1-0.9l1.4,1.8l-0.3,2.6l0.9,1.7l1.1,0.9l1,0.6l2.1,0.5l2.1-0.4l1-0.7l0.9-2.6l0.1-0.1
	l0.1,0.1l0.2,2.6l0.3,2.6l1.5,1.4l1.1,1.2l0.9,0.6l2.1,0.8l2.1,0.1l2.1,0.3l0.9,0.8l1.1,0.8l2.1,1.1l1.6,0.7l0.4,0.2l0.8-0.2
	l1.3-0.3l0.6,0.3l1.4,1.3l2.1,1.3l0,0l2,1l2.1,0.6l2.1,0l2.1-0.6l2.1,0.2l2.1,1.1l1.2,0.3v1.3"/>
<path class="st0" d="M180,14.6h-1l-2.1,1l-2,1.5l0,0l-2.1,1.3l-1.5,1.3l-0.5,0.3l-2.1,1.5l-0.8,0.8l-0.6,2.6l0.6,2.6l0.5,2.6
	l0.3,0.6l2.1,0.2l1.2,1.8l0.9,2.6l0,0.1l1.9,2.6l-0.7,2.6l0.7,2.6l0,0l2.1,2l1.1,0.6l0.9,0.7h1"/>
<path class="st0" d="M180,13.7h-1l-1.3,0.8l-0.7,0.3l-2.1,1.4l-1.7,0.9l-0.3,0.2l-2.1,1.8l-0.7,0.6l-1.4,1l-1.6,1.6l-0.4,2.6
	l0.8,2.6l0.5,2.6l0.7,1.6l2.1,0.4l0.4,0.6l0.8,2.6l0.9,0.9l1.2,1.7l-0.4,2.6l0.7,2.6l0.5,0.6l2,2l0.1,0.2l2.1,1.5h1"/>
<path class="st0" d="M180,13.7h-1l-1.3,0.8l-0.7,0.3l-2.1,1.4l-1.7,0.9l-0.3,0.2l-2.1,1.8l-0.7,0.6l-1.4,1l-1.6,1.6l-0.4,2.6
	l0.8,2.6l0.5,2.6l0.7,1.6l2.1,0.4l0.4,0.6l0.8,2.6l0.9,0.9l1.2,1.7l-0.4,2.6l0.7,2.6l0.5,0.6l2,2l0.1,0.2l2.1,1.5h1"/>
<path class="st1" d="M180,3.8h-1l-2.1-1.1l-2-1.2l-0.1,0l0,0l-2,2.2l-0.4,0.4l-1.3,2.6l-0.4,1.4l-2.1,1l-0.2,0.2l-1.9,1.5l-1.2,1.1
	l-0.8,1.9l-0.2,0.7l-1.1,2.6l-0.7,0.5l-1.6,2.2l-0.2,2.6l1.8,1.8l0.7,0.8l1.4,1.7l0.4,0.9l0.5,2.6l0.6,2.6l-0.4,2.6l-1.2,1l-0.4-1
	l-1.3-2.6l-0.4-0.9l-0.6-1.7l-1.4-1.5l-2.1,0l-2.1,0.2l-2.1-0.6l-2.1,0.8l-1.6,1l-0.5,0.3l-2.1,0l-1.8-0.4l-0.2-0.1l-0.3,0.1
	l-1.8,0.3l-2.1,1.3L140,32l-1.5,0.7l-0.6,0.6l-1.3,2l-0.8,0.9l-0.8,1.7l-0.4,2.6l-0.8,0.7l-2.1-0.6l-0.5-0.1l-1.6-1l-1.8-1.6
	l-0.3-0.1l-2.1-1.3l-2.1-0.4l-2.1,0.2l-2.1-0.8l-2.1,1.1l-2.1-0.1l-1.6-1.2l-0.5-0.2l-0.4,0.2l0.3,2.6l0.2,0.3l1.6,2.3l0.5,0.9
	l0.9,1.7l1.1,2.5l0.2,0.1l0.1,2.6l-0.3,2.3l-0.1,0.3l-2,0.5l-2.1-0.1l-2.1,0.3l-2.1,0.5l-2.1,0.4l-2.1,0.8l-0.2,0.2l-1.8,1.2
	l-1.4,1.4l-0.7,0.5l-2.1,1L98,58.7l-0.3,2.6l-0.8,2.5l0,0.1l-0.2,2.6l0.2,0.3l2.1,2.2l0.4,0.1L101,70l2.1,0l2.1,0.9l2.1,0.8l0.1,0.1
	l1,2.6l1,2.5l0,0.1l1.5,2.6l0.5,0.4l2.1,1.1l2.1,1.1l0,0l2,1.9l0.9,0.7l1.1,1.6l1,1l1.1,1.9l1.1,0.7l0.9,0.6l2.1,0.5l2.1,0.2
	l2.1,0.5l2.1,0.5l0.6,0.2l1.5,1.2l2.1,0.9l2.1,0.2l0.7,0.4L140,96l2.1,1.3l2.1,0.4l0.1,0v1.3"/>
</svg>
